<?xml version="1.0" encoding="utf-8" standalone="no"?>
<!DOCTYPE svg PUBLIC "-//W3C//DTD SVG 1.1//EN"
  "http://www.w3.org/Graphics/SVG/1.1/DTD/svg11.dtd">
<svg xmlns:xlink="http://www.w3.org/1999/xlink" width="725.04pt" height="365.117813pt" viewBox="0 0 725.04 365.117813" xmlns="http://www.w3.org/2000/svg" version="1.1">
 <metadata>
  <rdf:RDF xmlns:dc="http://purl.org/dc/elements/1.1/" xmlns:cc="http://creativecommons.org/ns#" xmlns:rdf="http://www.w3.org/1999/02/22-rdf-syntax-ns#">
   <cc:Work>
    <dc:type rdf:resource="http://purl.org/dc/dcmitype/StillImage"/>
    <dc:date>2026-01-03T21:02:11.295277</dc:date>
    <dc:format>image/svg+xml</dc:format>
    <dc:creator>
     <cc:Agent>
      <dc:title>Matplotlib v3.10.8, https://matplotlib.org/</dc:title>
     </cc:Agent>
    </dc:creator>
   </cc:Work>
  </rdf:RDF>
 </metadata>
 <defs>
  <style type="text/css">*{stroke-linejoin: round; stroke-linecap: butt}</style>
 </defs>
 <g id="figure_1">
  <g id="patch_1">
   <path d="M 0 365.117813 
L 725.04 365.117813 
L 725.04 0 
L 0 0 
z
" style="fill: #ffffff"/>
  </g>
  <g id="axes_1">
   <g id="patch_2">
    <path d="M 31.806 255.957013 
L 136.242 255.957013 
Q 150.1668 255.957013 150.1668 243.729813 
L 150.1668 152.025813 
Q 150.1668 139.798613 136.242 139.798613 
L 31.806 139.798613 
Q 17.8812 139.798613 17.8812 152.025813 
L 17.8812 243.729813 
Q 17.8812 255.957013 31.806 255.957013 
z
" clip-path="url(#pfee039374e)" style="fill: #22c55e; opacity: 0.2; stroke: #22c55e; stroke-width: 2; stroke-linejoin: miter"/>
   </g>
   <g id="patch_3">
    <path d="M 31.806 255.957013 
L 136.242 255.957013 
Q 150.1668 255.957013 150.1668 243.729813 
L 150.1668 152.025813 
Q 150.1668 139.798613 136.242 139.798613 
L 31.806 139.798613 
Q 17.8812 139.798613 17.8812 152.025813 
L 17.8812 243.729813 
Q 17.8812 255.957013 31.806 255.957013 
L 31.806 255.957013 
z
" clip-path="url(#pfee039374e)" style="fill: none; stroke: #22c55e; stroke-width: 2.5; stroke-linejoin: miter"/>
   </g>
   <g id="patch_4">
    <path d="M 205.866 255.957013 
L 310.302 255.957013 
Q 324.2268 255.957013 324.2268 243.729813 
L 324.2268 152.025813 
Q 324.2268 139.798613 310.302 139.798613 
L 205.866 139.798613 
Q 191.9412 139.798613 191.9412 152.025813 
L 191.9412 243.729813 
Q 191.9412 255.957013 205.866 255.957013 
z
" clip-path="url(#pfee039374e)" style="fill: #22c55e; opacity: 0.2; stroke: #22c55e; stroke-width: 2; stroke-linejoin: miter"/>
   </g>
   <g id="patch_5">
    <path d="M 205.866 255.957013 
L 310.302 255.957013 
Q 324.2268 255.957013 324.2268 243.729813 
L 324.2268 152.025813 
Q 324.2268 139.798613 310.302 139.798613 
L 205.866 139.798613 
Q 191.9412 139.798613 191.9412 152.025813 
L 191.9412 243.729813 
Q 191.9412 255.957013 205.866 255.957013 
L 205.866 255.957013 
z
" clip-path="url(#pfee039374e)" style="fill: none; stroke: #22c55e; stroke-width: 2.5; stroke-linejoin: miter"/>
   </g>
   <g id="patch_6">
    <path d="M 379.926 255.957013 
L 484.362 255.957013 
Q 498.2868 255.957013 498.2868 243.729813 
L 498.2868 152.025813 
Q 498.2868 139.798613 484.362 139.798613 
L 379.926 139.798613 
Q 366.0012 139.798613 366.0012 152.025813 
L 366.0012 243.729813 
Q 366.0012 255.957013 379.926 255.957013 
z
" clip-path="url(#pfee039374e)" style="fill: #f97316; opacity: 0.2; stroke: #f97316; stroke-width: 2; stroke-linejoin: miter"/>
   </g>
   <g id="patch_7">
    <path d="M 379.926 255.957013 
L 484.362 255.957013 
Q 498.2868 255.957013 498.2868 243.729813 
L 498.2868 152.025813 
Q 498.2868 139.798613 484.362 139.798613 
L 379.926 139.798613 
Q 366.0012 139.798613 366.0012 152.025813 
L 366.0012 243.729813 
Q 366.0012 255.957013 379.926 255.957013 
L 379.926 255.957013 
z
" clip-path="url(#pfee039374e)" style="fill: none; stroke: #f97316; stroke-width: 2.5; stroke-linejoin: miter"/>
   </g>
   <g id="patch_8">
    <path d="M 553.986 255.957013 
L 658.422 255.957013 
Q 672.3468 255.957013 672.3468 243.729813 
L 672.3468 152.025813 
Q 672.3468 139.798613 658.422 139.798613 
L 553.986 139.798613 
Q 540.0612 139.798613 540.0612 152.025813 
L 540.0612 243.729813 
Q 540.0612 255.957013 553.986 255.957013 
z
" clip-path="url(#pfee039374e)" style="fill: #3b82f6; opacity: 0.3; stroke: #3b82f6; stroke-width: 2; stroke-linejoin: miter"/>
   </g>
   <g id="patch_9">
    <path d="M 553.986 255.957013 
L 658.422 255.957013 
Q 672.3468 255.957013 672.3468 243.729813 
L 672.3468 152.025813 
Q 672.3468 139.798613 658.422 139.798613 
L 553.986 139.798613 
Q 540.0612 139.798613 540.0612 152.025813 
L 540.0612 243.729813 
Q 540.0612 255.957013 553.986 255.957013 
L 553.986 255.957013 
z
" clip-path="url(#pfee039374e)" style="fill: none; stroke: #3b82f6; stroke-width: 2.5; stroke-linejoin: miter"/>
   </g>
   <g id="patch_10">
    <path d="M 97.9488 101.282933 
C 100.16454 101.282933 102.289827 100.509932 103.856592 99.134174 
C 105.423357 97.758417 106.30368 95.892227 106.30368 93.946613 
C 106.30368 92.000998 105.423357 90.134808 103.856592 88.759051 
C 102.289827 87.383293 100.16454 86.610293 97.9488 86.610293 
C 95.73306 86.610293 93.607773 87.383293 92.041008 88.759051 
C 90.474243 90.134808 89.59392 92.000998 89.59392 93.946613 
C 89.59392 95.892227 90.474243 97.758417 92.041008 99.134174 
C 93.607773 100.509932 95.73306 101.282933 97.9488 101.282933 
z
" clip-path="url(#pfee039374e)" style="fill: #22c55e; stroke: #22c55e; stroke-linejoin: miter"/>
   </g>
   <g id="patch_11">
    <path d="M 341.6328 101.282933 
C 343.84854 101.282933 345.973827 100.509932 347.540592 99.134174 
C 349.107357 97.758417 349.98768 95.892227 349.98768 93.946613 
C 349.98768 92.000998 349.107357 90.134808 347.540592 88.759051 
C 345.973827 87.383293 343.84854 86.610293 341.6328 86.610293 
C 339.41706 86.610293 337.291773 87.383293 335.725008 88.759051 
C 334.158243 90.134808 333.27792 92.000998 333.27792 93.946613 
C 333.27792 95.892227 334.158243 97.758417 335.725008 99.134174 
C 337.291773 100.509932 339.41706 101.282933 341.6328 101.282933 
z
" clip-path="url(#pfee039374e)" style="fill: #f97316; stroke: #f97316; stroke-linejoin: miter"/>
   </g>
   <g id="patch_12">
    <path d="M 585.3168 101.282933 
C 587.53254 101.282933 589.657827 100.509932 591.224592 99.134174 
C 592.791357 97.758417 593.67168 95.892227 593.67168 93.946613 
C 593.67168 92.000998 592.791357 90.134808 591.224592 88.759051 
C 589.657827 87.383293 587.53254 86.610293 585.3168 86.610293 
C 583.10106 86.610293 580.975773 87.383293 579.409008 88.759051 
C 577.842243 90.134808 576.96192 92.000998 576.96192 93.946613 
C 576.96192 95.892227 577.842243 97.758417 579.409008 99.134174 
C 580.975773 100.509932 583.10106 101.282933 585.3168 101.282933 
z
" clip-path="url(#pfee039374e)" style="fill: #ef4444; stroke: #ef4444; stroke-linejoin: miter"/>
   </g>
   <g id="text_1">
    <!-- Step 1: -->
    <g style="fill: #262626" transform="translate(66.184156 188.924681) scale(0.1 -0.1)">
     <defs>
      <path id="DejaVuSans-53" d="M 3425 4513 
L 3425 3897 
Q 3066 4069 2747 4153 
Q 2428 4238 2131 4238 
Q 1616 4238 1336 4038 
Q 1056 3838 1056 3469 
Q 1056 3159 1242 3001 
Q 1428 2844 1947 2747 
L 2328 2669 
Q 3034 2534 3370 2195 
Q 3706 1856 3706 1288 
Q 3706 609 3251 259 
Q 2797 -91 1919 -91 
Q 1588 -91 1214 -16 
Q 841 59 441 206 
L 441 856 
Q 825 641 1194 531 
Q 1563 422 1919 422 
Q 2459 422 2753 634 
Q 3047 847 3047 1241 
Q 3047 1584 2836 1778 
Q 2625 1972 2144 2069 
L 1759 2144 
Q 1053 2284 737 2584 
Q 422 2884 422 3419 
Q 422 4038 858 4394 
Q 1294 4750 2059 4750 
Q 2388 4750 2728 4690 
Q 3069 4631 3425 4513 
z
" transform="scale(0.015625)"/>
      <path id="DejaVuSans-74" d="M 1172 4494 
L 1172 3500 
L 2356 3500 
L 2356 3053 
L 1172 3053 
L 1172 1153 
Q 1172 725 1289 603 
Q 1406 481 1766 481 
L 2356 481 
L 2356 0 
L 1766 0 
Q 1100 0 847 248 
Q 594 497 594 1153 
L 594 3053 
L 172 3053 
L 172 3500 
L 594 3500 
L 594 4494 
L 1172 4494 
z
" transform="scale(0.015625)"/>
      <path id="DejaVuSans-65" d="M 3597 1894 
L 3597 1613 
L 953 1613 
Q 991 1019 1311 708 
Q 1631 397 2203 397 
Q 2534 397 2845 478 
Q 3156 559 3463 722 
L 3463 178 
Q 3153 47 2828 -22 
Q 2503 -91 2169 -91 
Q 1331 -91 842 396 
Q 353 884 353 1716 
Q 353 2575 817 3079 
Q 1281 3584 2069 3584 
Q 2775 3584 3186 3129 
Q 3597 2675 3597 1894 
z
M 3022 2063 
Q 3016 2534 2758 2815 
Q 2500 3097 2075 3097 
Q 1594 3097 1305 2825 
Q 1016 2553 972 2059 
L 3022 2063 
z
" transform="scale(0.015625)"/>
      <path id="DejaVuSans-70" d="M 1159 525 
L 1159 -1331 
L 581 -1331 
L 581 3500 
L 1159 3500 
L 1159 2969 
Q 1341 3281 1617 3432 
Q 1894 3584 2278 3584 
Q 2916 3584 3314 3078 
Q 3713 2572 3713 1747 
Q 3713 922 3314 415 
Q 2916 -91 2278 -91 
Q 1894 -91 1617 61 
Q 1341 213 1159 525 
z
M 3116 1747 
Q 3116 2381 2855 2742 
Q 2594 3103 2138 3103 
Q 1681 3103 1420 2742 
Q 1159 2381 1159 1747 
Q 1159 1113 1420 752 
Q 1681 391 2138 391 
Q 2594 391 2855 752 
Q 3116 1113 3116 1747 
z
" transform="scale(0.015625)"/>
      <path id="DejaVuSans-20" transform="scale(0.015625)"/>
      <path id="DejaVuSans-31" d="M 794 531 
L 1825 531 
L 1825 4091 
L 703 3866 
L 703 4441 
L 1819 4666 
L 2450 4666 
L 2450 531 
L 3481 531 
L 3481 0 
L 794 0 
L 794 531 
z
" transform="scale(0.015625)"/>
      <path id="DejaVuSans-3a" d="M 750 794 
L 1409 794 
L 1409 0 
L 750 0 
L 750 794 
z
M 750 3309 
L 1409 3309 
L 1409 2516 
L 750 2516 
L 750 3309 
z
" transform="scale(0.015625)"/>
     </defs>
     <use xlink:href="#DejaVuSans-53"/>
     <use xlink:href="#DejaVuSans-74" transform="translate(63.476562 0)"/>
     <use xlink:href="#DejaVuSans-65" transform="translate(102.685547 0)"/>
     <use xlink:href="#DejaVuSans-70" transform="translate(164.208984 0)"/>
     <use xlink:href="#DejaVuSans-20" transform="translate(227.685547 0)"/>
     <use xlink:href="#DejaVuSans-31" transform="translate(259.472656 0)"/>
     <use xlink:href="#DejaVuSans-3a" transform="translate(323.095703 0)"/>
    </g>
    <!-- Parse problem -->
    <g style="fill: #262626" transform="translate(48.157594 200.122494) scale(0.1 -0.1)">
     <defs>
      <path id="DejaVuSans-50" d="M 1259 4147 
L 1259 2394 
L 2053 2394 
Q 2494 2394 2734 2622 
Q 2975 2850 2975 3272 
Q 2975 3691 2734 3919 
Q 2494 4147 2053 4147 
L 1259 4147 
z
M 628 4666 
L 2053 4666 
Q 2838 4666 3239 4311 
Q 3641 3956 3641 3272 
Q 3641 2581 3239 2228 
Q 2838 1875 2053 1875 
L 1259 1875 
L 1259 0 
L 628 0 
L 628 4666 
z
" transform="scale(0.015625)"/>
      <path id="DejaVuSans-61" d="M 2194 1759 
Q 1497 1759 1228 1600 
Q 959 1441 959 1056 
Q 959 750 1161 570 
Q 1363 391 1709 391 
Q 2188 391 2477 730 
Q 2766 1069 2766 1631 
L 2766 1759 
L 2194 1759 
z
M 3341 1997 
L 3341 0 
L 2766 0 
L 2766 531 
Q 2569 213 2275 61 
Q 1981 -91 1556 -91 
Q 1019 -91 701 211 
Q 384 513 384 1019 
Q 384 1609 779 1909 
Q 1175 2209 1959 2209 
L 2766 2209 
L 2766 2266 
Q 2766 2663 2505 2880 
Q 2244 3097 1772 3097 
Q 1472 3097 1187 3025 
Q 903 2953 641 2809 
L 641 3341 
Q 956 3463 1253 3523 
Q 1550 3584 1831 3584 
Q 2591 3584 2966 3190 
Q 3341 2797 3341 1997 
z
" transform="scale(0.015625)"/>
      <path id="DejaVuSans-72" d="M 2631 2963 
Q 2534 3019 2420 3045 
Q 2306 3072 2169 3072 
Q 1681 3072 1420 2755 
Q 1159 2438 1159 1844 
L 1159 0 
L 581 0 
L 581 3500 
L 1159 3500 
L 1159 2956 
Q 1341 3275 1631 3429 
Q 1922 3584 2338 3584 
Q 2397 3584 2469 3576 
Q 2541 3569 2628 3553 
L 2631 2963 
z
" transform="scale(0.015625)"/>
      <path id="DejaVuSans-73" d="M 2834 3397 
L 2834 2853 
Q 2591 2978 2328 3040 
Q 2066 3103 1784 3103 
Q 1356 3103 1142 2972 
Q 928 2841 928 2578 
Q 928 2378 1081 2264 
Q 1234 2150 1697 2047 
L 1894 2003 
Q 2506 1872 2764 1633 
Q 3022 1394 3022 966 
Q 3022 478 2636 193 
Q 2250 -91 1575 -91 
Q 1294 -91 989 -36 
Q 684 19 347 128 
L 347 722 
Q 666 556 975 473 
Q 1284 391 1588 391 
Q 1994 391 2212 530 
Q 2431 669 2431 922 
Q 2431 1156 2273 1281 
Q 2116 1406 1581 1522 
L 1381 1569 
Q 847 1681 609 1914 
Q 372 2147 372 2553 
Q 372 3047 722 3315 
Q 1072 3584 1716 3584 
Q 2034 3584 2315 3537 
Q 2597 3491 2834 3397 
z
" transform="scale(0.015625)"/>
      <path id="DejaVuSans-6f" d="M 1959 3097 
Q 1497 3097 1228 2736 
Q 959 2375 959 1747 
Q 959 1119 1226 758 
Q 1494 397 1959 397 
Q 2419 397 2687 759 
Q 2956 1122 2956 1747 
Q 2956 2369 2687 2733 
Q 2419 3097 1959 3097 
z
M 1959 3584 
Q 2709 3584 3137 3096 
Q 3566 2609 3566 1747 
Q 3566 888 3137 398 
Q 2709 -91 1959 -91 
Q 1206 -91 779 398 
Q 353 888 353 1747 
Q 353 2609 779 3096 
Q 1206 3584 1959 3584 
z
" transform="scale(0.015625)"/>
      <path id="DejaVuSans-62" d="M 3116 1747 
Q 3116 2381 2855 2742 
Q 2594 3103 2138 3103 
Q 1681 3103 1420 2742 
Q 1159 2381 1159 1747 
Q 1159 1113 1420 752 
Q 1681 391 2138 391 
Q 2594 391 2855 752 
Q 3116 1113 3116 1747 
z
M 1159 2969 
Q 1341 3281 1617 3432 
Q 1894 3584 2278 3584 
Q 2916 3584 3314 3078 
Q 3713 2572 3713 1747 
Q 3713 922 3314 415 
Q 2916 -91 2278 -91 
Q 1894 -91 1617 61 
Q 1341 213 1159 525 
L 1159 0 
L 581 0 
L 581 4863 
L 1159 4863 
L 1159 2969 
z
" transform="scale(0.015625)"/>
      <path id="DejaVuSans-6c" d="M 603 4863 
L 1178 4863 
L 1178 0 
L 603 0 
L 603 4863 
z
" transform="scale(0.015625)"/>
      <path id="DejaVuSans-6d" d="M 3328 2828 
Q 3544 3216 3844 3400 
Q 4144 3584 4550 3584 
Q 5097 3584 5394 3201 
Q 5691 2819 5691 2113 
L 5691 0 
L 5113 0 
L 5113 2094 
Q 5113 2597 4934 2840 
Q 4756 3084 4391 3084 
Q 3944 3084 3684 2787 
Q 3425 2491 3425 1978 
L 3425 0 
L 2847 0 
L 2847 2094 
Q 2847 2600 2669 2842 
Q 2491 3084 2119 3084 
Q 1678 3084 1418 2786 
Q 1159 2488 1159 1978 
L 1159 0 
L 581 0 
L 581 3500 
L 1159 3500 
L 1159 2956 
Q 1356 3278 1631 3431 
Q 1906 3584 2284 3584 
Q 2666 3584 2933 3390 
Q 3200 3197 3328 2828 
z
" transform="scale(0.015625)"/>
     </defs>
     <use xlink:href="#DejaVuSans-50"/>
     <use xlink:href="#DejaVuSans-61" transform="translate(55.802734 0)"/>
     <use xlink:href="#DejaVuSans-72" transform="translate(117.082031 0)"/>
     <use xlink:href="#DejaVuSans-73" transform="translate(158.195312 0)"/>
     <use xlink:href="#DejaVuSans-65" transform="translate(210.294922 0)"/>
     <use xlink:href="#DejaVuSans-20" transform="translate(271.818359 0)"/>
     <use xlink:href="#DejaVuSans-70" transform="translate(303.605469 0)"/>
     <use xlink:href="#DejaVuSans-72" transform="translate(367.082031 0)"/>
     <use xlink:href="#DejaVuSans-6f" transform="translate(405.945312 0)"/>
     <use xlink:href="#DejaVuSans-62" transform="translate(467.126953 0)"/>
     <use xlink:href="#DejaVuSans-6c" transform="translate(530.603516 0)"/>
     <use xlink:href="#DejaVuSans-65" transform="translate(558.386719 0)"/>
     <use xlink:href="#DejaVuSans-6d" transform="translate(619.910156 0)"/>
    </g>
   </g>
   <g id="text_2">
    <!-- 95% -->
    <g style="fill: #22c55e" transform="translate(67.268844 244.536137) scale(0.14 -0.14)">
     <defs>
      <path id="DejaVuSans-Bold-39" d="M 641 103 
L 641 966 
Q 928 831 1190 764 
Q 1453 697 1709 697 
Q 2247 697 2547 995 
Q 2847 1294 2900 1881 
Q 2688 1725 2447 1647 
Q 2206 1569 1925 1569 
Q 1209 1569 770 1986 
Q 331 2403 331 3084 
Q 331 3838 820 4291 
Q 1309 4744 2131 4744 
Q 3044 4744 3544 4128 
Q 4044 3513 4044 2388 
Q 4044 1231 3459 570 
Q 2875 -91 1856 -91 
Q 1528 -91 1228 -42 
Q 928 6 641 103 
z
M 2125 2350 
Q 2441 2350 2600 2554 
Q 2759 2759 2759 3169 
Q 2759 3575 2600 3781 
Q 2441 3988 2125 3988 
Q 1809 3988 1650 3781 
Q 1491 3575 1491 3169 
Q 1491 2759 1650 2554 
Q 1809 2350 2125 2350 
z
" transform="scale(0.015625)"/>
      <path id="DejaVuSans-Bold-35" d="M 678 4666 
L 3669 4666 
L 3669 3781 
L 1638 3781 
L 1638 3059 
Q 1775 3097 1914 3117 
Q 2053 3138 2203 3138 
Q 3056 3138 3531 2711 
Q 4006 2284 4006 1522 
Q 4006 766 3489 337 
Q 2972 -91 2053 -91 
Q 1656 -91 1267 -14 
Q 878 63 494 219 
L 494 1166 
Q 875 947 1217 837 
Q 1559 728 1863 728 
Q 2300 728 2551 942 
Q 2803 1156 2803 1522 
Q 2803 1891 2551 2103 
Q 2300 2316 1863 2316 
Q 1603 2316 1309 2248 
Q 1016 2181 678 2041 
L 678 4666 
z
" transform="scale(0.015625)"/>
      <path id="DejaVuSans-Bold-25" d="M 4959 1925 
Q 4738 1925 4616 1733 
Q 4494 1541 4494 1184 
Q 4494 825 4614 633 
Q 4734 441 4959 441 
Q 5184 441 5303 633 
Q 5422 825 5422 1184 
Q 5422 1541 5301 1733 
Q 5181 1925 4959 1925 
z
M 4959 2450 
Q 5541 2450 5875 2112 
Q 6209 1775 6209 1184 
Q 6209 594 5875 251 
Q 5541 -91 4959 -91 
Q 4378 -91 4042 251 
Q 3706 594 3706 1184 
Q 3706 1772 4042 2111 
Q 4378 2450 4959 2450 
z
M 2094 -91 
L 1403 -91 
L 4319 4750 
L 5013 4750 
L 2094 -91 
z
M 1453 4750 
Q 2034 4750 2367 4411 
Q 2700 4072 2700 3481 
Q 2700 2891 2367 2550 
Q 2034 2209 1453 2209 
Q 872 2209 539 2550 
Q 206 2891 206 3481 
Q 206 4072 539 4411 
Q 872 4750 1453 4750 
z
M 1453 4225 
Q 1228 4225 1106 4031 
Q 984 3838 984 3481 
Q 984 3122 1106 2926 
Q 1228 2731 1453 2731 
Q 1678 2731 1798 2926 
Q 1919 3122 1919 3481 
Q 1919 3838 1797 4031 
Q 1675 4225 1453 4225 
z
" transform="scale(0.015625)"/>
     </defs>
     <use xlink:href="#DejaVuSans-Bold-39"/>
     <use xlink:href="#DejaVuSans-Bold-35" transform="translate(69.580078 0)"/>
     <use xlink:href="#DejaVuSans-Bold-25" transform="translate(139.160156 0)"/>
    </g>
   </g>
   <g id="patch_13">
    <path d="M 155.64952 197.877813 
Q 171.055466 197.877813 184.225344 197.877813 
" style="fill: none; stroke: #6b7280; stroke-width: 2; stroke-linecap: round"/>
    <path d="M 179.825344 195.677813 
L 184.225344 197.877813 
L 179.825344 200.077812 
" style="fill: none; stroke: #6b7280; stroke-width: 2; stroke-linecap: round"/>
   </g>
   <g id="text_3">
    <!-- Step 2: -->
    <g style="fill: #262626" transform="translate(240.244156 188.924681) scale(0.1 -0.1)">
     <defs>
      <path id="DejaVuSans-32" d="M 1228 531 
L 3431 531 
L 3431 0 
L 469 0 
L 469 531 
Q 828 903 1448 1529 
Q 2069 2156 2228 2338 
Q 2531 2678 2651 2914 
Q 2772 3150 2772 3378 
Q 2772 3750 2511 3984 
Q 2250 4219 1831 4219 
Q 1534 4219 1204 4116 
Q 875 4013 500 3803 
L 500 4441 
Q 881 4594 1212 4672 
Q 1544 4750 1819 4750 
Q 2544 4750 2975 4387 
Q 3406 4025 3406 3419 
Q 3406 3131 3298 2873 
Q 3191 2616 2906 2266 
Q 2828 2175 2409 1742 
Q 1991 1309 1228 531 
z
" transform="scale(0.015625)"/>
     </defs>
     <use xlink:href="#DejaVuSans-53"/>
     <use xlink:href="#DejaVuSans-74" transform="translate(63.476562 0)"/>
     <use xlink:href="#DejaVuSans-65" transform="translate(102.685547 0)"/>
     <use xlink:href="#DejaVuSans-70" transform="translate(164.208984 0)"/>
     <use xlink:href="#DejaVuSans-20" transform="translate(227.685547 0)"/>
     <use xlink:href="#DejaVuSans-32" transform="translate(259.472656 0)"/>
     <use xlink:href="#DejaVuSans-3a" transform="translate(323.095703 0)"/>
    </g>
    <!-- Set up equation -->
    <g style="fill: #262626" transform="translate(218.291031 200.122494) scale(0.1 -0.1)">
     <defs>
      <path id="DejaVuSans-75" d="M 544 1381 
L 544 3500 
L 1119 3500 
L 1119 1403 
Q 1119 906 1312 657 
Q 1506 409 1894 409 
Q 2359 409 2629 706 
Q 2900 1003 2900 1516 
L 2900 3500 
L 3475 3500 
L 3475 0 
L 2900 0 
L 2900 538 
Q 2691 219 2414 64 
Q 2138 -91 1772 -91 
Q 1169 -91 856 284 
Q 544 659 544 1381 
z
M 1991 3584 
L 1991 3584 
z
" transform="scale(0.015625)"/>
      <path id="DejaVuSans-71" d="M 947 1747 
Q 947 1113 1208 752 
Q 1469 391 1925 391 
Q 2381 391 2643 752 
Q 2906 1113 2906 1747 
Q 2906 2381 2643 2742 
Q 2381 3103 1925 3103 
Q 1469 3103 1208 2742 
Q 947 2381 947 1747 
z
M 2906 525 
Q 2725 213 2448 61 
Q 2172 -91 1784 -91 
Q 1150 -91 751 415 
Q 353 922 353 1747 
Q 353 2572 751 3078 
Q 1150 3584 1784 3584 
Q 2172 3584 2448 3432 
Q 2725 3281 2906 2969 
L 2906 3500 
L 3481 3500 
L 3481 -1331 
L 2906 -1331 
L 2906 525 
z
" transform="scale(0.015625)"/>
      <path id="DejaVuSans-69" d="M 603 3500 
L 1178 3500 
L 1178 0 
L 603 0 
L 603 3500 
z
M 603 4863 
L 1178 4863 
L 1178 4134 
L 603 4134 
L 603 4863 
z
" transform="scale(0.015625)"/>
      <path id="DejaVuSans-6e" d="M 3513 2113 
L 3513 0 
L 2938 0 
L 2938 2094 
Q 2938 2591 2744 2837 
Q 2550 3084 2163 3084 
Q 1697 3084 1428 2787 
Q 1159 2491 1159 1978 
L 1159 0 
L 581 0 
L 581 3500 
L 1159 3500 
L 1159 2956 
Q 1366 3272 1645 3428 
Q 1925 3584 2291 3584 
Q 2894 3584 3203 3211 
Q 3513 2838 3513 2113 
z
" transform="scale(0.015625)"/>
     </defs>
     <use xlink:href="#DejaVuSans-53"/>
     <use xlink:href="#DejaVuSans-65" transform="translate(63.476562 0)"/>
     <use xlink:href="#DejaVuSans-74" transform="translate(125 0)"/>
     <use xlink:href="#DejaVuSans-20" transform="translate(164.208984 0)"/>
     <use xlink:href="#DejaVuSans-75" transform="translate(195.996094 0)"/>
     <use xlink:href="#DejaVuSans-70" transform="translate(259.375 0)"/>
     <use xlink:href="#DejaVuSans-20" transform="translate(322.851562 0)"/>
     <use xlink:href="#DejaVuSans-65" transform="translate(354.638672 0)"/>
     <use xlink:href="#DejaVuSans-71" transform="translate(416.162109 0)"/>
     <use xlink:href="#DejaVuSans-75" transform="translate(479.638672 0)"/>
     <use xlink:href="#DejaVuSans-61" transform="translate(543.017578 0)"/>
     <use xlink:href="#DejaVuSans-74" transform="translate(604.296875 0)"/>
     <use xlink:href="#DejaVuSans-69" transform="translate(643.505859 0)"/>
     <use xlink:href="#DejaVuSans-6f" transform="translate(671.289062 0)"/>
     <use xlink:href="#DejaVuSans-6e" transform="translate(732.470703 0)"/>
    </g>
   </g>
   <g id="text_4">
    <!-- 90% -->
    <g style="fill: #22c55e" transform="translate(241.328844 244.536137) scale(0.14 -0.14)">
     <defs>
      <path id="DejaVuSans-Bold-30" d="M 2944 2338 
Q 2944 3213 2780 3570 
Q 2616 3928 2228 3928 
Q 1841 3928 1675 3570 
Q 1509 3213 1509 2338 
Q 1509 1453 1675 1090 
Q 1841 728 2228 728 
Q 2613 728 2778 1090 
Q 2944 1453 2944 2338 
z
M 4147 2328 
Q 4147 1169 3647 539 
Q 3147 -91 2228 -91 
Q 1306 -91 806 539 
Q 306 1169 306 2328 
Q 306 3491 806 4120 
Q 1306 4750 2228 4750 
Q 3147 4750 3647 4120 
Q 4147 3491 4147 2328 
z
" transform="scale(0.015625)"/>
     </defs>
     <use xlink:href="#DejaVuSans-Bold-39"/>
     <use xlink:href="#DejaVuSans-Bold-30" transform="translate(69.580078 0)"/>
     <use xlink:href="#DejaVuSans-Bold-25" transform="translate(139.160156 0)"/>
    </g>
   </g>
   <g id="patch_14">
    <path d="M 329.70952 197.877813 
Q 345.115466 197.877813 358.285344 197.877813 
" style="fill: none; stroke: #6b7280; stroke-width: 2; stroke-linecap: round"/>
    <path d="M 353.885344 195.677813 
L 358.285344 197.877813 
L 353.885344 200.077812 
" style="fill: none; stroke: #6b7280; stroke-width: 2; stroke-linecap: round"/>
   </g>
   <g id="text_5">
    <!-- Step 3: -->
    <g style="fill: #262626" transform="translate(414.304156 188.924681) scale(0.1 -0.1)">
     <defs>
      <path id="DejaVuSans-33" d="M 2597 2516 
Q 3050 2419 3304 2112 
Q 3559 1806 3559 1356 
Q 3559 666 3084 287 
Q 2609 -91 1734 -91 
Q 1441 -91 1130 -33 
Q 819 25 488 141 
L 488 750 
Q 750 597 1062 519 
Q 1375 441 1716 441 
Q 2309 441 2620 675 
Q 2931 909 2931 1356 
Q 2931 1769 2642 2001 
Q 2353 2234 1838 2234 
L 1294 2234 
L 1294 2753 
L 1863 2753 
Q 2328 2753 2575 2939 
Q 2822 3125 2822 3475 
Q 2822 3834 2567 4026 
Q 2313 4219 1838 4219 
Q 1578 4219 1281 4162 
Q 984 4106 628 3988 
L 628 4550 
Q 988 4650 1302 4700 
Q 1616 4750 1894 4750 
Q 2613 4750 3031 4423 
Q 3450 4097 3450 3541 
Q 3450 3153 3228 2886 
Q 3006 2619 2597 2516 
z
" transform="scale(0.015625)"/>
     </defs>
     <use xlink:href="#DejaVuSans-53"/>
     <use xlink:href="#DejaVuSans-74" transform="translate(63.476562 0)"/>
     <use xlink:href="#DejaVuSans-65" transform="translate(102.685547 0)"/>
     <use xlink:href="#DejaVuSans-70" transform="translate(164.208984 0)"/>
     <use xlink:href="#DejaVuSans-20" transform="translate(227.685547 0)"/>
     <use xlink:href="#DejaVuSans-33" transform="translate(259.472656 0)"/>
     <use xlink:href="#DejaVuSans-3a" transform="translate(323.095703 0)"/>
    </g>
    <!-- Solve numerically -->
    <g style="fill: #262626" transform="translate(387.616656 200.122494) scale(0.1 -0.1)">
     <defs>
      <path id="DejaVuSans-76" d="M 191 3500 
L 800 3500 
L 1894 563 
L 2988 3500 
L 3597 3500 
L 2284 0 
L 1503 0 
L 191 3500 
z
" transform="scale(0.015625)"/>
      <path id="DejaVuSans-63" d="M 3122 3366 
L 3122 2828 
Q 2878 2963 2633 3030 
Q 2388 3097 2138 3097 
Q 1578 3097 1268 2742 
Q 959 2388 959 1747 
Q 959 1106 1268 751 
Q 1578 397 2138 397 
Q 2388 397 2633 464 
Q 2878 531 3122 666 
L 3122 134 
Q 2881 22 2623 -34 
Q 2366 -91 2075 -91 
Q 1284 -91 818 406 
Q 353 903 353 1747 
Q 353 2603 823 3093 
Q 1294 3584 2113 3584 
Q 2378 3584 2631 3529 
Q 2884 3475 3122 3366 
z
" transform="scale(0.015625)"/>
      <path id="DejaVuSans-79" d="M 2059 -325 
Q 1816 -950 1584 -1140 
Q 1353 -1331 966 -1331 
L 506 -1331 
L 506 -850 
L 844 -850 
Q 1081 -850 1212 -737 
Q 1344 -625 1503 -206 
L 1606 56 
L 191 3500 
L 800 3500 
L 1894 763 
L 2988 3500 
L 3597 3500 
L 2059 -325 
z
" transform="scale(0.015625)"/>
     </defs>
     <use xlink:href="#DejaVuSans-53"/>
     <use xlink:href="#DejaVuSans-6f" transform="translate(63.476562 0)"/>
     <use xlink:href="#DejaVuSans-6c" transform="translate(124.658203 0)"/>
     <use xlink:href="#DejaVuSans-76" transform="translate(152.441406 0)"/>
     <use xlink:href="#DejaVuSans-65" transform="translate(211.621094 0)"/>
     <use xlink:href="#DejaVuSans-20" transform="translate(273.144531 0)"/>
     <use xlink:href="#DejaVuSans-6e" transform="translate(304.931641 0)"/>
     <use xlink:href="#DejaVuSans-75" transform="translate(368.310547 0)"/>
     <use xlink:href="#DejaVuSans-6d" transform="translate(431.689453 0)"/>
     <use xlink:href="#DejaVuSans-65" transform="translate(529.101562 0)"/>
     <use xlink:href="#DejaVuSans-72" transform="translate(590.625 0)"/>
     <use xlink:href="#DejaVuSans-69" transform="translate(631.738281 0)"/>
     <use xlink:href="#DejaVuSans-63" transform="translate(659.521484 0)"/>
     <use xlink:href="#DejaVuSans-61" transform="translate(714.501953 0)"/>
     <use xlink:href="#DejaVuSans-6c" transform="translate(775.78125 0)"/>
     <use xlink:href="#DejaVuSans-6c" transform="translate(803.564453 0)"/>
     <use xlink:href="#DejaVuSans-79" transform="translate(831.347656 0)"/>
    </g>
   </g>
   <g id="text_6">
    <!-- 70% -->
    <g style="fill: #f97316" transform="translate(415.388844 244.536137) scale(0.14 -0.14)">
     <defs>
      <path id="DejaVuSans-Bold-37" d="M 428 4666 
L 3944 4666 
L 3944 3988 
L 2125 0 
L 953 0 
L 2675 3781 
L 428 3781 
L 428 4666 
z
" transform="scale(0.015625)"/>
     </defs>
     <use xlink:href="#DejaVuSans-Bold-37"/>
     <use xlink:href="#DejaVuSans-Bold-30" transform="translate(69.580078 0)"/>
     <use xlink:href="#DejaVuSans-Bold-25" transform="translate(139.160156 0)"/>
    </g>
   </g>
   <g id="patch_15">
    <path d="M 503.76952 197.877813 
Q 519.175466 197.877813 532.345344 197.877813 
" style="fill: none; stroke: #6b7280; stroke-width: 2; stroke-linecap: round"/>
    <path d="M 527.945344 195.677813 
L 532.345344 197.877813 
L 527.945344 200.077812 
" style="fill: none; stroke: #6b7280; stroke-width: 2; stroke-linecap: round"/>
   </g>
   <g id="text_7">
    <!-- Final Answer -->
    <g style="fill: #262626" transform="translate(574.675875 194.523587) scale(0.1 -0.1)">
     <defs>
      <path id="DejaVuSans-46" d="M 628 4666 
L 3309 4666 
L 3309 4134 
L 1259 4134 
L 1259 2759 
L 3109 2759 
L 3109 2228 
L 1259 2228 
L 1259 0 
L 628 0 
L 628 4666 
z
" transform="scale(0.015625)"/>
      <path id="DejaVuSans-41" d="M 2188 4044 
L 1331 1722 
L 3047 1722 
L 2188 4044 
z
M 1831 4666 
L 2547 4666 
L 4325 0 
L 3669 0 
L 3244 1197 
L 1141 1197 
L 716 0 
L 50 0 
L 1831 4666 
z
" transform="scale(0.015625)"/>
      <path id="DejaVuSans-77" d="M 269 3500 
L 844 3500 
L 1563 769 
L 2278 3500 
L 2956 3500 
L 3675 769 
L 4391 3500 
L 4966 3500 
L 4050 0 
L 3372 0 
L 2619 2869 
L 1863 0 
L 1184 0 
L 269 3500 
z
" transform="scale(0.015625)"/>
     </defs>
     <use xlink:href="#DejaVuSans-46"/>
     <use xlink:href="#DejaVuSans-69" transform="translate(50.269531 0)"/>
     <use xlink:href="#DejaVuSans-6e" transform="translate(78.052734 0)"/>
     <use xlink:href="#DejaVuSans-61" transform="translate(141.431641 0)"/>
     <use xlink:href="#DejaVuSans-6c" transform="translate(202.710938 0)"/>
     <use xlink:href="#DejaVuSans-20" transform="translate(230.494141 0)"/>
     <use xlink:href="#DejaVuSans-41" transform="translate(262.28125 0)"/>
     <use xlink:href="#DejaVuSans-6e" transform="translate(330.689453 0)"/>
     <use xlink:href="#DejaVuSans-73" transform="translate(394.068359 0)"/>
     <use xlink:href="#DejaVuSans-77" transform="translate(446.167969 0)"/>
     <use xlink:href="#DejaVuSans-65" transform="translate(527.955078 0)"/>
     <use xlink:href="#DejaVuSans-72" transform="translate(589.478516 0)"/>
    </g>
   </g>
   <g id="text_8">
    <!-- 70% -->
    <g style="fill: #f97316" transform="translate(589.448844 244.536137) scale(0.14 -0.14)">
     <use xlink:href="#DejaVuSans-Bold-37"/>
     <use xlink:href="#DejaVuSans-Bold-30" transform="translate(69.580078 0)"/>
     <use xlink:href="#DejaVuSans-Bold-25" transform="translate(139.160156 0)"/>
    </g>
   </g>
   <g id="patch_16">
    <path d="M 432.144 309.581514 
Q 432.144 285.299202 432.144 263.252959 
" style="fill: none; stroke: #f97316; stroke-width: 2; stroke-linecap: round"/>
    <path d="M 430.144 267.252959 
L 432.144 263.252959 
L 434.144 267.252959 
" style="fill: none; stroke: #f97316; stroke-width: 2; stroke-linecap: round"/>
   </g>
   <g id="text_9">
    <!-- Weakest link -->
    <g style="fill: #f97316" transform="translate(396.040875 321.1792) scale(0.1 -0.1)">
     <defs>
      <path id="DejaVuSans-Bold-57" d="M 191 4666 
L 1344 4666 
L 2150 1275 
L 2950 4666 
L 4109 4666 
L 4909 1275 
L 5716 4666 
L 6859 4666 
L 5759 0 
L 4372 0 
L 3525 3547 
L 2688 0 
L 1300 0 
L 191 4666 
z
" transform="scale(0.015625)"/>
      <path id="DejaVuSans-Bold-65" d="M 4031 1759 
L 4031 1441 
L 1416 1441 
Q 1456 1047 1700 850 
Q 1944 653 2381 653 
Q 2734 653 3104 758 
Q 3475 863 3866 1075 
L 3866 213 
Q 3469 63 3072 -14 
Q 2675 -91 2278 -91 
Q 1328 -91 801 392 
Q 275 875 275 1747 
Q 275 2603 792 3093 
Q 1309 3584 2216 3584 
Q 3041 3584 3536 3087 
Q 4031 2591 4031 1759 
z
M 2881 2131 
Q 2881 2450 2695 2645 
Q 2509 2841 2209 2841 
Q 1884 2841 1681 2658 
Q 1478 2475 1428 2131 
L 2881 2131 
z
" transform="scale(0.015625)"/>
      <path id="DejaVuSans-Bold-61" d="M 2106 1575 
Q 1756 1575 1579 1456 
Q 1403 1338 1403 1106 
Q 1403 894 1545 773 
Q 1688 653 1941 653 
Q 2256 653 2472 879 
Q 2688 1106 2688 1447 
L 2688 1575 
L 2106 1575 
z
M 3816 1997 
L 3816 0 
L 2688 0 
L 2688 519 
Q 2463 200 2181 54 
Q 1900 -91 1497 -91 
Q 953 -91 614 226 
Q 275 544 275 1050 
Q 275 1666 698 1953 
Q 1122 2241 2028 2241 
L 2688 2241 
L 2688 2328 
Q 2688 2594 2478 2717 
Q 2269 2841 1825 2841 
Q 1466 2841 1156 2769 
Q 847 2697 581 2553 
L 581 3406 
Q 941 3494 1303 3539 
Q 1666 3584 2028 3584 
Q 2975 3584 3395 3211 
Q 3816 2838 3816 1997 
z
" transform="scale(0.015625)"/>
      <path id="DejaVuSans-Bold-6b" d="M 538 4863 
L 1656 4863 
L 1656 2216 
L 2944 3500 
L 4244 3500 
L 2534 1894 
L 4378 0 
L 3022 0 
L 1656 1459 
L 1656 0 
L 538 0 
L 538 4863 
z
" transform="scale(0.015625)"/>
      <path id="DejaVuSans-Bold-73" d="M 3272 3391 
L 3272 2541 
Q 2913 2691 2578 2766 
Q 2244 2841 1947 2841 
Q 1628 2841 1473 2761 
Q 1319 2681 1319 2516 
Q 1319 2381 1436 2309 
Q 1553 2238 1856 2203 
L 2053 2175 
Q 2913 2066 3209 1816 
Q 3506 1566 3506 1031 
Q 3506 472 3093 190 
Q 2681 -91 1863 -91 
Q 1516 -91 1145 -36 
Q 775 19 384 128 
L 384 978 
Q 719 816 1070 734 
Q 1422 653 1784 653 
Q 2113 653 2278 743 
Q 2444 834 2444 1013 
Q 2444 1163 2330 1236 
Q 2216 1309 1875 1350 
L 1678 1375 
Q 931 1469 631 1722 
Q 331 1975 331 2491 
Q 331 3047 712 3315 
Q 1094 3584 1881 3584 
Q 2191 3584 2531 3537 
Q 2872 3491 3272 3391 
z
" transform="scale(0.015625)"/>
      <path id="DejaVuSans-Bold-74" d="M 1759 4494 
L 1759 3500 
L 2913 3500 
L 2913 2700 
L 1759 2700 
L 1759 1216 
Q 1759 972 1856 886 
Q 1953 800 2241 800 
L 2816 800 
L 2816 0 
L 1856 0 
Q 1194 0 917 276 
Q 641 553 641 1216 
L 641 2700 
L 84 2700 
L 84 3500 
L 641 3500 
L 641 4494 
L 1759 4494 
z
" transform="scale(0.015625)"/>
      <path id="DejaVuSans-Bold-20" transform="scale(0.015625)"/>
      <path id="DejaVuSans-Bold-6c" d="M 538 4863 
L 1656 4863 
L 1656 0 
L 538 0 
L 538 4863 
z
" transform="scale(0.015625)"/>
      <path id="DejaVuSans-Bold-69" d="M 538 3500 
L 1656 3500 
L 1656 0 
L 538 0 
L 538 3500 
z
M 538 4863 
L 1656 4863 
L 1656 3950 
L 538 3950 
L 538 4863 
z
" transform="scale(0.015625)"/>
      <path id="DejaVuSans-Bold-6e" d="M 4056 2131 
L 4056 0 
L 2931 0 
L 2931 347 
L 2931 1631 
Q 2931 2084 2911 2256 
Q 2891 2428 2841 2509 
Q 2775 2619 2662 2680 
Q 2550 2741 2406 2741 
Q 2056 2741 1856 2470 
Q 1656 2200 1656 1722 
L 1656 0 
L 538 0 
L 538 3500 
L 1656 3500 
L 1656 2988 
Q 1909 3294 2193 3439 
Q 2478 3584 2822 3584 
Q 3428 3584 3742 3212 
Q 4056 2841 4056 2131 
z
" transform="scale(0.015625)"/>
     </defs>
     <use xlink:href="#DejaVuSans-Bold-57"/>
     <use xlink:href="#DejaVuSans-Bold-65" transform="translate(106.677734 0)"/>
     <use xlink:href="#DejaVuSans-Bold-61" transform="translate(174.5 0)"/>
     <use xlink:href="#DejaVuSans-Bold-6b" transform="translate(241.980469 0)"/>
     <use xlink:href="#DejaVuSans-Bold-65" transform="translate(305.859375 0)"/>
     <use xlink:href="#DejaVuSans-Bold-73" transform="translate(373.681641 0)"/>
     <use xlink:href="#DejaVuSans-Bold-74" transform="translate(433.203125 0)"/>
     <use xlink:href="#DejaVuSans-Bold-20" transform="translate(481.005859 0)"/>
     <use xlink:href="#DejaVuSans-Bold-6c" transform="translate(515.820312 0)"/>
     <use xlink:href="#DejaVuSans-Bold-69" transform="translate(550.097656 0)"/>
     <use xlink:href="#DejaVuSans-Bold-6e" transform="translate(584.375 0)"/>
     <use xlink:href="#DejaVuSans-Bold-6b" transform="translate(655.566406 0)"/>
    </g>
    <!-- (determines final) -->
    <g style="fill: #f97316" transform="translate(381.228375 332.377012) scale(0.1 -0.1)">
     <defs>
      <path id="DejaVuSans-Bold-28" d="M 2413 -844 
L 1484 -844 
Q 1006 -72 778 623 
Q 550 1319 550 2003 
Q 550 2688 779 3389 
Q 1009 4091 1484 4856 
L 2413 4856 
Q 2013 4116 1813 3408 
Q 1613 2700 1613 2009 
Q 1613 1319 1811 609 
Q 2009 -100 2413 -844 
z
" transform="scale(0.015625)"/>
      <path id="DejaVuSans-Bold-64" d="M 2919 2988 
L 2919 4863 
L 4044 4863 
L 4044 0 
L 2919 0 
L 2919 506 
Q 2688 197 2409 53 
Q 2131 -91 1766 -91 
Q 1119 -91 703 423 
Q 288 938 288 1747 
Q 288 2556 703 3070 
Q 1119 3584 1766 3584 
Q 2128 3584 2408 3439 
Q 2688 3294 2919 2988 
z
M 2181 722 
Q 2541 722 2730 984 
Q 2919 1247 2919 1747 
Q 2919 2247 2730 2509 
Q 2541 2772 2181 2772 
Q 1825 2772 1636 2509 
Q 1447 2247 1447 1747 
Q 1447 1247 1636 984 
Q 1825 722 2181 722 
z
" transform="scale(0.015625)"/>
      <path id="DejaVuSans-Bold-72" d="M 3138 2547 
Q 2991 2616 2845 2648 
Q 2700 2681 2553 2681 
Q 2122 2681 1889 2404 
Q 1656 2128 1656 1613 
L 1656 0 
L 538 0 
L 538 3500 
L 1656 3500 
L 1656 2925 
Q 1872 3269 2151 3426 
Q 2431 3584 2822 3584 
Q 2878 3584 2943 3579 
Q 3009 3575 3134 3559 
L 3138 2547 
z
" transform="scale(0.015625)"/>
      <path id="DejaVuSans-Bold-6d" d="M 3781 2919 
Q 3994 3244 4286 3414 
Q 4578 3584 4928 3584 
Q 5531 3584 5847 3212 
Q 6163 2841 6163 2131 
L 6163 0 
L 5038 0 
L 5038 1825 
Q 5041 1866 5042 1909 
Q 5044 1953 5044 2034 
Q 5044 2406 4934 2573 
Q 4825 2741 4581 2741 
Q 4263 2741 4089 2478 
Q 3916 2216 3909 1719 
L 3909 0 
L 2784 0 
L 2784 1825 
Q 2784 2406 2684 2573 
Q 2584 2741 2328 2741 
Q 2006 2741 1831 2477 
Q 1656 2213 1656 1722 
L 1656 0 
L 531 0 
L 531 3500 
L 1656 3500 
L 1656 2988 
Q 1863 3284 2130 3434 
Q 2397 3584 2719 3584 
Q 3081 3584 3359 3409 
Q 3638 3234 3781 2919 
z
" transform="scale(0.015625)"/>
      <path id="DejaVuSans-Bold-66" d="M 2841 4863 
L 2841 4128 
L 2222 4128 
Q 1984 4128 1890 4042 
Q 1797 3956 1797 3744 
L 1797 3500 
L 2753 3500 
L 2753 2700 
L 1797 2700 
L 1797 0 
L 678 0 
L 678 2700 
L 122 2700 
L 122 3500 
L 678 3500 
L 678 3744 
Q 678 4316 997 4589 
Q 1316 4863 1984 4863 
L 2841 4863 
z
" transform="scale(0.015625)"/>
      <path id="DejaVuSans-Bold-29" d="M 513 -844 
Q 913 -100 1113 609 
Q 1313 1319 1313 2009 
Q 1313 2700 1113 3408 
Q 913 4116 513 4856 
L 1441 4856 
Q 1916 4091 2145 3389 
Q 2375 2688 2375 2003 
Q 2375 1319 2147 623 
Q 1919 -72 1441 -844 
L 513 -844 
z
" transform="scale(0.015625)"/>
     </defs>
     <use xlink:href="#DejaVuSans-Bold-28"/>
     <use xlink:href="#DejaVuSans-Bold-64" transform="translate(45.703125 0)"/>
     <use xlink:href="#DejaVuSans-Bold-65" transform="translate(117.285156 0)"/>
     <use xlink:href="#DejaVuSans-Bold-74" transform="translate(185.107422 0)"/>
     <use xlink:href="#DejaVuSans-Bold-65" transform="translate(232.910156 0)"/>
     <use xlink:href="#DejaVuSans-Bold-72" transform="translate(300.732422 0)"/>
     <use xlink:href="#DejaVuSans-Bold-6d" transform="translate(350.048828 0)"/>
     <use xlink:href="#DejaVuSans-Bold-69" transform="translate(454.248047 0)"/>
     <use xlink:href="#DejaVuSans-Bold-6e" transform="translate(488.525391 0)"/>
     <use xlink:href="#DejaVuSans-Bold-65" transform="translate(559.716797 0)"/>
     <use xlink:href="#DejaVuSans-Bold-73" transform="translate(627.539062 0)"/>
     <use xlink:href="#DejaVuSans-Bold-20" transform="translate(687.060547 0)"/>
     <use xlink:href="#DejaVuSans-Bold-66" transform="translate(721.875 0)"/>
     <use xlink:href="#DejaVuSans-Bold-69" transform="translate(765.380859 0)"/>
     <use xlink:href="#DejaVuSans-Bold-6e" transform="translate(799.658203 0)"/>
     <use xlink:href="#DejaVuSans-Bold-61" transform="translate(870.849609 0)"/>
     <use xlink:href="#DejaVuSans-Bold-6c" transform="translate(938.330078 0)"/>
     <use xlink:href="#DejaVuSans-Bold-29" transform="translate(972.607422 0)"/>
    </g>
   </g>
   <g id="text_10">
    <g id="patch_17">
     <path d="M 188.053125 85.179563 
L 536.986875 85.179563 
Q 540.586875 85.179563 540.586875 81.579563 
L 540.586875 69.632063 
Q 540.586875 66.032063 536.986875 66.032063 
L 188.053125 66.032063 
Q 184.453125 66.032063 184.453125 69.632063 
L 184.453125 81.579563 
Q 184.453125 85.179563 188.053125 85.179563 
z
" style="fill: #ffffff; opacity: 0.8; stroke: #6b7280; stroke-linejoin: miter"/>
    </g>
    <!-- Principle: final_confidence ≤ min(step_confidences) -->
    <g style="fill: #262626" transform="translate(188.053125 78.750188) scale(0.12 -0.12)">
     <defs>
      <path id="DejaVuSans-BoldOblique-50" d="M 1044 4666 
L 3041 4666 
Q 3775 4666 4189 4330 
Q 4603 3994 4603 3397 
Q 4603 3031 4465 2701 
Q 4328 2372 4072 2125 
Q 3794 1859 3409 1739 
Q 3025 1619 2444 1619 
L 1650 1619 
L 1338 0 
L 134 0 
L 1044 4666 
z
M 2081 3794 
L 1825 2491 
L 2491 2491 
Q 2916 2491 3141 2691 
Q 3366 2891 3366 3272 
Q 3366 3525 3205 3659 
Q 3044 3794 2741 3794 
L 2081 3794 
z
" transform="scale(0.015625)"/>
      <path id="DejaVuSans-BoldOblique-72" d="M 3291 2547 
Q 3175 2613 3034 2647 
Q 2894 2681 2731 2681 
Q 2303 2681 2020 2406 
Q 1738 2131 1638 1613 
L 1319 0 
L 197 0 
L 878 3500 
L 2003 3500 
L 1881 2900 
Q 2103 3231 2436 3407 
Q 2769 3584 3175 3584 
Q 3234 3584 3309 3578 
Q 3384 3572 3488 3559 
L 3291 2547 
z
" transform="scale(0.015625)"/>
      <path id="DejaVuSans-BoldOblique-69" d="M 878 3500 
L 2003 3500 
L 1319 0 
L 197 0 
L 878 3500 
z
M 1141 4863 
L 2266 4863 
L 2088 3950 
L 959 3950 
L 1141 4863 
z
" transform="scale(0.015625)"/>
      <path id="DejaVuSans-BoldOblique-6e" d="M 4128 2131 
L 3713 0 
L 2591 0 
L 2944 1825 
Q 2981 2003 3001 2126 
Q 3022 2250 3022 2322 
Q 3022 2522 2911 2631 
Q 2800 2741 2597 2741 
Q 2250 2741 2001 2470 
Q 1753 2200 1656 1722 
L 1319 0 
L 197 0 
L 878 3500 
L 2003 3500 
L 1900 2988 
Q 2209 3291 2521 3437 
Q 2834 3584 3175 3584 
Q 3659 3584 3921 3331 
Q 4184 3078 4184 2619 
Q 4184 2519 4170 2397 
Q 4156 2275 4128 2131 
z
" transform="scale(0.015625)"/>
      <path id="DejaVuSans-BoldOblique-63" d="M 3719 3391 
L 3541 2478 
Q 3316 2628 3097 2706 
Q 2878 2784 2669 2784 
Q 2122 2784 1775 2417 
Q 1428 2050 1428 1478 
Q 1428 1113 1643 911 
Q 1859 709 2253 709 
Q 2516 709 2769 787 
Q 3022 866 3250 1019 
L 3078 103 
Q 2800 6 2519 -42 
Q 2238 -91 1953 -91 
Q 1128 -91 683 279 
Q 238 650 238 1331 
Q 238 1759 402 2162 
Q 566 2566 872 2888 
Q 1213 3241 1653 3412 
Q 2094 3584 2669 3584 
Q 2934 3584 3196 3536 
Q 3459 3488 3719 3391 
z
" transform="scale(0.015625)"/>
      <path id="DejaVuSans-BoldOblique-70" d="M 1422 506 
L 1063 -1331 
L -63 -1331 
L 878 3500 
L 2003 3500 
L 1900 2988 
Q 2156 3294 2437 3439 
Q 2719 3584 3053 3584 
Q 3644 3584 3987 3209 
Q 4331 2834 4331 2188 
Q 4331 1784 4211 1403 
Q 4091 1022 3866 709 
Q 3581 316 3223 112 
Q 2866 -91 2456 -91 
Q 2097 -91 1845 54 
Q 1594 200 1422 506 
z
M 2597 2772 
Q 2166 2772 1892 2373 
Q 1619 1975 1619 1338 
Q 1619 1050 1773 886 
Q 1928 722 2203 722 
Q 2625 722 2900 1114 
Q 3175 1506 3175 2119 
Q 3175 2438 3026 2605 
Q 2878 2772 2597 2772 
z
" transform="scale(0.015625)"/>
      <path id="DejaVuSans-BoldOblique-6c" d="M 1141 4863 
L 2266 4863 
L 1319 0 
L 197 0 
L 1141 4863 
z
" transform="scale(0.015625)"/>
      <path id="DejaVuSans-BoldOblique-65" d="M 4025 1619 
L 3988 1441 
L 1369 1441 
Q 1369 1422 1366 1386 
Q 1363 1350 1363 1331 
Q 1363 991 1567 822 
Q 1772 653 2181 653 
Q 2534 653 2926 759 
Q 3319 866 3750 1075 
L 3578 206 
Q 3169 56 2764 -17 
Q 2359 -91 1941 -91 
Q 1122 -91 676 287 
Q 231 666 231 1356 
Q 231 1756 373 2132 
Q 516 2509 788 2822 
Q 1109 3197 1557 3390 
Q 2006 3584 2553 3584 
Q 3263 3584 3680 3206 
Q 4097 2828 4097 2188 
Q 4097 2063 4080 1923 
Q 4063 1784 4025 1619 
z
M 2969 2131 
Q 2978 2172 2983 2214 
Q 2988 2256 2988 2297 
Q 2988 2547 2838 2694 
Q 2688 2841 2431 2841 
Q 2103 2841 1873 2661 
Q 1644 2481 1522 2131 
L 2969 2131 
z
" transform="scale(0.015625)"/>
      <path id="DejaVuSans-BoldOblique-3a" d="M 941 3500 
L 2069 3500 
L 1838 2291 
L 709 2291 
L 941 3500 
z
M 500 1209 
L 1625 1209 
L 1388 0 
L 263 0 
L 500 1209 
z
" transform="scale(0.015625)"/>
      <path id="DejaVuSans-BoldOblique-20" transform="scale(0.015625)"/>
      <path id="DejaVuSans-BoldOblique-66" d="M 3456 4863 
L 3309 4128 
L 2694 4128 
Q 2459 4128 2351 4042 
Q 2244 3956 2203 3747 
L 2150 3500 
L 3097 3500 
L 2944 2700 
L 1997 2700 
L 1472 0 
L 347 0 
L 872 2700 
L 319 2700 
L 475 3500 
L 1025 3500 
L 1075 3744 
Q 1191 4325 1556 4594 
Q 1922 4863 2597 4863 
L 3456 4863 
z
" transform="scale(0.015625)"/>
      <path id="DejaVuSans-BoldOblique-61" d="M 2106 1575 
Q 1688 1575 1473 1445 
Q 1259 1316 1259 1063 
Q 1259 872 1386 762 
Q 1513 653 1734 653 
Q 2078 653 2309 861 
Q 2541 1069 2619 1447 
L 2644 1575 
L 2106 1575 
z
M 3853 1997 
L 3463 0 
L 2344 0 
L 2438 519 
Q 2163 206 1856 57 
Q 1550 -91 1191 -91 
Q 694 -91 401 167 
Q 109 425 109 863 
Q 109 1531 626 1886 
Q 1144 2241 2119 2241 
L 2778 2241 
L 2791 2328 
Q 2800 2372 2801 2390 
Q 2803 2409 2803 2425 
Q 2803 2631 2608 2736 
Q 2413 2841 2028 2841 
Q 1681 2841 1356 2769 
Q 1031 2697 728 2553 
L 897 3406 
Q 1247 3494 1614 3539 
Q 1981 3584 2375 3584 
Q 3153 3584 3531 3317 
Q 3909 3050 3909 2503 
Q 3909 2397 3895 2270 
Q 3881 2144 3853 1997 
z
" transform="scale(0.015625)"/>
      <path id="DejaVuSans-BoldOblique-5f" d="M 3263 -916 
L 3263 -1509 
L -63 -1509 
L -63 -916 
L 3263 -916 
z
" transform="scale(0.015625)"/>
      <path id="DejaVuSans-BoldOblique-6f" d="M 2400 2784 
Q 1966 2784 1684 2390 
Q 1403 1997 1403 1388 
Q 1403 1056 1554 882 
Q 1706 709 1997 709 
Q 2431 709 2712 1104 
Q 2994 1500 2994 2113 
Q 2994 2441 2842 2612 
Q 2691 2784 2400 2784 
z
M 2491 3584 
Q 3272 3584 3719 3187 
Q 4166 2791 4166 2106 
Q 4166 1709 4025 1336 
Q 3884 963 3616 653 
Q 3297 284 2862 96 
Q 2428 -91 1894 -91 
Q 1122 -91 676 306 
Q 231 703 231 1388 
Q 231 1781 375 2157 
Q 519 2534 788 2847 
Q 1100 3209 1533 3396 
Q 1966 3584 2491 3584 
z
" transform="scale(0.015625)"/>
      <path id="DejaVuSans-BoldOblique-64" d="M 1966 722 
Q 2397 722 2667 1119 
Q 2938 1516 2938 2156 
Q 2938 2447 2786 2609 
Q 2634 2772 2363 2772 
Q 1938 2772 1663 2380 
Q 1388 1988 1388 1375 
Q 1388 1056 1536 889 
Q 1684 722 1966 722 
z
M 3144 2988 
L 3506 4863 
L 4634 4863 
L 3688 0 
L 2559 0 
L 2663 506 
Q 2406 200 2125 54 
Q 1844 -91 1509 -91 
Q 919 -91 575 284 
Q 231 659 231 1306 
Q 231 1709 351 2090 
Q 472 2472 697 2784 
Q 981 3178 1339 3381 
Q 1697 3584 2106 3584 
Q 2466 3584 2717 3439 
Q 2969 3294 3144 2988 
z
" transform="scale(0.015625)"/>
      <path id="DejaVuSans-BoldOblique-2264" d="M 4684 744 
L 4684 0 
L 678 0 
L 678 744 
L 4684 744 
z
M 4684 2963 
L 1881 2309 
L 4684 1656 
L 4684 897 
L 678 1947 
L 678 2681 
L 4684 3725 
L 4684 2963 
z
" transform="scale(0.015625)"/>
      <path id="DejaVuSans-BoldOblique-6d" d="M 4013 2919 
Q 4272 3241 4601 3412 
Q 4931 3584 5288 3584 
Q 5756 3584 6026 3326 
Q 6297 3069 6297 2619 
Q 6297 2525 6283 2404 
Q 6269 2284 6241 2131 
L 5825 0 
L 4697 0 
L 5050 1825 
L 5059 1872 
Q 5141 2259 5141 2369 
Q 5141 2541 5042 2641 
Q 4944 2741 4775 2741 
Q 4453 2741 4229 2477 
Q 4006 2213 3909 1722 
L 3572 0 
L 2444 0 
L 2803 1825 
Q 2850 2059 2869 2179 
Q 2888 2300 2888 2369 
Q 2888 2544 2791 2642 
Q 2694 2741 2522 2741 
Q 2213 2741 1980 2467 
Q 1747 2194 1656 1722 
L 1319 0 
L 197 0 
L 878 3500 
L 2003 3500 
L 1900 2988 
Q 2163 3284 2459 3434 
Q 2756 3584 3078 3584 
Q 3441 3584 3700 3398 
Q 3959 3213 4013 2919 
z
" transform="scale(0.015625)"/>
      <path id="DejaVuSans-BoldOblique-28" d="M 1888 -844 
L 978 -844 
Q 734 -325 614 173 
Q 494 672 494 1166 
Q 494 2088 891 3008 
Q 1288 3928 2088 4856 
L 2994 4856 
Q 2266 3888 1908 2939 
Q 1550 1991 1550 1038 
Q 1550 569 1634 101 
Q 1719 -366 1888 -844 
z
" transform="scale(0.015625)"/>
      <path id="DejaVuSans-BoldOblique-73" d="M 3584 3391 
L 3419 2522 
Q 3091 2678 2766 2759 
Q 2441 2841 2150 2841 
Q 1819 2841 1639 2755 
Q 1459 2669 1459 2509 
Q 1459 2416 1559 2359 
Q 1659 2303 1953 2241 
L 2156 2203 
Q 2834 2059 3106 1832 
Q 3378 1606 3378 1203 
Q 3378 594 2900 251 
Q 2422 -91 1563 -91 
Q 1203 -91 828 -34 
Q 453 22 63 134 
L 231 1013 
Q 534 834 879 743 
Q 1225 653 1588 653 
Q 1941 653 2119 737 
Q 2297 822 2297 984 
Q 2297 1097 2197 1159 
Q 2097 1222 1784 1288 
L 1581 1325 
Q 981 1450 725 1694 
Q 469 1938 469 2369 
Q 469 2953 911 3268 
Q 1353 3584 2175 3584 
Q 2534 3584 2882 3536 
Q 3231 3488 3584 3391 
z
" transform="scale(0.015625)"/>
      <path id="DejaVuSans-BoldOblique-74" d="M 2303 4494 
L 2113 3500 
L 3256 3500 
L 3097 2700 
L 1953 2700 
L 1666 1219 
Q 1653 1169 1648 1134 
Q 1644 1100 1644 1069 
Q 1644 925 1739 862 
Q 1834 800 2059 800 
L 2638 800 
L 2478 0 
L 1538 0 
Q 1031 0 765 212 
Q 500 425 500 825 
Q 500 913 509 1013 
Q 519 1113 538 1216 
L 825 2700 
L 275 2700 
L 428 3500 
L 984 3500 
L 1178 4494 
L 2303 4494 
z
" transform="scale(0.015625)"/>
      <path id="DejaVuSans-BoldOblique-29" d="M 934 4856 
L 1850 4856 
Q 2091 4344 2209 3845 
Q 2328 3347 2328 2847 
Q 2328 1916 1933 995 
Q 1538 75 744 -844 
L -172 -844 
Q 556 125 915 1075 
Q 1275 2025 1275 2981 
Q 1275 3450 1190 3914 
Q 1106 4378 934 4856 
z
" transform="scale(0.015625)"/>
     </defs>
     <use xlink:href="#DejaVuSans-BoldOblique-50"/>
     <use xlink:href="#DejaVuSans-BoldOblique-72" transform="translate(70.166016 0)"/>
     <use xlink:href="#DejaVuSans-BoldOblique-69" transform="translate(119.482422 0)"/>
     <use xlink:href="#DejaVuSans-BoldOblique-6e" transform="translate(153.759766 0)"/>
     <use xlink:href="#DejaVuSans-BoldOblique-63" transform="translate(224.951172 0)"/>
     <use xlink:href="#DejaVuSans-BoldOblique-69" transform="translate(284.228516 0)"/>
     <use xlink:href="#DejaVuSans-BoldOblique-70" transform="translate(318.505859 0)"/>
     <use xlink:href="#DejaVuSans-BoldOblique-6c" transform="translate(390.087891 0)"/>
     <use xlink:href="#DejaVuSans-BoldOblique-65" transform="translate(424.365234 0)"/>
     <use xlink:href="#DejaVuSans-BoldOblique-3a" transform="translate(492.1875 0)"/>
     <use xlink:href="#DejaVuSans-BoldOblique-20" transform="translate(532.177734 0)"/>
     <use xlink:href="#DejaVuSans-BoldOblique-66" transform="translate(566.992188 0)"/>
     <use xlink:href="#DejaVuSans-BoldOblique-69" transform="translate(610.498047 0)"/>
     <use xlink:href="#DejaVuSans-BoldOblique-6e" transform="translate(644.775391 0)"/>
     <use xlink:href="#DejaVuSans-BoldOblique-61" transform="translate(715.966797 0)"/>
     <use xlink:href="#DejaVuSans-BoldOblique-6c" transform="translate(783.447266 0)"/>
     <use xlink:href="#DejaVuSans-BoldOblique-5f" transform="translate(817.724609 0)"/>
     <use xlink:href="#DejaVuSans-BoldOblique-63" transform="translate(867.724609 0)"/>
     <use xlink:href="#DejaVuSans-BoldOblique-6f" transform="translate(927.001953 0)"/>
     <use xlink:href="#DejaVuSans-BoldOblique-6e" transform="translate(995.703125 0)"/>
     <use xlink:href="#DejaVuSans-BoldOblique-66" transform="translate(1066.894531 0)"/>
     <use xlink:href="#DejaVuSans-BoldOblique-69" transform="translate(1110.400391 0)"/>
     <use xlink:href="#DejaVuSans-BoldOblique-64" transform="translate(1144.677734 0)"/>
     <use xlink:href="#DejaVuSans-BoldOblique-65" transform="translate(1216.259766 0)"/>
     <use xlink:href="#DejaVuSans-BoldOblique-6e" transform="translate(1284.082031 0)"/>
     <use xlink:href="#DejaVuSans-BoldOblique-63" transform="translate(1355.273438 0)"/>
     <use xlink:href="#DejaVuSans-BoldOblique-65" transform="translate(1414.550781 0)"/>
     <use xlink:href="#DejaVuSans-BoldOblique-20" transform="translate(1482.373047 0)"/>
     <use xlink:href="#DejaVuSans-BoldOblique-2264" transform="translate(1517.1875 0)"/>
     <use xlink:href="#DejaVuSans-BoldOblique-20" transform="translate(1600.976562 0)"/>
     <use xlink:href="#DejaVuSans-BoldOblique-6d" transform="translate(1635.791016 0)"/>
     <use xlink:href="#DejaVuSans-BoldOblique-69" transform="translate(1739.990234 0)"/>
     <use xlink:href="#DejaVuSans-BoldOblique-6e" transform="translate(1774.267578 0)"/>
     <use xlink:href="#DejaVuSans-BoldOblique-28" transform="translate(1845.458984 0)"/>
     <use xlink:href="#DejaVuSans-BoldOblique-73" transform="translate(1891.162109 0)"/>
     <use xlink:href="#DejaVuSans-BoldOblique-74" transform="translate(1950.683594 0)"/>
     <use xlink:href="#DejaVuSans-BoldOblique-65" transform="translate(1998.486328 0)"/>
     <use xlink:href="#DejaVuSans-BoldOblique-70" transform="translate(2066.308594 0)"/>
     <use xlink:href="#DejaVuSans-BoldOblique-5f" transform="translate(2137.890625 0)"/>
     <use xlink:href="#DejaVuSans-BoldOblique-63" transform="translate(2187.890625 0)"/>
     <use xlink:href="#DejaVuSans-BoldOblique-6f" transform="translate(2247.167969 0)"/>
     <use xlink:href="#DejaVuSans-BoldOblique-6e" transform="translate(2315.869141 0)"/>
     <use xlink:href="#DejaVuSans-BoldOblique-66" transform="translate(2387.060547 0)"/>
     <use xlink:href="#DejaVuSans-BoldOblique-69" transform="translate(2430.566406 0)"/>
     <use xlink:href="#DejaVuSans-BoldOblique-64" transform="translate(2464.84375 0)"/>
     <use xlink:href="#DejaVuSans-BoldOblique-65" transform="translate(2536.425781 0)"/>
     <use xlink:href="#DejaVuSans-BoldOblique-6e" transform="translate(2604.248047 0)"/>
     <use xlink:href="#DejaVuSans-BoldOblique-63" transform="translate(2675.439453 0)"/>
     <use xlink:href="#DejaVuSans-BoldOblique-65" transform="translate(2734.716797 0)"/>
     <use xlink:href="#DejaVuSans-BoldOblique-73" transform="translate(2802.539062 0)"/>
     <use xlink:href="#DejaVuSans-BoldOblique-29" transform="translate(2862.060547 0)"/>
    </g>
   </g>
   <g id="text_11">
    <!-- High (≥90%) -->
    <g style="fill: #6b7280" transform="translate(118.836 96.43005) scale(0.09 -0.09)">
     <defs>
      <path id="DejaVuSans-48" d="M 628 4666 
L 1259 4666 
L 1259 2753 
L 3553 2753 
L 3553 4666 
L 4184 4666 
L 4184 0 
L 3553 0 
L 3553 2222 
L 1259 2222 
L 1259 0 
L 628 0 
L 628 4666 
z
" transform="scale(0.015625)"/>
      <path id="DejaVuSans-67" d="M 2906 1791 
Q 2906 2416 2648 2759 
Q 2391 3103 1925 3103 
Q 1463 3103 1205 2759 
Q 947 2416 947 1791 
Q 947 1169 1205 825 
Q 1463 481 1925 481 
Q 2391 481 2648 825 
Q 2906 1169 2906 1791 
z
M 3481 434 
Q 3481 -459 3084 -895 
Q 2688 -1331 1869 -1331 
Q 1566 -1331 1297 -1286 
Q 1028 -1241 775 -1147 
L 775 -588 
Q 1028 -725 1275 -790 
Q 1522 -856 1778 -856 
Q 2344 -856 2625 -561 
Q 2906 -266 2906 331 
L 2906 616 
Q 2728 306 2450 153 
Q 2172 0 1784 0 
Q 1141 0 747 490 
Q 353 981 353 1791 
Q 353 2603 747 3093 
Q 1141 3584 1784 3584 
Q 2172 3584 2450 3431 
Q 2728 3278 2906 2969 
L 2906 3500 
L 3481 3500 
L 3481 434 
z
" transform="scale(0.015625)"/>
      <path id="DejaVuSans-68" d="M 3513 2113 
L 3513 0 
L 2938 0 
L 2938 2094 
Q 2938 2591 2744 2837 
Q 2550 3084 2163 3084 
Q 1697 3084 1428 2787 
Q 1159 2491 1159 1978 
L 1159 0 
L 581 0 
L 581 4863 
L 1159 4863 
L 1159 2956 
Q 1366 3272 1645 3428 
Q 1925 3584 2291 3584 
Q 2894 3584 3203 3211 
Q 3513 2838 3513 2113 
z
" transform="scale(0.015625)"/>
      <path id="DejaVuSans-28" d="M 1984 4856 
Q 1566 4138 1362 3434 
Q 1159 2731 1159 2009 
Q 1159 1288 1364 580 
Q 1569 -128 1984 -844 
L 1484 -844 
Q 1016 -109 783 600 
Q 550 1309 550 2009 
Q 550 2706 781 3412 
Q 1013 4119 1484 4856 
L 1984 4856 
z
" transform="scale(0.015625)"/>
      <path id="DejaVuSans-2265" d="M 678 3175 
L 678 3725 
L 4684 2578 
L 4684 2047 
L 678 897 
L 678 1453 
L 3681 2309 
L 678 3175 
z
M 4684 531 
L 4684 0 
L 678 0 
L 678 531 
L 4684 531 
z
" transform="scale(0.015625)"/>
      <path id="DejaVuSans-39" d="M 703 97 
L 703 672 
Q 941 559 1184 500 
Q 1428 441 1663 441 
Q 2288 441 2617 861 
Q 2947 1281 2994 2138 
Q 2813 1869 2534 1725 
Q 2256 1581 1919 1581 
Q 1219 1581 811 2004 
Q 403 2428 403 3163 
Q 403 3881 828 4315 
Q 1253 4750 1959 4750 
Q 2769 4750 3195 4129 
Q 3622 3509 3622 2328 
Q 3622 1225 3098 567 
Q 2575 -91 1691 -91 
Q 1453 -91 1209 -44 
Q 966 3 703 97 
z
M 1959 2075 
Q 2384 2075 2632 2365 
Q 2881 2656 2881 3163 
Q 2881 3666 2632 3958 
Q 2384 4250 1959 4250 
Q 1534 4250 1286 3958 
Q 1038 3666 1038 3163 
Q 1038 2656 1286 2365 
Q 1534 2075 1959 2075 
z
" transform="scale(0.015625)"/>
      <path id="DejaVuSans-30" d="M 2034 4250 
Q 1547 4250 1301 3770 
Q 1056 3291 1056 2328 
Q 1056 1369 1301 889 
Q 1547 409 2034 409 
Q 2525 409 2770 889 
Q 3016 1369 3016 2328 
Q 3016 3291 2770 3770 
Q 2525 4250 2034 4250 
z
M 2034 4750 
Q 2819 4750 3233 4129 
Q 3647 3509 3647 2328 
Q 3647 1150 3233 529 
Q 2819 -91 2034 -91 
Q 1250 -91 836 529 
Q 422 1150 422 2328 
Q 422 3509 836 4129 
Q 1250 4750 2034 4750 
z
" transform="scale(0.015625)"/>
      <path id="DejaVuSans-25" d="M 4653 2053 
Q 4381 2053 4226 1822 
Q 4072 1591 4072 1178 
Q 4072 772 4226 539 
Q 4381 306 4653 306 
Q 4919 306 5073 539 
Q 5228 772 5228 1178 
Q 5228 1588 5073 1820 
Q 4919 2053 4653 2053 
z
M 4653 2450 
Q 5147 2450 5437 2106 
Q 5728 1763 5728 1178 
Q 5728 594 5436 251 
Q 5144 -91 4653 -91 
Q 4153 -91 3862 251 
Q 3572 594 3572 1178 
Q 3572 1766 3864 2108 
Q 4156 2450 4653 2450 
z
M 1428 4353 
Q 1159 4353 1004 4120 
Q 850 3888 850 3481 
Q 850 3069 1003 2837 
Q 1156 2606 1428 2606 
Q 1700 2606 1854 2837 
Q 2009 3069 2009 3481 
Q 2009 3884 1853 4118 
Q 1697 4353 1428 4353 
z
M 4250 4750 
L 4750 4750 
L 1831 -91 
L 1331 -91 
L 4250 4750 
z
M 1428 4750 
Q 1922 4750 2215 4408 
Q 2509 4066 2509 3481 
Q 2509 2891 2217 2550 
Q 1925 2209 1428 2209 
Q 931 2209 642 2551 
Q 353 2894 353 3481 
Q 353 4063 643 4406 
Q 934 4750 1428 4750 
z
" transform="scale(0.015625)"/>
      <path id="DejaVuSans-29" d="M 513 4856 
L 1013 4856 
Q 1481 4119 1714 3412 
Q 1947 2706 1947 2009 
Q 1947 1309 1714 600 
Q 1481 -109 1013 -844 
L 513 -844 
Q 928 -128 1133 580 
Q 1338 1288 1338 2009 
Q 1338 2731 1133 3434 
Q 928 4138 513 4856 
z
" transform="scale(0.015625)"/>
     </defs>
     <use xlink:href="#DejaVuSans-48"/>
     <use xlink:href="#DejaVuSans-69" transform="translate(75.195312 0)"/>
     <use xlink:href="#DejaVuSans-67" transform="translate(102.978516 0)"/>
     <use xlink:href="#DejaVuSans-68" transform="translate(166.455078 0)"/>
     <use xlink:href="#DejaVuSans-20" transform="translate(229.833984 0)"/>
     <use xlink:href="#DejaVuSans-28" transform="translate(261.621094 0)"/>
     <use xlink:href="#DejaVuSans-2265" transform="translate(300.634766 0)"/>
     <use xlink:href="#DejaVuSans-39" transform="translate(384.423828 0)"/>
     <use xlink:href="#DejaVuSans-30" transform="translate(448.046875 0)"/>
     <use xlink:href="#DejaVuSans-25" transform="translate(511.669922 0)"/>
     <use xlink:href="#DejaVuSans-29" transform="translate(606.689453 0)"/>
    </g>
   </g>
   <g id="text_12">
    <!-- Medium (70-89%) -->
    <g style="fill: #6b7280" transform="translate(362.52 96.43005) scale(0.09 -0.09)">
     <defs>
      <path id="DejaVuSans-4d" d="M 628 4666 
L 1569 4666 
L 2759 1491 
L 3956 4666 
L 4897 4666 
L 4897 0 
L 4281 0 
L 4281 4097 
L 3078 897 
L 2444 897 
L 1241 4097 
L 1241 0 
L 628 0 
L 628 4666 
z
" transform="scale(0.015625)"/>
      <path id="DejaVuSans-64" d="M 2906 2969 
L 2906 4863 
L 3481 4863 
L 3481 0 
L 2906 0 
L 2906 525 
Q 2725 213 2448 61 
Q 2172 -91 1784 -91 
Q 1150 -91 751 415 
Q 353 922 353 1747 
Q 353 2572 751 3078 
Q 1150 3584 1784 3584 
Q 2172 3584 2448 3432 
Q 2725 3281 2906 2969 
z
M 947 1747 
Q 947 1113 1208 752 
Q 1469 391 1925 391 
Q 2381 391 2643 752 
Q 2906 1113 2906 1747 
Q 2906 2381 2643 2742 
Q 2381 3103 1925 3103 
Q 1469 3103 1208 2742 
Q 947 2381 947 1747 
z
" transform="scale(0.015625)"/>
      <path id="DejaVuSans-37" d="M 525 4666 
L 3525 4666 
L 3525 4397 
L 1831 0 
L 1172 0 
L 2766 4134 
L 525 4134 
L 525 4666 
z
" transform="scale(0.015625)"/>
      <path id="DejaVuSans-2d" d="M 313 2009 
L 1997 2009 
L 1997 1497 
L 313 1497 
L 313 2009 
z
" transform="scale(0.015625)"/>
      <path id="DejaVuSans-38" d="M 2034 2216 
Q 1584 2216 1326 1975 
Q 1069 1734 1069 1313 
Q 1069 891 1326 650 
Q 1584 409 2034 409 
Q 2484 409 2743 651 
Q 3003 894 3003 1313 
Q 3003 1734 2745 1975 
Q 2488 2216 2034 2216 
z
M 1403 2484 
Q 997 2584 770 2862 
Q 544 3141 544 3541 
Q 544 4100 942 4425 
Q 1341 4750 2034 4750 
Q 2731 4750 3128 4425 
Q 3525 4100 3525 3541 
Q 3525 3141 3298 2862 
Q 3072 2584 2669 2484 
Q 3125 2378 3379 2068 
Q 3634 1759 3634 1313 
Q 3634 634 3220 271 
Q 2806 -91 2034 -91 
Q 1263 -91 848 271 
Q 434 634 434 1313 
Q 434 1759 690 2068 
Q 947 2378 1403 2484 
z
M 1172 3481 
Q 1172 3119 1398 2916 
Q 1625 2713 2034 2713 
Q 2441 2713 2670 2916 
Q 2900 3119 2900 3481 
Q 2900 3844 2670 4047 
Q 2441 4250 2034 4250 
Q 1625 4250 1398 4047 
Q 1172 3844 1172 3481 
z
" transform="scale(0.015625)"/>
     </defs>
     <use xlink:href="#DejaVuSans-4d"/>
     <use xlink:href="#DejaVuSans-65" transform="translate(86.279297 0)"/>
     <use xlink:href="#DejaVuSans-64" transform="translate(147.802734 0)"/>
     <use xlink:href="#DejaVuSans-69" transform="translate(211.279297 0)"/>
     <use xlink:href="#DejaVuSans-75" transform="translate(239.0625 0)"/>
     <use xlink:href="#DejaVuSans-6d" transform="translate(302.441406 0)"/>
     <use xlink:href="#DejaVuSans-20" transform="translate(399.853516 0)"/>
     <use xlink:href="#DejaVuSans-28" transform="translate(431.640625 0)"/>
     <use xlink:href="#DejaVuSans-37" transform="translate(470.654297 0)"/>
     <use xlink:href="#DejaVuSans-30" transform="translate(534.277344 0)"/>
     <use xlink:href="#DejaVuSans-2d" transform="translate(597.900391 0)"/>
     <use xlink:href="#DejaVuSans-38" transform="translate(633.984375 0)"/>
     <use xlink:href="#DejaVuSans-39" transform="translate(697.607422 0)"/>
     <use xlink:href="#DejaVuSans-25" transform="translate(761.230469 0)"/>
     <use xlink:href="#DejaVuSans-29" transform="translate(856.25 0)"/>
    </g>
   </g>
   <g id="text_13">
    <!-- Low (&lt;70%) -->
    <g style="fill: #6b7280" transform="translate(606.204 96.43005) scale(0.09 -0.09)">
     <defs>
      <path id="DejaVuSans-4c" d="M 628 4666 
L 1259 4666 
L 1259 531 
L 3531 531 
L 3531 0 
L 628 0 
L 628 4666 
z
" transform="scale(0.015625)"/>
      <path id="DejaVuSans-3c" d="M 4684 3150 
L 1459 2003 
L 4684 863 
L 4684 294 
L 678 1747 
L 678 2266 
L 4684 3719 
L 4684 3150 
z
" transform="scale(0.015625)"/>
     </defs>
     <use xlink:href="#DejaVuSans-4c"/>
     <use xlink:href="#DejaVuSans-6f" transform="translate(53.962891 0)"/>
     <use xlink:href="#DejaVuSans-77" transform="translate(115.144531 0)"/>
     <use xlink:href="#DejaVuSans-20" transform="translate(196.931641 0)"/>
     <use xlink:href="#DejaVuSans-28" transform="translate(228.71875 0)"/>
     <use xlink:href="#DejaVuSans-3c" transform="translate(267.732422 0)"/>
     <use xlink:href="#DejaVuSans-37" transform="translate(351.521484 0)"/>
     <use xlink:href="#DejaVuSans-30" transform="translate(415.144531 0)"/>
     <use xlink:href="#DejaVuSans-25" transform="translate(478.767578 0)"/>
     <use xlink:href="#DejaVuSans-29" transform="translate(573.787109 0)"/>
    </g>
   </g>
   <g id="text_14">
    <!-- The Weakest-Link Principle: Confidence Propagates Through Reasoning -->
    <g style="fill: #262626" transform="translate(14.4 25.037812) scale(0.14 -0.14)">
     <defs>
      <path id="DejaVuSans-Bold-54" d="M 31 4666 
L 4331 4666 
L 4331 3756 
L 2784 3756 
L 2784 0 
L 1581 0 
L 1581 3756 
L 31 3756 
L 31 4666 
z
" transform="scale(0.015625)"/>
      <path id="DejaVuSans-Bold-68" d="M 4056 2131 
L 4056 0 
L 2931 0 
L 2931 347 
L 2931 1625 
Q 2931 2084 2911 2256 
Q 2891 2428 2841 2509 
Q 2775 2619 2662 2680 
Q 2550 2741 2406 2741 
Q 2056 2741 1856 2470 
Q 1656 2200 1656 1722 
L 1656 0 
L 538 0 
L 538 4863 
L 1656 4863 
L 1656 2988 
Q 1909 3294 2193 3439 
Q 2478 3584 2822 3584 
Q 3428 3584 3742 3212 
Q 4056 2841 4056 2131 
z
" transform="scale(0.015625)"/>
      <path id="DejaVuSans-Bold-2d" d="M 347 2297 
L 2309 2297 
L 2309 1388 
L 347 1388 
L 347 2297 
z
" transform="scale(0.015625)"/>
      <path id="DejaVuSans-Bold-4c" d="M 588 4666 
L 1791 4666 
L 1791 909 
L 3903 909 
L 3903 0 
L 588 0 
L 588 4666 
z
" transform="scale(0.015625)"/>
      <path id="DejaVuSans-Bold-50" d="M 588 4666 
L 2584 4666 
Q 3475 4666 3951 4270 
Q 4428 3875 4428 3144 
Q 4428 2409 3951 2014 
Q 3475 1619 2584 1619 
L 1791 1619 
L 1791 0 
L 588 0 
L 588 4666 
z
M 1791 3794 
L 1791 2491 
L 2456 2491 
Q 2806 2491 2997 2661 
Q 3188 2831 3188 3144 
Q 3188 3456 2997 3625 
Q 2806 3794 2456 3794 
L 1791 3794 
z
" transform="scale(0.015625)"/>
      <path id="DejaVuSans-Bold-63" d="M 3366 3391 
L 3366 2478 
Q 3138 2634 2908 2709 
Q 2678 2784 2431 2784 
Q 1963 2784 1702 2511 
Q 1441 2238 1441 1747 
Q 1441 1256 1702 982 
Q 1963 709 2431 709 
Q 2694 709 2930 787 
Q 3166 866 3366 1019 
L 3366 103 
Q 3103 6 2833 -42 
Q 2563 -91 2291 -91 
Q 1344 -91 809 395 
Q 275 881 275 1747 
Q 275 2613 809 3098 
Q 1344 3584 2291 3584 
Q 2566 3584 2833 3536 
Q 3100 3488 3366 3391 
z
" transform="scale(0.015625)"/>
      <path id="DejaVuSans-Bold-70" d="M 1656 506 
L 1656 -1331 
L 538 -1331 
L 538 3500 
L 1656 3500 
L 1656 2988 
Q 1888 3294 2169 3439 
Q 2450 3584 2816 3584 
Q 3463 3584 3878 3070 
Q 4294 2556 4294 1747 
Q 4294 938 3878 423 
Q 3463 -91 2816 -91 
Q 2450 -91 2169 54 
Q 1888 200 1656 506 
z
M 2400 2772 
Q 2041 2772 1848 2508 
Q 1656 2244 1656 1747 
Q 1656 1250 1848 986 
Q 2041 722 2400 722 
Q 2759 722 2948 984 
Q 3138 1247 3138 1747 
Q 3138 2247 2948 2509 
Q 2759 2772 2400 2772 
z
" transform="scale(0.015625)"/>
      <path id="DejaVuSans-Bold-3a" d="M 716 3500 
L 1844 3500 
L 1844 2291 
L 716 2291 
L 716 3500 
z
M 716 1209 
L 1844 1209 
L 1844 0 
L 716 0 
L 716 1209 
z
" transform="scale(0.015625)"/>
      <path id="DejaVuSans-Bold-43" d="M 4288 256 
Q 3956 84 3597 -3 
Q 3238 -91 2847 -91 
Q 1681 -91 1000 561 
Q 319 1213 319 2328 
Q 319 3447 1000 4098 
Q 1681 4750 2847 4750 
Q 3238 4750 3597 4662 
Q 3956 4575 4288 4403 
L 4288 3438 
Q 3953 3666 3628 3772 
Q 3303 3878 2944 3878 
Q 2300 3878 1931 3465 
Q 1563 3053 1563 2328 
Q 1563 1606 1931 1193 
Q 2300 781 2944 781 
Q 3303 781 3628 887 
Q 3953 994 4288 1222 
L 4288 256 
z
" transform="scale(0.015625)"/>
      <path id="DejaVuSans-Bold-6f" d="M 2203 2784 
Q 1831 2784 1636 2517 
Q 1441 2250 1441 1747 
Q 1441 1244 1636 976 
Q 1831 709 2203 709 
Q 2569 709 2762 976 
Q 2956 1244 2956 1747 
Q 2956 2250 2762 2517 
Q 2569 2784 2203 2784 
z
M 2203 3584 
Q 3106 3584 3614 3096 
Q 4122 2609 4122 1747 
Q 4122 884 3614 396 
Q 3106 -91 2203 -91 
Q 1297 -91 786 396 
Q 275 884 275 1747 
Q 275 2609 786 3096 
Q 1297 3584 2203 3584 
z
" transform="scale(0.015625)"/>
      <path id="DejaVuSans-Bold-67" d="M 2919 594 
Q 2688 288 2409 144 
Q 2131 0 1766 0 
Q 1125 0 706 504 
Q 288 1009 288 1791 
Q 288 2575 706 3076 
Q 1125 3578 1766 3578 
Q 2131 3578 2409 3434 
Q 2688 3291 2919 2981 
L 2919 3500 
L 4044 3500 
L 4044 353 
Q 4044 -491 3511 -936 
Q 2978 -1381 1966 -1381 
Q 1638 -1381 1331 -1331 
Q 1025 -1281 716 -1178 
L 716 -306 
Q 1009 -475 1290 -558 
Q 1572 -641 1856 -641 
Q 2406 -641 2662 -400 
Q 2919 -159 2919 353 
L 2919 594 
z
M 2181 2772 
Q 1834 2772 1640 2515 
Q 1447 2259 1447 1791 
Q 1447 1309 1634 1061 
Q 1822 813 2181 813 
Q 2531 813 2725 1069 
Q 2919 1325 2919 1791 
Q 2919 2259 2725 2515 
Q 2531 2772 2181 2772 
z
" transform="scale(0.015625)"/>
      <path id="DejaVuSans-Bold-75" d="M 500 1363 
L 500 3500 
L 1625 3500 
L 1625 3150 
Q 1625 2866 1622 2436 
Q 1619 2006 1619 1863 
Q 1619 1441 1641 1255 
Q 1663 1069 1716 984 
Q 1784 875 1895 815 
Q 2006 756 2150 756 
Q 2500 756 2700 1025 
Q 2900 1294 2900 1772 
L 2900 3500 
L 4019 3500 
L 4019 0 
L 2900 0 
L 2900 506 
Q 2647 200 2364 54 
Q 2081 -91 1741 -91 
Q 1134 -91 817 281 
Q 500 653 500 1363 
z
" transform="scale(0.015625)"/>
      <path id="DejaVuSans-Bold-52" d="M 2297 2597 
Q 2675 2597 2839 2737 
Q 3003 2878 3003 3200 
Q 3003 3519 2839 3656 
Q 2675 3794 2297 3794 
L 1791 3794 
L 1791 2597 
L 2297 2597 
z
M 1791 1766 
L 1791 0 
L 588 0 
L 588 4666 
L 2425 4666 
Q 3347 4666 3776 4356 
Q 4206 4047 4206 3378 
Q 4206 2916 3982 2619 
Q 3759 2322 3309 2181 
Q 3556 2125 3751 1926 
Q 3947 1728 4147 1325 
L 4800 0 
L 3519 0 
L 2950 1159 
Q 2778 1509 2601 1637 
Q 2425 1766 2131 1766 
L 1791 1766 
z
" transform="scale(0.015625)"/>
     </defs>
     <use xlink:href="#DejaVuSans-Bold-54"/>
     <use xlink:href="#DejaVuSans-Bold-68" transform="translate(68.212891 0)"/>
     <use xlink:href="#DejaVuSans-Bold-65" transform="translate(139.404297 0)"/>
     <use xlink:href="#DejaVuSans-Bold-20" transform="translate(207.226562 0)"/>
     <use xlink:href="#DejaVuSans-Bold-57" transform="translate(242.041016 0)"/>
     <use xlink:href="#DejaVuSans-Bold-65" transform="translate(348.71875 0)"/>
     <use xlink:href="#DejaVuSans-Bold-61" transform="translate(416.541016 0)"/>
     <use xlink:href="#DejaVuSans-Bold-6b" transform="translate(484.021484 0)"/>
     <use xlink:href="#DejaVuSans-Bold-65" transform="translate(547.900391 0)"/>
     <use xlink:href="#DejaVuSans-Bold-73" transform="translate(615.722656 0)"/>
     <use xlink:href="#DejaVuSans-Bold-74" transform="translate(675.244141 0)"/>
     <use xlink:href="#DejaVuSans-Bold-2d" transform="translate(723.046875 0)"/>
     <use xlink:href="#DejaVuSans-Bold-4c" transform="translate(764.550781 0)"/>
     <use xlink:href="#DejaVuSans-Bold-69" transform="translate(828.271484 0)"/>
     <use xlink:href="#DejaVuSans-Bold-6e" transform="translate(862.548828 0)"/>
     <use xlink:href="#DejaVuSans-Bold-6b" transform="translate(933.740234 0)"/>
     <use xlink:href="#DejaVuSans-Bold-20" transform="translate(1000.244141 0)"/>
     <use xlink:href="#DejaVuSans-Bold-50" transform="translate(1035.058594 0)"/>
     <use xlink:href="#DejaVuSans-Bold-72" transform="translate(1108.349609 0)"/>
     <use xlink:href="#DejaVuSans-Bold-69" transform="translate(1157.666016 0)"/>
     <use xlink:href="#DejaVuSans-Bold-6e" transform="translate(1191.943359 0)"/>
     <use xlink:href="#DejaVuSans-Bold-63" transform="translate(1263.134766 0)"/>
     <use xlink:href="#DejaVuSans-Bold-69" transform="translate(1322.412109 0)"/>
     <use xlink:href="#DejaVuSans-Bold-70" transform="translate(1356.689453 0)"/>
     <use xlink:href="#DejaVuSans-Bold-6c" transform="translate(1428.271484 0)"/>
     <use xlink:href="#DejaVuSans-Bold-65" transform="translate(1462.548828 0)"/>
     <use xlink:href="#DejaVuSans-Bold-3a" transform="translate(1530.371094 0)"/>
     <use xlink:href="#DejaVuSans-Bold-20" transform="translate(1570.361328 0)"/>
     <use xlink:href="#DejaVuSans-Bold-43" transform="translate(1605.175781 0)"/>
     <use xlink:href="#DejaVuSans-Bold-6f" transform="translate(1678.564453 0)"/>
     <use xlink:href="#DejaVuSans-Bold-6e" transform="translate(1747.265625 0)"/>
     <use xlink:href="#DejaVuSans-Bold-66" transform="translate(1818.457031 0)"/>
     <use xlink:href="#DejaVuSans-Bold-69" transform="translate(1861.962891 0)"/>
     <use xlink:href="#DejaVuSans-Bold-64" transform="translate(1896.240234 0)"/>
     <use xlink:href="#DejaVuSans-Bold-65" transform="translate(1967.822266 0)"/>
     <use xlink:href="#DejaVuSans-Bold-6e" transform="translate(2035.644531 0)"/>
     <use xlink:href="#DejaVuSans-Bold-63" transform="translate(2106.835938 0)"/>
     <use xlink:href="#DejaVuSans-Bold-65" transform="translate(2166.113281 0)"/>
     <use xlink:href="#DejaVuSans-Bold-20" transform="translate(2233.935547 0)"/>
     <use xlink:href="#DejaVuSans-Bold-50" transform="translate(2268.75 0)"/>
     <use xlink:href="#DejaVuSans-Bold-72" transform="translate(2342.041016 0)"/>
     <use xlink:href="#DejaVuSans-Bold-6f" transform="translate(2391.357422 0)"/>
     <use xlink:href="#DejaVuSans-Bold-70" transform="translate(2460.058594 0)"/>
     <use xlink:href="#DejaVuSans-Bold-61" transform="translate(2531.640625 0)"/>
     <use xlink:href="#DejaVuSans-Bold-67" transform="translate(2599.121094 0)"/>
     <use xlink:href="#DejaVuSans-Bold-61" transform="translate(2670.703125 0)"/>
     <use xlink:href="#DejaVuSans-Bold-74" transform="translate(2738.183594 0)"/>
     <use xlink:href="#DejaVuSans-Bold-65" transform="translate(2785.986328 0)"/>
     <use xlink:href="#DejaVuSans-Bold-73" transform="translate(2853.808594 0)"/>
     <use xlink:href="#DejaVuSans-Bold-20" transform="translate(2913.330078 0)"/>
     <use xlink:href="#DejaVuSans-Bold-54" transform="translate(2948.144531 0)"/>
     <use xlink:href="#DejaVuSans-Bold-68" transform="translate(3016.357422 0)"/>
     <use xlink:href="#DejaVuSans-Bold-72" transform="translate(3087.548828 0)"/>
     <use xlink:href="#DejaVuSans-Bold-6f" transform="translate(3136.865234 0)"/>
     <use xlink:href="#DejaVuSans-Bold-75" transform="translate(3205.566406 0)"/>
     <use xlink:href="#DejaVuSans-Bold-67" transform="translate(3276.757812 0)"/>
     <use xlink:href="#DejaVuSans-Bold-68" transform="translate(3348.339844 0)"/>
     <use xlink:href="#DejaVuSans-Bold-20" transform="translate(3419.53125 0)"/>
     <use xlink:href="#DejaVuSans-Bold-52" transform="translate(3454.345703 0)"/>
     <use xlink:href="#DejaVuSans-Bold-65" transform="translate(3531.347656 0)"/>
     <use xlink:href="#DejaVuSans-Bold-61" transform="translate(3599.169922 0)"/>
     <use xlink:href="#DejaVuSans-Bold-73" transform="translate(3666.650391 0)"/>
     <use xlink:href="#DejaVuSans-Bold-6f" transform="translate(3726.171875 0)"/>
     <use xlink:href="#DejaVuSans-Bold-6e" transform="translate(3794.873047 0)"/>
     <use xlink:href="#DejaVuSans-Bold-69" transform="translate(3866.064453 0)"/>
     <use xlink:href="#DejaVuSans-Bold-6e" transform="translate(3900.341797 0)"/>
     <use xlink:href="#DejaVuSans-Bold-67" transform="translate(3971.533203 0)"/>
    </g>
   </g>
  </g>
 </g>
 <defs>
  <clipPath id="pfee039374e">
   <rect x="14.4" y="45.037813" width="696.24" height="305.68"/>
  </clipPath>
 </defs>
</svg>
