<?xml version="1.0" encoding="utf-8" standalone="no"?>
<!DOCTYPE svg PUBLIC "-//W3C//DTD SVG 1.1//EN"
  "http://www.w3.org/Graphics/SVG/1.1/DTD/svg11.dtd">
<svg xmlns:xlink="http://www.w3.org/1999/xlink" width="581.13875pt" height="293.289687pt" viewBox="0 0 581.13875 293.289687" xmlns="http://www.w3.org/2000/svg" version="1.1">
 <metadata>
  <rdf:RDF xmlns:dc="http://purl.org/dc/elements/1.1/" xmlns:cc="http://creativecommons.org/ns#" xmlns:rdf="http://www.w3.org/1999/02/22-rdf-syntax-ns#">
   <cc:Work>
    <dc:type rdf:resource="http://purl.org/dc/dcmitype/StillImage"/>
    <dc:date>2026-01-03T21:02:15.367696</dc:date>
    <dc:format>image/svg+xml</dc:format>
    <dc:creator>
     <cc:Agent>
      <dc:title>Matplotlib v3.10.8, https://matplotlib.org/</dc:title>
     </cc:Agent>
    </dc:creator>
   </cc:Work>
  </rdf:RDF>
 </metadata>
 <defs>
  <style type="text/css">*{stroke-linejoin: round; stroke-linecap: butt}</style>
 </defs>
 <g id="figure_1">
  <g id="patch_1">
   <path d="M 0 293.289687 
L 581.13875 293.289687 
L 581.13875 0 
L 0 0 
z
" style="fill: #ffffff"/>
  </g>
  <g id="axes_1">
   <g id="patch_2">
    <path d="M 46.23875 250.097812 
L 566.73875 250.097812 
L 566.73875 40.037812 
L 46.23875 40.037812 
z
" style="fill: #ffffff"/>
   </g>
   <g id="matplotlib.axis_1">
    <g id="xtick_1">
     <g id="line2d_1">
      <path d="M 69.897841 250.097812 
L 69.897841 40.037812 
" clip-path="url(#pea773384e7)" style="fill: none; stroke-dasharray: 1,1.65; stroke-dashoffset: 0; stroke: #b0b0b0; stroke-opacity: 0.6"/>
     </g>
     <g id="line2d_2"/>
     <g id="text_1">
      <!-- 10 -->
      <g style="fill: #262626" transform="translate(63.535341 261.19625) scale(0.1 -0.1)">
       <defs>
        <path id="DejaVuSans-31" d="M 794 531 
L 1825 531 
L 1825 4091 
L 703 3866 
L 703 4441 
L 1819 4666 
L 2450 4666 
L 2450 531 
L 3481 531 
L 3481 0 
L 794 0 
L 794 531 
z
" transform="scale(0.015625)"/>
        <path id="DejaVuSans-30" d="M 2034 4250 
Q 1547 4250 1301 3770 
Q 1056 3291 1056 2328 
Q 1056 1369 1301 889 
Q 1547 409 2034 409 
Q 2525 409 2770 889 
Q 3016 1369 3016 2328 
Q 3016 3291 2770 3770 
Q 2525 4250 2034 4250 
z
M 2034 4750 
Q 2819 4750 3233 4129 
Q 3647 3509 3647 2328 
Q 3647 1150 3233 529 
Q 2819 -91 2034 -91 
Q 1250 -91 836 529 
Q 422 1150 422 2328 
Q 422 3509 836 4129 
Q 1250 4750 2034 4750 
z
" transform="scale(0.015625)"/>
       </defs>
       <use xlink:href="#DejaVuSans-31"/>
       <use xlink:href="#DejaVuSans-30" transform="translate(63.623047 0)"/>
      </g>
     </g>
    </g>
    <g id="xtick_2">
     <g id="line2d_3">
      <path d="M 148.761477 250.097812 
L 148.761477 40.037812 
" clip-path="url(#pea773384e7)" style="fill: none; stroke-dasharray: 1,1.65; stroke-dashoffset: 0; stroke: #b0b0b0; stroke-opacity: 0.6"/>
     </g>
     <g id="line2d_4"/>
     <g id="text_2">
      <!-- 15 -->
      <g style="fill: #262626" transform="translate(142.398977 261.19625) scale(0.1 -0.1)">
       <defs>
        <path id="DejaVuSans-35" d="M 691 4666 
L 3169 4666 
L 3169 4134 
L 1269 4134 
L 1269 2991 
Q 1406 3038 1543 3061 
Q 1681 3084 1819 3084 
Q 2600 3084 3056 2656 
Q 3513 2228 3513 1497 
Q 3513 744 3044 326 
Q 2575 -91 1722 -91 
Q 1428 -91 1123 -41 
Q 819 9 494 109 
L 494 744 
Q 775 591 1075 516 
Q 1375 441 1709 441 
Q 2250 441 2565 725 
Q 2881 1009 2881 1497 
Q 2881 1984 2565 2268 
Q 2250 2553 1709 2553 
Q 1456 2553 1204 2497 
Q 953 2441 691 2322 
L 691 4666 
z
" transform="scale(0.015625)"/>
       </defs>
       <use xlink:href="#DejaVuSans-31"/>
       <use xlink:href="#DejaVuSans-35" transform="translate(63.623047 0)"/>
      </g>
     </g>
    </g>
    <g id="xtick_3">
     <g id="line2d_5">
      <path d="M 227.625114 250.097812 
L 227.625114 40.037812 
" clip-path="url(#pea773384e7)" style="fill: none; stroke-dasharray: 1,1.65; stroke-dashoffset: 0; stroke: #b0b0b0; stroke-opacity: 0.6"/>
     </g>
     <g id="line2d_6"/>
     <g id="text_3">
      <!-- 20 -->
      <g style="fill: #262626" transform="translate(221.262614 261.19625) scale(0.1 -0.1)">
       <defs>
        <path id="DejaVuSans-32" d="M 1228 531 
L 3431 531 
L 3431 0 
L 469 0 
L 469 531 
Q 828 903 1448 1529 
Q 2069 2156 2228 2338 
Q 2531 2678 2651 2914 
Q 2772 3150 2772 3378 
Q 2772 3750 2511 3984 
Q 2250 4219 1831 4219 
Q 1534 4219 1204 4116 
Q 875 4013 500 3803 
L 500 4441 
Q 881 4594 1212 4672 
Q 1544 4750 1819 4750 
Q 2544 4750 2975 4387 
Q 3406 4025 3406 3419 
Q 3406 3131 3298 2873 
Q 3191 2616 2906 2266 
Q 2828 2175 2409 1742 
Q 1991 1309 1228 531 
z
" transform="scale(0.015625)"/>
       </defs>
       <use xlink:href="#DejaVuSans-32"/>
       <use xlink:href="#DejaVuSans-30" transform="translate(63.623047 0)"/>
      </g>
     </g>
    </g>
    <g id="xtick_4">
     <g id="line2d_7">
      <path d="M 306.48875 250.097812 
L 306.48875 40.037812 
" clip-path="url(#pea773384e7)" style="fill: none; stroke-dasharray: 1,1.65; stroke-dashoffset: 0; stroke: #b0b0b0; stroke-opacity: 0.6"/>
     </g>
     <g id="line2d_8"/>
     <g id="text_4">
      <!-- 25 -->
      <g style="fill: #262626" transform="translate(300.12625 261.19625) scale(0.1 -0.1)">
       <use xlink:href="#DejaVuSans-32"/>
       <use xlink:href="#DejaVuSans-35" transform="translate(63.623047 0)"/>
      </g>
     </g>
    </g>
    <g id="xtick_5">
     <g id="line2d_9">
      <path d="M 385.352386 250.097812 
L 385.352386 40.037812 
" clip-path="url(#pea773384e7)" style="fill: none; stroke-dasharray: 1,1.65; stroke-dashoffset: 0; stroke: #b0b0b0; stroke-opacity: 0.6"/>
     </g>
     <g id="line2d_10"/>
     <g id="text_5">
      <!-- 30 -->
      <g style="fill: #262626" transform="translate(378.989886 261.19625) scale(0.1 -0.1)">
       <defs>
        <path id="DejaVuSans-33" d="M 2597 2516 
Q 3050 2419 3304 2112 
Q 3559 1806 3559 1356 
Q 3559 666 3084 287 
Q 2609 -91 1734 -91 
Q 1441 -91 1130 -33 
Q 819 25 488 141 
L 488 750 
Q 750 597 1062 519 
Q 1375 441 1716 441 
Q 2309 441 2620 675 
Q 2931 909 2931 1356 
Q 2931 1769 2642 2001 
Q 2353 2234 1838 2234 
L 1294 2234 
L 1294 2753 
L 1863 2753 
Q 2328 2753 2575 2939 
Q 2822 3125 2822 3475 
Q 2822 3834 2567 4026 
Q 2313 4219 1838 4219 
Q 1578 4219 1281 4162 
Q 984 4106 628 3988 
L 628 4550 
Q 988 4650 1302 4700 
Q 1616 4750 1894 4750 
Q 2613 4750 3031 4423 
Q 3450 4097 3450 3541 
Q 3450 3153 3228 2886 
Q 3006 2619 2597 2516 
z
" transform="scale(0.015625)"/>
       </defs>
       <use xlink:href="#DejaVuSans-33"/>
       <use xlink:href="#DejaVuSans-30" transform="translate(63.623047 0)"/>
      </g>
     </g>
    </g>
    <g id="xtick_6">
     <g id="line2d_11">
      <path d="M 464.216023 250.097812 
L 464.216023 40.037812 
" clip-path="url(#pea773384e7)" style="fill: none; stroke-dasharray: 1,1.65; stroke-dashoffset: 0; stroke: #b0b0b0; stroke-opacity: 0.6"/>
     </g>
     <g id="line2d_12"/>
     <g id="text_6">
      <!-- 35 -->
      <g style="fill: #262626" transform="translate(457.853523 261.19625) scale(0.1 -0.1)">
       <use xlink:href="#DejaVuSans-33"/>
       <use xlink:href="#DejaVuSans-35" transform="translate(63.623047 0)"/>
      </g>
     </g>
    </g>
    <g id="xtick_7">
     <g id="line2d_13">
      <path d="M 543.079659 250.097812 
L 543.079659 40.037812 
" clip-path="url(#pea773384e7)" style="fill: none; stroke-dasharray: 1,1.65; stroke-dashoffset: 0; stroke: #b0b0b0; stroke-opacity: 0.6"/>
     </g>
     <g id="line2d_14"/>
     <g id="text_7">
      <!-- 40 -->
      <g style="fill: #262626" transform="translate(536.717159 261.19625) scale(0.1 -0.1)">
       <defs>
        <path id="DejaVuSans-34" d="M 2419 4116 
L 825 1625 
L 2419 1625 
L 2419 4116 
z
M 2253 4666 
L 3047 4666 
L 3047 1625 
L 3713 1625 
L 3713 1100 
L 3047 1100 
L 3047 0 
L 2419 0 
L 2419 1100 
L 313 1100 
L 313 1709 
L 2253 4666 
z
" transform="scale(0.015625)"/>
       </defs>
       <use xlink:href="#DejaVuSans-34"/>
       <use xlink:href="#DejaVuSans-30" transform="translate(63.623047 0)"/>
      </g>
     </g>
    </g>
    <g id="text_8">
     <!-- Training Step -->
     <g style="fill: #262626" transform="translate(267.24875 276.394062) scale(0.12 -0.12)">
      <defs>
       <path id="DejaVuSans-54" d="M -19 4666 
L 3928 4666 
L 3928 4134 
L 2272 4134 
L 2272 0 
L 1638 0 
L 1638 4134 
L -19 4134 
L -19 4666 
z
" transform="scale(0.015625)"/>
       <path id="DejaVuSans-72" d="M 2631 2963 
Q 2534 3019 2420 3045 
Q 2306 3072 2169 3072 
Q 1681 3072 1420 2755 
Q 1159 2438 1159 1844 
L 1159 0 
L 581 0 
L 581 3500 
L 1159 3500 
L 1159 2956 
Q 1341 3275 1631 3429 
Q 1922 3584 2338 3584 
Q 2397 3584 2469 3576 
Q 2541 3569 2628 3553 
L 2631 2963 
z
" transform="scale(0.015625)"/>
       <path id="DejaVuSans-61" d="M 2194 1759 
Q 1497 1759 1228 1600 
Q 959 1441 959 1056 
Q 959 750 1161 570 
Q 1363 391 1709 391 
Q 2188 391 2477 730 
Q 2766 1069 2766 1631 
L 2766 1759 
L 2194 1759 
z
M 3341 1997 
L 3341 0 
L 2766 0 
L 2766 531 
Q 2569 213 2275 61 
Q 1981 -91 1556 -91 
Q 1019 -91 701 211 
Q 384 513 384 1019 
Q 384 1609 779 1909 
Q 1175 2209 1959 2209 
L 2766 2209 
L 2766 2266 
Q 2766 2663 2505 2880 
Q 2244 3097 1772 3097 
Q 1472 3097 1187 3025 
Q 903 2953 641 2809 
L 641 3341 
Q 956 3463 1253 3523 
Q 1550 3584 1831 3584 
Q 2591 3584 2966 3190 
Q 3341 2797 3341 1997 
z
" transform="scale(0.015625)"/>
       <path id="DejaVuSans-69" d="M 603 3500 
L 1178 3500 
L 1178 0 
L 603 0 
L 603 3500 
z
M 603 4863 
L 1178 4863 
L 1178 4134 
L 603 4134 
L 603 4863 
z
" transform="scale(0.015625)"/>
       <path id="DejaVuSans-6e" d="M 3513 2113 
L 3513 0 
L 2938 0 
L 2938 2094 
Q 2938 2591 2744 2837 
Q 2550 3084 2163 3084 
Q 1697 3084 1428 2787 
Q 1159 2491 1159 1978 
L 1159 0 
L 581 0 
L 581 3500 
L 1159 3500 
L 1159 2956 
Q 1366 3272 1645 3428 
Q 1925 3584 2291 3584 
Q 2894 3584 3203 3211 
Q 3513 2838 3513 2113 
z
" transform="scale(0.015625)"/>
       <path id="DejaVuSans-67" d="M 2906 1791 
Q 2906 2416 2648 2759 
Q 2391 3103 1925 3103 
Q 1463 3103 1205 2759 
Q 947 2416 947 1791 
Q 947 1169 1205 825 
Q 1463 481 1925 481 
Q 2391 481 2648 825 
Q 2906 1169 2906 1791 
z
M 3481 434 
Q 3481 -459 3084 -895 
Q 2688 -1331 1869 -1331 
Q 1566 -1331 1297 -1286 
Q 1028 -1241 775 -1147 
L 775 -588 
Q 1028 -725 1275 -790 
Q 1522 -856 1778 -856 
Q 2344 -856 2625 -561 
Q 2906 -266 2906 331 
L 2906 616 
Q 2728 306 2450 153 
Q 2172 0 1784 0 
Q 1141 0 747 490 
Q 353 981 353 1791 
Q 353 2603 747 3093 
Q 1141 3584 1784 3584 
Q 2172 3584 2450 3431 
Q 2728 3278 2906 2969 
L 2906 3500 
L 3481 3500 
L 3481 434 
z
" transform="scale(0.015625)"/>
       <path id="DejaVuSans-20" transform="scale(0.015625)"/>
       <path id="DejaVuSans-53" d="M 3425 4513 
L 3425 3897 
Q 3066 4069 2747 4153 
Q 2428 4238 2131 4238 
Q 1616 4238 1336 4038 
Q 1056 3838 1056 3469 
Q 1056 3159 1242 3001 
Q 1428 2844 1947 2747 
L 2328 2669 
Q 3034 2534 3370 2195 
Q 3706 1856 3706 1288 
Q 3706 609 3251 259 
Q 2797 -91 1919 -91 
Q 1588 -91 1214 -16 
Q 841 59 441 206 
L 441 856 
Q 825 641 1194 531 
Q 1563 422 1919 422 
Q 2459 422 2753 634 
Q 3047 847 3047 1241 
Q 3047 1584 2836 1778 
Q 2625 1972 2144 2069 
L 1759 2144 
Q 1053 2284 737 2584 
Q 422 2884 422 3419 
Q 422 4038 858 4394 
Q 1294 4750 2059 4750 
Q 2388 4750 2728 4690 
Q 3069 4631 3425 4513 
z
" transform="scale(0.015625)"/>
       <path id="DejaVuSans-74" d="M 1172 4494 
L 1172 3500 
L 2356 3500 
L 2356 3053 
L 1172 3053 
L 1172 1153 
Q 1172 725 1289 603 
Q 1406 481 1766 481 
L 2356 481 
L 2356 0 
L 1766 0 
Q 1100 0 847 248 
Q 594 497 594 1153 
L 594 3053 
L 172 3053 
L 172 3500 
L 594 3500 
L 594 4494 
L 1172 4494 
z
" transform="scale(0.015625)"/>
       <path id="DejaVuSans-65" d="M 3597 1894 
L 3597 1613 
L 953 1613 
Q 991 1019 1311 708 
Q 1631 397 2203 397 
Q 2534 397 2845 478 
Q 3156 559 3463 722 
L 3463 178 
Q 3153 47 2828 -22 
Q 2503 -91 2169 -91 
Q 1331 -91 842 396 
Q 353 884 353 1716 
Q 353 2575 817 3079 
Q 1281 3584 2069 3584 
Q 2775 3584 3186 3129 
Q 3597 2675 3597 1894 
z
M 3022 2063 
Q 3016 2534 2758 2815 
Q 2500 3097 2075 3097 
Q 1594 3097 1305 2825 
Q 1016 2553 972 2059 
L 3022 2063 
z
" transform="scale(0.015625)"/>
       <path id="DejaVuSans-70" d="M 1159 525 
L 1159 -1331 
L 581 -1331 
L 581 3500 
L 1159 3500 
L 1159 2969 
Q 1341 3281 1617 3432 
Q 1894 3584 2278 3584 
Q 2916 3584 3314 3078 
Q 3713 2572 3713 1747 
Q 3713 922 3314 415 
Q 2916 -91 2278 -91 
Q 1894 -91 1617 61 
Q 1341 213 1159 525 
z
M 3116 1747 
Q 3116 2381 2855 2742 
Q 2594 3103 2138 3103 
Q 1681 3103 1420 2742 
Q 1159 2381 1159 1747 
Q 1159 1113 1420 752 
Q 1681 391 2138 391 
Q 2594 391 2855 752 
Q 3116 1113 3116 1747 
z
" transform="scale(0.015625)"/>
      </defs>
      <use xlink:href="#DejaVuSans-54"/>
      <use xlink:href="#DejaVuSans-72" transform="translate(46.333984 0)"/>
      <use xlink:href="#DejaVuSans-61" transform="translate(87.447266 0)"/>
      <use xlink:href="#DejaVuSans-69" transform="translate(148.726562 0)"/>
      <use xlink:href="#DejaVuSans-6e" transform="translate(176.509766 0)"/>
      <use xlink:href="#DejaVuSans-69" transform="translate(239.888672 0)"/>
      <use xlink:href="#DejaVuSans-6e" transform="translate(267.671875 0)"/>
      <use xlink:href="#DejaVuSans-67" transform="translate(331.050781 0)"/>
      <use xlink:href="#DejaVuSans-20" transform="translate(394.527344 0)"/>
      <use xlink:href="#DejaVuSans-53" transform="translate(426.314453 0)"/>
      <use xlink:href="#DejaVuSans-74" transform="translate(489.791016 0)"/>
      <use xlink:href="#DejaVuSans-65" transform="translate(529 0)"/>
      <use xlink:href="#DejaVuSans-70" transform="translate(590.523438 0)"/>
     </g>
    </g>
   </g>
   <g id="matplotlib.axis_2">
    <g id="ytick_1">
     <g id="line2d_15">
      <path d="M 46.23875 240.549631 
L 566.73875 240.549631 
" clip-path="url(#pea773384e7)" style="fill: none; stroke-dasharray: 1,1.65; stroke-dashoffset: 0; stroke: #b0b0b0; stroke-opacity: 0.6"/>
     </g>
     <g id="text_9">
      <!-- 0 -->
      <g style="fill: #262626" transform="translate(36.37625 244.348849) scale(0.1 -0.1)">
       <use xlink:href="#DejaVuSans-30"/>
      </g>
     </g>
    </g>
    <g id="ytick_2">
     <g id="line2d_16">
      <path d="M 46.23875 197.880326 
L 566.73875 197.880326 
" clip-path="url(#pea773384e7)" style="fill: none; stroke-dasharray: 1,1.65; stroke-dashoffset: 0; stroke: #b0b0b0; stroke-opacity: 0.6"/>
     </g>
     <g id="text_10">
      <!-- 10 -->
      <g style="fill: #262626" transform="translate(30.01375 201.679545) scale(0.1 -0.1)">
       <use xlink:href="#DejaVuSans-31"/>
       <use xlink:href="#DejaVuSans-30" transform="translate(63.623047 0)"/>
      </g>
     </g>
    </g>
    <g id="ytick_3">
     <g id="line2d_17">
      <path d="M 46.23875 155.211021 
L 566.73875 155.211021 
" clip-path="url(#pea773384e7)" style="fill: none; stroke-dasharray: 1,1.65; stroke-dashoffset: 0; stroke: #b0b0b0; stroke-opacity: 0.6"/>
     </g>
     <g id="text_11">
      <!-- 20 -->
      <g style="fill: #262626" transform="translate(30.01375 159.01024) scale(0.1 -0.1)">
       <use xlink:href="#DejaVuSans-32"/>
       <use xlink:href="#DejaVuSans-30" transform="translate(63.623047 0)"/>
      </g>
     </g>
    </g>
    <g id="ytick_4">
     <g id="line2d_18">
      <path d="M 46.23875 112.541717 
L 566.73875 112.541717 
" clip-path="url(#pea773384e7)" style="fill: none; stroke-dasharray: 1,1.65; stroke-dashoffset: 0; stroke: #b0b0b0; stroke-opacity: 0.6"/>
     </g>
     <g id="text_12">
      <!-- 30 -->
      <g style="fill: #262626" transform="translate(30.01375 116.340936) scale(0.1 -0.1)">
       <use xlink:href="#DejaVuSans-33"/>
       <use xlink:href="#DejaVuSans-30" transform="translate(63.623047 0)"/>
      </g>
     </g>
    </g>
    <g id="ytick_5">
     <g id="line2d_19">
      <path d="M 46.23875 69.872412 
L 566.73875 69.872412 
" clip-path="url(#pea773384e7)" style="fill: none; stroke-dasharray: 1,1.65; stroke-dashoffset: 0; stroke: #b0b0b0; stroke-opacity: 0.6"/>
     </g>
     <g id="text_13">
      <!-- 40 -->
      <g style="fill: #262626" transform="translate(30.01375 73.671631) scale(0.1 -0.1)">
       <use xlink:href="#DejaVuSans-34"/>
       <use xlink:href="#DejaVuSans-30" transform="translate(63.623047 0)"/>
      </g>
     </g>
    </g>
    <g id="text_14">
     <!-- Calibration Gap (%) -->
     <g style="fill: #262626" transform="translate(23.518125 204.045) rotate(-90) scale(0.12 -0.12)">
      <defs>
       <path id="DejaVuSans-43" d="M 4122 4306 
L 4122 3641 
Q 3803 3938 3442 4084 
Q 3081 4231 2675 4231 
Q 1875 4231 1450 3742 
Q 1025 3253 1025 2328 
Q 1025 1406 1450 917 
Q 1875 428 2675 428 
Q 3081 428 3442 575 
Q 3803 722 4122 1019 
L 4122 359 
Q 3791 134 3420 21 
Q 3050 -91 2638 -91 
Q 1578 -91 968 557 
Q 359 1206 359 2328 
Q 359 3453 968 4101 
Q 1578 4750 2638 4750 
Q 3056 4750 3426 4639 
Q 3797 4528 4122 4306 
z
" transform="scale(0.015625)"/>
       <path id="DejaVuSans-6c" d="M 603 4863 
L 1178 4863 
L 1178 0 
L 603 0 
L 603 4863 
z
" transform="scale(0.015625)"/>
       <path id="DejaVuSans-62" d="M 3116 1747 
Q 3116 2381 2855 2742 
Q 2594 3103 2138 3103 
Q 1681 3103 1420 2742 
Q 1159 2381 1159 1747 
Q 1159 1113 1420 752 
Q 1681 391 2138 391 
Q 2594 391 2855 752 
Q 3116 1113 3116 1747 
z
M 1159 2969 
Q 1341 3281 1617 3432 
Q 1894 3584 2278 3584 
Q 2916 3584 3314 3078 
Q 3713 2572 3713 1747 
Q 3713 922 3314 415 
Q 2916 -91 2278 -91 
Q 1894 -91 1617 61 
Q 1341 213 1159 525 
L 1159 0 
L 581 0 
L 581 4863 
L 1159 4863 
L 1159 2969 
z
" transform="scale(0.015625)"/>
       <path id="DejaVuSans-6f" d="M 1959 3097 
Q 1497 3097 1228 2736 
Q 959 2375 959 1747 
Q 959 1119 1226 758 
Q 1494 397 1959 397 
Q 2419 397 2687 759 
Q 2956 1122 2956 1747 
Q 2956 2369 2687 2733 
Q 2419 3097 1959 3097 
z
M 1959 3584 
Q 2709 3584 3137 3096 
Q 3566 2609 3566 1747 
Q 3566 888 3137 398 
Q 2709 -91 1959 -91 
Q 1206 -91 779 398 
Q 353 888 353 1747 
Q 353 2609 779 3096 
Q 1206 3584 1959 3584 
z
" transform="scale(0.015625)"/>
       <path id="DejaVuSans-47" d="M 3809 666 
L 3809 1919 
L 2778 1919 
L 2778 2438 
L 4434 2438 
L 4434 434 
Q 4069 175 3628 42 
Q 3188 -91 2688 -91 
Q 1594 -91 976 548 
Q 359 1188 359 2328 
Q 359 3472 976 4111 
Q 1594 4750 2688 4750 
Q 3144 4750 3555 4637 
Q 3966 4525 4313 4306 
L 4313 3634 
Q 3963 3931 3569 4081 
Q 3175 4231 2741 4231 
Q 1884 4231 1454 3753 
Q 1025 3275 1025 2328 
Q 1025 1384 1454 906 
Q 1884 428 2741 428 
Q 3075 428 3337 486 
Q 3600 544 3809 666 
z
" transform="scale(0.015625)"/>
       <path id="DejaVuSans-28" d="M 1984 4856 
Q 1566 4138 1362 3434 
Q 1159 2731 1159 2009 
Q 1159 1288 1364 580 
Q 1569 -128 1984 -844 
L 1484 -844 
Q 1016 -109 783 600 
Q 550 1309 550 2009 
Q 550 2706 781 3412 
Q 1013 4119 1484 4856 
L 1984 4856 
z
" transform="scale(0.015625)"/>
       <path id="DejaVuSans-25" d="M 4653 2053 
Q 4381 2053 4226 1822 
Q 4072 1591 4072 1178 
Q 4072 772 4226 539 
Q 4381 306 4653 306 
Q 4919 306 5073 539 
Q 5228 772 5228 1178 
Q 5228 1588 5073 1820 
Q 4919 2053 4653 2053 
z
M 4653 2450 
Q 5147 2450 5437 2106 
Q 5728 1763 5728 1178 
Q 5728 594 5436 251 
Q 5144 -91 4653 -91 
Q 4153 -91 3862 251 
Q 3572 594 3572 1178 
Q 3572 1766 3864 2108 
Q 4156 2450 4653 2450 
z
M 1428 4353 
Q 1159 4353 1004 4120 
Q 850 3888 850 3481 
Q 850 3069 1003 2837 
Q 1156 2606 1428 2606 
Q 1700 2606 1854 2837 
Q 2009 3069 2009 3481 
Q 2009 3884 1853 4118 
Q 1697 4353 1428 4353 
z
M 4250 4750 
L 4750 4750 
L 1831 -91 
L 1331 -91 
L 4250 4750 
z
M 1428 4750 
Q 1922 4750 2215 4408 
Q 2509 4066 2509 3481 
Q 2509 2891 2217 2550 
Q 1925 2209 1428 2209 
Q 931 2209 642 2551 
Q 353 2894 353 3481 
Q 353 4063 643 4406 
Q 934 4750 1428 4750 
z
" transform="scale(0.015625)"/>
       <path id="DejaVuSans-29" d="M 513 4856 
L 1013 4856 
Q 1481 4119 1714 3412 
Q 1947 2706 1947 2009 
Q 1947 1309 1714 600 
Q 1481 -109 1013 -844 
L 513 -844 
Q 928 -128 1133 580 
Q 1338 1288 1338 2009 
Q 1338 2731 1133 3434 
Q 928 4138 513 4856 
z
" transform="scale(0.015625)"/>
      </defs>
      <use xlink:href="#DejaVuSans-43"/>
      <use xlink:href="#DejaVuSans-61" transform="translate(69.824219 0)"/>
      <use xlink:href="#DejaVuSans-6c" transform="translate(131.103516 0)"/>
      <use xlink:href="#DejaVuSans-69" transform="translate(158.886719 0)"/>
      <use xlink:href="#DejaVuSans-62" transform="translate(186.669922 0)"/>
      <use xlink:href="#DejaVuSans-72" transform="translate(250.146484 0)"/>
      <use xlink:href="#DejaVuSans-61" transform="translate(291.259766 0)"/>
      <use xlink:href="#DejaVuSans-74" transform="translate(352.539062 0)"/>
      <use xlink:href="#DejaVuSans-69" transform="translate(391.748047 0)"/>
      <use xlink:href="#DejaVuSans-6f" transform="translate(419.53125 0)"/>
      <use xlink:href="#DejaVuSans-6e" transform="translate(480.712891 0)"/>
      <use xlink:href="#DejaVuSans-20" transform="translate(544.091797 0)"/>
      <use xlink:href="#DejaVuSans-47" transform="translate(575.878906 0)"/>
      <use xlink:href="#DejaVuSans-61" transform="translate(653.369141 0)"/>
      <use xlink:href="#DejaVuSans-70" transform="translate(714.648438 0)"/>
      <use xlink:href="#DejaVuSans-20" transform="translate(778.125 0)"/>
      <use xlink:href="#DejaVuSans-28" transform="translate(809.912109 0)"/>
      <use xlink:href="#DejaVuSans-25" transform="translate(848.925781 0)"/>
      <use xlink:href="#DejaVuSans-29" transform="translate(943.945312 0)"/>
     </g>
    </g>
   </g>
   <g id="line2d_20">
    <path d="M 69.897841 53.370263 
L 227.625114 88.078388 
L 385.352386 165.893309 
L 543.079659 218.217024 
" clip-path="url(#pea773384e7)" style="fill: none; stroke: #22c55e; stroke-width: 2.5; stroke-linecap: round"/>
    <defs>
     <path id="mf20db52c64" d="M 0 3 
C 0.795609 3 1.55874 2.683901 2.12132 2.12132 
C 2.683901 1.55874 3 0.795609 3 0 
C 3 -0.795609 2.683901 -1.55874 2.12132 -2.12132 
C 1.55874 -2.683901 0.795609 -3 0 -3 
C -0.795609 -3 -1.55874 -2.683901 -2.12132 -2.12132 
C -2.683901 -1.55874 -3 -0.795609 -3 0 
C -3 0.795609 -2.683901 1.55874 -2.12132 2.12132 
C -1.55874 2.683901 -0.795609 3 0 3 
z
" style="stroke: #ffffff; stroke-width: 1.5"/>
    </defs>
    <g clip-path="url(#pea773384e7)">
     <use xlink:href="#mf20db52c64" x="69.897841" y="53.370263" style="fill: #22c55e; stroke: #ffffff; stroke-width: 1.5"/>
     <use xlink:href="#mf20db52c64" x="227.625114" y="88.078388" style="fill: #22c55e; stroke: #ffffff; stroke-width: 1.5"/>
     <use xlink:href="#mf20db52c64" x="385.352386" y="165.893309" style="fill: #22c55e; stroke: #ffffff; stroke-width: 1.5"/>
     <use xlink:href="#mf20db52c64" x="543.079659" y="218.217024" style="fill: #22c55e; stroke: #ffffff; stroke-width: 1.5"/>
    </g>
   </g>
   <g id="line2d_21">
    <path d="M 69.897841 49.585994 
L 227.625114 81.926053 
L 385.352386 167.028885 
L 543.079659 184.891682 
" clip-path="url(#pea773384e7)" style="fill: none; stroke: #a855f7; stroke-width: 2.5; stroke-linecap: round"/>
    <defs>
     <path id="mdf1f59220c" d="M 0 3 
C 0.795609 3 1.55874 2.683901 2.12132 2.12132 
C 2.683901 1.55874 3 0.795609 3 0 
C 3 -0.795609 2.683901 -1.55874 2.12132 -2.12132 
C 1.55874 -2.683901 0.795609 -3 0 -3 
C -0.795609 -3 -1.55874 -2.683901 -2.12132 -2.12132 
C -2.683901 -1.55874 -3 -0.795609 -3 0 
C -3 0.795609 -2.683901 1.55874 -2.12132 2.12132 
C -1.55874 2.683901 -0.795609 3 0 3 
z
" style="stroke: #ffffff; stroke-width: 1.5"/>
    </defs>
    <g clip-path="url(#pea773384e7)">
     <use xlink:href="#mdf1f59220c" x="69.897841" y="49.585994" style="fill: #a855f7; stroke: #ffffff; stroke-width: 1.5"/>
     <use xlink:href="#mdf1f59220c" x="227.625114" y="81.926053" style="fill: #a855f7; stroke: #ffffff; stroke-width: 1.5"/>
     <use xlink:href="#mdf1f59220c" x="385.352386" y="167.028885" style="fill: #a855f7; stroke: #ffffff; stroke-width: 1.5"/>
     <use xlink:href="#mdf1f59220c" x="543.079659" y="184.891682" style="fill: #a855f7; stroke: #ffffff; stroke-width: 1.5"/>
    </g>
   </g>
   <g id="line2d_22">
    <path d="M 69.897841 51.685039 
L 227.625114 139.068788 
L 385.352386 178.925102 
L 543.079659 146.923124 
" clip-path="url(#pea773384e7)" style="fill: none; stroke: #f97316; stroke-width: 2.5; stroke-linecap: round"/>
    <defs>
     <path id="m90eca35f4b" d="M 0 3 
C 0.795609 3 1.55874 2.683901 2.12132 2.12132 
C 2.683901 1.55874 3 0.795609 3 0 
C 3 -0.795609 2.683901 -1.55874 2.12132 -2.12132 
C 1.55874 -2.683901 0.795609 -3 0 -3 
C -0.795609 -3 -1.55874 -2.683901 -2.12132 -2.12132 
C -2.683901 -1.55874 -3 -0.795609 -3 0 
C -3 0.795609 -2.683901 1.55874 -2.12132 2.12132 
C -1.55874 2.683901 -0.795609 3 0 3 
z
" style="stroke: #ffffff; stroke-width: 1.5"/>
    </defs>
    <g clip-path="url(#pea773384e7)">
     <use xlink:href="#m90eca35f4b" x="69.897841" y="51.685039" style="fill: #f97316; stroke: #ffffff; stroke-width: 1.5"/>
     <use xlink:href="#m90eca35f4b" x="227.625114" y="139.068788" style="fill: #f97316; stroke: #ffffff; stroke-width: 1.5"/>
     <use xlink:href="#m90eca35f4b" x="385.352386" y="178.925102" style="fill: #f97316; stroke: #ffffff; stroke-width: 1.5"/>
     <use xlink:href="#m90eca35f4b" x="543.079659" y="146.923124" style="fill: #f97316; stroke: #ffffff; stroke-width: 1.5"/>
    </g>
   </g>
   <g id="line2d_23">
    <path d="M 46.23875 240.549631 
L 566.73875 240.549631 
" clip-path="url(#pea773384e7)" style="fill: none; stroke-dasharray: 5.55,2.4; stroke-dashoffset: 0; stroke: #6b7280; stroke-opacity: 0.7; stroke-width: 1.5"/>
   </g>
   <g id="patch_3">
    <path d="M 46.23875 250.097812 
L 566.73875 250.097812 
" style="fill: none; stroke: #cccccc; stroke-width: 1.2; stroke-linejoin: miter; stroke-linecap: square"/>
   </g>
   <g id="text_15">
    <!-- Stability alone -->
    <g style="fill: #f97316" transform="translate(431.990398 123.798338) scale(0.09 -0.09)">
     <defs>
      <path id="DejaVuSans-79" d="M 2059 -325 
Q 1816 -950 1584 -1140 
Q 1353 -1331 966 -1331 
L 506 -1331 
L 506 -850 
L 844 -850 
Q 1081 -850 1212 -737 
Q 1344 -625 1503 -206 
L 1606 56 
L 191 3500 
L 800 3500 
L 1894 763 
L 2988 3500 
L 3597 3500 
L 2059 -325 
z
" transform="scale(0.015625)"/>
     </defs>
     <use xlink:href="#DejaVuSans-53"/>
     <use xlink:href="#DejaVuSans-74" transform="translate(63.476562 0)"/>
     <use xlink:href="#DejaVuSans-61" transform="translate(102.685547 0)"/>
     <use xlink:href="#DejaVuSans-62" transform="translate(163.964844 0)"/>
     <use xlink:href="#DejaVuSans-69" transform="translate(227.441406 0)"/>
     <use xlink:href="#DejaVuSans-6c" transform="translate(255.224609 0)"/>
     <use xlink:href="#DejaVuSans-69" transform="translate(283.007812 0)"/>
     <use xlink:href="#DejaVuSans-74" transform="translate(310.791016 0)"/>
     <use xlink:href="#DejaVuSans-79" transform="translate(350 0)"/>
     <use xlink:href="#DejaVuSans-20" transform="translate(409.179688 0)"/>
     <use xlink:href="#DejaVuSans-61" transform="translate(440.966797 0)"/>
     <use xlink:href="#DejaVuSans-6c" transform="translate(502.246094 0)"/>
     <use xlink:href="#DejaVuSans-6f" transform="translate(530.029297 0)"/>
     <use xlink:href="#DejaVuSans-6e" transform="translate(591.210938 0)"/>
     <use xlink:href="#DejaVuSans-65" transform="translate(654.589844 0)"/>
    </g>
    <!-- oscillates -->
    <g style="fill: #f97316" transform="translate(443.258679 133.876369) scale(0.09 -0.09)">
     <defs>
      <path id="DejaVuSans-73" d="M 2834 3397 
L 2834 2853 
Q 2591 2978 2328 3040 
Q 2066 3103 1784 3103 
Q 1356 3103 1142 2972 
Q 928 2841 928 2578 
Q 928 2378 1081 2264 
Q 1234 2150 1697 2047 
L 1894 2003 
Q 2506 1872 2764 1633 
Q 3022 1394 3022 966 
Q 3022 478 2636 193 
Q 2250 -91 1575 -91 
Q 1294 -91 989 -36 
Q 684 19 347 128 
L 347 722 
Q 666 556 975 473 
Q 1284 391 1588 391 
Q 1994 391 2212 530 
Q 2431 669 2431 922 
Q 2431 1156 2273 1281 
Q 2116 1406 1581 1522 
L 1381 1569 
Q 847 1681 609 1914 
Q 372 2147 372 2553 
Q 372 3047 722 3315 
Q 1072 3584 1716 3584 
Q 2034 3584 2315 3537 
Q 2597 3491 2834 3397 
z
" transform="scale(0.015625)"/>
      <path id="DejaVuSans-63" d="M 3122 3366 
L 3122 2828 
Q 2878 2963 2633 3030 
Q 2388 3097 2138 3097 
Q 1578 3097 1268 2742 
Q 959 2388 959 1747 
Q 959 1106 1268 751 
Q 1578 397 2138 397 
Q 2388 397 2633 464 
Q 2878 531 3122 666 
L 3122 134 
Q 2881 22 2623 -34 
Q 2366 -91 2075 -91 
Q 1284 -91 818 406 
Q 353 903 353 1747 
Q 353 2603 823 3093 
Q 1294 3584 2113 3584 
Q 2378 3584 2631 3529 
Q 2884 3475 3122 3366 
z
" transform="scale(0.015625)"/>
     </defs>
     <use xlink:href="#DejaVuSans-6f"/>
     <use xlink:href="#DejaVuSans-73" transform="translate(61.181641 0)"/>
     <use xlink:href="#DejaVuSans-63" transform="translate(113.28125 0)"/>
     <use xlink:href="#DejaVuSans-69" transform="translate(168.261719 0)"/>
     <use xlink:href="#DejaVuSans-6c" transform="translate(196.044922 0)"/>
     <use xlink:href="#DejaVuSans-6c" transform="translate(223.828125 0)"/>
     <use xlink:href="#DejaVuSans-61" transform="translate(251.611328 0)"/>
     <use xlink:href="#DejaVuSans-74" transform="translate(312.890625 0)"/>
     <use xlink:href="#DejaVuSans-65" transform="translate(352.099609 0)"/>
     <use xlink:href="#DejaVuSans-73" transform="translate(413.623047 0)"/>
    </g>
   </g>
   <g id="text_16">
    <!-- Calibration Gap During Training: Stability Alone Fails -->
    <g style="fill: #262626" transform="translate(46.23875 25.037812) scale(0.14 -0.14)">
     <defs>
      <path id="DejaVuSans-Bold-43" d="M 4288 256 
Q 3956 84 3597 -3 
Q 3238 -91 2847 -91 
Q 1681 -91 1000 561 
Q 319 1213 319 2328 
Q 319 3447 1000 4098 
Q 1681 4750 2847 4750 
Q 3238 4750 3597 4662 
Q 3956 4575 4288 4403 
L 4288 3438 
Q 3953 3666 3628 3772 
Q 3303 3878 2944 3878 
Q 2300 3878 1931 3465 
Q 1563 3053 1563 2328 
Q 1563 1606 1931 1193 
Q 2300 781 2944 781 
Q 3303 781 3628 887 
Q 3953 994 4288 1222 
L 4288 256 
z
" transform="scale(0.015625)"/>
      <path id="DejaVuSans-Bold-61" d="M 2106 1575 
Q 1756 1575 1579 1456 
Q 1403 1338 1403 1106 
Q 1403 894 1545 773 
Q 1688 653 1941 653 
Q 2256 653 2472 879 
Q 2688 1106 2688 1447 
L 2688 1575 
L 2106 1575 
z
M 3816 1997 
L 3816 0 
L 2688 0 
L 2688 519 
Q 2463 200 2181 54 
Q 1900 -91 1497 -91 
Q 953 -91 614 226 
Q 275 544 275 1050 
Q 275 1666 698 1953 
Q 1122 2241 2028 2241 
L 2688 2241 
L 2688 2328 
Q 2688 2594 2478 2717 
Q 2269 2841 1825 2841 
Q 1466 2841 1156 2769 
Q 847 2697 581 2553 
L 581 3406 
Q 941 3494 1303 3539 
Q 1666 3584 2028 3584 
Q 2975 3584 3395 3211 
Q 3816 2838 3816 1997 
z
" transform="scale(0.015625)"/>
      <path id="DejaVuSans-Bold-6c" d="M 538 4863 
L 1656 4863 
L 1656 0 
L 538 0 
L 538 4863 
z
" transform="scale(0.015625)"/>
      <path id="DejaVuSans-Bold-69" d="M 538 3500 
L 1656 3500 
L 1656 0 
L 538 0 
L 538 3500 
z
M 538 4863 
L 1656 4863 
L 1656 3950 
L 538 3950 
L 538 4863 
z
" transform="scale(0.015625)"/>
      <path id="DejaVuSans-Bold-62" d="M 2400 722 
Q 2759 722 2948 984 
Q 3138 1247 3138 1747 
Q 3138 2247 2948 2509 
Q 2759 2772 2400 2772 
Q 2041 2772 1848 2508 
Q 1656 2244 1656 1747 
Q 1656 1250 1848 986 
Q 2041 722 2400 722 
z
M 1656 2988 
Q 1888 3294 2169 3439 
Q 2450 3584 2816 3584 
Q 3463 3584 3878 3070 
Q 4294 2556 4294 1747 
Q 4294 938 3878 423 
Q 3463 -91 2816 -91 
Q 2450 -91 2169 54 
Q 1888 200 1656 506 
L 1656 0 
L 538 0 
L 538 4863 
L 1656 4863 
L 1656 2988 
z
" transform="scale(0.015625)"/>
      <path id="DejaVuSans-Bold-72" d="M 3138 2547 
Q 2991 2616 2845 2648 
Q 2700 2681 2553 2681 
Q 2122 2681 1889 2404 
Q 1656 2128 1656 1613 
L 1656 0 
L 538 0 
L 538 3500 
L 1656 3500 
L 1656 2925 
Q 1872 3269 2151 3426 
Q 2431 3584 2822 3584 
Q 2878 3584 2943 3579 
Q 3009 3575 3134 3559 
L 3138 2547 
z
" transform="scale(0.015625)"/>
      <path id="DejaVuSans-Bold-74" d="M 1759 4494 
L 1759 3500 
L 2913 3500 
L 2913 2700 
L 1759 2700 
L 1759 1216 
Q 1759 972 1856 886 
Q 1953 800 2241 800 
L 2816 800 
L 2816 0 
L 1856 0 
Q 1194 0 917 276 
Q 641 553 641 1216 
L 641 2700 
L 84 2700 
L 84 3500 
L 641 3500 
L 641 4494 
L 1759 4494 
z
" transform="scale(0.015625)"/>
      <path id="DejaVuSans-Bold-6f" d="M 2203 2784 
Q 1831 2784 1636 2517 
Q 1441 2250 1441 1747 
Q 1441 1244 1636 976 
Q 1831 709 2203 709 
Q 2569 709 2762 976 
Q 2956 1244 2956 1747 
Q 2956 2250 2762 2517 
Q 2569 2784 2203 2784 
z
M 2203 3584 
Q 3106 3584 3614 3096 
Q 4122 2609 4122 1747 
Q 4122 884 3614 396 
Q 3106 -91 2203 -91 
Q 1297 -91 786 396 
Q 275 884 275 1747 
Q 275 2609 786 3096 
Q 1297 3584 2203 3584 
z
" transform="scale(0.015625)"/>
      <path id="DejaVuSans-Bold-6e" d="M 4056 2131 
L 4056 0 
L 2931 0 
L 2931 347 
L 2931 1631 
Q 2931 2084 2911 2256 
Q 2891 2428 2841 2509 
Q 2775 2619 2662 2680 
Q 2550 2741 2406 2741 
Q 2056 2741 1856 2470 
Q 1656 2200 1656 1722 
L 1656 0 
L 538 0 
L 538 3500 
L 1656 3500 
L 1656 2988 
Q 1909 3294 2193 3439 
Q 2478 3584 2822 3584 
Q 3428 3584 3742 3212 
Q 4056 2841 4056 2131 
z
" transform="scale(0.015625)"/>
      <path id="DejaVuSans-Bold-20" transform="scale(0.015625)"/>
      <path id="DejaVuSans-Bold-47" d="M 4781 347 
Q 4331 128 3847 18 
Q 3363 -91 2847 -91 
Q 1681 -91 1000 561 
Q 319 1213 319 2328 
Q 319 3456 1012 4103 
Q 1706 4750 2913 4750 
Q 3378 4750 3804 4662 
Q 4231 4575 4609 4403 
L 4609 3438 
Q 4219 3659 3833 3768 
Q 3447 3878 3059 3878 
Q 2341 3878 1952 3476 
Q 1563 3075 1563 2328 
Q 1563 1588 1938 1184 
Q 2313 781 3003 781 
Q 3191 781 3352 804 
Q 3513 828 3641 878 
L 3641 1784 
L 2906 1784 
L 2906 2591 
L 4781 2591 
L 4781 347 
z
" transform="scale(0.015625)"/>
      <path id="DejaVuSans-Bold-70" d="M 1656 506 
L 1656 -1331 
L 538 -1331 
L 538 3500 
L 1656 3500 
L 1656 2988 
Q 1888 3294 2169 3439 
Q 2450 3584 2816 3584 
Q 3463 3584 3878 3070 
Q 4294 2556 4294 1747 
Q 4294 938 3878 423 
Q 3463 -91 2816 -91 
Q 2450 -91 2169 54 
Q 1888 200 1656 506 
z
M 2400 2772 
Q 2041 2772 1848 2508 
Q 1656 2244 1656 1747 
Q 1656 1250 1848 986 
Q 2041 722 2400 722 
Q 2759 722 2948 984 
Q 3138 1247 3138 1747 
Q 3138 2247 2948 2509 
Q 2759 2772 2400 2772 
z
" transform="scale(0.015625)"/>
      <path id="DejaVuSans-Bold-44" d="M 1791 3756 
L 1791 909 
L 2222 909 
Q 2959 909 3348 1275 
Q 3738 1641 3738 2338 
Q 3738 3031 3350 3393 
Q 2963 3756 2222 3756 
L 1791 3756 
z
M 588 4666 
L 1856 4666 
Q 2919 4666 3439 4514 
Q 3959 4363 4331 4000 
Q 4659 3684 4818 3271 
Q 4978 2859 4978 2338 
Q 4978 1809 4818 1395 
Q 4659 981 4331 666 
Q 3956 303 3431 151 
Q 2906 0 1856 0 
L 588 0 
L 588 4666 
z
" transform="scale(0.015625)"/>
      <path id="DejaVuSans-Bold-75" d="M 500 1363 
L 500 3500 
L 1625 3500 
L 1625 3150 
Q 1625 2866 1622 2436 
Q 1619 2006 1619 1863 
Q 1619 1441 1641 1255 
Q 1663 1069 1716 984 
Q 1784 875 1895 815 
Q 2006 756 2150 756 
Q 2500 756 2700 1025 
Q 2900 1294 2900 1772 
L 2900 3500 
L 4019 3500 
L 4019 0 
L 2900 0 
L 2900 506 
Q 2647 200 2364 54 
Q 2081 -91 1741 -91 
Q 1134 -91 817 281 
Q 500 653 500 1363 
z
" transform="scale(0.015625)"/>
      <path id="DejaVuSans-Bold-67" d="M 2919 594 
Q 2688 288 2409 144 
Q 2131 0 1766 0 
Q 1125 0 706 504 
Q 288 1009 288 1791 
Q 288 2575 706 3076 
Q 1125 3578 1766 3578 
Q 2131 3578 2409 3434 
Q 2688 3291 2919 2981 
L 2919 3500 
L 4044 3500 
L 4044 353 
Q 4044 -491 3511 -936 
Q 2978 -1381 1966 -1381 
Q 1638 -1381 1331 -1331 
Q 1025 -1281 716 -1178 
L 716 -306 
Q 1009 -475 1290 -558 
Q 1572 -641 1856 -641 
Q 2406 -641 2662 -400 
Q 2919 -159 2919 353 
L 2919 594 
z
M 2181 2772 
Q 1834 2772 1640 2515 
Q 1447 2259 1447 1791 
Q 1447 1309 1634 1061 
Q 1822 813 2181 813 
Q 2531 813 2725 1069 
Q 2919 1325 2919 1791 
Q 2919 2259 2725 2515 
Q 2531 2772 2181 2772 
z
" transform="scale(0.015625)"/>
      <path id="DejaVuSans-Bold-54" d="M 31 4666 
L 4331 4666 
L 4331 3756 
L 2784 3756 
L 2784 0 
L 1581 0 
L 1581 3756 
L 31 3756 
L 31 4666 
z
" transform="scale(0.015625)"/>
      <path id="DejaVuSans-Bold-3a" d="M 716 3500 
L 1844 3500 
L 1844 2291 
L 716 2291 
L 716 3500 
z
M 716 1209 
L 1844 1209 
L 1844 0 
L 716 0 
L 716 1209 
z
" transform="scale(0.015625)"/>
      <path id="DejaVuSans-Bold-53" d="M 3834 4519 
L 3834 3531 
Q 3450 3703 3084 3790 
Q 2719 3878 2394 3878 
Q 1963 3878 1756 3759 
Q 1550 3641 1550 3391 
Q 1550 3203 1689 3098 
Q 1828 2994 2194 2919 
L 2706 2816 
Q 3484 2659 3812 2340 
Q 4141 2022 4141 1434 
Q 4141 663 3683 286 
Q 3225 -91 2284 -91 
Q 1841 -91 1394 -6 
Q 947 78 500 244 
L 500 1259 
Q 947 1022 1364 901 
Q 1781 781 2169 781 
Q 2563 781 2772 912 
Q 2981 1044 2981 1288 
Q 2981 1506 2839 1625 
Q 2697 1744 2272 1838 
L 1806 1941 
Q 1106 2091 782 2419 
Q 459 2747 459 3303 
Q 459 4000 909 4375 
Q 1359 4750 2203 4750 
Q 2588 4750 2994 4692 
Q 3400 4634 3834 4519 
z
" transform="scale(0.015625)"/>
      <path id="DejaVuSans-Bold-79" d="M 78 3500 
L 1197 3500 
L 2138 1125 
L 2938 3500 
L 4056 3500 
L 2584 -331 
Q 2363 -916 2067 -1148 
Q 1772 -1381 1288 -1381 
L 641 -1381 
L 641 -647 
L 991 -647 
Q 1275 -647 1404 -556 
Q 1534 -466 1606 -231 
L 1638 -134 
L 78 3500 
z
" transform="scale(0.015625)"/>
      <path id="DejaVuSans-Bold-41" d="M 3419 850 
L 1538 850 
L 1241 0 
L 31 0 
L 1759 4666 
L 3194 4666 
L 4922 0 
L 3713 0 
L 3419 850 
z
M 1838 1716 
L 3116 1716 
L 2478 3572 
L 1838 1716 
z
" transform="scale(0.015625)"/>
      <path id="DejaVuSans-Bold-65" d="M 4031 1759 
L 4031 1441 
L 1416 1441 
Q 1456 1047 1700 850 
Q 1944 653 2381 653 
Q 2734 653 3104 758 
Q 3475 863 3866 1075 
L 3866 213 
Q 3469 63 3072 -14 
Q 2675 -91 2278 -91 
Q 1328 -91 801 392 
Q 275 875 275 1747 
Q 275 2603 792 3093 
Q 1309 3584 2216 3584 
Q 3041 3584 3536 3087 
Q 4031 2591 4031 1759 
z
M 2881 2131 
Q 2881 2450 2695 2645 
Q 2509 2841 2209 2841 
Q 1884 2841 1681 2658 
Q 1478 2475 1428 2131 
L 2881 2131 
z
" transform="scale(0.015625)"/>
      <path id="DejaVuSans-Bold-46" d="M 588 4666 
L 3834 4666 
L 3834 3756 
L 1791 3756 
L 1791 2888 
L 3713 2888 
L 3713 1978 
L 1791 1978 
L 1791 0 
L 588 0 
L 588 4666 
z
" transform="scale(0.015625)"/>
      <path id="DejaVuSans-Bold-73" d="M 3272 3391 
L 3272 2541 
Q 2913 2691 2578 2766 
Q 2244 2841 1947 2841 
Q 1628 2841 1473 2761 
Q 1319 2681 1319 2516 
Q 1319 2381 1436 2309 
Q 1553 2238 1856 2203 
L 2053 2175 
Q 2913 2066 3209 1816 
Q 3506 1566 3506 1031 
Q 3506 472 3093 190 
Q 2681 -91 1863 -91 
Q 1516 -91 1145 -36 
Q 775 19 384 128 
L 384 978 
Q 719 816 1070 734 
Q 1422 653 1784 653 
Q 2113 653 2278 743 
Q 2444 834 2444 1013 
Q 2444 1163 2330 1236 
Q 2216 1309 1875 1350 
L 1678 1375 
Q 931 1469 631 1722 
Q 331 1975 331 2491 
Q 331 3047 712 3315 
Q 1094 3584 1881 3584 
Q 2191 3584 2531 3537 
Q 2872 3491 3272 3391 
z
" transform="scale(0.015625)"/>
     </defs>
     <use xlink:href="#DejaVuSans-Bold-43"/>
     <use xlink:href="#DejaVuSans-Bold-61" transform="translate(73.388672 0)"/>
     <use xlink:href="#DejaVuSans-Bold-6c" transform="translate(140.869141 0)"/>
     <use xlink:href="#DejaVuSans-Bold-69" transform="translate(175.146484 0)"/>
     <use xlink:href="#DejaVuSans-Bold-62" transform="translate(209.423828 0)"/>
     <use xlink:href="#DejaVuSans-Bold-72" transform="translate(281.005859 0)"/>
     <use xlink:href="#DejaVuSans-Bold-61" transform="translate(330.322266 0)"/>
     <use xlink:href="#DejaVuSans-Bold-74" transform="translate(397.802734 0)"/>
     <use xlink:href="#DejaVuSans-Bold-69" transform="translate(445.605469 0)"/>
     <use xlink:href="#DejaVuSans-Bold-6f" transform="translate(479.882812 0)"/>
     <use xlink:href="#DejaVuSans-Bold-6e" transform="translate(548.583984 0)"/>
     <use xlink:href="#DejaVuSans-Bold-20" transform="translate(619.775391 0)"/>
     <use xlink:href="#DejaVuSans-Bold-47" transform="translate(654.589844 0)"/>
     <use xlink:href="#DejaVuSans-Bold-61" transform="translate(736.669922 0)"/>
     <use xlink:href="#DejaVuSans-Bold-70" transform="translate(804.150391 0)"/>
     <use xlink:href="#DejaVuSans-Bold-20" transform="translate(875.732422 0)"/>
     <use xlink:href="#DejaVuSans-Bold-44" transform="translate(910.546875 0)"/>
     <use xlink:href="#DejaVuSans-Bold-75" transform="translate(993.554688 0)"/>
     <use xlink:href="#DejaVuSans-Bold-72" transform="translate(1064.746094 0)"/>
     <use xlink:href="#DejaVuSans-Bold-69" transform="translate(1114.0625 0)"/>
     <use xlink:href="#DejaVuSans-Bold-6e" transform="translate(1148.339844 0)"/>
     <use xlink:href="#DejaVuSans-Bold-67" transform="translate(1219.53125 0)"/>
     <use xlink:href="#DejaVuSans-Bold-20" transform="translate(1291.113281 0)"/>
     <use xlink:href="#DejaVuSans-Bold-54" transform="translate(1325.927734 0)"/>
     <use xlink:href="#DejaVuSans-Bold-72" transform="translate(1383.140625 0)"/>
     <use xlink:href="#DejaVuSans-Bold-61" transform="translate(1432.457031 0)"/>
     <use xlink:href="#DejaVuSans-Bold-69" transform="translate(1499.9375 0)"/>
     <use xlink:href="#DejaVuSans-Bold-6e" transform="translate(1534.214844 0)"/>
     <use xlink:href="#DejaVuSans-Bold-69" transform="translate(1605.40625 0)"/>
     <use xlink:href="#DejaVuSans-Bold-6e" transform="translate(1639.683594 0)"/>
     <use xlink:href="#DejaVuSans-Bold-67" transform="translate(1710.875 0)"/>
     <use xlink:href="#DejaVuSans-Bold-3a" transform="translate(1782.457031 0)"/>
     <use xlink:href="#DejaVuSans-Bold-20" transform="translate(1822.447266 0)"/>
     <use xlink:href="#DejaVuSans-Bold-53" transform="translate(1857.261719 0)"/>
     <use xlink:href="#DejaVuSans-Bold-74" transform="translate(1929.283203 0)"/>
     <use xlink:href="#DejaVuSans-Bold-61" transform="translate(1977.085938 0)"/>
     <use xlink:href="#DejaVuSans-Bold-62" transform="translate(2044.566406 0)"/>
     <use xlink:href="#DejaVuSans-Bold-69" transform="translate(2116.148438 0)"/>
     <use xlink:href="#DejaVuSans-Bold-6c" transform="translate(2150.425781 0)"/>
     <use xlink:href="#DejaVuSans-Bold-69" transform="translate(2184.703125 0)"/>
     <use xlink:href="#DejaVuSans-Bold-74" transform="translate(2218.980469 0)"/>
     <use xlink:href="#DejaVuSans-Bold-79" transform="translate(2266.783203 0)"/>
     <use xlink:href="#DejaVuSans-Bold-20" transform="translate(2331.96875 0)"/>
     <use xlink:href="#DejaVuSans-Bold-41" transform="translate(2366.783203 0)"/>
     <use xlink:href="#DejaVuSans-Bold-6c" transform="translate(2444.175781 0)"/>
     <use xlink:href="#DejaVuSans-Bold-6f" transform="translate(2478.453125 0)"/>
     <use xlink:href="#DejaVuSans-Bold-6e" transform="translate(2547.154297 0)"/>
     <use xlink:href="#DejaVuSans-Bold-65" transform="translate(2618.345703 0)"/>
     <use xlink:href="#DejaVuSans-Bold-20" transform="translate(2686.167969 0)"/>
     <use xlink:href="#DejaVuSans-Bold-46" transform="translate(2720.982422 0)"/>
     <use xlink:href="#DejaVuSans-Bold-61" transform="translate(2783.417969 0)"/>
     <use xlink:href="#DejaVuSans-Bold-69" transform="translate(2850.898438 0)"/>
     <use xlink:href="#DejaVuSans-Bold-6c" transform="translate(2885.175781 0)"/>
     <use xlink:href="#DejaVuSans-Bold-73" transform="translate(2919.453125 0)"/>
    </g>
   </g>
   <g id="legend_1">
    <g id="patch_4">
     <path d="M 392.709062 108.750312 
L 559.73875 108.750312 
Q 561.73875 108.750312 561.73875 106.750312 
L 561.73875 47.037812 
Q 561.73875 45.037812 559.73875 45.037812 
L 392.709062 45.037812 
Q 390.709062 45.037812 390.709062 47.037812 
L 390.709062 106.750312 
Q 390.709062 108.750312 392.709062 108.750312 
z
" style="fill: #ffffff; opacity: 0.95; stroke: #e5e7eb; stroke-linejoin: miter"/>
    </g>
    <g id="line2d_24">
     <path d="M 395.709062 54.13625 
L 405.709062 54.13625 
L 415.709062 54.13625 
" style="fill: none; stroke: #22c55e; stroke-width: 2.5; stroke-linecap: round"/>
     <g>
      <use xlink:href="#mf20db52c64" x="405.709062" y="54.13625" style="fill: #22c55e; stroke: #ffffff; stroke-width: 1.5"/>
     </g>
    </g>
    <g id="text_17">
     <!-- 100% Brier (labeled) -->
     <g style="fill: #262626" transform="translate(423.709062 57.63625) scale(0.1 -0.1)">
      <defs>
       <path id="DejaVuSans-42" d="M 1259 2228 
L 1259 519 
L 2272 519 
Q 2781 519 3026 730 
Q 3272 941 3272 1375 
Q 3272 1813 3026 2020 
Q 2781 2228 2272 2228 
L 1259 2228 
z
M 1259 4147 
L 1259 2741 
L 2194 2741 
Q 2656 2741 2882 2914 
Q 3109 3088 3109 3444 
Q 3109 3797 2882 3972 
Q 2656 4147 2194 4147 
L 1259 4147 
z
M 628 4666 
L 2241 4666 
Q 2963 4666 3353 4366 
Q 3744 4066 3744 3513 
Q 3744 3084 3544 2831 
Q 3344 2578 2956 2516 
Q 3422 2416 3680 2098 
Q 3938 1781 3938 1306 
Q 3938 681 3513 340 
Q 3088 0 2303 0 
L 628 0 
L 628 4666 
z
" transform="scale(0.015625)"/>
       <path id="DejaVuSans-64" d="M 2906 2969 
L 2906 4863 
L 3481 4863 
L 3481 0 
L 2906 0 
L 2906 525 
Q 2725 213 2448 61 
Q 2172 -91 1784 -91 
Q 1150 -91 751 415 
Q 353 922 353 1747 
Q 353 2572 751 3078 
Q 1150 3584 1784 3584 
Q 2172 3584 2448 3432 
Q 2725 3281 2906 2969 
z
M 947 1747 
Q 947 1113 1208 752 
Q 1469 391 1925 391 
Q 2381 391 2643 752 
Q 2906 1113 2906 1747 
Q 2906 2381 2643 2742 
Q 2381 3103 1925 3103 
Q 1469 3103 1208 2742 
Q 947 2381 947 1747 
z
" transform="scale(0.015625)"/>
      </defs>
      <use xlink:href="#DejaVuSans-31"/>
      <use xlink:href="#DejaVuSans-30" transform="translate(63.623047 0)"/>
      <use xlink:href="#DejaVuSans-30" transform="translate(127.246094 0)"/>
      <use xlink:href="#DejaVuSans-25" transform="translate(190.869141 0)"/>
      <use xlink:href="#DejaVuSans-20" transform="translate(285.888672 0)"/>
      <use xlink:href="#DejaVuSans-42" transform="translate(317.675781 0)"/>
      <use xlink:href="#DejaVuSans-72" transform="translate(386.279297 0)"/>
      <use xlink:href="#DejaVuSans-69" transform="translate(427.392578 0)"/>
      <use xlink:href="#DejaVuSans-65" transform="translate(455.175781 0)"/>
      <use xlink:href="#DejaVuSans-72" transform="translate(516.699219 0)"/>
      <use xlink:href="#DejaVuSans-20" transform="translate(557.8125 0)"/>
      <use xlink:href="#DejaVuSans-28" transform="translate(589.599609 0)"/>
      <use xlink:href="#DejaVuSans-6c" transform="translate(628.613281 0)"/>
      <use xlink:href="#DejaVuSans-61" transform="translate(656.396484 0)"/>
      <use xlink:href="#DejaVuSans-62" transform="translate(717.675781 0)"/>
      <use xlink:href="#DejaVuSans-65" transform="translate(781.152344 0)"/>
      <use xlink:href="#DejaVuSans-6c" transform="translate(842.675781 0)"/>
      <use xlink:href="#DejaVuSans-65" transform="translate(870.458984 0)"/>
      <use xlink:href="#DejaVuSans-64" transform="translate(931.982422 0)"/>
      <use xlink:href="#DejaVuSans-29" transform="translate(995.458984 0)"/>
     </g>
    </g>
    <g id="line2d_25">
     <path d="M 395.709062 68.814375 
L 405.709062 68.814375 
L 415.709062 68.814375 
" style="fill: none; stroke: #a855f7; stroke-width: 2.5; stroke-linecap: round"/>
     <g>
      <use xlink:href="#mdf1f59220c" x="405.709062" y="68.814375" style="fill: #a855f7; stroke: #ffffff; stroke-width: 1.5"/>
     </g>
    </g>
    <g id="text_18">
     <!-- 50/50 Mixed -->
     <g style="fill: #262626" transform="translate(423.709062 72.314375) scale(0.1 -0.1)">
      <defs>
       <path id="DejaVuSans-2f" d="M 1625 4666 
L 2156 4666 
L 531 -594 
L 0 -594 
L 1625 4666 
z
" transform="scale(0.015625)"/>
       <path id="DejaVuSans-4d" d="M 628 4666 
L 1569 4666 
L 2759 1491 
L 3956 4666 
L 4897 4666 
L 4897 0 
L 4281 0 
L 4281 4097 
L 3078 897 
L 2444 897 
L 1241 4097 
L 1241 0 
L 628 0 
L 628 4666 
z
" transform="scale(0.015625)"/>
       <path id="DejaVuSans-78" d="M 3513 3500 
L 2247 1797 
L 3578 0 
L 2900 0 
L 1881 1375 
L 863 0 
L 184 0 
L 1544 1831 
L 300 3500 
L 978 3500 
L 1906 2253 
L 2834 3500 
L 3513 3500 
z
" transform="scale(0.015625)"/>
      </defs>
      <use xlink:href="#DejaVuSans-35"/>
      <use xlink:href="#DejaVuSans-30" transform="translate(63.623047 0)"/>
      <use xlink:href="#DejaVuSans-2f" transform="translate(127.246094 0)"/>
      <use xlink:href="#DejaVuSans-35" transform="translate(160.9375 0)"/>
      <use xlink:href="#DejaVuSans-30" transform="translate(224.560547 0)"/>
      <use xlink:href="#DejaVuSans-20" transform="translate(288.183594 0)"/>
      <use xlink:href="#DejaVuSans-4d" transform="translate(319.970703 0)"/>
      <use xlink:href="#DejaVuSans-69" transform="translate(406.25 0)"/>
      <use xlink:href="#DejaVuSans-78" transform="translate(434.033203 0)"/>
      <use xlink:href="#DejaVuSans-65" transform="translate(490.087891 0)"/>
      <use xlink:href="#DejaVuSans-64" transform="translate(551.611328 0)"/>
     </g>
    </g>
    <g id="line2d_26">
     <path d="M 395.709062 83.4925 
L 405.709062 83.4925 
L 415.709062 83.4925 
" style="fill: none; stroke: #f97316; stroke-width: 2.5; stroke-linecap: round"/>
     <g>
      <use xlink:href="#m90eca35f4b" x="405.709062" y="83.4925" style="fill: #f97316; stroke: #ffffff; stroke-width: 1.5"/>
     </g>
    </g>
    <g id="text_19">
     <!-- 100% Stability (unlabeled) -->
     <g style="fill: #262626" transform="translate(423.709062 86.9925) scale(0.1 -0.1)">
      <defs>
       <path id="DejaVuSans-75" d="M 544 1381 
L 544 3500 
L 1119 3500 
L 1119 1403 
Q 1119 906 1312 657 
Q 1506 409 1894 409 
Q 2359 409 2629 706 
Q 2900 1003 2900 1516 
L 2900 3500 
L 3475 3500 
L 3475 0 
L 2900 0 
L 2900 538 
Q 2691 219 2414 64 
Q 2138 -91 1772 -91 
Q 1169 -91 856 284 
Q 544 659 544 1381 
z
M 1991 3584 
L 1991 3584 
z
" transform="scale(0.015625)"/>
      </defs>
      <use xlink:href="#DejaVuSans-31"/>
      <use xlink:href="#DejaVuSans-30" transform="translate(63.623047 0)"/>
      <use xlink:href="#DejaVuSans-30" transform="translate(127.246094 0)"/>
      <use xlink:href="#DejaVuSans-25" transform="translate(190.869141 0)"/>
      <use xlink:href="#DejaVuSans-20" transform="translate(285.888672 0)"/>
      <use xlink:href="#DejaVuSans-53" transform="translate(317.675781 0)"/>
      <use xlink:href="#DejaVuSans-74" transform="translate(381.152344 0)"/>
      <use xlink:href="#DejaVuSans-61" transform="translate(420.361328 0)"/>
      <use xlink:href="#DejaVuSans-62" transform="translate(481.640625 0)"/>
      <use xlink:href="#DejaVuSans-69" transform="translate(545.117188 0)"/>
      <use xlink:href="#DejaVuSans-6c" transform="translate(572.900391 0)"/>
      <use xlink:href="#DejaVuSans-69" transform="translate(600.683594 0)"/>
      <use xlink:href="#DejaVuSans-74" transform="translate(628.466797 0)"/>
      <use xlink:href="#DejaVuSans-79" transform="translate(667.675781 0)"/>
      <use xlink:href="#DejaVuSans-20" transform="translate(726.855469 0)"/>
      <use xlink:href="#DejaVuSans-28" transform="translate(758.642578 0)"/>
      <use xlink:href="#DejaVuSans-75" transform="translate(797.65625 0)"/>
      <use xlink:href="#DejaVuSans-6e" transform="translate(861.035156 0)"/>
      <use xlink:href="#DejaVuSans-6c" transform="translate(924.414062 0)"/>
      <use xlink:href="#DejaVuSans-61" transform="translate(952.197266 0)"/>
      <use xlink:href="#DejaVuSans-62" transform="translate(1013.476562 0)"/>
      <use xlink:href="#DejaVuSans-65" transform="translate(1076.953125 0)"/>
      <use xlink:href="#DejaVuSans-6c" transform="translate(1138.476562 0)"/>
      <use xlink:href="#DejaVuSans-65" transform="translate(1166.259766 0)"/>
      <use xlink:href="#DejaVuSans-64" transform="translate(1227.783203 0)"/>
      <use xlink:href="#DejaVuSans-29" transform="translate(1291.259766 0)"/>
     </g>
    </g>
    <g id="line2d_27">
     <path d="M 395.709062 98.170625 
L 405.709062 98.170625 
L 415.709062 98.170625 
" style="fill: none; stroke-dasharray: 5.55,2.4; stroke-dashoffset: 0; stroke: #6b7280; stroke-opacity: 0.7; stroke-width: 1.5"/>
    </g>
    <g id="text_20">
     <!-- Perfect calibration -->
     <g style="fill: #262626" transform="translate(423.709062 101.670625) scale(0.1 -0.1)">
      <defs>
       <path id="DejaVuSans-50" d="M 1259 4147 
L 1259 2394 
L 2053 2394 
Q 2494 2394 2734 2622 
Q 2975 2850 2975 3272 
Q 2975 3691 2734 3919 
Q 2494 4147 2053 4147 
L 1259 4147 
z
M 628 4666 
L 2053 4666 
Q 2838 4666 3239 4311 
Q 3641 3956 3641 3272 
Q 3641 2581 3239 2228 
Q 2838 1875 2053 1875 
L 1259 1875 
L 1259 0 
L 628 0 
L 628 4666 
z
" transform="scale(0.015625)"/>
       <path id="DejaVuSans-66" d="M 2375 4863 
L 2375 4384 
L 1825 4384 
Q 1516 4384 1395 4259 
Q 1275 4134 1275 3809 
L 1275 3500 
L 2222 3500 
L 2222 3053 
L 1275 3053 
L 1275 0 
L 697 0 
L 697 3053 
L 147 3053 
L 147 3500 
L 697 3500 
L 697 3744 
Q 697 4328 969 4595 
Q 1241 4863 1831 4863 
L 2375 4863 
z
" transform="scale(0.015625)"/>
      </defs>
      <use xlink:href="#DejaVuSans-50"/>
      <use xlink:href="#DejaVuSans-65" transform="translate(56.677734 0)"/>
      <use xlink:href="#DejaVuSans-72" transform="translate(118.201172 0)"/>
      <use xlink:href="#DejaVuSans-66" transform="translate(159.314453 0)"/>
      <use xlink:href="#DejaVuSans-65" transform="translate(194.519531 0)"/>
      <use xlink:href="#DejaVuSans-63" transform="translate(256.042969 0)"/>
      <use xlink:href="#DejaVuSans-74" transform="translate(311.023438 0)"/>
      <use xlink:href="#DejaVuSans-20" transform="translate(350.232422 0)"/>
      <use xlink:href="#DejaVuSans-63" transform="translate(382.019531 0)"/>
      <use xlink:href="#DejaVuSans-61" transform="translate(437 0)"/>
      <use xlink:href="#DejaVuSans-6c" transform="translate(498.279297 0)"/>
      <use xlink:href="#DejaVuSans-69" transform="translate(526.0625 0)"/>
      <use xlink:href="#DejaVuSans-62" transform="translate(553.845703 0)"/>
      <use xlink:href="#DejaVuSans-72" transform="translate(617.322266 0)"/>
      <use xlink:href="#DejaVuSans-61" transform="translate(658.435547 0)"/>
      <use xlink:href="#DejaVuSans-74" transform="translate(719.714844 0)"/>
      <use xlink:href="#DejaVuSans-69" transform="translate(758.923828 0)"/>
      <use xlink:href="#DejaVuSans-6f" transform="translate(786.707031 0)"/>
      <use xlink:href="#DejaVuSans-6e" transform="translate(847.888672 0)"/>
     </g>
    </g>
   </g>
  </g>
 </g>
 <defs>
  <clipPath id="pea773384e7">
   <rect x="46.23875" y="40.037812" width="520.5" height="210.06"/>
  </clipPath>
 </defs>
</svg>
