<?xml version="1.0" encoding="utf-8" standalone="no"?>
<!DOCTYPE svg PUBLIC "-//W3C//DTD SVG 1.1//EN"
  "http://www.w3.org/Graphics/SVG/1.1/DTD/svg11.dtd">
<svg xmlns:xlink="http://www.w3.org/1999/xlink" width="769.765313pt" height="363.744187pt" viewBox="0 0 769.765313 363.744187" xmlns="http://www.w3.org/2000/svg" version="1.1">
 <metadata>
  <rdf:RDF xmlns:dc="http://purl.org/dc/elements/1.1/" xmlns:cc="http://creativecommons.org/ns#" xmlns:rdf="http://www.w3.org/1999/02/22-rdf-syntax-ns#">
   <cc:Work>
    <dc:type rdf:resource="http://purl.org/dc/dcmitype/StillImage"/>
    <dc:date>2026-01-03T21:02:31.208258</dc:date>
    <dc:format>image/svg+xml</dc:format>
    <dc:creator>
     <cc:Agent>
      <dc:title>Matplotlib v3.10.8, https://matplotlib.org/</dc:title>
     </cc:Agent>
    </dc:creator>
   </cc:Work>
  </rdf:RDF>
 </metadata>
 <defs>
  <style type="text/css">*{stroke-linejoin: round; stroke-linecap: butt}</style>
 </defs>
 <g id="figure_1">
  <g id="patch_1">
   <path d="M 0 363.744187 
L 769.765313 363.744187 
L 769.765313 0 
L 0 0 
z
" style="fill: #ffffff"/>
  </g>
  <g id="axes_1">
   <g id="patch_2">
    <path d="M 45.270938 316.977812 
L 355.140938 316.977812 
L 355.140938 40.037812 
L 45.270938 40.037812 
z
" style="fill: #ffffff"/>
   </g>
   <g id="matplotlib.axis_1">
    <g id="xtick_1">
     <g id="line2d_1">
      <path d="M 91.859784 316.977812 
L 91.859784 40.037812 
" clip-path="url(#pfe67308ca7)" style="fill: none; stroke-dasharray: 1,1.65; stroke-dashoffset: 0; stroke: #b0b0b0; stroke-opacity: 0.6"/>
     </g>
     <g id="line2d_2"/>
     <g id="text_1">
      <!-- Run A -->
      <g style="fill: #262626" transform="translate(78.723299 327.316406) scale(0.09 -0.09)">
       <defs>
        <path id="DejaVuSans-52" d="M 2841 2188 
Q 3044 2119 3236 1894 
Q 3428 1669 3622 1275 
L 4263 0 
L 3584 0 
L 2988 1197 
Q 2756 1666 2539 1819 
Q 2322 1972 1947 1972 
L 1259 1972 
L 1259 0 
L 628 0 
L 628 4666 
L 2053 4666 
Q 2853 4666 3247 4331 
Q 3641 3997 3641 3322 
Q 3641 2881 3436 2590 
Q 3231 2300 2841 2188 
z
M 1259 4147 
L 1259 2491 
L 2053 2491 
Q 2509 2491 2742 2702 
Q 2975 2913 2975 3322 
Q 2975 3731 2742 3939 
Q 2509 4147 2053 4147 
L 1259 4147 
z
" transform="scale(0.015625)"/>
        <path id="DejaVuSans-75" d="M 544 1381 
L 544 3500 
L 1119 3500 
L 1119 1403 
Q 1119 906 1312 657 
Q 1506 409 1894 409 
Q 2359 409 2629 706 
Q 2900 1003 2900 1516 
L 2900 3500 
L 3475 3500 
L 3475 0 
L 2900 0 
L 2900 538 
Q 2691 219 2414 64 
Q 2138 -91 1772 -91 
Q 1169 -91 856 284 
Q 544 659 544 1381 
z
M 1991 3584 
L 1991 3584 
z
" transform="scale(0.015625)"/>
        <path id="DejaVuSans-6e" d="M 3513 2113 
L 3513 0 
L 2938 0 
L 2938 2094 
Q 2938 2591 2744 2837 
Q 2550 3084 2163 3084 
Q 1697 3084 1428 2787 
Q 1159 2491 1159 1978 
L 1159 0 
L 581 0 
L 581 3500 
L 1159 3500 
L 1159 2956 
Q 1366 3272 1645 3428 
Q 1925 3584 2291 3584 
Q 2894 3584 3203 3211 
Q 3513 2838 3513 2113 
z
" transform="scale(0.015625)"/>
        <path id="DejaVuSans-20" transform="scale(0.015625)"/>
        <path id="DejaVuSans-41" d="M 2188 4044 
L 1331 1722 
L 3047 1722 
L 2188 4044 
z
M 1831 4666 
L 2547 4666 
L 4325 0 
L 3669 0 
L 3244 1197 
L 1141 1197 
L 716 0 
L 50 0 
L 1831 4666 
z
" transform="scale(0.015625)"/>
       </defs>
       <use xlink:href="#DejaVuSans-52"/>
       <use xlink:href="#DejaVuSans-75" transform="translate(64.982422 0)"/>
       <use xlink:href="#DejaVuSans-6e" transform="translate(128.361328 0)"/>
       <use xlink:href="#DejaVuSans-20" transform="translate(191.740234 0)"/>
       <use xlink:href="#DejaVuSans-41" transform="translate(223.527344 0)"/>
      </g>
      <!-- (1 epoch, -->
      <g style="fill: #262626" transform="translate(70.675331 337.394437) scale(0.09 -0.09)">
       <defs>
        <path id="DejaVuSans-28" d="M 1984 4856 
Q 1566 4138 1362 3434 
Q 1159 2731 1159 2009 
Q 1159 1288 1364 580 
Q 1569 -128 1984 -844 
L 1484 -844 
Q 1016 -109 783 600 
Q 550 1309 550 2009 
Q 550 2706 781 3412 
Q 1013 4119 1484 4856 
L 1984 4856 
z
" transform="scale(0.015625)"/>
        <path id="DejaVuSans-31" d="M 794 531 
L 1825 531 
L 1825 4091 
L 703 3866 
L 703 4441 
L 1819 4666 
L 2450 4666 
L 2450 531 
L 3481 531 
L 3481 0 
L 794 0 
L 794 531 
z
" transform="scale(0.015625)"/>
        <path id="DejaVuSans-65" d="M 3597 1894 
L 3597 1613 
L 953 1613 
Q 991 1019 1311 708 
Q 1631 397 2203 397 
Q 2534 397 2845 478 
Q 3156 559 3463 722 
L 3463 178 
Q 3153 47 2828 -22 
Q 2503 -91 2169 -91 
Q 1331 -91 842 396 
Q 353 884 353 1716 
Q 353 2575 817 3079 
Q 1281 3584 2069 3584 
Q 2775 3584 3186 3129 
Q 3597 2675 3597 1894 
z
M 3022 2063 
Q 3016 2534 2758 2815 
Q 2500 3097 2075 3097 
Q 1594 3097 1305 2825 
Q 1016 2553 972 2059 
L 3022 2063 
z
" transform="scale(0.015625)"/>
        <path id="DejaVuSans-70" d="M 1159 525 
L 1159 -1331 
L 581 -1331 
L 581 3500 
L 1159 3500 
L 1159 2969 
Q 1341 3281 1617 3432 
Q 1894 3584 2278 3584 
Q 2916 3584 3314 3078 
Q 3713 2572 3713 1747 
Q 3713 922 3314 415 
Q 2916 -91 2278 -91 
Q 1894 -91 1617 61 
Q 1341 213 1159 525 
z
M 3116 1747 
Q 3116 2381 2855 2742 
Q 2594 3103 2138 3103 
Q 1681 3103 1420 2742 
Q 1159 2381 1159 1747 
Q 1159 1113 1420 752 
Q 1681 391 2138 391 
Q 2594 391 2855 752 
Q 3116 1113 3116 1747 
z
" transform="scale(0.015625)"/>
        <path id="DejaVuSans-6f" d="M 1959 3097 
Q 1497 3097 1228 2736 
Q 959 2375 959 1747 
Q 959 1119 1226 758 
Q 1494 397 1959 397 
Q 2419 397 2687 759 
Q 2956 1122 2956 1747 
Q 2956 2369 2687 2733 
Q 2419 3097 1959 3097 
z
M 1959 3584 
Q 2709 3584 3137 3096 
Q 3566 2609 3566 1747 
Q 3566 888 3137 398 
Q 2709 -91 1959 -91 
Q 1206 -91 779 398 
Q 353 888 353 1747 
Q 353 2609 779 3096 
Q 1206 3584 1959 3584 
z
" transform="scale(0.015625)"/>
        <path id="DejaVuSans-63" d="M 3122 3366 
L 3122 2828 
Q 2878 2963 2633 3030 
Q 2388 3097 2138 3097 
Q 1578 3097 1268 2742 
Q 959 2388 959 1747 
Q 959 1106 1268 751 
Q 1578 397 2138 397 
Q 2388 397 2633 464 
Q 2878 531 3122 666 
L 3122 134 
Q 2881 22 2623 -34 
Q 2366 -91 2075 -91 
Q 1284 -91 818 406 
Q 353 903 353 1747 
Q 353 2603 823 3093 
Q 1294 3584 2113 3584 
Q 2378 3584 2631 3529 
Q 2884 3475 3122 3366 
z
" transform="scale(0.015625)"/>
        <path id="DejaVuSans-68" d="M 3513 2113 
L 3513 0 
L 2938 0 
L 2938 2094 
Q 2938 2591 2744 2837 
Q 2550 3084 2163 3084 
Q 1697 3084 1428 2787 
Q 1159 2491 1159 1978 
L 1159 0 
L 581 0 
L 581 4863 
L 1159 4863 
L 1159 2956 
Q 1366 3272 1645 3428 
Q 1925 3584 2291 3584 
Q 2894 3584 3203 3211 
Q 3513 2838 3513 2113 
z
" transform="scale(0.015625)"/>
        <path id="DejaVuSans-2c" d="M 750 794 
L 1409 794 
L 1409 256 
L 897 -744 
L 494 -744 
L 750 256 
L 750 794 
z
" transform="scale(0.015625)"/>
       </defs>
       <use xlink:href="#DejaVuSans-28"/>
       <use xlink:href="#DejaVuSans-31" transform="translate(39.013672 0)"/>
       <use xlink:href="#DejaVuSans-20" transform="translate(102.636719 0)"/>
       <use xlink:href="#DejaVuSans-65" transform="translate(134.423828 0)"/>
       <use xlink:href="#DejaVuSans-70" transform="translate(195.947266 0)"/>
       <use xlink:href="#DejaVuSans-6f" transform="translate(259.423828 0)"/>
       <use xlink:href="#DejaVuSans-63" transform="translate(320.605469 0)"/>
       <use xlink:href="#DejaVuSans-68" transform="translate(375.585938 0)"/>
       <use xlink:href="#DejaVuSans-2c" transform="translate(438.964844 0)"/>
      </g>
      <!-- pure Brier) -->
      <g style="fill: #262626" transform="translate(67.641346 347.472469) scale(0.09 -0.09)">
       <defs>
        <path id="DejaVuSans-72" d="M 2631 2963 
Q 2534 3019 2420 3045 
Q 2306 3072 2169 3072 
Q 1681 3072 1420 2755 
Q 1159 2438 1159 1844 
L 1159 0 
L 581 0 
L 581 3500 
L 1159 3500 
L 1159 2956 
Q 1341 3275 1631 3429 
Q 1922 3584 2338 3584 
Q 2397 3584 2469 3576 
Q 2541 3569 2628 3553 
L 2631 2963 
z
" transform="scale(0.015625)"/>
        <path id="DejaVuSans-42" d="M 1259 2228 
L 1259 519 
L 2272 519 
Q 2781 519 3026 730 
Q 3272 941 3272 1375 
Q 3272 1813 3026 2020 
Q 2781 2228 2272 2228 
L 1259 2228 
z
M 1259 4147 
L 1259 2741 
L 2194 2741 
Q 2656 2741 2882 2914 
Q 3109 3088 3109 3444 
Q 3109 3797 2882 3972 
Q 2656 4147 2194 4147 
L 1259 4147 
z
M 628 4666 
L 2241 4666 
Q 2963 4666 3353 4366 
Q 3744 4066 3744 3513 
Q 3744 3084 3544 2831 
Q 3344 2578 2956 2516 
Q 3422 2416 3680 2098 
Q 3938 1781 3938 1306 
Q 3938 681 3513 340 
Q 3088 0 2303 0 
L 628 0 
L 628 4666 
z
" transform="scale(0.015625)"/>
        <path id="DejaVuSans-69" d="M 603 3500 
L 1178 3500 
L 1178 0 
L 603 0 
L 603 3500 
z
M 603 4863 
L 1178 4863 
L 1178 4134 
L 603 4134 
L 603 4863 
z
" transform="scale(0.015625)"/>
        <path id="DejaVuSans-29" d="M 513 4856 
L 1013 4856 
Q 1481 4119 1714 3412 
Q 1947 2706 1947 2009 
Q 1947 1309 1714 600 
Q 1481 -109 1013 -844 
L 513 -844 
Q 928 -128 1133 580 
Q 1338 1288 1338 2009 
Q 1338 2731 1133 3434 
Q 928 4138 513 4856 
z
" transform="scale(0.015625)"/>
       </defs>
       <use xlink:href="#DejaVuSans-70"/>
       <use xlink:href="#DejaVuSans-75" transform="translate(63.476562 0)"/>
       <use xlink:href="#DejaVuSans-72" transform="translate(126.855469 0)"/>
       <use xlink:href="#DejaVuSans-65" transform="translate(165.71875 0)"/>
       <use xlink:href="#DejaVuSans-20" transform="translate(227.242188 0)"/>
       <use xlink:href="#DejaVuSans-42" transform="translate(259.029297 0)"/>
       <use xlink:href="#DejaVuSans-72" transform="translate(327.632812 0)"/>
       <use xlink:href="#DejaVuSans-69" transform="translate(368.746094 0)"/>
       <use xlink:href="#DejaVuSans-65" transform="translate(396.529297 0)"/>
       <use xlink:href="#DejaVuSans-72" transform="translate(458.052734 0)"/>
       <use xlink:href="#DejaVuSans-29" transform="translate(499.166016 0)"/>
      </g>
     </g>
    </g>
    <g id="xtick_2">
     <g id="line2d_3">
      <path d="M 200.205938 316.977812 
L 200.205938 40.037812 
" clip-path="url(#pfe67308ca7)" style="fill: none; stroke-dasharray: 1,1.65; stroke-dashoffset: 0; stroke: #b0b0b0; stroke-opacity: 0.6"/>
     </g>
     <g id="line2d_4"/>
     <g id="text_2">
      <!-- Run B -->
      <g style="fill: #262626" transform="translate(187.060313 327.316406) scale(0.09 -0.09)">
       <use xlink:href="#DejaVuSans-52"/>
       <use xlink:href="#DejaVuSans-75" transform="translate(64.982422 0)"/>
       <use xlink:href="#DejaVuSans-6e" transform="translate(128.361328 0)"/>
       <use xlink:href="#DejaVuSans-20" transform="translate(191.740234 0)"/>
       <use xlink:href="#DejaVuSans-42" transform="translate(223.527344 0)"/>
      </g>
      <!-- (2 epochs, -->
      <g style="fill: #262626" transform="translate(176.677266 337.394437) scale(0.09 -0.09)">
       <defs>
        <path id="DejaVuSans-32" d="M 1228 531 
L 3431 531 
L 3431 0 
L 469 0 
L 469 531 
Q 828 903 1448 1529 
Q 2069 2156 2228 2338 
Q 2531 2678 2651 2914 
Q 2772 3150 2772 3378 
Q 2772 3750 2511 3984 
Q 2250 4219 1831 4219 
Q 1534 4219 1204 4116 
Q 875 4013 500 3803 
L 500 4441 
Q 881 4594 1212 4672 
Q 1544 4750 1819 4750 
Q 2544 4750 2975 4387 
Q 3406 4025 3406 3419 
Q 3406 3131 3298 2873 
Q 3191 2616 2906 2266 
Q 2828 2175 2409 1742 
Q 1991 1309 1228 531 
z
" transform="scale(0.015625)"/>
        <path id="DejaVuSans-73" d="M 2834 3397 
L 2834 2853 
Q 2591 2978 2328 3040 
Q 2066 3103 1784 3103 
Q 1356 3103 1142 2972 
Q 928 2841 928 2578 
Q 928 2378 1081 2264 
Q 1234 2150 1697 2047 
L 1894 2003 
Q 2506 1872 2764 1633 
Q 3022 1394 3022 966 
Q 3022 478 2636 193 
Q 2250 -91 1575 -91 
Q 1294 -91 989 -36 
Q 684 19 347 128 
L 347 722 
Q 666 556 975 473 
Q 1284 391 1588 391 
Q 1994 391 2212 530 
Q 2431 669 2431 922 
Q 2431 1156 2273 1281 
Q 2116 1406 1581 1522 
L 1381 1569 
Q 847 1681 609 1914 
Q 372 2147 372 2553 
Q 372 3047 722 3315 
Q 1072 3584 1716 3584 
Q 2034 3584 2315 3537 
Q 2597 3491 2834 3397 
z
" transform="scale(0.015625)"/>
       </defs>
       <use xlink:href="#DejaVuSans-28"/>
       <use xlink:href="#DejaVuSans-32" transform="translate(39.013672 0)"/>
       <use xlink:href="#DejaVuSans-20" transform="translate(102.636719 0)"/>
       <use xlink:href="#DejaVuSans-65" transform="translate(134.423828 0)"/>
       <use xlink:href="#DejaVuSans-70" transform="translate(195.947266 0)"/>
       <use xlink:href="#DejaVuSans-6f" transform="translate(259.423828 0)"/>
       <use xlink:href="#DejaVuSans-63" transform="translate(320.605469 0)"/>
       <use xlink:href="#DejaVuSans-68" transform="translate(375.585938 0)"/>
       <use xlink:href="#DejaVuSans-73" transform="translate(438.964844 0)"/>
       <use xlink:href="#DejaVuSans-2c" transform="translate(491.064453 0)"/>
      </g>
      <!-- pure Brier) -->
      <g style="fill: #262626" transform="translate(175.9875 347.472469) scale(0.09 -0.09)">
       <use xlink:href="#DejaVuSans-70"/>
       <use xlink:href="#DejaVuSans-75" transform="translate(63.476562 0)"/>
       <use xlink:href="#DejaVuSans-72" transform="translate(126.855469 0)"/>
       <use xlink:href="#DejaVuSans-65" transform="translate(165.71875 0)"/>
       <use xlink:href="#DejaVuSans-20" transform="translate(227.242188 0)"/>
       <use xlink:href="#DejaVuSans-42" transform="translate(259.029297 0)"/>
       <use xlink:href="#DejaVuSans-72" transform="translate(327.632812 0)"/>
       <use xlink:href="#DejaVuSans-69" transform="translate(368.746094 0)"/>
       <use xlink:href="#DejaVuSans-65" transform="translate(396.529297 0)"/>
       <use xlink:href="#DejaVuSans-72" transform="translate(458.052734 0)"/>
       <use xlink:href="#DejaVuSans-29" transform="translate(499.166016 0)"/>
      </g>
     </g>
    </g>
    <g id="xtick_3">
     <g id="line2d_5">
      <path d="M 308.552091 316.977812 
L 308.552091 40.037812 
" clip-path="url(#pfe67308ca7)" style="fill: none; stroke-dasharray: 1,1.65; stroke-dashoffset: 0; stroke: #b0b0b0; stroke-opacity: 0.6"/>
     </g>
     <g id="line2d_6"/>
     <g id="text_3">
      <!-- Run C -->
      <g style="fill: #262626" transform="translate(295.351623 327.316406) scale(0.09 -0.09)">
       <defs>
        <path id="DejaVuSans-43" d="M 4122 4306 
L 4122 3641 
Q 3803 3938 3442 4084 
Q 3081 4231 2675 4231 
Q 1875 4231 1450 3742 
Q 1025 3253 1025 2328 
Q 1025 1406 1450 917 
Q 1875 428 2675 428 
Q 3081 428 3442 575 
Q 3803 722 4122 1019 
L 4122 359 
Q 3791 134 3420 21 
Q 3050 -91 2638 -91 
Q 1578 -91 968 557 
Q 359 1206 359 2328 
Q 359 3453 968 4101 
Q 1578 4750 2638 4750 
Q 3056 4750 3426 4639 
Q 3797 4528 4122 4306 
z
" transform="scale(0.015625)"/>
       </defs>
       <use xlink:href="#DejaVuSans-52"/>
       <use xlink:href="#DejaVuSans-75" transform="translate(64.982422 0)"/>
       <use xlink:href="#DejaVuSans-6e" transform="translate(128.361328 0)"/>
       <use xlink:href="#DejaVuSans-20" transform="translate(191.740234 0)"/>
       <use xlink:href="#DejaVuSans-43" transform="translate(223.527344 0)"/>
      </g>
      <!-- (2 epochs, -->
      <g style="fill: #262626" transform="translate(285.023419 337.394437) scale(0.09 -0.09)">
       <use xlink:href="#DejaVuSans-28"/>
       <use xlink:href="#DejaVuSans-32" transform="translate(39.013672 0)"/>
       <use xlink:href="#DejaVuSans-20" transform="translate(102.636719 0)"/>
       <use xlink:href="#DejaVuSans-65" transform="translate(134.423828 0)"/>
       <use xlink:href="#DejaVuSans-70" transform="translate(195.947266 0)"/>
       <use xlink:href="#DejaVuSans-6f" transform="translate(259.423828 0)"/>
       <use xlink:href="#DejaVuSans-63" transform="translate(320.605469 0)"/>
       <use xlink:href="#DejaVuSans-68" transform="translate(375.585938 0)"/>
       <use xlink:href="#DejaVuSans-73" transform="translate(438.964844 0)"/>
       <use xlink:href="#DejaVuSans-2c" transform="translate(491.064453 0)"/>
      </g>
      <!-- +stability) -->
      <g style="fill: #262626" transform="translate(285.124669 347.472469) scale(0.09 -0.09)">
       <defs>
        <path id="DejaVuSans-2b" d="M 2944 4013 
L 2944 2272 
L 4684 2272 
L 4684 1741 
L 2944 1741 
L 2944 0 
L 2419 0 
L 2419 1741 
L 678 1741 
L 678 2272 
L 2419 2272 
L 2419 4013 
L 2944 4013 
z
" transform="scale(0.015625)"/>
        <path id="DejaVuSans-74" d="M 1172 4494 
L 1172 3500 
L 2356 3500 
L 2356 3053 
L 1172 3053 
L 1172 1153 
Q 1172 725 1289 603 
Q 1406 481 1766 481 
L 2356 481 
L 2356 0 
L 1766 0 
Q 1100 0 847 248 
Q 594 497 594 1153 
L 594 3053 
L 172 3053 
L 172 3500 
L 594 3500 
L 594 4494 
L 1172 4494 
z
" transform="scale(0.015625)"/>
        <path id="DejaVuSans-61" d="M 2194 1759 
Q 1497 1759 1228 1600 
Q 959 1441 959 1056 
Q 959 750 1161 570 
Q 1363 391 1709 391 
Q 2188 391 2477 730 
Q 2766 1069 2766 1631 
L 2766 1759 
L 2194 1759 
z
M 3341 1997 
L 3341 0 
L 2766 0 
L 2766 531 
Q 2569 213 2275 61 
Q 1981 -91 1556 -91 
Q 1019 -91 701 211 
Q 384 513 384 1019 
Q 384 1609 779 1909 
Q 1175 2209 1959 2209 
L 2766 2209 
L 2766 2266 
Q 2766 2663 2505 2880 
Q 2244 3097 1772 3097 
Q 1472 3097 1187 3025 
Q 903 2953 641 2809 
L 641 3341 
Q 956 3463 1253 3523 
Q 1550 3584 1831 3584 
Q 2591 3584 2966 3190 
Q 3341 2797 3341 1997 
z
" transform="scale(0.015625)"/>
        <path id="DejaVuSans-62" d="M 3116 1747 
Q 3116 2381 2855 2742 
Q 2594 3103 2138 3103 
Q 1681 3103 1420 2742 
Q 1159 2381 1159 1747 
Q 1159 1113 1420 752 
Q 1681 391 2138 391 
Q 2594 391 2855 752 
Q 3116 1113 3116 1747 
z
M 1159 2969 
Q 1341 3281 1617 3432 
Q 1894 3584 2278 3584 
Q 2916 3584 3314 3078 
Q 3713 2572 3713 1747 
Q 3713 922 3314 415 
Q 2916 -91 2278 -91 
Q 1894 -91 1617 61 
Q 1341 213 1159 525 
L 1159 0 
L 581 0 
L 581 4863 
L 1159 4863 
L 1159 2969 
z
" transform="scale(0.015625)"/>
        <path id="DejaVuSans-6c" d="M 603 4863 
L 1178 4863 
L 1178 0 
L 603 0 
L 603 4863 
z
" transform="scale(0.015625)"/>
        <path id="DejaVuSans-79" d="M 2059 -325 
Q 1816 -950 1584 -1140 
Q 1353 -1331 966 -1331 
L 506 -1331 
L 506 -850 
L 844 -850 
Q 1081 -850 1212 -737 
Q 1344 -625 1503 -206 
L 1606 56 
L 191 3500 
L 800 3500 
L 1894 763 
L 2988 3500 
L 3597 3500 
L 2059 -325 
z
" transform="scale(0.015625)"/>
       </defs>
       <use xlink:href="#DejaVuSans-2b"/>
       <use xlink:href="#DejaVuSans-73" transform="translate(83.789062 0)"/>
       <use xlink:href="#DejaVuSans-74" transform="translate(135.888672 0)"/>
       <use xlink:href="#DejaVuSans-61" transform="translate(175.097656 0)"/>
       <use xlink:href="#DejaVuSans-62" transform="translate(236.376953 0)"/>
       <use xlink:href="#DejaVuSans-69" transform="translate(299.853516 0)"/>
       <use xlink:href="#DejaVuSans-6c" transform="translate(327.636719 0)"/>
       <use xlink:href="#DejaVuSans-69" transform="translate(355.419922 0)"/>
       <use xlink:href="#DejaVuSans-74" transform="translate(383.203125 0)"/>
       <use xlink:href="#DejaVuSans-79" transform="translate(422.412109 0)"/>
       <use xlink:href="#DejaVuSans-29" transform="translate(481.591797 0)"/>
      </g>
     </g>
    </g>
   </g>
   <g id="matplotlib.axis_2">
    <g id="ytick_1">
     <g id="line2d_7">
      <path d="M 45.270938 316.977812 
L 355.140938 316.977812 
" clip-path="url(#pfe67308ca7)" style="fill: none; stroke-dasharray: 1,1.65; stroke-dashoffset: 0; stroke: #b0b0b0; stroke-opacity: 0.6"/>
     </g>
     <g id="text_4">
      <!-- 0 -->
      <g style="fill: #262626" transform="translate(35.408438 320.777031) scale(0.1 -0.1)">
       <defs>
        <path id="DejaVuSans-30" d="M 2034 4250 
Q 1547 4250 1301 3770 
Q 1056 3291 1056 2328 
Q 1056 1369 1301 889 
Q 1547 409 2034 409 
Q 2525 409 2770 889 
Q 3016 1369 3016 2328 
Q 3016 3291 2770 3770 
Q 2525 4250 2034 4250 
z
M 2034 4750 
Q 2819 4750 3233 4129 
Q 3647 3509 3647 2328 
Q 3647 1150 3233 529 
Q 2819 -91 2034 -91 
Q 1250 -91 836 529 
Q 422 1150 422 2328 
Q 422 3509 836 4129 
Q 1250 4750 2034 4750 
z
" transform="scale(0.015625)"/>
       </defs>
       <use xlink:href="#DejaVuSans-30"/>
      </g>
     </g>
    </g>
    <g id="ytick_2">
     <g id="line2d_8">
      <path d="M 45.270938 270.821146 
L 355.140938 270.821146 
" clip-path="url(#pfe67308ca7)" style="fill: none; stroke-dasharray: 1,1.65; stroke-dashoffset: 0; stroke: #b0b0b0; stroke-opacity: 0.6"/>
     </g>
     <g id="text_5">
      <!-- 10 -->
      <g style="fill: #262626" transform="translate(29.045938 274.620365) scale(0.1 -0.1)">
       <use xlink:href="#DejaVuSans-31"/>
       <use xlink:href="#DejaVuSans-30" transform="translate(63.623047 0)"/>
      </g>
     </g>
    </g>
    <g id="ytick_3">
     <g id="line2d_9">
      <path d="M 45.270938 224.664479 
L 355.140938 224.664479 
" clip-path="url(#pfe67308ca7)" style="fill: none; stroke-dasharray: 1,1.65; stroke-dashoffset: 0; stroke: #b0b0b0; stroke-opacity: 0.6"/>
     </g>
     <g id="text_6">
      <!-- 20 -->
      <g style="fill: #262626" transform="translate(29.045938 228.463698) scale(0.1 -0.1)">
       <use xlink:href="#DejaVuSans-32"/>
       <use xlink:href="#DejaVuSans-30" transform="translate(63.623047 0)"/>
      </g>
     </g>
    </g>
    <g id="ytick_4">
     <g id="line2d_10">
      <path d="M 45.270938 178.507812 
L 355.140938 178.507812 
" clip-path="url(#pfe67308ca7)" style="fill: none; stroke-dasharray: 1,1.65; stroke-dashoffset: 0; stroke: #b0b0b0; stroke-opacity: 0.6"/>
     </g>
     <g id="text_7">
      <!-- 30 -->
      <g style="fill: #262626" transform="translate(29.045938 182.307031) scale(0.1 -0.1)">
       <defs>
        <path id="DejaVuSans-33" d="M 2597 2516 
Q 3050 2419 3304 2112 
Q 3559 1806 3559 1356 
Q 3559 666 3084 287 
Q 2609 -91 1734 -91 
Q 1441 -91 1130 -33 
Q 819 25 488 141 
L 488 750 
Q 750 597 1062 519 
Q 1375 441 1716 441 
Q 2309 441 2620 675 
Q 2931 909 2931 1356 
Q 2931 1769 2642 2001 
Q 2353 2234 1838 2234 
L 1294 2234 
L 1294 2753 
L 1863 2753 
Q 2328 2753 2575 2939 
Q 2822 3125 2822 3475 
Q 2822 3834 2567 4026 
Q 2313 4219 1838 4219 
Q 1578 4219 1281 4162 
Q 984 4106 628 3988 
L 628 4550 
Q 988 4650 1302 4700 
Q 1616 4750 1894 4750 
Q 2613 4750 3031 4423 
Q 3450 4097 3450 3541 
Q 3450 3153 3228 2886 
Q 3006 2619 2597 2516 
z
" transform="scale(0.015625)"/>
       </defs>
       <use xlink:href="#DejaVuSans-33"/>
       <use xlink:href="#DejaVuSans-30" transform="translate(63.623047 0)"/>
      </g>
     </g>
    </g>
    <g id="ytick_5">
     <g id="line2d_11">
      <path d="M 45.270938 132.351146 
L 355.140938 132.351146 
" clip-path="url(#pfe67308ca7)" style="fill: none; stroke-dasharray: 1,1.65; stroke-dashoffset: 0; stroke: #b0b0b0; stroke-opacity: 0.6"/>
     </g>
     <g id="text_8">
      <!-- 40 -->
      <g style="fill: #262626" transform="translate(29.045938 136.150365) scale(0.1 -0.1)">
       <defs>
        <path id="DejaVuSans-34" d="M 2419 4116 
L 825 1625 
L 2419 1625 
L 2419 4116 
z
M 2253 4666 
L 3047 4666 
L 3047 1625 
L 3713 1625 
L 3713 1100 
L 3047 1100 
L 3047 0 
L 2419 0 
L 2419 1100 
L 313 1100 
L 313 1709 
L 2253 4666 
z
" transform="scale(0.015625)"/>
       </defs>
       <use xlink:href="#DejaVuSans-34"/>
       <use xlink:href="#DejaVuSans-30" transform="translate(63.623047 0)"/>
      </g>
     </g>
    </g>
    <g id="ytick_6">
     <g id="line2d_12">
      <path d="M 45.270938 86.194479 
L 355.140938 86.194479 
" clip-path="url(#pfe67308ca7)" style="fill: none; stroke-dasharray: 1,1.65; stroke-dashoffset: 0; stroke: #b0b0b0; stroke-opacity: 0.6"/>
     </g>
     <g id="text_9">
      <!-- 50 -->
      <g style="fill: #262626" transform="translate(29.045938 89.993698) scale(0.1 -0.1)">
       <defs>
        <path id="DejaVuSans-35" d="M 691 4666 
L 3169 4666 
L 3169 4134 
L 1269 4134 
L 1269 2991 
Q 1406 3038 1543 3061 
Q 1681 3084 1819 3084 
Q 2600 3084 3056 2656 
Q 3513 2228 3513 1497 
Q 3513 744 3044 326 
Q 2575 -91 1722 -91 
Q 1428 -91 1123 -41 
Q 819 9 494 109 
L 494 744 
Q 775 591 1075 516 
Q 1375 441 1709 441 
Q 2250 441 2565 725 
Q 2881 1009 2881 1497 
Q 2881 1984 2565 2268 
Q 2250 2553 1709 2553 
Q 1456 2553 1204 2497 
Q 953 2441 691 2322 
L 691 4666 
z
" transform="scale(0.015625)"/>
       </defs>
       <use xlink:href="#DejaVuSans-35"/>
       <use xlink:href="#DejaVuSans-30" transform="translate(63.623047 0)"/>
      </g>
     </g>
    </g>
    <g id="ytick_7">
     <g id="line2d_13">
      <path d="M 45.270938 40.037812 
L 355.140938 40.037812 
" clip-path="url(#pfe67308ca7)" style="fill: none; stroke-dasharray: 1,1.65; stroke-dashoffset: 0; stroke: #b0b0b0; stroke-opacity: 0.6"/>
     </g>
     <g id="text_10">
      <!-- 60 -->
      <g style="fill: #262626" transform="translate(29.045938 43.837031) scale(0.1 -0.1)">
       <defs>
        <path id="DejaVuSans-36" d="M 2113 2584 
Q 1688 2584 1439 2293 
Q 1191 2003 1191 1497 
Q 1191 994 1439 701 
Q 1688 409 2113 409 
Q 2538 409 2786 701 
Q 3034 994 3034 1497 
Q 3034 2003 2786 2293 
Q 2538 2584 2113 2584 
z
M 3366 4563 
L 3366 3988 
Q 3128 4100 2886 4159 
Q 2644 4219 2406 4219 
Q 1781 4219 1451 3797 
Q 1122 3375 1075 2522 
Q 1259 2794 1537 2939 
Q 1816 3084 2150 3084 
Q 2853 3084 3261 2657 
Q 3669 2231 3669 1497 
Q 3669 778 3244 343 
Q 2819 -91 2113 -91 
Q 1303 -91 875 529 
Q 447 1150 447 2328 
Q 447 3434 972 4092 
Q 1497 4750 2381 4750 
Q 2619 4750 2861 4703 
Q 3103 4656 3366 4563 
z
" transform="scale(0.015625)"/>
       </defs>
       <use xlink:href="#DejaVuSans-36"/>
       <use xlink:href="#DejaVuSans-30" transform="translate(63.623047 0)"/>
      </g>
     </g>
    </g>
    <g id="text_11">
     <!-- Eval Accuracy (%) -->
     <g style="fill: #262626" transform="translate(22.758281 228.261328) rotate(-90) scale(0.11 -0.11)">
      <defs>
       <path id="DejaVuSans-45" d="M 628 4666 
L 3578 4666 
L 3578 4134 
L 1259 4134 
L 1259 2753 
L 3481 2753 
L 3481 2222 
L 1259 2222 
L 1259 531 
L 3634 531 
L 3634 0 
L 628 0 
L 628 4666 
z
" transform="scale(0.015625)"/>
       <path id="DejaVuSans-76" d="M 191 3500 
L 800 3500 
L 1894 563 
L 2988 3500 
L 3597 3500 
L 2284 0 
L 1503 0 
L 191 3500 
z
" transform="scale(0.015625)"/>
       <path id="DejaVuSans-25" d="M 4653 2053 
Q 4381 2053 4226 1822 
Q 4072 1591 4072 1178 
Q 4072 772 4226 539 
Q 4381 306 4653 306 
Q 4919 306 5073 539 
Q 5228 772 5228 1178 
Q 5228 1588 5073 1820 
Q 4919 2053 4653 2053 
z
M 4653 2450 
Q 5147 2450 5437 2106 
Q 5728 1763 5728 1178 
Q 5728 594 5436 251 
Q 5144 -91 4653 -91 
Q 4153 -91 3862 251 
Q 3572 594 3572 1178 
Q 3572 1766 3864 2108 
Q 4156 2450 4653 2450 
z
M 1428 4353 
Q 1159 4353 1004 4120 
Q 850 3888 850 3481 
Q 850 3069 1003 2837 
Q 1156 2606 1428 2606 
Q 1700 2606 1854 2837 
Q 2009 3069 2009 3481 
Q 2009 3884 1853 4118 
Q 1697 4353 1428 4353 
z
M 4250 4750 
L 4750 4750 
L 1831 -91 
L 1331 -91 
L 4250 4750 
z
M 1428 4750 
Q 1922 4750 2215 4408 
Q 2509 4066 2509 3481 
Q 2509 2891 2217 2550 
Q 1925 2209 1428 2209 
Q 931 2209 642 2551 
Q 353 2894 353 3481 
Q 353 4063 643 4406 
Q 934 4750 1428 4750 
z
" transform="scale(0.015625)"/>
      </defs>
      <use xlink:href="#DejaVuSans-45"/>
      <use xlink:href="#DejaVuSans-76" transform="translate(63.183594 0)"/>
      <use xlink:href="#DejaVuSans-61" transform="translate(122.363281 0)"/>
      <use xlink:href="#DejaVuSans-6c" transform="translate(183.642578 0)"/>
      <use xlink:href="#DejaVuSans-20" transform="translate(211.425781 0)"/>
      <use xlink:href="#DejaVuSans-41" transform="translate(243.212891 0)"/>
      <use xlink:href="#DejaVuSans-63" transform="translate(309.871094 0)"/>
      <use xlink:href="#DejaVuSans-63" transform="translate(364.851562 0)"/>
      <use xlink:href="#DejaVuSans-75" transform="translate(419.832031 0)"/>
      <use xlink:href="#DejaVuSans-72" transform="translate(483.210938 0)"/>
      <use xlink:href="#DejaVuSans-61" transform="translate(524.324219 0)"/>
      <use xlink:href="#DejaVuSans-63" transform="translate(585.603516 0)"/>
      <use xlink:href="#DejaVuSans-79" transform="translate(640.583984 0)"/>
      <use xlink:href="#DejaVuSans-20" transform="translate(699.763672 0)"/>
      <use xlink:href="#DejaVuSans-28" transform="translate(731.550781 0)"/>
      <use xlink:href="#DejaVuSans-25" transform="translate(770.564453 0)"/>
      <use xlink:href="#DejaVuSans-29" transform="translate(865.583984 0)"/>
     </g>
    </g>
   </g>
   <g id="patch_3">
    <path d="M 59.355938 316.977812 
L 124.36363 316.977812 
L 124.36363 87.579179 
L 59.355938 87.579179 
z
" clip-path="url(#pfe67308ca7)" style="fill: #94a3b8; stroke: #ffffff; stroke-width: 2; stroke-linejoin: miter"/>
   </g>
   <g id="patch_4">
    <path d="M 167.702091 316.977812 
L 232.709784 316.977812 
L 232.709784 171.584312 
L 167.702091 171.584312 
z
" clip-path="url(#pfe67308ca7)" style="fill: #ef4444; stroke: #ffffff; stroke-width: 2; stroke-linejoin: miter"/>
   </g>
   <g id="patch_5">
    <path d="M 276.048245 316.977812 
L 341.055938 316.977812 
L 341.055938 115.734746 
L 276.048245 115.734746 
z
" clip-path="url(#pfe67308ca7)" style="fill: #22c55e; stroke: #ffffff; stroke-width: 2; stroke-linejoin: miter"/>
   </g>
   <g id="patch_6">
    <path d="M 45.270938 316.977812 
L 355.140938 316.977812 
" style="fill: none; stroke: #cccccc; stroke-width: 1.2; stroke-linejoin: miter; stroke-linecap: square"/>
   </g>
   <g id="text_12">
    <!-- 49.7% -->
    <g style="fill: #262626" transform="translate(71.044471 80.083554) scale(0.12 -0.12)">
     <defs>
      <path id="DejaVuSans-Bold-34" d="M 2356 3675 
L 1038 1722 
L 2356 1722 
L 2356 3675 
z
M 2156 4666 
L 3494 4666 
L 3494 1722 
L 4159 1722 
L 4159 850 
L 3494 850 
L 3494 0 
L 2356 0 
L 2356 850 
L 288 850 
L 288 1881 
L 2156 4666 
z
" transform="scale(0.015625)"/>
      <path id="DejaVuSans-Bold-39" d="M 641 103 
L 641 966 
Q 928 831 1190 764 
Q 1453 697 1709 697 
Q 2247 697 2547 995 
Q 2847 1294 2900 1881 
Q 2688 1725 2447 1647 
Q 2206 1569 1925 1569 
Q 1209 1569 770 1986 
Q 331 2403 331 3084 
Q 331 3838 820 4291 
Q 1309 4744 2131 4744 
Q 3044 4744 3544 4128 
Q 4044 3513 4044 2388 
Q 4044 1231 3459 570 
Q 2875 -91 1856 -91 
Q 1528 -91 1228 -42 
Q 928 6 641 103 
z
M 2125 2350 
Q 2441 2350 2600 2554 
Q 2759 2759 2759 3169 
Q 2759 3575 2600 3781 
Q 2441 3988 2125 3988 
Q 1809 3988 1650 3781 
Q 1491 3575 1491 3169 
Q 1491 2759 1650 2554 
Q 1809 2350 2125 2350 
z
" transform="scale(0.015625)"/>
      <path id="DejaVuSans-Bold-2e" d="M 653 1209 
L 1778 1209 
L 1778 0 
L 653 0 
L 653 1209 
z
" transform="scale(0.015625)"/>
      <path id="DejaVuSans-Bold-37" d="M 428 4666 
L 3944 4666 
L 3944 3988 
L 2125 0 
L 953 0 
L 2675 3781 
L 428 3781 
L 428 4666 
z
" transform="scale(0.015625)"/>
      <path id="DejaVuSans-Bold-25" d="M 4959 1925 
Q 4738 1925 4616 1733 
Q 4494 1541 4494 1184 
Q 4494 825 4614 633 
Q 4734 441 4959 441 
Q 5184 441 5303 633 
Q 5422 825 5422 1184 
Q 5422 1541 5301 1733 
Q 5181 1925 4959 1925 
z
M 4959 2450 
Q 5541 2450 5875 2112 
Q 6209 1775 6209 1184 
Q 6209 594 5875 251 
Q 5541 -91 4959 -91 
Q 4378 -91 4042 251 
Q 3706 594 3706 1184 
Q 3706 1772 4042 2111 
Q 4378 2450 4959 2450 
z
M 2094 -91 
L 1403 -91 
L 4319 4750 
L 5013 4750 
L 2094 -91 
z
M 1453 4750 
Q 2034 4750 2367 4411 
Q 2700 4072 2700 3481 
Q 2700 2891 2367 2550 
Q 2034 2209 1453 2209 
Q 872 2209 539 2550 
Q 206 2891 206 3481 
Q 206 4072 539 4411 
Q 872 4750 1453 4750 
z
M 1453 4225 
Q 1228 4225 1106 4031 
Q 984 3838 984 3481 
Q 984 3122 1106 2926 
Q 1228 2731 1453 2731 
Q 1678 2731 1798 2926 
Q 1919 3122 1919 3481 
Q 1919 3838 1797 4031 
Q 1675 4225 1453 4225 
z
" transform="scale(0.015625)"/>
     </defs>
     <use xlink:href="#DejaVuSans-Bold-34"/>
     <use xlink:href="#DejaVuSans-Bold-39" transform="translate(69.580078 0)"/>
     <use xlink:href="#DejaVuSans-Bold-2e" transform="translate(139.160156 0)"/>
     <use xlink:href="#DejaVuSans-Bold-37" transform="translate(177.148438 0)"/>
     <use xlink:href="#DejaVuSans-Bold-25" transform="translate(246.728516 0)"/>
    </g>
   </g>
   <g id="text_13">
    <!-- 31.5% -->
    <g style="fill: #262626" transform="translate(179.390625 164.088687) scale(0.12 -0.12)">
     <defs>
      <path id="DejaVuSans-Bold-33" d="M 2981 2516 
Q 3453 2394 3698 2092 
Q 3944 1791 3944 1325 
Q 3944 631 3412 270 
Q 2881 -91 1863 -91 
Q 1503 -91 1142 -33 
Q 781 25 428 141 
L 428 1069 
Q 766 900 1098 814 
Q 1431 728 1753 728 
Q 2231 728 2486 893 
Q 2741 1059 2741 1369 
Q 2741 1688 2480 1852 
Q 2219 2016 1709 2016 
L 1228 2016 
L 1228 2791 
L 1734 2791 
Q 2188 2791 2409 2933 
Q 2631 3075 2631 3366 
Q 2631 3634 2415 3781 
Q 2200 3928 1806 3928 
Q 1516 3928 1219 3862 
Q 922 3797 628 3669 
L 628 4550 
Q 984 4650 1334 4700 
Q 1684 4750 2022 4750 
Q 2931 4750 3382 4451 
Q 3834 4153 3834 3553 
Q 3834 3144 3618 2883 
Q 3403 2622 2981 2516 
z
" transform="scale(0.015625)"/>
      <path id="DejaVuSans-Bold-31" d="M 750 831 
L 1813 831 
L 1813 3847 
L 722 3622 
L 722 4441 
L 1806 4666 
L 2950 4666 
L 2950 831 
L 4013 831 
L 4013 0 
L 750 0 
L 750 831 
z
" transform="scale(0.015625)"/>
      <path id="DejaVuSans-Bold-35" d="M 678 4666 
L 3669 4666 
L 3669 3781 
L 1638 3781 
L 1638 3059 
Q 1775 3097 1914 3117 
Q 2053 3138 2203 3138 
Q 3056 3138 3531 2711 
Q 4006 2284 4006 1522 
Q 4006 766 3489 337 
Q 2972 -91 2053 -91 
Q 1656 -91 1267 -14 
Q 878 63 494 219 
L 494 1166 
Q 875 947 1217 837 
Q 1559 728 1863 728 
Q 2300 728 2551 942 
Q 2803 1156 2803 1522 
Q 2803 1891 2551 2103 
Q 2300 2316 1863 2316 
Q 1603 2316 1309 2248 
Q 1016 2181 678 2041 
L 678 4666 
z
" transform="scale(0.015625)"/>
     </defs>
     <use xlink:href="#DejaVuSans-Bold-33"/>
     <use xlink:href="#DejaVuSans-Bold-31" transform="translate(69.580078 0)"/>
     <use xlink:href="#DejaVuSans-Bold-2e" transform="translate(139.160156 0)"/>
     <use xlink:href="#DejaVuSans-Bold-35" transform="translate(177.148438 0)"/>
     <use xlink:href="#DejaVuSans-Bold-25" transform="translate(246.728516 0)"/>
    </g>
   </g>
   <g id="text_14">
    <!-- 43.6% -->
    <g style="fill: #262626" transform="translate(287.736779 108.239121) scale(0.12 -0.12)">
     <defs>
      <path id="DejaVuSans-Bold-36" d="M 2316 2303 
Q 2000 2303 1842 2098 
Q 1684 1894 1684 1484 
Q 1684 1075 1842 870 
Q 2000 666 2316 666 
Q 2634 666 2792 870 
Q 2950 1075 2950 1484 
Q 2950 1894 2792 2098 
Q 2634 2303 2316 2303 
z
M 3803 4544 
L 3803 3681 
Q 3506 3822 3243 3889 
Q 2981 3956 2731 3956 
Q 2194 3956 1894 3657 
Q 1594 3359 1544 2772 
Q 1750 2925 1990 3001 
Q 2231 3078 2516 3078 
Q 3231 3078 3670 2659 
Q 4109 2241 4109 1563 
Q 4109 813 3618 361 
Q 3128 -91 2303 -91 
Q 1394 -91 895 523 
Q 397 1138 397 2266 
Q 397 3422 980 4083 
Q 1563 4744 2578 4744 
Q 2900 4744 3203 4694 
Q 3506 4644 3803 4544 
z
" transform="scale(0.015625)"/>
     </defs>
     <use xlink:href="#DejaVuSans-Bold-34"/>
     <use xlink:href="#DejaVuSans-Bold-33" transform="translate(69.580078 0)"/>
     <use xlink:href="#DejaVuSans-Bold-2e" transform="translate(139.160156 0)"/>
     <use xlink:href="#DejaVuSans-Bold-36" transform="translate(177.148438 0)"/>
     <use xlink:href="#DejaVuSans-Bold-25" transform="translate(246.728516 0)"/>
    </g>
   </g>
   <g id="text_15">
    <!-- COLLAPSE -->
    <g style="fill: #ef4444" transform="translate(171.362969 236.545) scale(0.1 -0.1)">
     <defs>
      <path id="DejaVuSans-Bold-43" d="M 4288 256 
Q 3956 84 3597 -3 
Q 3238 -91 2847 -91 
Q 1681 -91 1000 561 
Q 319 1213 319 2328 
Q 319 3447 1000 4098 
Q 1681 4750 2847 4750 
Q 3238 4750 3597 4662 
Q 3956 4575 4288 4403 
L 4288 3438 
Q 3953 3666 3628 3772 
Q 3303 3878 2944 3878 
Q 2300 3878 1931 3465 
Q 1563 3053 1563 2328 
Q 1563 1606 1931 1193 
Q 2300 781 2944 781 
Q 3303 781 3628 887 
Q 3953 994 4288 1222 
L 4288 256 
z
" transform="scale(0.015625)"/>
      <path id="DejaVuSans-Bold-4f" d="M 2719 3878 
Q 2169 3878 1866 3472 
Q 1563 3066 1563 2328 
Q 1563 1594 1866 1187 
Q 2169 781 2719 781 
Q 3272 781 3575 1187 
Q 3878 1594 3878 2328 
Q 3878 3066 3575 3472 
Q 3272 3878 2719 3878 
z
M 2719 4750 
Q 3844 4750 4481 4106 
Q 5119 3463 5119 2328 
Q 5119 1197 4481 553 
Q 3844 -91 2719 -91 
Q 1597 -91 958 553 
Q 319 1197 319 2328 
Q 319 3463 958 4106 
Q 1597 4750 2719 4750 
z
" transform="scale(0.015625)"/>
      <path id="DejaVuSans-Bold-4c" d="M 588 4666 
L 1791 4666 
L 1791 909 
L 3903 909 
L 3903 0 
L 588 0 
L 588 4666 
z
" transform="scale(0.015625)"/>
      <path id="DejaVuSans-Bold-41" d="M 3419 850 
L 1538 850 
L 1241 0 
L 31 0 
L 1759 4666 
L 3194 4666 
L 4922 0 
L 3713 0 
L 3419 850 
z
M 1838 1716 
L 3116 1716 
L 2478 3572 
L 1838 1716 
z
" transform="scale(0.015625)"/>
      <path id="DejaVuSans-Bold-50" d="M 588 4666 
L 2584 4666 
Q 3475 4666 3951 4270 
Q 4428 3875 4428 3144 
Q 4428 2409 3951 2014 
Q 3475 1619 2584 1619 
L 1791 1619 
L 1791 0 
L 588 0 
L 588 4666 
z
M 1791 3794 
L 1791 2491 
L 2456 2491 
Q 2806 2491 2997 2661 
Q 3188 2831 3188 3144 
Q 3188 3456 2997 3625 
Q 2806 3794 2456 3794 
L 1791 3794 
z
" transform="scale(0.015625)"/>
      <path id="DejaVuSans-Bold-53" d="M 3834 4519 
L 3834 3531 
Q 3450 3703 3084 3790 
Q 2719 3878 2394 3878 
Q 1963 3878 1756 3759 
Q 1550 3641 1550 3391 
Q 1550 3203 1689 3098 
Q 1828 2994 2194 2919 
L 2706 2816 
Q 3484 2659 3812 2340 
Q 4141 2022 4141 1434 
Q 4141 663 3683 286 
Q 3225 -91 2284 -91 
Q 1841 -91 1394 -6 
Q 947 78 500 244 
L 500 1259 
Q 947 1022 1364 901 
Q 1781 781 2169 781 
Q 2563 781 2772 912 
Q 2981 1044 2981 1288 
Q 2981 1506 2839 1625 
Q 2697 1744 2272 1838 
L 1806 1941 
Q 1106 2091 782 2419 
Q 459 2747 459 3303 
Q 459 4000 909 4375 
Q 1359 4750 2203 4750 
Q 2588 4750 2994 4692 
Q 3400 4634 3834 4519 
z
" transform="scale(0.015625)"/>
      <path id="DejaVuSans-Bold-45" d="M 588 4666 
L 3834 4666 
L 3834 3756 
L 1791 3756 
L 1791 2888 
L 3713 2888 
L 3713 1978 
L 1791 1978 
L 1791 909 
L 3903 909 
L 3903 0 
L 588 0 
L 588 4666 
z
" transform="scale(0.015625)"/>
     </defs>
     <use xlink:href="#DejaVuSans-Bold-43"/>
     <use xlink:href="#DejaVuSans-Bold-4f" transform="translate(73.388672 0)"/>
     <use xlink:href="#DejaVuSans-Bold-4c" transform="translate(158.398438 0)"/>
     <use xlink:href="#DejaVuSans-Bold-4c" transform="translate(222.119141 0)"/>
     <use xlink:href="#DejaVuSans-Bold-41" transform="translate(285.839844 0)"/>
     <use xlink:href="#DejaVuSans-Bold-50" transform="translate(363.232422 0)"/>
     <use xlink:href="#DejaVuSans-Bold-53" transform="translate(436.523438 0)"/>
     <use xlink:href="#DejaVuSans-Bold-45" transform="translate(508.544922 0)"/>
    </g>
    <!-- (-18%) -->
    <g style="fill: #ef4444" transform="translate(181.592656 247.742812) scale(0.1 -0.1)">
     <defs>
      <path id="DejaVuSans-Bold-28" d="M 2413 -844 
L 1484 -844 
Q 1006 -72 778 623 
Q 550 1319 550 2003 
Q 550 2688 779 3389 
Q 1009 4091 1484 4856 
L 2413 4856 
Q 2013 4116 1813 3408 
Q 1613 2700 1613 2009 
Q 1613 1319 1811 609 
Q 2009 -100 2413 -844 
z
" transform="scale(0.015625)"/>
      <path id="DejaVuSans-Bold-2d" d="M 347 2297 
L 2309 2297 
L 2309 1388 
L 347 1388 
L 347 2297 
z
" transform="scale(0.015625)"/>
      <path id="DejaVuSans-Bold-38" d="M 2228 2088 
Q 1891 2088 1709 1903 
Q 1528 1719 1528 1375 
Q 1528 1031 1709 848 
Q 1891 666 2228 666 
Q 2563 666 2741 848 
Q 2919 1031 2919 1375 
Q 2919 1722 2741 1905 
Q 2563 2088 2228 2088 
z
M 1350 2484 
Q 925 2613 709 2878 
Q 494 3144 494 3541 
Q 494 4131 934 4440 
Q 1375 4750 2228 4750 
Q 3075 4750 3515 4442 
Q 3956 4134 3956 3541 
Q 3956 3144 3739 2878 
Q 3522 2613 3097 2484 
Q 3572 2353 3814 2058 
Q 4056 1763 4056 1313 
Q 4056 619 3595 264 
Q 3134 -91 2228 -91 
Q 1319 -91 855 264 
Q 391 619 391 1313 
Q 391 1763 633 2058 
Q 875 2353 1350 2484 
z
M 1631 3419 
Q 1631 3141 1786 2991 
Q 1941 2841 2228 2841 
Q 2509 2841 2662 2991 
Q 2816 3141 2816 3419 
Q 2816 3697 2662 3845 
Q 2509 3994 2228 3994 
Q 1941 3994 1786 3844 
Q 1631 3694 1631 3419 
z
" transform="scale(0.015625)"/>
      <path id="DejaVuSans-Bold-29" d="M 513 -844 
Q 913 -100 1113 609 
Q 1313 1319 1313 2009 
Q 1313 2700 1113 3408 
Q 913 4116 513 4856 
L 1441 4856 
Q 1916 4091 2145 3389 
Q 2375 2688 2375 2003 
Q 2375 1319 2147 623 
Q 1919 -72 1441 -844 
L 513 -844 
z
" transform="scale(0.015625)"/>
     </defs>
     <use xlink:href="#DejaVuSans-Bold-28"/>
     <use xlink:href="#DejaVuSans-Bold-2d" transform="translate(45.703125 0)"/>
     <use xlink:href="#DejaVuSans-Bold-31" transform="translate(87.207031 0)"/>
     <use xlink:href="#DejaVuSans-Bold-38" transform="translate(156.787109 0)"/>
     <use xlink:href="#DejaVuSans-Bold-25" transform="translate(226.367188 0)"/>
     <use xlink:href="#DejaVuSans-Bold-29" transform="translate(326.5625 0)"/>
    </g>
   </g>
   <g id="patch_7">
    <path d="M 274.535271 114.002056 
Q 290.545018 114.817533 304.879886 115.547697 
" style="fill: none; stroke: #22c55e; stroke-width: 1.5; stroke-linecap: round"/>
    <path d="M 300.986806 113.346806 
L 304.879886 115.547697 
L 300.783324 117.341627 
" style="fill: none; stroke: #22c55e; stroke-width: 1.5; stroke-linecap: round"/>
   </g>
   <g id="text_16">
    <!-- +12% -->
    <g style="fill: #22c55e" transform="translate(238.221202 115.734746) scale(0.1 -0.1)">
     <defs>
      <path id="DejaVuSans-Bold-2b" d="M 3053 4013 
L 3053 2375 
L 4684 2375 
L 4684 1638 
L 3053 1638 
L 3053 0 
L 2309 0 
L 2309 1638 
L 678 1638 
L 678 2375 
L 2309 2375 
L 2309 4013 
L 3053 4013 
z
" transform="scale(0.015625)"/>
      <path id="DejaVuSans-Bold-32" d="M 1844 884 
L 3897 884 
L 3897 0 
L 506 0 
L 506 884 
L 2209 2388 
Q 2438 2594 2547 2791 
Q 2656 2988 2656 3200 
Q 2656 3528 2436 3728 
Q 2216 3928 1850 3928 
Q 1569 3928 1234 3808 
Q 900 3688 519 3450 
L 519 4475 
Q 925 4609 1322 4679 
Q 1719 4750 2100 4750 
Q 2938 4750 3402 4381 
Q 3866 4013 3866 3353 
Q 3866 2972 3669 2642 
Q 3472 2313 2841 1759 
L 1844 884 
z
" transform="scale(0.015625)"/>
     </defs>
     <use xlink:href="#DejaVuSans-Bold-2b"/>
     <use xlink:href="#DejaVuSans-Bold-31" transform="translate(83.789062 0)"/>
     <use xlink:href="#DejaVuSans-Bold-32" transform="translate(153.369141 0)"/>
     <use xlink:href="#DejaVuSans-Bold-25" transform="translate(222.949219 0)"/>
    </g>
   </g>
   <g id="text_17">
    <!-- Accuracy: Stability Prevents Collapse -->
    <g style="fill: #262626" transform="translate(45.270938 25.037812) scale(0.14 -0.14)">
     <defs>
      <path id="DejaVuSans-Bold-63" d="M 3366 3391 
L 3366 2478 
Q 3138 2634 2908 2709 
Q 2678 2784 2431 2784 
Q 1963 2784 1702 2511 
Q 1441 2238 1441 1747 
Q 1441 1256 1702 982 
Q 1963 709 2431 709 
Q 2694 709 2930 787 
Q 3166 866 3366 1019 
L 3366 103 
Q 3103 6 2833 -42 
Q 2563 -91 2291 -91 
Q 1344 -91 809 395 
Q 275 881 275 1747 
Q 275 2613 809 3098 
Q 1344 3584 2291 3584 
Q 2566 3584 2833 3536 
Q 3100 3488 3366 3391 
z
" transform="scale(0.015625)"/>
      <path id="DejaVuSans-Bold-75" d="M 500 1363 
L 500 3500 
L 1625 3500 
L 1625 3150 
Q 1625 2866 1622 2436 
Q 1619 2006 1619 1863 
Q 1619 1441 1641 1255 
Q 1663 1069 1716 984 
Q 1784 875 1895 815 
Q 2006 756 2150 756 
Q 2500 756 2700 1025 
Q 2900 1294 2900 1772 
L 2900 3500 
L 4019 3500 
L 4019 0 
L 2900 0 
L 2900 506 
Q 2647 200 2364 54 
Q 2081 -91 1741 -91 
Q 1134 -91 817 281 
Q 500 653 500 1363 
z
" transform="scale(0.015625)"/>
      <path id="DejaVuSans-Bold-72" d="M 3138 2547 
Q 2991 2616 2845 2648 
Q 2700 2681 2553 2681 
Q 2122 2681 1889 2404 
Q 1656 2128 1656 1613 
L 1656 0 
L 538 0 
L 538 3500 
L 1656 3500 
L 1656 2925 
Q 1872 3269 2151 3426 
Q 2431 3584 2822 3584 
Q 2878 3584 2943 3579 
Q 3009 3575 3134 3559 
L 3138 2547 
z
" transform="scale(0.015625)"/>
      <path id="DejaVuSans-Bold-61" d="M 2106 1575 
Q 1756 1575 1579 1456 
Q 1403 1338 1403 1106 
Q 1403 894 1545 773 
Q 1688 653 1941 653 
Q 2256 653 2472 879 
Q 2688 1106 2688 1447 
L 2688 1575 
L 2106 1575 
z
M 3816 1997 
L 3816 0 
L 2688 0 
L 2688 519 
Q 2463 200 2181 54 
Q 1900 -91 1497 -91 
Q 953 -91 614 226 
Q 275 544 275 1050 
Q 275 1666 698 1953 
Q 1122 2241 2028 2241 
L 2688 2241 
L 2688 2328 
Q 2688 2594 2478 2717 
Q 2269 2841 1825 2841 
Q 1466 2841 1156 2769 
Q 847 2697 581 2553 
L 581 3406 
Q 941 3494 1303 3539 
Q 1666 3584 2028 3584 
Q 2975 3584 3395 3211 
Q 3816 2838 3816 1997 
z
" transform="scale(0.015625)"/>
      <path id="DejaVuSans-Bold-79" d="M 78 3500 
L 1197 3500 
L 2138 1125 
L 2938 3500 
L 4056 3500 
L 2584 -331 
Q 2363 -916 2067 -1148 
Q 1772 -1381 1288 -1381 
L 641 -1381 
L 641 -647 
L 991 -647 
Q 1275 -647 1404 -556 
Q 1534 -466 1606 -231 
L 1638 -134 
L 78 3500 
z
" transform="scale(0.015625)"/>
      <path id="DejaVuSans-Bold-3a" d="M 716 3500 
L 1844 3500 
L 1844 2291 
L 716 2291 
L 716 3500 
z
M 716 1209 
L 1844 1209 
L 1844 0 
L 716 0 
L 716 1209 
z
" transform="scale(0.015625)"/>
      <path id="DejaVuSans-Bold-20" transform="scale(0.015625)"/>
      <path id="DejaVuSans-Bold-74" d="M 1759 4494 
L 1759 3500 
L 2913 3500 
L 2913 2700 
L 1759 2700 
L 1759 1216 
Q 1759 972 1856 886 
Q 1953 800 2241 800 
L 2816 800 
L 2816 0 
L 1856 0 
Q 1194 0 917 276 
Q 641 553 641 1216 
L 641 2700 
L 84 2700 
L 84 3500 
L 641 3500 
L 641 4494 
L 1759 4494 
z
" transform="scale(0.015625)"/>
      <path id="DejaVuSans-Bold-62" d="M 2400 722 
Q 2759 722 2948 984 
Q 3138 1247 3138 1747 
Q 3138 2247 2948 2509 
Q 2759 2772 2400 2772 
Q 2041 2772 1848 2508 
Q 1656 2244 1656 1747 
Q 1656 1250 1848 986 
Q 2041 722 2400 722 
z
M 1656 2988 
Q 1888 3294 2169 3439 
Q 2450 3584 2816 3584 
Q 3463 3584 3878 3070 
Q 4294 2556 4294 1747 
Q 4294 938 3878 423 
Q 3463 -91 2816 -91 
Q 2450 -91 2169 54 
Q 1888 200 1656 506 
L 1656 0 
L 538 0 
L 538 4863 
L 1656 4863 
L 1656 2988 
z
" transform="scale(0.015625)"/>
      <path id="DejaVuSans-Bold-69" d="M 538 3500 
L 1656 3500 
L 1656 0 
L 538 0 
L 538 3500 
z
M 538 4863 
L 1656 4863 
L 1656 3950 
L 538 3950 
L 538 4863 
z
" transform="scale(0.015625)"/>
      <path id="DejaVuSans-Bold-6c" d="M 538 4863 
L 1656 4863 
L 1656 0 
L 538 0 
L 538 4863 
z
" transform="scale(0.015625)"/>
      <path id="DejaVuSans-Bold-65" d="M 4031 1759 
L 4031 1441 
L 1416 1441 
Q 1456 1047 1700 850 
Q 1944 653 2381 653 
Q 2734 653 3104 758 
Q 3475 863 3866 1075 
L 3866 213 
Q 3469 63 3072 -14 
Q 2675 -91 2278 -91 
Q 1328 -91 801 392 
Q 275 875 275 1747 
Q 275 2603 792 3093 
Q 1309 3584 2216 3584 
Q 3041 3584 3536 3087 
Q 4031 2591 4031 1759 
z
M 2881 2131 
Q 2881 2450 2695 2645 
Q 2509 2841 2209 2841 
Q 1884 2841 1681 2658 
Q 1478 2475 1428 2131 
L 2881 2131 
z
" transform="scale(0.015625)"/>
      <path id="DejaVuSans-Bold-76" d="M 97 3500 
L 1216 3500 
L 2088 1081 
L 2956 3500 
L 4078 3500 
L 2700 0 
L 1472 0 
L 97 3500 
z
" transform="scale(0.015625)"/>
      <path id="DejaVuSans-Bold-6e" d="M 4056 2131 
L 4056 0 
L 2931 0 
L 2931 347 
L 2931 1631 
Q 2931 2084 2911 2256 
Q 2891 2428 2841 2509 
Q 2775 2619 2662 2680 
Q 2550 2741 2406 2741 
Q 2056 2741 1856 2470 
Q 1656 2200 1656 1722 
L 1656 0 
L 538 0 
L 538 3500 
L 1656 3500 
L 1656 2988 
Q 1909 3294 2193 3439 
Q 2478 3584 2822 3584 
Q 3428 3584 3742 3212 
Q 4056 2841 4056 2131 
z
" transform="scale(0.015625)"/>
      <path id="DejaVuSans-Bold-73" d="M 3272 3391 
L 3272 2541 
Q 2913 2691 2578 2766 
Q 2244 2841 1947 2841 
Q 1628 2841 1473 2761 
Q 1319 2681 1319 2516 
Q 1319 2381 1436 2309 
Q 1553 2238 1856 2203 
L 2053 2175 
Q 2913 2066 3209 1816 
Q 3506 1566 3506 1031 
Q 3506 472 3093 190 
Q 2681 -91 1863 -91 
Q 1516 -91 1145 -36 
Q 775 19 384 128 
L 384 978 
Q 719 816 1070 734 
Q 1422 653 1784 653 
Q 2113 653 2278 743 
Q 2444 834 2444 1013 
Q 2444 1163 2330 1236 
Q 2216 1309 1875 1350 
L 1678 1375 
Q 931 1469 631 1722 
Q 331 1975 331 2491 
Q 331 3047 712 3315 
Q 1094 3584 1881 3584 
Q 2191 3584 2531 3537 
Q 2872 3491 3272 3391 
z
" transform="scale(0.015625)"/>
      <path id="DejaVuSans-Bold-6f" d="M 2203 2784 
Q 1831 2784 1636 2517 
Q 1441 2250 1441 1747 
Q 1441 1244 1636 976 
Q 1831 709 2203 709 
Q 2569 709 2762 976 
Q 2956 1244 2956 1747 
Q 2956 2250 2762 2517 
Q 2569 2784 2203 2784 
z
M 2203 3584 
Q 3106 3584 3614 3096 
Q 4122 2609 4122 1747 
Q 4122 884 3614 396 
Q 3106 -91 2203 -91 
Q 1297 -91 786 396 
Q 275 884 275 1747 
Q 275 2609 786 3096 
Q 1297 3584 2203 3584 
z
" transform="scale(0.015625)"/>
      <path id="DejaVuSans-Bold-70" d="M 1656 506 
L 1656 -1331 
L 538 -1331 
L 538 3500 
L 1656 3500 
L 1656 2988 
Q 1888 3294 2169 3439 
Q 2450 3584 2816 3584 
Q 3463 3584 3878 3070 
Q 4294 2556 4294 1747 
Q 4294 938 3878 423 
Q 3463 -91 2816 -91 
Q 2450 -91 2169 54 
Q 1888 200 1656 506 
z
M 2400 2772 
Q 2041 2772 1848 2508 
Q 1656 2244 1656 1747 
Q 1656 1250 1848 986 
Q 2041 722 2400 722 
Q 2759 722 2948 984 
Q 3138 1247 3138 1747 
Q 3138 2247 2948 2509 
Q 2759 2772 2400 2772 
z
" transform="scale(0.015625)"/>
     </defs>
     <use xlink:href="#DejaVuSans-Bold-41"/>
     <use xlink:href="#DejaVuSans-Bold-63" transform="translate(77.392578 0)"/>
     <use xlink:href="#DejaVuSans-Bold-63" transform="translate(136.669922 0)"/>
     <use xlink:href="#DejaVuSans-Bold-75" transform="translate(195.947266 0)"/>
     <use xlink:href="#DejaVuSans-Bold-72" transform="translate(267.138672 0)"/>
     <use xlink:href="#DejaVuSans-Bold-61" transform="translate(316.455078 0)"/>
     <use xlink:href="#DejaVuSans-Bold-63" transform="translate(383.935547 0)"/>
     <use xlink:href="#DejaVuSans-Bold-79" transform="translate(443.212891 0)"/>
     <use xlink:href="#DejaVuSans-Bold-3a" transform="translate(508.398438 0)"/>
     <use xlink:href="#DejaVuSans-Bold-20" transform="translate(548.388672 0)"/>
     <use xlink:href="#DejaVuSans-Bold-53" transform="translate(583.203125 0)"/>
     <use xlink:href="#DejaVuSans-Bold-74" transform="translate(655.224609 0)"/>
     <use xlink:href="#DejaVuSans-Bold-61" transform="translate(703.027344 0)"/>
     <use xlink:href="#DejaVuSans-Bold-62" transform="translate(770.507812 0)"/>
     <use xlink:href="#DejaVuSans-Bold-69" transform="translate(842.089844 0)"/>
     <use xlink:href="#DejaVuSans-Bold-6c" transform="translate(876.367188 0)"/>
     <use xlink:href="#DejaVuSans-Bold-69" transform="translate(910.644531 0)"/>
     <use xlink:href="#DejaVuSans-Bold-74" transform="translate(944.921875 0)"/>
     <use xlink:href="#DejaVuSans-Bold-79" transform="translate(992.724609 0)"/>
     <use xlink:href="#DejaVuSans-Bold-20" transform="translate(1057.910156 0)"/>
     <use xlink:href="#DejaVuSans-Bold-50" transform="translate(1092.724609 0)"/>
     <use xlink:href="#DejaVuSans-Bold-72" transform="translate(1166.015625 0)"/>
     <use xlink:href="#DejaVuSans-Bold-65" transform="translate(1215.332031 0)"/>
     <use xlink:href="#DejaVuSans-Bold-76" transform="translate(1283.154297 0)"/>
     <use xlink:href="#DejaVuSans-Bold-65" transform="translate(1348.339844 0)"/>
     <use xlink:href="#DejaVuSans-Bold-6e" transform="translate(1416.162109 0)"/>
     <use xlink:href="#DejaVuSans-Bold-74" transform="translate(1487.353516 0)"/>
     <use xlink:href="#DejaVuSans-Bold-73" transform="translate(1535.15625 0)"/>
     <use xlink:href="#DejaVuSans-Bold-20" transform="translate(1594.677734 0)"/>
     <use xlink:href="#DejaVuSans-Bold-43" transform="translate(1629.492188 0)"/>
     <use xlink:href="#DejaVuSans-Bold-6f" transform="translate(1702.880859 0)"/>
     <use xlink:href="#DejaVuSans-Bold-6c" transform="translate(1771.582031 0)"/>
     <use xlink:href="#DejaVuSans-Bold-6c" transform="translate(1805.859375 0)"/>
     <use xlink:href="#DejaVuSans-Bold-61" transform="translate(1840.136719 0)"/>
     <use xlink:href="#DejaVuSans-Bold-70" transform="translate(1907.617188 0)"/>
     <use xlink:href="#DejaVuSans-Bold-73" transform="translate(1979.199219 0)"/>
     <use xlink:href="#DejaVuSans-Bold-65" transform="translate(2038.720703 0)"/>
    </g>
   </g>
  </g>
  <g id="axes_2">
   <g id="patch_8">
    <path d="M 400.320938 316.977812 
L 710.190938 316.977812 
L 710.190938 40.037812 
L 400.320938 40.037812 
z
" style="fill: #ffffff"/>
   </g>
   <g id="matplotlib.axis_3">
    <g id="xtick_4">
     <g id="line2d_14">
      <path d="M 446.909784 316.977812 
L 446.909784 40.037812 
" clip-path="url(#pd484909442)" style="fill: none; stroke-dasharray: 1,1.65; stroke-dashoffset: 0; stroke: #b0b0b0; stroke-opacity: 0.6"/>
     </g>
     <g id="line2d_15"/>
     <g id="text_18">
      <!-- Run A -->
      <g style="fill: #262626" transform="translate(433.773299 327.316406) scale(0.09 -0.09)">
       <use xlink:href="#DejaVuSans-52"/>
       <use xlink:href="#DejaVuSans-75" transform="translate(64.982422 0)"/>
       <use xlink:href="#DejaVuSans-6e" transform="translate(128.361328 0)"/>
       <use xlink:href="#DejaVuSans-20" transform="translate(191.740234 0)"/>
       <use xlink:href="#DejaVuSans-41" transform="translate(223.527344 0)"/>
      </g>
      <!-- (1 epoch, -->
      <g style="fill: #262626" transform="translate(425.725331 337.394437) scale(0.09 -0.09)">
       <use xlink:href="#DejaVuSans-28"/>
       <use xlink:href="#DejaVuSans-31" transform="translate(39.013672 0)"/>
       <use xlink:href="#DejaVuSans-20" transform="translate(102.636719 0)"/>
       <use xlink:href="#DejaVuSans-65" transform="translate(134.423828 0)"/>
       <use xlink:href="#DejaVuSans-70" transform="translate(195.947266 0)"/>
       <use xlink:href="#DejaVuSans-6f" transform="translate(259.423828 0)"/>
       <use xlink:href="#DejaVuSans-63" transform="translate(320.605469 0)"/>
       <use xlink:href="#DejaVuSans-68" transform="translate(375.585938 0)"/>
       <use xlink:href="#DejaVuSans-2c" transform="translate(438.964844 0)"/>
      </g>
      <!-- pure Brier) -->
      <g style="fill: #262626" transform="translate(422.691346 347.472469) scale(0.09 -0.09)">
       <use xlink:href="#DejaVuSans-70"/>
       <use xlink:href="#DejaVuSans-75" transform="translate(63.476562 0)"/>
       <use xlink:href="#DejaVuSans-72" transform="translate(126.855469 0)"/>
       <use xlink:href="#DejaVuSans-65" transform="translate(165.71875 0)"/>
       <use xlink:href="#DejaVuSans-20" transform="translate(227.242188 0)"/>
       <use xlink:href="#DejaVuSans-42" transform="translate(259.029297 0)"/>
       <use xlink:href="#DejaVuSans-72" transform="translate(327.632812 0)"/>
       <use xlink:href="#DejaVuSans-69" transform="translate(368.746094 0)"/>
       <use xlink:href="#DejaVuSans-65" transform="translate(396.529297 0)"/>
       <use xlink:href="#DejaVuSans-72" transform="translate(458.052734 0)"/>
       <use xlink:href="#DejaVuSans-29" transform="translate(499.166016 0)"/>
      </g>
     </g>
    </g>
    <g id="xtick_5">
     <g id="line2d_16">
      <path d="M 555.255938 316.977812 
L 555.255938 40.037812 
" clip-path="url(#pd484909442)" style="fill: none; stroke-dasharray: 1,1.65; stroke-dashoffset: 0; stroke: #b0b0b0; stroke-opacity: 0.6"/>
     </g>
     <g id="line2d_17"/>
     <g id="text_19">
      <!-- Run B -->
      <g style="fill: #262626" transform="translate(542.110313 327.316406) scale(0.09 -0.09)">
       <use xlink:href="#DejaVuSans-52"/>
       <use xlink:href="#DejaVuSans-75" transform="translate(64.982422 0)"/>
       <use xlink:href="#DejaVuSans-6e" transform="translate(128.361328 0)"/>
       <use xlink:href="#DejaVuSans-20" transform="translate(191.740234 0)"/>
       <use xlink:href="#DejaVuSans-42" transform="translate(223.527344 0)"/>
      </g>
      <!-- (2 epochs, -->
      <g style="fill: #262626" transform="translate(531.727266 337.394437) scale(0.09 -0.09)">
       <use xlink:href="#DejaVuSans-28"/>
       <use xlink:href="#DejaVuSans-32" transform="translate(39.013672 0)"/>
       <use xlink:href="#DejaVuSans-20" transform="translate(102.636719 0)"/>
       <use xlink:href="#DejaVuSans-65" transform="translate(134.423828 0)"/>
       <use xlink:href="#DejaVuSans-70" transform="translate(195.947266 0)"/>
       <use xlink:href="#DejaVuSans-6f" transform="translate(259.423828 0)"/>
       <use xlink:href="#DejaVuSans-63" transform="translate(320.605469 0)"/>
       <use xlink:href="#DejaVuSans-68" transform="translate(375.585938 0)"/>
       <use xlink:href="#DejaVuSans-73" transform="translate(438.964844 0)"/>
       <use xlink:href="#DejaVuSans-2c" transform="translate(491.064453 0)"/>
      </g>
      <!-- pure Brier) -->
      <g style="fill: #262626" transform="translate(531.0375 347.472469) scale(0.09 -0.09)">
       <use xlink:href="#DejaVuSans-70"/>
       <use xlink:href="#DejaVuSans-75" transform="translate(63.476562 0)"/>
       <use xlink:href="#DejaVuSans-72" transform="translate(126.855469 0)"/>
       <use xlink:href="#DejaVuSans-65" transform="translate(165.71875 0)"/>
       <use xlink:href="#DejaVuSans-20" transform="translate(227.242188 0)"/>
       <use xlink:href="#DejaVuSans-42" transform="translate(259.029297 0)"/>
       <use xlink:href="#DejaVuSans-72" transform="translate(327.632812 0)"/>
       <use xlink:href="#DejaVuSans-69" transform="translate(368.746094 0)"/>
       <use xlink:href="#DejaVuSans-65" transform="translate(396.529297 0)"/>
       <use xlink:href="#DejaVuSans-72" transform="translate(458.052734 0)"/>
       <use xlink:href="#DejaVuSans-29" transform="translate(499.166016 0)"/>
      </g>
     </g>
    </g>
    <g id="xtick_6">
     <g id="line2d_18">
      <path d="M 663.602091 316.977812 
L 663.602091 40.037812 
" clip-path="url(#pd484909442)" style="fill: none; stroke-dasharray: 1,1.65; stroke-dashoffset: 0; stroke: #b0b0b0; stroke-opacity: 0.6"/>
     </g>
     <g id="line2d_19"/>
     <g id="text_20">
      <!-- Run C -->
      <g style="fill: #262626" transform="translate(650.401623 327.316406) scale(0.09 -0.09)">
       <use xlink:href="#DejaVuSans-52"/>
       <use xlink:href="#DejaVuSans-75" transform="translate(64.982422 0)"/>
       <use xlink:href="#DejaVuSans-6e" transform="translate(128.361328 0)"/>
       <use xlink:href="#DejaVuSans-20" transform="translate(191.740234 0)"/>
       <use xlink:href="#DejaVuSans-43" transform="translate(223.527344 0)"/>
      </g>
      <!-- (2 epochs, -->
      <g style="fill: #262626" transform="translate(640.073419 337.394437) scale(0.09 -0.09)">
       <use xlink:href="#DejaVuSans-28"/>
       <use xlink:href="#DejaVuSans-32" transform="translate(39.013672 0)"/>
       <use xlink:href="#DejaVuSans-20" transform="translate(102.636719 0)"/>
       <use xlink:href="#DejaVuSans-65" transform="translate(134.423828 0)"/>
       <use xlink:href="#DejaVuSans-70" transform="translate(195.947266 0)"/>
       <use xlink:href="#DejaVuSans-6f" transform="translate(259.423828 0)"/>
       <use xlink:href="#DejaVuSans-63" transform="translate(320.605469 0)"/>
       <use xlink:href="#DejaVuSans-68" transform="translate(375.585938 0)"/>
       <use xlink:href="#DejaVuSans-73" transform="translate(438.964844 0)"/>
       <use xlink:href="#DejaVuSans-2c" transform="translate(491.064453 0)"/>
      </g>
      <!-- +stability) -->
      <g style="fill: #262626" transform="translate(640.174669 347.472469) scale(0.09 -0.09)">
       <use xlink:href="#DejaVuSans-2b"/>
       <use xlink:href="#DejaVuSans-73" transform="translate(83.789062 0)"/>
       <use xlink:href="#DejaVuSans-74" transform="translate(135.888672 0)"/>
       <use xlink:href="#DejaVuSans-61" transform="translate(175.097656 0)"/>
       <use xlink:href="#DejaVuSans-62" transform="translate(236.376953 0)"/>
       <use xlink:href="#DejaVuSans-69" transform="translate(299.853516 0)"/>
       <use xlink:href="#DejaVuSans-6c" transform="translate(327.636719 0)"/>
       <use xlink:href="#DejaVuSans-69" transform="translate(355.419922 0)"/>
       <use xlink:href="#DejaVuSans-74" transform="translate(383.203125 0)"/>
       <use xlink:href="#DejaVuSans-79" transform="translate(422.412109 0)"/>
       <use xlink:href="#DejaVuSans-29" transform="translate(481.591797 0)"/>
      </g>
     </g>
    </g>
   </g>
   <g id="matplotlib.axis_4">
    <g id="ytick_8">
     <g id="line2d_20">
      <path d="M 400.320938 316.977812 
L 710.190938 316.977812 
" clip-path="url(#pd484909442)" style="fill: none; stroke-dasharray: 1,1.65; stroke-dashoffset: 0; stroke: #b0b0b0; stroke-opacity: 0.6"/>
     </g>
     <g id="text_21">
      <!-- 5 -->
      <g style="fill: #262626" transform="translate(382.07875 320.777031) scale(0.1 -0.1)">
       <defs>
        <path id="DejaVuSans-2212" d="M 678 2272 
L 4684 2272 
L 4684 1741 
L 678 1741 
L 678 2272 
z
" transform="scale(0.015625)"/>
       </defs>
       <use xlink:href="#DejaVuSans-2212"/>
       <use xlink:href="#DejaVuSans-35" transform="translate(83.789062 0)"/>
      </g>
     </g>
    </g>
    <g id="ytick_9">
     <g id="line2d_21">
      <path d="M 400.320938 286.206701 
L 710.190938 286.206701 
" clip-path="url(#pd484909442)" style="fill: none; stroke-dasharray: 1,1.65; stroke-dashoffset: 0; stroke: #b0b0b0; stroke-opacity: 0.6"/>
     </g>
     <g id="text_22">
      <!-- 0 -->
      <g style="fill: #262626" transform="translate(390.458438 290.00592) scale(0.1 -0.1)">
       <use xlink:href="#DejaVuSans-30"/>
      </g>
     </g>
    </g>
    <g id="ytick_10">
     <g id="line2d_22">
      <path d="M 400.320938 255.43559 
L 710.190938 255.43559 
" clip-path="url(#pd484909442)" style="fill: none; stroke-dasharray: 1,1.65; stroke-dashoffset: 0; stroke: #b0b0b0; stroke-opacity: 0.6"/>
     </g>
     <g id="text_23">
      <!-- 5 -->
      <g style="fill: #262626" transform="translate(390.458438 259.234809) scale(0.1 -0.1)">
       <use xlink:href="#DejaVuSans-35"/>
      </g>
     </g>
    </g>
    <g id="ytick_11">
     <g id="line2d_23">
      <path d="M 400.320938 224.664479 
L 710.190938 224.664479 
" clip-path="url(#pd484909442)" style="fill: none; stroke-dasharray: 1,1.65; stroke-dashoffset: 0; stroke: #b0b0b0; stroke-opacity: 0.6"/>
     </g>
     <g id="text_24">
      <!-- 10 -->
      <g style="fill: #262626" transform="translate(384.095938 228.463698) scale(0.1 -0.1)">
       <use xlink:href="#DejaVuSans-31"/>
       <use xlink:href="#DejaVuSans-30" transform="translate(63.623047 0)"/>
      </g>
     </g>
    </g>
    <g id="ytick_12">
     <g id="line2d_24">
      <path d="M 400.320938 193.893368 
L 710.190938 193.893368 
" clip-path="url(#pd484909442)" style="fill: none; stroke-dasharray: 1,1.65; stroke-dashoffset: 0; stroke: #b0b0b0; stroke-opacity: 0.6"/>
     </g>
     <g id="text_25">
      <!-- 15 -->
      <g style="fill: #262626" transform="translate(384.095938 197.692587) scale(0.1 -0.1)">
       <use xlink:href="#DejaVuSans-31"/>
       <use xlink:href="#DejaVuSans-35" transform="translate(63.623047 0)"/>
      </g>
     </g>
    </g>
    <g id="ytick_13">
     <g id="line2d_25">
      <path d="M 400.320938 163.122257 
L 710.190938 163.122257 
" clip-path="url(#pd484909442)" style="fill: none; stroke-dasharray: 1,1.65; stroke-dashoffset: 0; stroke: #b0b0b0; stroke-opacity: 0.6"/>
     </g>
     <g id="text_26">
      <!-- 20 -->
      <g style="fill: #262626" transform="translate(384.095938 166.921476) scale(0.1 -0.1)">
       <use xlink:href="#DejaVuSans-32"/>
       <use xlink:href="#DejaVuSans-30" transform="translate(63.623047 0)"/>
      </g>
     </g>
    </g>
    <g id="ytick_14">
     <g id="line2d_26">
      <path d="M 400.320938 132.351146 
L 710.190938 132.351146 
" clip-path="url(#pd484909442)" style="fill: none; stroke-dasharray: 1,1.65; stroke-dashoffset: 0; stroke: #b0b0b0; stroke-opacity: 0.6"/>
     </g>
     <g id="text_27">
      <!-- 25 -->
      <g style="fill: #262626" transform="translate(384.095938 136.150365) scale(0.1 -0.1)">
       <use xlink:href="#DejaVuSans-32"/>
       <use xlink:href="#DejaVuSans-35" transform="translate(63.623047 0)"/>
      </g>
     </g>
    </g>
    <g id="ytick_15">
     <g id="line2d_27">
      <path d="M 400.320938 101.580035 
L 710.190938 101.580035 
" clip-path="url(#pd484909442)" style="fill: none; stroke-dasharray: 1,1.65; stroke-dashoffset: 0; stroke: #b0b0b0; stroke-opacity: 0.6"/>
     </g>
     <g id="text_28">
      <!-- 30 -->
      <g style="fill: #262626" transform="translate(384.095938 105.379253) scale(0.1 -0.1)">
       <use xlink:href="#DejaVuSans-33"/>
       <use xlink:href="#DejaVuSans-30" transform="translate(63.623047 0)"/>
      </g>
     </g>
    </g>
    <g id="ytick_16">
     <g id="line2d_28">
      <path d="M 400.320938 70.808924 
L 710.190938 70.808924 
" clip-path="url(#pd484909442)" style="fill: none; stroke-dasharray: 1,1.65; stroke-dashoffset: 0; stroke: #b0b0b0; stroke-opacity: 0.6"/>
     </g>
     <g id="text_29">
      <!-- 35 -->
      <g style="fill: #262626" transform="translate(384.095938 74.608142) scale(0.1 -0.1)">
       <use xlink:href="#DejaVuSans-33"/>
       <use xlink:href="#DejaVuSans-35" transform="translate(63.623047 0)"/>
      </g>
     </g>
    </g>
    <g id="ytick_17">
     <g id="line2d_29">
      <path d="M 400.320938 40.037812 
L 710.190938 40.037812 
" clip-path="url(#pd484909442)" style="fill: none; stroke-dasharray: 1,1.65; stroke-dashoffset: 0; stroke: #b0b0b0; stroke-opacity: 0.6"/>
     </g>
     <g id="text_30">
      <!-- 40 -->
      <g style="fill: #262626" transform="translate(384.095938 43.837031) scale(0.1 -0.1)">
       <use xlink:href="#DejaVuSans-34"/>
       <use xlink:href="#DejaVuSans-30" transform="translate(63.623047 0)"/>
      </g>
     </g>
    </g>
    <g id="text_31">
     <!-- Calibration Gap (%) -->
     <g style="fill: #262626" transform="translate(375.791094 232.570234) rotate(-90) scale(0.11 -0.11)">
      <defs>
       <path id="DejaVuSans-47" d="M 3809 666 
L 3809 1919 
L 2778 1919 
L 2778 2438 
L 4434 2438 
L 4434 434 
Q 4069 175 3628 42 
Q 3188 -91 2688 -91 
Q 1594 -91 976 548 
Q 359 1188 359 2328 
Q 359 3472 976 4111 
Q 1594 4750 2688 4750 
Q 3144 4750 3555 4637 
Q 3966 4525 4313 4306 
L 4313 3634 
Q 3963 3931 3569 4081 
Q 3175 4231 2741 4231 
Q 1884 4231 1454 3753 
Q 1025 3275 1025 2328 
Q 1025 1384 1454 906 
Q 1884 428 2741 428 
Q 3075 428 3337 486 
Q 3600 544 3809 666 
z
" transform="scale(0.015625)"/>
      </defs>
      <use xlink:href="#DejaVuSans-43"/>
      <use xlink:href="#DejaVuSans-61" transform="translate(69.824219 0)"/>
      <use xlink:href="#DejaVuSans-6c" transform="translate(131.103516 0)"/>
      <use xlink:href="#DejaVuSans-69" transform="translate(158.886719 0)"/>
      <use xlink:href="#DejaVuSans-62" transform="translate(186.669922 0)"/>
      <use xlink:href="#DejaVuSans-72" transform="translate(250.146484 0)"/>
      <use xlink:href="#DejaVuSans-61" transform="translate(291.259766 0)"/>
      <use xlink:href="#DejaVuSans-74" transform="translate(352.539062 0)"/>
      <use xlink:href="#DejaVuSans-69" transform="translate(391.748047 0)"/>
      <use xlink:href="#DejaVuSans-6f" transform="translate(419.53125 0)"/>
      <use xlink:href="#DejaVuSans-6e" transform="translate(480.712891 0)"/>
      <use xlink:href="#DejaVuSans-20" transform="translate(544.091797 0)"/>
      <use xlink:href="#DejaVuSans-47" transform="translate(575.878906 0)"/>
      <use xlink:href="#DejaVuSans-61" transform="translate(653.369141 0)"/>
      <use xlink:href="#DejaVuSans-70" transform="translate(714.648438 0)"/>
      <use xlink:href="#DejaVuSans-20" transform="translate(778.125 0)"/>
      <use xlink:href="#DejaVuSans-28" transform="translate(809.912109 0)"/>
      <use xlink:href="#DejaVuSans-25" transform="translate(848.925781 0)"/>
      <use xlink:href="#DejaVuSans-29" transform="translate(943.945312 0)"/>
     </g>
    </g>
   </g>
   <g id="patch_9">
    <path d="M 414.405938 286.206701 
L 479.41363 286.206701 
L 479.41363 101.580035 
L 414.405938 101.580035 
z
" clip-path="url(#pd484909442)" style="fill: #94a3b8; stroke: #ffffff; stroke-width: 2; stroke-linejoin: miter"/>
   </g>
   <g id="patch_10">
    <path d="M 522.752091 286.206701 
L 587.759784 286.206701 
L 587.759784 251.127635 
L 522.752091 251.127635 
z
" clip-path="url(#pd484909442)" style="fill: #ef4444; stroke: #ffffff; stroke-width: 2; stroke-linejoin: miter"/>
   </g>
   <g id="patch_11">
    <path d="M 631.098245 286.206701 
L 696.105938 286.206701 
L 696.105938 216.048568 
L 631.098245 216.048568 
z
" clip-path="url(#pd484909442)" style="fill: #22c55e; stroke: #ffffff; stroke-width: 2; stroke-linejoin: miter"/>
   </g>
   <g id="line2d_30">
    <path d="M 400.320938 286.206701 
L 710.190938 286.206701 
" clip-path="url(#pd484909442)" style="fill: none; stroke-dasharray: 5.55,2.4; stroke-dashoffset: 0; stroke: #6b7280; stroke-opacity: 0.5; stroke-width: 1.5"/>
   </g>
   <g id="patch_12">
    <path d="M 400.320938 316.977812 
L 710.190938 316.977812 
" style="fill: none; stroke: #cccccc; stroke-width: 1.2; stroke-linejoin: miter; stroke-linecap: square"/>
   </g>
   <g id="text_32">
    <!-- +30.0% -->
    <g style="fill: #262626" transform="translate(421.066659 94.08441) scale(0.12 -0.12)">
     <defs>
      <path id="DejaVuSans-Bold-30" d="M 2944 2338 
Q 2944 3213 2780 3570 
Q 2616 3928 2228 3928 
Q 1841 3928 1675 3570 
Q 1509 3213 1509 2338 
Q 1509 1453 1675 1090 
Q 1841 728 2228 728 
Q 2613 728 2778 1090 
Q 2944 1453 2944 2338 
z
M 4147 2328 
Q 4147 1169 3647 539 
Q 3147 -91 2228 -91 
Q 1306 -91 806 539 
Q 306 1169 306 2328 
Q 306 3491 806 4120 
Q 1306 4750 2228 4750 
Q 3147 4750 3647 4120 
Q 4147 3491 4147 2328 
z
" transform="scale(0.015625)"/>
     </defs>
     <use xlink:href="#DejaVuSans-Bold-2b"/>
     <use xlink:href="#DejaVuSans-Bold-33" transform="translate(83.789062 0)"/>
     <use xlink:href="#DejaVuSans-Bold-30" transform="translate(153.369141 0)"/>
     <use xlink:href="#DejaVuSans-Bold-2e" transform="translate(222.949219 0)"/>
     <use xlink:href="#DejaVuSans-Bold-30" transform="translate(260.9375 0)"/>
     <use xlink:href="#DejaVuSans-Bold-25" transform="translate(330.517578 0)"/>
    </g>
   </g>
   <g id="text_33">
    <!-- +5.7% -->
    <g style="fill: #262626" transform="translate(533.5875 243.63201) scale(0.12 -0.12)">
     <use xlink:href="#DejaVuSans-Bold-2b"/>
     <use xlink:href="#DejaVuSans-Bold-35" transform="translate(83.789062 0)"/>
     <use xlink:href="#DejaVuSans-Bold-2e" transform="translate(153.369141 0)"/>
     <use xlink:href="#DejaVuSans-Bold-37" transform="translate(191.357422 0)"/>
     <use xlink:href="#DejaVuSans-Bold-25" transform="translate(260.9375 0)"/>
    </g>
   </g>
   <g id="text_34">
    <!-- +11.4% -->
    <g style="fill: #262626" transform="translate(637.758966 208.552943) scale(0.12 -0.12)">
     <use xlink:href="#DejaVuSans-Bold-2b"/>
     <use xlink:href="#DejaVuSans-Bold-31" transform="translate(83.789062 0)"/>
     <use xlink:href="#DejaVuSans-Bold-31" transform="translate(153.369141 0)"/>
     <use xlink:href="#DejaVuSans-Bold-2e" transform="translate(222.949219 0)"/>
     <use xlink:href="#DejaVuSans-Bold-34" transform="translate(260.9375 0)"/>
     <use xlink:href="#DejaVuSans-Bold-25" transform="translate(330.517578 0)"/>
    </g>
   </g>
   <g id="patch_13">
    <path d="M 611.385195 168.646532 
Q 583.883263 209.060208 557.324838 248.087416 
" style="fill: none; stroke: #ef4444; stroke-width: 1.5; stroke-linecap: round"/>
    <path d="M 560.838308 246.123865 
L 557.324838 248.087416 
L 557.862079 244.09851 
" style="fill: none; stroke: #ef4444; stroke-width: 1.5; stroke-linecap: round"/>
   </g>
   <g id="text_35">
    <!-- Low gap, but -->
    <g style="fill: #ef4444" transform="translate(591.166911 153.044226) scale(0.09 -0.09)">
     <defs>
      <path id="DejaVuSans-4c" d="M 628 4666 
L 1259 4666 
L 1259 531 
L 3531 531 
L 3531 0 
L 628 0 
L 628 4666 
z
" transform="scale(0.015625)"/>
      <path id="DejaVuSans-77" d="M 269 3500 
L 844 3500 
L 1563 769 
L 2278 3500 
L 2956 3500 
L 3675 769 
L 4391 3500 
L 4966 3500 
L 4050 0 
L 3372 0 
L 2619 2869 
L 1863 0 
L 1184 0 
L 269 3500 
z
" transform="scale(0.015625)"/>
      <path id="DejaVuSans-67" d="M 2906 1791 
Q 2906 2416 2648 2759 
Q 2391 3103 1925 3103 
Q 1463 3103 1205 2759 
Q 947 2416 947 1791 
Q 947 1169 1205 825 
Q 1463 481 1925 481 
Q 2391 481 2648 825 
Q 2906 1169 2906 1791 
z
M 3481 434 
Q 3481 -459 3084 -895 
Q 2688 -1331 1869 -1331 
Q 1566 -1331 1297 -1286 
Q 1028 -1241 775 -1147 
L 775 -588 
Q 1028 -725 1275 -790 
Q 1522 -856 1778 -856 
Q 2344 -856 2625 -561 
Q 2906 -266 2906 331 
L 2906 616 
Q 2728 306 2450 153 
Q 2172 0 1784 0 
Q 1141 0 747 490 
Q 353 981 353 1791 
Q 353 2603 747 3093 
Q 1141 3584 1784 3584 
Q 2172 3584 2450 3431 
Q 2728 3278 2906 2969 
L 2906 3500 
L 3481 3500 
L 3481 434 
z
" transform="scale(0.015625)"/>
     </defs>
     <use xlink:href="#DejaVuSans-4c"/>
     <use xlink:href="#DejaVuSans-6f" transform="translate(53.962891 0)"/>
     <use xlink:href="#DejaVuSans-77" transform="translate(115.144531 0)"/>
     <use xlink:href="#DejaVuSans-20" transform="translate(196.931641 0)"/>
     <use xlink:href="#DejaVuSans-67" transform="translate(228.71875 0)"/>
     <use xlink:href="#DejaVuSans-61" transform="translate(292.195312 0)"/>
     <use xlink:href="#DejaVuSans-70" transform="translate(353.474609 0)"/>
     <use xlink:href="#DejaVuSans-2c" transform="translate(416.951172 0)"/>
     <use xlink:href="#DejaVuSans-20" transform="translate(448.738281 0)"/>
     <use xlink:href="#DejaVuSans-62" transform="translate(480.525391 0)"/>
     <use xlink:href="#DejaVuSans-75" transform="translate(544.001953 0)"/>
     <use xlink:href="#DejaVuSans-74" transform="translate(607.380859 0)"/>
    </g>
    <!-- model collapsed -->
    <g style="fill: #ef4444" transform="translate(583.508474 163.122257) scale(0.09 -0.09)">
     <defs>
      <path id="DejaVuSans-6d" d="M 3328 2828 
Q 3544 3216 3844 3400 
Q 4144 3584 4550 3584 
Q 5097 3584 5394 3201 
Q 5691 2819 5691 2113 
L 5691 0 
L 5113 0 
L 5113 2094 
Q 5113 2597 4934 2840 
Q 4756 3084 4391 3084 
Q 3944 3084 3684 2787 
Q 3425 2491 3425 1978 
L 3425 0 
L 2847 0 
L 2847 2094 
Q 2847 2600 2669 2842 
Q 2491 3084 2119 3084 
Q 1678 3084 1418 2786 
Q 1159 2488 1159 1978 
L 1159 0 
L 581 0 
L 581 3500 
L 1159 3500 
L 1159 2956 
Q 1356 3278 1631 3431 
Q 1906 3584 2284 3584 
Q 2666 3584 2933 3390 
Q 3200 3197 3328 2828 
z
" transform="scale(0.015625)"/>
      <path id="DejaVuSans-64" d="M 2906 2969 
L 2906 4863 
L 3481 4863 
L 3481 0 
L 2906 0 
L 2906 525 
Q 2725 213 2448 61 
Q 2172 -91 1784 -91 
Q 1150 -91 751 415 
Q 353 922 353 1747 
Q 353 2572 751 3078 
Q 1150 3584 1784 3584 
Q 2172 3584 2448 3432 
Q 2725 3281 2906 2969 
z
M 947 1747 
Q 947 1113 1208 752 
Q 1469 391 1925 391 
Q 2381 391 2643 752 
Q 2906 1113 2906 1747 
Q 2906 2381 2643 2742 
Q 2381 3103 1925 3103 
Q 1469 3103 1208 2742 
Q 947 2381 947 1747 
z
" transform="scale(0.015625)"/>
     </defs>
     <use xlink:href="#DejaVuSans-6d"/>
     <use xlink:href="#DejaVuSans-6f" transform="translate(97.412109 0)"/>
     <use xlink:href="#DejaVuSans-64" transform="translate(158.59375 0)"/>
     <use xlink:href="#DejaVuSans-65" transform="translate(222.070312 0)"/>
     <use xlink:href="#DejaVuSans-6c" transform="translate(283.59375 0)"/>
     <use xlink:href="#DejaVuSans-20" transform="translate(311.376953 0)"/>
     <use xlink:href="#DejaVuSans-63" transform="translate(343.164062 0)"/>
     <use xlink:href="#DejaVuSans-6f" transform="translate(398.144531 0)"/>
     <use xlink:href="#DejaVuSans-6c" transform="translate(459.326172 0)"/>
     <use xlink:href="#DejaVuSans-6c" transform="translate(487.109375 0)"/>
     <use xlink:href="#DejaVuSans-61" transform="translate(514.892578 0)"/>
     <use xlink:href="#DejaVuSans-70" transform="translate(576.171875 0)"/>
     <use xlink:href="#DejaVuSans-73" transform="translate(639.648438 0)"/>
     <use xlink:href="#DejaVuSans-65" transform="translate(691.748047 0)"/>
     <use xlink:href="#DejaVuSans-64" transform="translate(753.271484 0)"/>
    </g>
   </g>
   <g id="text_36">
    <!-- Lower is better -->
    <g style="fill: #6b7280" transform="translate(636.419006 60.723406) scale(0.09 -0.09)">
     <defs>
      <path id="DejaVuSans-Oblique-4c" d="M 1075 4666 
L 1709 4666 
L 909 525 
L 3181 525 
L 3078 0 
L 172 0 
L 1075 4666 
z
" transform="scale(0.015625)"/>
      <path id="DejaVuSans-Oblique-6f" d="M 1625 -91 
Q 1009 -91 651 289 
Q 294 669 294 1325 
Q 294 1706 417 2101 
Q 541 2497 738 2766 
Q 1047 3184 1428 3384 
Q 1809 3584 2291 3584 
Q 2888 3584 3255 3212 
Q 3622 2841 3622 2241 
Q 3622 1825 3500 1412 
Q 3378 1000 3181 728 
Q 2875 309 2494 109 
Q 2113 -91 1625 -91 
z
M 891 1344 
Q 891 869 1089 633 
Q 1288 397 1691 397 
Q 2269 397 2648 901 
Q 3028 1406 3028 2181 
Q 3028 2634 2825 2865 
Q 2622 3097 2228 3097 
Q 1903 3097 1650 2945 
Q 1397 2794 1197 2484 
Q 1050 2253 970 1956 
Q 891 1659 891 1344 
z
" transform="scale(0.015625)"/>
      <path id="DejaVuSans-Oblique-77" d="M 544 3500 
L 1113 3500 
L 1259 684 
L 2566 3500 
L 3231 3500 
L 3425 684 
L 4666 3500 
L 5241 3500 
L 3641 0 
L 2969 0 
L 2797 2900 
L 1459 0 
L 781 0 
L 544 3500 
z
" transform="scale(0.015625)"/>
      <path id="DejaVuSans-Oblique-65" d="M 3078 2063 
Q 3088 2113 3092 2166 
Q 3097 2219 3097 2272 
Q 3097 2653 2873 2875 
Q 2650 3097 2266 3097 
Q 1838 3097 1509 2826 
Q 1181 2556 1013 2059 
L 3078 2063 
z
M 3578 1613 
L 903 1613 
Q 884 1494 878 1425 
Q 872 1356 872 1306 
Q 872 872 1139 634 
Q 1406 397 1894 397 
Q 2269 397 2603 481 
Q 2938 566 3225 728 
L 3116 159 
Q 2806 34 2476 -28 
Q 2147 -91 1806 -91 
Q 1078 -91 686 257 
Q 294 606 294 1247 
Q 294 1794 489 2264 
Q 684 2734 1063 3103 
Q 1306 3334 1642 3459 
Q 1978 3584 2356 3584 
Q 2950 3584 3301 3228 
Q 3653 2872 3653 2272 
Q 3653 2128 3634 1964 
Q 3616 1800 3578 1613 
z
" transform="scale(0.015625)"/>
      <path id="DejaVuSans-Oblique-72" d="M 2853 2969 
Q 2766 3016 2653 3041 
Q 2541 3066 2413 3066 
Q 1953 3066 1609 2717 
Q 1266 2369 1153 1784 
L 800 0 
L 225 0 
L 909 3500 
L 1484 3500 
L 1375 2956 
Q 1603 3259 1920 3421 
Q 2238 3584 2597 3584 
Q 2691 3584 2781 3573 
Q 2872 3563 2963 3538 
L 2853 2969 
z
" transform="scale(0.015625)"/>
      <path id="DejaVuSans-Oblique-20" transform="scale(0.015625)"/>
      <path id="DejaVuSans-Oblique-69" d="M 1172 4863 
L 1747 4863 
L 1606 4134 
L 1031 4134 
L 1172 4863 
z
M 909 3500 
L 1484 3500 
L 800 0 
L 225 0 
L 909 3500 
z
" transform="scale(0.015625)"/>
      <path id="DejaVuSans-Oblique-73" d="M 3200 3397 
L 3091 2853 
Q 2863 2978 2609 3040 
Q 2356 3103 2088 3103 
Q 1634 3103 1373 2948 
Q 1113 2794 1113 2528 
Q 1113 2219 1719 2053 
Q 1766 2041 1788 2034 
L 1972 1978 
Q 2547 1819 2739 1644 
Q 2931 1469 2931 1166 
Q 2931 609 2489 259 
Q 2047 -91 1331 -91 
Q 1053 -91 747 -37 
Q 441 16 72 128 
L 184 722 
Q 500 559 806 475 
Q 1113 391 1394 391 
Q 1816 391 2080 572 
Q 2344 753 2344 1031 
Q 2344 1331 1650 1516 
L 1591 1531 
L 1394 1581 
Q 956 1697 753 1886 
Q 550 2075 550 2369 
Q 550 2928 970 3256 
Q 1391 3584 2113 3584 
Q 2397 3584 2667 3537 
Q 2938 3491 3200 3397 
z
" transform="scale(0.015625)"/>
      <path id="DejaVuSans-Oblique-62" d="M 3169 2138 
Q 3169 2591 2961 2847 
Q 2753 3103 2388 3103 
Q 2122 3103 1889 2973 
Q 1656 2844 1484 2597 
Q 1303 2338 1198 1995 
Q 1094 1653 1094 1313 
Q 1094 881 1298 636 
Q 1503 391 1863 391 
Q 2134 391 2365 517 
Q 2597 644 2772 891 
Q 2950 1147 3059 1487 
Q 3169 1828 3169 2138 
z
M 1381 2969 
Q 1594 3256 1914 3420 
Q 2234 3584 2584 3584 
Q 3122 3584 3439 3221 
Q 3756 2859 3756 2241 
Q 3756 1734 3570 1259 
Q 3384 784 3041 416 
Q 2816 172 2522 40 
Q 2228 -91 1906 -91 
Q 1566 -91 1316 65 
Q 1066 222 909 531 
L 806 0 
L 231 0 
L 1178 4863 
L 1753 4863 
L 1381 2969 
z
" transform="scale(0.015625)"/>
      <path id="DejaVuSans-Oblique-74" d="M 2706 3500 
L 2619 3053 
L 1472 3053 
L 1100 1153 
Q 1081 1047 1072 975 
Q 1063 903 1063 863 
Q 1063 663 1183 572 
Q 1303 481 1569 481 
L 2150 481 
L 2053 0 
L 1503 0 
Q 991 0 739 200 
Q 488 400 488 806 
Q 488 878 497 964 
Q 506 1050 525 1153 
L 897 3053 
L 409 3053 
L 500 3500 
L 978 3500 
L 1172 4494 
L 1747 4494 
L 1556 3500 
L 2706 3500 
z
" transform="scale(0.015625)"/>
     </defs>
     <use xlink:href="#DejaVuSans-Oblique-4c"/>
     <use xlink:href="#DejaVuSans-Oblique-6f" transform="translate(55.712891 0)"/>
     <use xlink:href="#DejaVuSans-Oblique-77" transform="translate(116.894531 0)"/>
     <use xlink:href="#DejaVuSans-Oblique-65" transform="translate(198.681641 0)"/>
     <use xlink:href="#DejaVuSans-Oblique-72" transform="translate(260.205078 0)"/>
     <use xlink:href="#DejaVuSans-Oblique-20" transform="translate(301.318359 0)"/>
     <use xlink:href="#DejaVuSans-Oblique-69" transform="translate(333.105469 0)"/>
     <use xlink:href="#DejaVuSans-Oblique-73" transform="translate(360.888672 0)"/>
     <use xlink:href="#DejaVuSans-Oblique-20" transform="translate(412.988281 0)"/>
     <use xlink:href="#DejaVuSans-Oblique-62" transform="translate(444.775391 0)"/>
     <use xlink:href="#DejaVuSans-Oblique-65" transform="translate(508.251953 0)"/>
     <use xlink:href="#DejaVuSans-Oblique-74" transform="translate(569.775391 0)"/>
     <use xlink:href="#DejaVuSans-Oblique-74" transform="translate(608.984375 0)"/>
     <use xlink:href="#DejaVuSans-Oblique-65" transform="translate(648.193359 0)"/>
     <use xlink:href="#DejaVuSans-Oblique-72" transform="translate(709.716797 0)"/>
    </g>
    <!-- (0% = perfect) -->
    <g style="fill: #6b7280" transform="translate(637.296506 70.801438) scale(0.09 -0.09)">
     <defs>
      <path id="DejaVuSans-Oblique-28" d="M 2731 4856 
Q 1903 3822 1495 2892 
Q 1088 1963 1088 1100 
Q 1088 606 1206 120 
Q 1325 -366 1563 -844 
L 1063 -844 
Q 775 -306 634 201 
Q 494 709 494 1197 
Q 494 2125 923 3036 
Q 1353 3947 2222 4856 
L 2731 4856 
z
" transform="scale(0.015625)"/>
      <path id="DejaVuSans-Oblique-30" d="M 2444 4750 
Q 3078 4750 3414 4328 
Q 3750 3906 3750 3116 
Q 3750 2516 3592 1923 
Q 3434 1331 3150 863 
Q 2859 394 2467 151 
Q 2075 -91 1600 -91 
Q 988 -91 653 334 
Q 319 759 319 1544 
Q 319 2138 480 2733 
Q 641 3328 928 3794 
Q 1216 4263 1602 4506 
Q 1988 4750 2444 4750 
z
M 2406 4250 
Q 2169 4250 1955 4123 
Q 1741 3997 1569 3750 
Q 1281 3338 1111 2720 
Q 941 2103 941 1453 
Q 941 938 1123 673 
Q 1306 409 1663 409 
Q 1913 409 2125 536 
Q 2338 663 2509 909 
Q 2794 1319 2961 1936 
Q 3128 2553 3128 3206 
Q 3128 3722 2945 3986 
Q 2763 4250 2406 4250 
z
" transform="scale(0.015625)"/>
      <path id="DejaVuSans-Oblique-25" d="M 1503 2209 
Q 1078 2209 829 2486 
Q 581 2763 581 3238 
Q 581 3913 943 4331 
Q 1306 4750 1888 4750 
Q 2313 4750 2561 4470 
Q 2809 4191 2809 3713 
Q 2809 3044 2446 2626 
Q 2084 2209 1503 2209 
z
M 2309 3694 
Q 2309 4022 2187 4187 
Q 2066 4353 1825 4353 
Q 1475 4353 1278 4050 
Q 1081 3747 1081 3206 
Q 1081 2919 1207 2762 
Q 1334 2606 1569 2606 
Q 1903 2606 2106 2903 
Q 2309 3200 2309 3694 
z
M 4997 1394 
Q 4997 1728 4878 1893 
Q 4759 2059 4519 2059 
Q 4172 2059 3973 1754 
Q 3775 1450 3775 909 
Q 3775 619 3901 462 
Q 4028 306 4263 306 
Q 4597 306 4797 603 
Q 4997 900 4997 1394 
z
M 4197 -91 
Q 3772 -91 3525 187 
Q 3278 466 3278 941 
Q 3278 1616 3639 2033 
Q 4000 2450 4581 2450 
Q 5006 2450 5251 2175 
Q 5497 1900 5497 1422 
Q 5497 750 5136 329 
Q 4775 -91 4197 -91 
z
M 5259 4750 
L 1403 -91 
L 903 -91 
L 4763 4750 
L 5259 4750 
z
" transform="scale(0.015625)"/>
      <path id="DejaVuSans-Oblique-3d" d="M 678 2906 
L 4684 2906 
L 4684 2381 
L 678 2381 
L 678 2906 
z
M 678 1631 
L 4684 1631 
L 4684 1100 
L 678 1100 
L 678 1631 
z
" transform="scale(0.015625)"/>
      <path id="DejaVuSans-Oblique-70" d="M 3175 2156 
Q 3175 2616 2975 2859 
Q 2775 3103 2400 3103 
Q 2144 3103 1911 2972 
Q 1678 2841 1497 2591 
Q 1319 2344 1212 1994 
Q 1106 1644 1106 1300 
Q 1106 863 1306 627 
Q 1506 391 1875 391 
Q 2147 391 2380 519 
Q 2613 647 2778 891 
Q 2956 1147 3065 1494 
Q 3175 1841 3175 2156 
z
M 1394 2969 
Q 1625 3272 1939 3428 
Q 2253 3584 2638 3584 
Q 3175 3584 3472 3232 
Q 3769 2881 3769 2247 
Q 3769 1728 3584 1258 
Q 3400 788 3053 416 
Q 2822 169 2531 39 
Q 2241 -91 1919 -91 
Q 1547 -91 1294 64 
Q 1041 219 916 525 
L 556 -1331 
L -19 -1331 
L 922 3500 
L 1497 3500 
L 1394 2969 
z
" transform="scale(0.015625)"/>
      <path id="DejaVuSans-Oblique-66" d="M 3059 4863 
L 2969 4384 
L 2419 4384 
Q 2106 4384 1964 4261 
Q 1822 4138 1753 3809 
L 1691 3500 
L 2638 3500 
L 2553 3053 
L 1606 3053 
L 1013 0 
L 434 0 
L 1031 3053 
L 481 3053 
L 563 3500 
L 1113 3500 
L 1159 3744 
Q 1278 4363 1576 4613 
Q 1875 4863 2516 4863 
L 3059 4863 
z
" transform="scale(0.015625)"/>
      <path id="DejaVuSans-Oblique-63" d="M 3431 3366 
L 3316 2797 
Q 3109 2947 2876 3022 
Q 2644 3097 2394 3097 
Q 2119 3097 1870 3000 
Q 1622 2903 1453 2725 
Q 1184 2453 1037 2087 
Q 891 1722 891 1331 
Q 891 859 1127 628 
Q 1363 397 1844 397 
Q 2081 397 2348 469 
Q 2616 541 2906 684 
L 2797 116 
Q 2547 13 2283 -39 
Q 2019 -91 1741 -91 
Q 1044 -91 669 257 
Q 294 606 294 1253 
Q 294 1797 489 2255 
Q 684 2713 1069 3078 
Q 1331 3328 1684 3456 
Q 2038 3584 2456 3584 
Q 2700 3584 2940 3529 
Q 3181 3475 3431 3366 
z
" transform="scale(0.015625)"/>
      <path id="DejaVuSans-Oblique-29" d="M -397 -844 
Q 434 191 840 1120 
Q 1247 2050 1247 2913 
Q 1247 3406 1130 3892 
Q 1013 4378 775 4856 
L 1275 4856 
Q 1563 4316 1703 3812 
Q 1844 3309 1844 2822 
Q 1844 1891 1411 973 
Q 978 56 116 -844 
L -397 -844 
z
" transform="scale(0.015625)"/>
     </defs>
     <use xlink:href="#DejaVuSans-Oblique-28"/>
     <use xlink:href="#DejaVuSans-Oblique-30" transform="translate(39.013672 0)"/>
     <use xlink:href="#DejaVuSans-Oblique-25" transform="translate(102.636719 0)"/>
     <use xlink:href="#DejaVuSans-Oblique-20" transform="translate(197.65625 0)"/>
     <use xlink:href="#DejaVuSans-Oblique-3d" transform="translate(229.443359 0)"/>
     <use xlink:href="#DejaVuSans-Oblique-20" transform="translate(313.232422 0)"/>
     <use xlink:href="#DejaVuSans-Oblique-70" transform="translate(345.019531 0)"/>
     <use xlink:href="#DejaVuSans-Oblique-65" transform="translate(408.496094 0)"/>
     <use xlink:href="#DejaVuSans-Oblique-72" transform="translate(470.019531 0)"/>
     <use xlink:href="#DejaVuSans-Oblique-66" transform="translate(511.132812 0)"/>
     <use xlink:href="#DejaVuSans-Oblique-65" transform="translate(546.337891 0)"/>
     <use xlink:href="#DejaVuSans-Oblique-63" transform="translate(607.861328 0)"/>
     <use xlink:href="#DejaVuSans-Oblique-74" transform="translate(662.841797 0)"/>
     <use xlink:href="#DejaVuSans-Oblique-29" transform="translate(702.050781 0)"/>
    </g>
   </g>
   <g id="text_37">
    <!-- Calibration: Run B's 'Good' Gap Is Misleading -->
    <g style="fill: #262626" transform="translate(400.320938 25.037812) scale(0.14 -0.14)">
     <defs>
      <path id="DejaVuSans-Bold-52" d="M 2297 2597 
Q 2675 2597 2839 2737 
Q 3003 2878 3003 3200 
Q 3003 3519 2839 3656 
Q 2675 3794 2297 3794 
L 1791 3794 
L 1791 2597 
L 2297 2597 
z
M 1791 1766 
L 1791 0 
L 588 0 
L 588 4666 
L 2425 4666 
Q 3347 4666 3776 4356 
Q 4206 4047 4206 3378 
Q 4206 2916 3982 2619 
Q 3759 2322 3309 2181 
Q 3556 2125 3751 1926 
Q 3947 1728 4147 1325 
L 4800 0 
L 3519 0 
L 2950 1159 
Q 2778 1509 2601 1637 
Q 2425 1766 2131 1766 
L 1791 1766 
z
" transform="scale(0.015625)"/>
      <path id="DejaVuSans-Bold-42" d="M 2456 2859 
Q 2741 2859 2887 2984 
Q 3034 3109 3034 3353 
Q 3034 3594 2887 3720 
Q 2741 3847 2456 3847 
L 1791 3847 
L 1791 2859 
L 2456 2859 
z
M 2497 819 
Q 2859 819 3042 972 
Q 3225 1125 3225 1434 
Q 3225 1738 3044 1889 
Q 2863 2041 2497 2041 
L 1791 2041 
L 1791 819 
L 2497 819 
z
M 3616 2497 
Q 4003 2384 4215 2081 
Q 4428 1778 4428 1338 
Q 4428 663 3972 331 
Q 3516 0 2584 0 
L 588 0 
L 588 4666 
L 2394 4666 
Q 3366 4666 3802 4372 
Q 4238 4078 4238 3431 
Q 4238 3091 4078 2852 
Q 3919 2613 3616 2497 
z
" transform="scale(0.015625)"/>
      <path id="DejaVuSans-Bold-27" d="M 1350 4666 
L 1350 2931 
L 609 2931 
L 609 4666 
L 1350 4666 
z
" transform="scale(0.015625)"/>
      <path id="DejaVuSans-Bold-47" d="M 4781 347 
Q 4331 128 3847 18 
Q 3363 -91 2847 -91 
Q 1681 -91 1000 561 
Q 319 1213 319 2328 
Q 319 3456 1012 4103 
Q 1706 4750 2913 4750 
Q 3378 4750 3804 4662 
Q 4231 4575 4609 4403 
L 4609 3438 
Q 4219 3659 3833 3768 
Q 3447 3878 3059 3878 
Q 2341 3878 1952 3476 
Q 1563 3075 1563 2328 
Q 1563 1588 1938 1184 
Q 2313 781 3003 781 
Q 3191 781 3352 804 
Q 3513 828 3641 878 
L 3641 1784 
L 2906 1784 
L 2906 2591 
L 4781 2591 
L 4781 347 
z
" transform="scale(0.015625)"/>
      <path id="DejaVuSans-Bold-64" d="M 2919 2988 
L 2919 4863 
L 4044 4863 
L 4044 0 
L 2919 0 
L 2919 506 
Q 2688 197 2409 53 
Q 2131 -91 1766 -91 
Q 1119 -91 703 423 
Q 288 938 288 1747 
Q 288 2556 703 3070 
Q 1119 3584 1766 3584 
Q 2128 3584 2408 3439 
Q 2688 3294 2919 2988 
z
M 2181 722 
Q 2541 722 2730 984 
Q 2919 1247 2919 1747 
Q 2919 2247 2730 2509 
Q 2541 2772 2181 2772 
Q 1825 2772 1636 2509 
Q 1447 2247 1447 1747 
Q 1447 1247 1636 984 
Q 1825 722 2181 722 
z
" transform="scale(0.015625)"/>
      <path id="DejaVuSans-Bold-49" d="M 588 4666 
L 1791 4666 
L 1791 0 
L 588 0 
L 588 4666 
z
" transform="scale(0.015625)"/>
      <path id="DejaVuSans-Bold-4d" d="M 588 4666 
L 2119 4666 
L 3181 2169 
L 4250 4666 
L 5778 4666 
L 5778 0 
L 4641 0 
L 4641 3413 
L 3566 897 
L 2803 897 
L 1728 3413 
L 1728 0 
L 588 0 
L 588 4666 
z
" transform="scale(0.015625)"/>
      <path id="DejaVuSans-Bold-67" d="M 2919 594 
Q 2688 288 2409 144 
Q 2131 0 1766 0 
Q 1125 0 706 504 
Q 288 1009 288 1791 
Q 288 2575 706 3076 
Q 1125 3578 1766 3578 
Q 2131 3578 2409 3434 
Q 2688 3291 2919 2981 
L 2919 3500 
L 4044 3500 
L 4044 353 
Q 4044 -491 3511 -936 
Q 2978 -1381 1966 -1381 
Q 1638 -1381 1331 -1331 
Q 1025 -1281 716 -1178 
L 716 -306 
Q 1009 -475 1290 -558 
Q 1572 -641 1856 -641 
Q 2406 -641 2662 -400 
Q 2919 -159 2919 353 
L 2919 594 
z
M 2181 2772 
Q 1834 2772 1640 2515 
Q 1447 2259 1447 1791 
Q 1447 1309 1634 1061 
Q 1822 813 2181 813 
Q 2531 813 2725 1069 
Q 2919 1325 2919 1791 
Q 2919 2259 2725 2515 
Q 2531 2772 2181 2772 
z
" transform="scale(0.015625)"/>
     </defs>
     <use xlink:href="#DejaVuSans-Bold-43"/>
     <use xlink:href="#DejaVuSans-Bold-61" transform="translate(73.388672 0)"/>
     <use xlink:href="#DejaVuSans-Bold-6c" transform="translate(140.869141 0)"/>
     <use xlink:href="#DejaVuSans-Bold-69" transform="translate(175.146484 0)"/>
     <use xlink:href="#DejaVuSans-Bold-62" transform="translate(209.423828 0)"/>
     <use xlink:href="#DejaVuSans-Bold-72" transform="translate(281.005859 0)"/>
     <use xlink:href="#DejaVuSans-Bold-61" transform="translate(330.322266 0)"/>
     <use xlink:href="#DejaVuSans-Bold-74" transform="translate(397.802734 0)"/>
     <use xlink:href="#DejaVuSans-Bold-69" transform="translate(445.605469 0)"/>
     <use xlink:href="#DejaVuSans-Bold-6f" transform="translate(479.882812 0)"/>
     <use xlink:href="#DejaVuSans-Bold-6e" transform="translate(548.583984 0)"/>
     <use xlink:href="#DejaVuSans-Bold-3a" transform="translate(619.775391 0)"/>
     <use xlink:href="#DejaVuSans-Bold-20" transform="translate(659.765625 0)"/>
     <use xlink:href="#DejaVuSans-Bold-52" transform="translate(694.580078 0)"/>
     <use xlink:href="#DejaVuSans-Bold-75" transform="translate(771.582031 0)"/>
     <use xlink:href="#DejaVuSans-Bold-6e" transform="translate(842.773438 0)"/>
     <use xlink:href="#DejaVuSans-Bold-20" transform="translate(913.964844 0)"/>
     <use xlink:href="#DejaVuSans-Bold-42" transform="translate(948.779297 0)"/>
     <use xlink:href="#DejaVuSans-Bold-27" transform="translate(1025 0)"/>
     <use xlink:href="#DejaVuSans-Bold-73" transform="translate(1055.615234 0)"/>
     <use xlink:href="#DejaVuSans-Bold-20" transform="translate(1115.136719 0)"/>
     <use xlink:href="#DejaVuSans-Bold-27" transform="translate(1149.951172 0)"/>
     <use xlink:href="#DejaVuSans-Bold-47" transform="translate(1180.566406 0)"/>
     <use xlink:href="#DejaVuSans-Bold-6f" transform="translate(1262.646484 0)"/>
     <use xlink:href="#DejaVuSans-Bold-6f" transform="translate(1331.347656 0)"/>
     <use xlink:href="#DejaVuSans-Bold-64" transform="translate(1400.048828 0)"/>
     <use xlink:href="#DejaVuSans-Bold-27" transform="translate(1471.630859 0)"/>
     <use xlink:href="#DejaVuSans-Bold-20" transform="translate(1502.246094 0)"/>
     <use xlink:href="#DejaVuSans-Bold-47" transform="translate(1537.060547 0)"/>
     <use xlink:href="#DejaVuSans-Bold-61" transform="translate(1619.140625 0)"/>
     <use xlink:href="#DejaVuSans-Bold-70" transform="translate(1686.621094 0)"/>
     <use xlink:href="#DejaVuSans-Bold-20" transform="translate(1758.203125 0)"/>
     <use xlink:href="#DejaVuSans-Bold-49" transform="translate(1793.017578 0)"/>
     <use xlink:href="#DejaVuSans-Bold-73" transform="translate(1830.224609 0)"/>
     <use xlink:href="#DejaVuSans-Bold-20" transform="translate(1889.746094 0)"/>
     <use xlink:href="#DejaVuSans-Bold-4d" transform="translate(1924.560547 0)"/>
     <use xlink:href="#DejaVuSans-Bold-69" transform="translate(2024.072266 0)"/>
     <use xlink:href="#DejaVuSans-Bold-73" transform="translate(2058.349609 0)"/>
     <use xlink:href="#DejaVuSans-Bold-6c" transform="translate(2117.871094 0)"/>
     <use xlink:href="#DejaVuSans-Bold-65" transform="translate(2152.148438 0)"/>
     <use xlink:href="#DejaVuSans-Bold-61" transform="translate(2219.970703 0)"/>
     <use xlink:href="#DejaVuSans-Bold-64" transform="translate(2287.451172 0)"/>
     <use xlink:href="#DejaVuSans-Bold-69" transform="translate(2359.033203 0)"/>
     <use xlink:href="#DejaVuSans-Bold-6e" transform="translate(2393.310547 0)"/>
     <use xlink:href="#DejaVuSans-Bold-67" transform="translate(2464.501953 0)"/>
    </g>
   </g>
  </g>
 </g>
 <defs>
  <clipPath id="pfe67308ca7">
   <rect x="45.270938" y="40.037812" width="309.87" height="276.94"/>
  </clipPath>
  <clipPath id="pd484909442">
   <rect x="400.320938" y="40.037812" width="309.87" height="276.94"/>
  </clipPath>
 </defs>
</svg>
