<?xml version="1.0" encoding="utf-8" standalone="no"?>
<!DOCTYPE svg PUBLIC "-//W3C//DTD SVG 1.1//EN"
  "http://www.w3.org/Graphics/SVG/1.1/DTD/svg11.dtd">
<svg xmlns:xlink="http://www.w3.org/1999/xlink" width="725.14625pt" height="310.705625pt" viewBox="0 0 725.14625 310.705625" xmlns="http://www.w3.org/2000/svg" version="1.1">
 <metadata>
  <rdf:RDF xmlns:dc="http://purl.org/dc/elements/1.1/" xmlns:cc="http://creativecommons.org/ns#" xmlns:rdf="http://www.w3.org/1999/02/22-rdf-syntax-ns#">
   <cc:Work>
    <dc:type rdf:resource="http://purl.org/dc/dcmitype/StillImage"/>
    <dc:date>2026-01-03T21:02:24.531023</dc:date>
    <dc:format>image/svg+xml</dc:format>
    <dc:creator>
     <cc:Agent>
      <dc:title>Matplotlib v3.10.8, https://matplotlib.org/</dc:title>
     </cc:Agent>
    </dc:creator>
   </cc:Work>
  </rdf:RDF>
 </metadata>
 <defs>
  <style type="text/css">*{stroke-linejoin: round; stroke-linecap: butt}</style>
 </defs>
 <g id="figure_1">
  <g id="patch_1">
   <path d="M 0 310.705625 
L 725.14625 310.705625 
L 725.14625 0 
L 0 0 
z
" style="fill: #ffffff"/>
  </g>
  <g id="axes_1">
   <g id="patch_2">
    <path d="M 58.96375 267.18 
L 367.27375 267.18 
L 367.27375 97.512 
L 58.96375 97.512 
z
" style="fill: #ffffff"/>
   </g>
   <g id="matplotlib.axis_1">
    <g id="xtick_1">
     <g id="line2d_1">
      <path d="M 58.96375 267.18 
L 58.96375 97.512 
" clip-path="url(#pa9397a0d91)" style="fill: none; stroke-dasharray: 1,1.65; stroke-dashoffset: 0; stroke: #b0b0b0; stroke-opacity: 0.6"/>
     </g>
     <g id="line2d_2"/>
     <g id="text_1">
      <!-- −30 -->
      <g style="fill: #262626" transform="translate(48.411406 278.278438) scale(0.1 -0.1)">
       <defs>
        <path id="DejaVuSans-2212" d="M 678 2272 
L 4684 2272 
L 4684 1741 
L 678 1741 
L 678 2272 
z
" transform="scale(0.015625)"/>
        <path id="DejaVuSans-33" d="M 2597 2516 
Q 3050 2419 3304 2112 
Q 3559 1806 3559 1356 
Q 3559 666 3084 287 
Q 2609 -91 1734 -91 
Q 1441 -91 1130 -33 
Q 819 25 488 141 
L 488 750 
Q 750 597 1062 519 
Q 1375 441 1716 441 
Q 2309 441 2620 675 
Q 2931 909 2931 1356 
Q 2931 1769 2642 2001 
Q 2353 2234 1838 2234 
L 1294 2234 
L 1294 2753 
L 1863 2753 
Q 2328 2753 2575 2939 
Q 2822 3125 2822 3475 
Q 2822 3834 2567 4026 
Q 2313 4219 1838 4219 
Q 1578 4219 1281 4162 
Q 984 4106 628 3988 
L 628 4550 
Q 988 4650 1302 4700 
Q 1616 4750 1894 4750 
Q 2613 4750 3031 4423 
Q 3450 4097 3450 3541 
Q 3450 3153 3228 2886 
Q 3006 2619 2597 2516 
z
" transform="scale(0.015625)"/>
        <path id="DejaVuSans-30" d="M 2034 4250 
Q 1547 4250 1301 3770 
Q 1056 3291 1056 2328 
Q 1056 1369 1301 889 
Q 1547 409 2034 409 
Q 2525 409 2770 889 
Q 3016 1369 3016 2328 
Q 3016 3291 2770 3770 
Q 2525 4250 2034 4250 
z
M 2034 4750 
Q 2819 4750 3233 4129 
Q 3647 3509 3647 2328 
Q 3647 1150 3233 529 
Q 2819 -91 2034 -91 
Q 1250 -91 836 529 
Q 422 1150 422 2328 
Q 422 3509 836 4129 
Q 1250 4750 2034 4750 
z
" transform="scale(0.015625)"/>
       </defs>
       <use xlink:href="#DejaVuSans-2212"/>
       <use xlink:href="#DejaVuSans-33" transform="translate(83.789062 0)"/>
       <use xlink:href="#DejaVuSans-30" transform="translate(147.412109 0)"/>
      </g>
     </g>
    </g>
    <g id="xtick_2">
     <g id="line2d_3">
      <path d="M 110.34875 267.18 
L 110.34875 97.512 
" clip-path="url(#pa9397a0d91)" style="fill: none; stroke-dasharray: 1,1.65; stroke-dashoffset: 0; stroke: #b0b0b0; stroke-opacity: 0.6"/>
     </g>
     <g id="line2d_4"/>
     <g id="text_2">
      <!-- −20 -->
      <g style="fill: #262626" transform="translate(99.796406 278.278438) scale(0.1 -0.1)">
       <defs>
        <path id="DejaVuSans-32" d="M 1228 531 
L 3431 531 
L 3431 0 
L 469 0 
L 469 531 
Q 828 903 1448 1529 
Q 2069 2156 2228 2338 
Q 2531 2678 2651 2914 
Q 2772 3150 2772 3378 
Q 2772 3750 2511 3984 
Q 2250 4219 1831 4219 
Q 1534 4219 1204 4116 
Q 875 4013 500 3803 
L 500 4441 
Q 881 4594 1212 4672 
Q 1544 4750 1819 4750 
Q 2544 4750 2975 4387 
Q 3406 4025 3406 3419 
Q 3406 3131 3298 2873 
Q 3191 2616 2906 2266 
Q 2828 2175 2409 1742 
Q 1991 1309 1228 531 
z
" transform="scale(0.015625)"/>
       </defs>
       <use xlink:href="#DejaVuSans-2212"/>
       <use xlink:href="#DejaVuSans-32" transform="translate(83.789062 0)"/>
       <use xlink:href="#DejaVuSans-30" transform="translate(147.412109 0)"/>
      </g>
     </g>
    </g>
    <g id="xtick_3">
     <g id="line2d_5">
      <path d="M 161.73375 267.18 
L 161.73375 97.512 
" clip-path="url(#pa9397a0d91)" style="fill: none; stroke-dasharray: 1,1.65; stroke-dashoffset: 0; stroke: #b0b0b0; stroke-opacity: 0.6"/>
     </g>
     <g id="line2d_6"/>
     <g id="text_3">
      <!-- −10 -->
      <g style="fill: #262626" transform="translate(151.181406 278.278438) scale(0.1 -0.1)">
       <defs>
        <path id="DejaVuSans-31" d="M 794 531 
L 1825 531 
L 1825 4091 
L 703 3866 
L 703 4441 
L 1819 4666 
L 2450 4666 
L 2450 531 
L 3481 531 
L 3481 0 
L 794 0 
L 794 531 
z
" transform="scale(0.015625)"/>
       </defs>
       <use xlink:href="#DejaVuSans-2212"/>
       <use xlink:href="#DejaVuSans-31" transform="translate(83.789062 0)"/>
       <use xlink:href="#DejaVuSans-30" transform="translate(147.412109 0)"/>
      </g>
     </g>
    </g>
    <g id="xtick_4">
     <g id="line2d_7">
      <path d="M 213.11875 267.18 
L 213.11875 97.512 
" clip-path="url(#pa9397a0d91)" style="fill: none; stroke-dasharray: 1,1.65; stroke-dashoffset: 0; stroke: #b0b0b0; stroke-opacity: 0.6"/>
     </g>
     <g id="line2d_8"/>
     <g id="text_4">
      <!-- 0 -->
      <g style="fill: #262626" transform="translate(209.9375 278.278438) scale(0.1 -0.1)">
       <use xlink:href="#DejaVuSans-30"/>
      </g>
     </g>
    </g>
    <g id="xtick_5">
     <g id="line2d_9">
      <path d="M 264.50375 267.18 
L 264.50375 97.512 
" clip-path="url(#pa9397a0d91)" style="fill: none; stroke-dasharray: 1,1.65; stroke-dashoffset: 0; stroke: #b0b0b0; stroke-opacity: 0.6"/>
     </g>
     <g id="line2d_10"/>
     <g id="text_5">
      <!-- 10 -->
      <g style="fill: #262626" transform="translate(258.14125 278.278438) scale(0.1 -0.1)">
       <use xlink:href="#DejaVuSans-31"/>
       <use xlink:href="#DejaVuSans-30" transform="translate(63.623047 0)"/>
      </g>
     </g>
    </g>
    <g id="xtick_6">
     <g id="line2d_11">
      <path d="M 315.88875 267.18 
L 315.88875 97.512 
" clip-path="url(#pa9397a0d91)" style="fill: none; stroke-dasharray: 1,1.65; stroke-dashoffset: 0; stroke: #b0b0b0; stroke-opacity: 0.6"/>
     </g>
     <g id="line2d_12"/>
     <g id="text_6">
      <!-- 20 -->
      <g style="fill: #262626" transform="translate(309.52625 278.278438) scale(0.1 -0.1)">
       <use xlink:href="#DejaVuSans-32"/>
       <use xlink:href="#DejaVuSans-30" transform="translate(63.623047 0)"/>
      </g>
     </g>
    </g>
    <g id="xtick_7">
     <g id="line2d_13">
      <path d="M 367.27375 267.18 
L 367.27375 97.512 
" clip-path="url(#pa9397a0d91)" style="fill: none; stroke-dasharray: 1,1.65; stroke-dashoffset: 0; stroke: #b0b0b0; stroke-opacity: 0.6"/>
     </g>
     <g id="line2d_14"/>
     <g id="text_7">
      <!-- 30 -->
      <g style="fill: #262626" transform="translate(360.91125 278.278438) scale(0.1 -0.1)">
       <use xlink:href="#DejaVuSans-33"/>
       <use xlink:href="#DejaVuSans-30" transform="translate(63.623047 0)"/>
      </g>
     </g>
    </g>
    <g id="text_8">
     <!-- final_conf − min_step_conf (%) -->
     <g style="fill: #262626" transform="translate(119.999688 293.47625) scale(0.12 -0.12)">
      <defs>
       <path id="DejaVuSans-66" d="M 2375 4863 
L 2375 4384 
L 1825 4384 
Q 1516 4384 1395 4259 
Q 1275 4134 1275 3809 
L 1275 3500 
L 2222 3500 
L 2222 3053 
L 1275 3053 
L 1275 0 
L 697 0 
L 697 3053 
L 147 3053 
L 147 3500 
L 697 3500 
L 697 3744 
Q 697 4328 969 4595 
Q 1241 4863 1831 4863 
L 2375 4863 
z
" transform="scale(0.015625)"/>
       <path id="DejaVuSans-69" d="M 603 3500 
L 1178 3500 
L 1178 0 
L 603 0 
L 603 3500 
z
M 603 4863 
L 1178 4863 
L 1178 4134 
L 603 4134 
L 603 4863 
z
" transform="scale(0.015625)"/>
       <path id="DejaVuSans-6e" d="M 3513 2113 
L 3513 0 
L 2938 0 
L 2938 2094 
Q 2938 2591 2744 2837 
Q 2550 3084 2163 3084 
Q 1697 3084 1428 2787 
Q 1159 2491 1159 1978 
L 1159 0 
L 581 0 
L 581 3500 
L 1159 3500 
L 1159 2956 
Q 1366 3272 1645 3428 
Q 1925 3584 2291 3584 
Q 2894 3584 3203 3211 
Q 3513 2838 3513 2113 
z
" transform="scale(0.015625)"/>
       <path id="DejaVuSans-61" d="M 2194 1759 
Q 1497 1759 1228 1600 
Q 959 1441 959 1056 
Q 959 750 1161 570 
Q 1363 391 1709 391 
Q 2188 391 2477 730 
Q 2766 1069 2766 1631 
L 2766 1759 
L 2194 1759 
z
M 3341 1997 
L 3341 0 
L 2766 0 
L 2766 531 
Q 2569 213 2275 61 
Q 1981 -91 1556 -91 
Q 1019 -91 701 211 
Q 384 513 384 1019 
Q 384 1609 779 1909 
Q 1175 2209 1959 2209 
L 2766 2209 
L 2766 2266 
Q 2766 2663 2505 2880 
Q 2244 3097 1772 3097 
Q 1472 3097 1187 3025 
Q 903 2953 641 2809 
L 641 3341 
Q 956 3463 1253 3523 
Q 1550 3584 1831 3584 
Q 2591 3584 2966 3190 
Q 3341 2797 3341 1997 
z
" transform="scale(0.015625)"/>
       <path id="DejaVuSans-6c" d="M 603 4863 
L 1178 4863 
L 1178 0 
L 603 0 
L 603 4863 
z
" transform="scale(0.015625)"/>
       <path id="DejaVuSans-5f" d="M 3263 -1063 
L 3263 -1509 
L -63 -1509 
L -63 -1063 
L 3263 -1063 
z
" transform="scale(0.015625)"/>
       <path id="DejaVuSans-63" d="M 3122 3366 
L 3122 2828 
Q 2878 2963 2633 3030 
Q 2388 3097 2138 3097 
Q 1578 3097 1268 2742 
Q 959 2388 959 1747 
Q 959 1106 1268 751 
Q 1578 397 2138 397 
Q 2388 397 2633 464 
Q 2878 531 3122 666 
L 3122 134 
Q 2881 22 2623 -34 
Q 2366 -91 2075 -91 
Q 1284 -91 818 406 
Q 353 903 353 1747 
Q 353 2603 823 3093 
Q 1294 3584 2113 3584 
Q 2378 3584 2631 3529 
Q 2884 3475 3122 3366 
z
" transform="scale(0.015625)"/>
       <path id="DejaVuSans-6f" d="M 1959 3097 
Q 1497 3097 1228 2736 
Q 959 2375 959 1747 
Q 959 1119 1226 758 
Q 1494 397 1959 397 
Q 2419 397 2687 759 
Q 2956 1122 2956 1747 
Q 2956 2369 2687 2733 
Q 2419 3097 1959 3097 
z
M 1959 3584 
Q 2709 3584 3137 3096 
Q 3566 2609 3566 1747 
Q 3566 888 3137 398 
Q 2709 -91 1959 -91 
Q 1206 -91 779 398 
Q 353 888 353 1747 
Q 353 2609 779 3096 
Q 1206 3584 1959 3584 
z
" transform="scale(0.015625)"/>
       <path id="DejaVuSans-20" transform="scale(0.015625)"/>
       <path id="DejaVuSans-6d" d="M 3328 2828 
Q 3544 3216 3844 3400 
Q 4144 3584 4550 3584 
Q 5097 3584 5394 3201 
Q 5691 2819 5691 2113 
L 5691 0 
L 5113 0 
L 5113 2094 
Q 5113 2597 4934 2840 
Q 4756 3084 4391 3084 
Q 3944 3084 3684 2787 
Q 3425 2491 3425 1978 
L 3425 0 
L 2847 0 
L 2847 2094 
Q 2847 2600 2669 2842 
Q 2491 3084 2119 3084 
Q 1678 3084 1418 2786 
Q 1159 2488 1159 1978 
L 1159 0 
L 581 0 
L 581 3500 
L 1159 3500 
L 1159 2956 
Q 1356 3278 1631 3431 
Q 1906 3584 2284 3584 
Q 2666 3584 2933 3390 
Q 3200 3197 3328 2828 
z
" transform="scale(0.015625)"/>
       <path id="DejaVuSans-73" d="M 2834 3397 
L 2834 2853 
Q 2591 2978 2328 3040 
Q 2066 3103 1784 3103 
Q 1356 3103 1142 2972 
Q 928 2841 928 2578 
Q 928 2378 1081 2264 
Q 1234 2150 1697 2047 
L 1894 2003 
Q 2506 1872 2764 1633 
Q 3022 1394 3022 966 
Q 3022 478 2636 193 
Q 2250 -91 1575 -91 
Q 1294 -91 989 -36 
Q 684 19 347 128 
L 347 722 
Q 666 556 975 473 
Q 1284 391 1588 391 
Q 1994 391 2212 530 
Q 2431 669 2431 922 
Q 2431 1156 2273 1281 
Q 2116 1406 1581 1522 
L 1381 1569 
Q 847 1681 609 1914 
Q 372 2147 372 2553 
Q 372 3047 722 3315 
Q 1072 3584 1716 3584 
Q 2034 3584 2315 3537 
Q 2597 3491 2834 3397 
z
" transform="scale(0.015625)"/>
       <path id="DejaVuSans-74" d="M 1172 4494 
L 1172 3500 
L 2356 3500 
L 2356 3053 
L 1172 3053 
L 1172 1153 
Q 1172 725 1289 603 
Q 1406 481 1766 481 
L 2356 481 
L 2356 0 
L 1766 0 
Q 1100 0 847 248 
Q 594 497 594 1153 
L 594 3053 
L 172 3053 
L 172 3500 
L 594 3500 
L 594 4494 
L 1172 4494 
z
" transform="scale(0.015625)"/>
       <path id="DejaVuSans-65" d="M 3597 1894 
L 3597 1613 
L 953 1613 
Q 991 1019 1311 708 
Q 1631 397 2203 397 
Q 2534 397 2845 478 
Q 3156 559 3463 722 
L 3463 178 
Q 3153 47 2828 -22 
Q 2503 -91 2169 -91 
Q 1331 -91 842 396 
Q 353 884 353 1716 
Q 353 2575 817 3079 
Q 1281 3584 2069 3584 
Q 2775 3584 3186 3129 
Q 3597 2675 3597 1894 
z
M 3022 2063 
Q 3016 2534 2758 2815 
Q 2500 3097 2075 3097 
Q 1594 3097 1305 2825 
Q 1016 2553 972 2059 
L 3022 2063 
z
" transform="scale(0.015625)"/>
       <path id="DejaVuSans-70" d="M 1159 525 
L 1159 -1331 
L 581 -1331 
L 581 3500 
L 1159 3500 
L 1159 2969 
Q 1341 3281 1617 3432 
Q 1894 3584 2278 3584 
Q 2916 3584 3314 3078 
Q 3713 2572 3713 1747 
Q 3713 922 3314 415 
Q 2916 -91 2278 -91 
Q 1894 -91 1617 61 
Q 1341 213 1159 525 
z
M 3116 1747 
Q 3116 2381 2855 2742 
Q 2594 3103 2138 3103 
Q 1681 3103 1420 2742 
Q 1159 2381 1159 1747 
Q 1159 1113 1420 752 
Q 1681 391 2138 391 
Q 2594 391 2855 752 
Q 3116 1113 3116 1747 
z
" transform="scale(0.015625)"/>
       <path id="DejaVuSans-28" d="M 1984 4856 
Q 1566 4138 1362 3434 
Q 1159 2731 1159 2009 
Q 1159 1288 1364 580 
Q 1569 -128 1984 -844 
L 1484 -844 
Q 1016 -109 783 600 
Q 550 1309 550 2009 
Q 550 2706 781 3412 
Q 1013 4119 1484 4856 
L 1984 4856 
z
" transform="scale(0.015625)"/>
       <path id="DejaVuSans-25" d="M 4653 2053 
Q 4381 2053 4226 1822 
Q 4072 1591 4072 1178 
Q 4072 772 4226 539 
Q 4381 306 4653 306 
Q 4919 306 5073 539 
Q 5228 772 5228 1178 
Q 5228 1588 5073 1820 
Q 4919 2053 4653 2053 
z
M 4653 2450 
Q 5147 2450 5437 2106 
Q 5728 1763 5728 1178 
Q 5728 594 5436 251 
Q 5144 -91 4653 -91 
Q 4153 -91 3862 251 
Q 3572 594 3572 1178 
Q 3572 1766 3864 2108 
Q 4156 2450 4653 2450 
z
M 1428 4353 
Q 1159 4353 1004 4120 
Q 850 3888 850 3481 
Q 850 3069 1003 2837 
Q 1156 2606 1428 2606 
Q 1700 2606 1854 2837 
Q 2009 3069 2009 3481 
Q 2009 3884 1853 4118 
Q 1697 4353 1428 4353 
z
M 4250 4750 
L 4750 4750 
L 1831 -91 
L 1331 -91 
L 4250 4750 
z
M 1428 4750 
Q 1922 4750 2215 4408 
Q 2509 4066 2509 3481 
Q 2509 2891 2217 2550 
Q 1925 2209 1428 2209 
Q 931 2209 642 2551 
Q 353 2894 353 3481 
Q 353 4063 643 4406 
Q 934 4750 1428 4750 
z
" transform="scale(0.015625)"/>
       <path id="DejaVuSans-29" d="M 513 4856 
L 1013 4856 
Q 1481 4119 1714 3412 
Q 1947 2706 1947 2009 
Q 1947 1309 1714 600 
Q 1481 -109 1013 -844 
L 513 -844 
Q 928 -128 1133 580 
Q 1338 1288 1338 2009 
Q 1338 2731 1133 3434 
Q 928 4138 513 4856 
z
" transform="scale(0.015625)"/>
      </defs>
      <use xlink:href="#DejaVuSans-66"/>
      <use xlink:href="#DejaVuSans-69" transform="translate(35.205078 0)"/>
      <use xlink:href="#DejaVuSans-6e" transform="translate(62.988281 0)"/>
      <use xlink:href="#DejaVuSans-61" transform="translate(126.367188 0)"/>
      <use xlink:href="#DejaVuSans-6c" transform="translate(187.646484 0)"/>
      <use xlink:href="#DejaVuSans-5f" transform="translate(215.429688 0)"/>
      <use xlink:href="#DejaVuSans-63" transform="translate(265.429688 0)"/>
      <use xlink:href="#DejaVuSans-6f" transform="translate(320.410156 0)"/>
      <use xlink:href="#DejaVuSans-6e" transform="translate(381.591797 0)"/>
      <use xlink:href="#DejaVuSans-66" transform="translate(444.970703 0)"/>
      <use xlink:href="#DejaVuSans-20" transform="translate(480.175781 0)"/>
      <use xlink:href="#DejaVuSans-2212" transform="translate(511.962891 0)"/>
      <use xlink:href="#DejaVuSans-20" transform="translate(595.751953 0)"/>
      <use xlink:href="#DejaVuSans-6d" transform="translate(627.539062 0)"/>
      <use xlink:href="#DejaVuSans-69" transform="translate(724.951172 0)"/>
      <use xlink:href="#DejaVuSans-6e" transform="translate(752.734375 0)"/>
      <use xlink:href="#DejaVuSans-5f" transform="translate(816.113281 0)"/>
      <use xlink:href="#DejaVuSans-73" transform="translate(866.113281 0)"/>
      <use xlink:href="#DejaVuSans-74" transform="translate(918.212891 0)"/>
      <use xlink:href="#DejaVuSans-65" transform="translate(957.421875 0)"/>
      <use xlink:href="#DejaVuSans-70" transform="translate(1018.945312 0)"/>
      <use xlink:href="#DejaVuSans-5f" transform="translate(1082.421875 0)"/>
      <use xlink:href="#DejaVuSans-63" transform="translate(1132.421875 0)"/>
      <use xlink:href="#DejaVuSans-6f" transform="translate(1187.402344 0)"/>
      <use xlink:href="#DejaVuSans-6e" transform="translate(1248.583984 0)"/>
      <use xlink:href="#DejaVuSans-66" transform="translate(1311.962891 0)"/>
      <use xlink:href="#DejaVuSans-20" transform="translate(1347.167969 0)"/>
      <use xlink:href="#DejaVuSans-28" transform="translate(1378.955078 0)"/>
      <use xlink:href="#DejaVuSans-25" transform="translate(1417.96875 0)"/>
      <use xlink:href="#DejaVuSans-29" transform="translate(1512.988281 0)"/>
     </g>
    </g>
   </g>
   <g id="matplotlib.axis_2">
    <g id="ytick_1">
     <g id="line2d_15">
      <path d="M 58.96375 267.18 
L 367.27375 267.18 
" clip-path="url(#pa9397a0d91)" style="fill: none; stroke-dasharray: 1,1.65; stroke-dashoffset: 0; stroke: #b0b0b0; stroke-opacity: 0.6"/>
     </g>
     <g id="text_9">
      <!-- 0 -->
      <g style="fill: #262626" transform="translate(49.10125 270.979219) scale(0.1 -0.1)">
       <use xlink:href="#DejaVuSans-30"/>
      </g>
     </g>
    </g>
    <g id="ytick_2">
     <g id="line2d_16">
      <path d="M 58.96375 240.828309 
L 367.27375 240.828309 
" clip-path="url(#pa9397a0d91)" style="fill: none; stroke-dasharray: 1,1.65; stroke-dashoffset: 0; stroke: #b0b0b0; stroke-opacity: 0.6"/>
     </g>
     <g id="text_10">
      <!-- 500 -->
      <g style="fill: #262626" transform="translate(36.37625 244.627527) scale(0.1 -0.1)">
       <defs>
        <path id="DejaVuSans-35" d="M 691 4666 
L 3169 4666 
L 3169 4134 
L 1269 4134 
L 1269 2991 
Q 1406 3038 1543 3061 
Q 1681 3084 1819 3084 
Q 2600 3084 3056 2656 
Q 3513 2228 3513 1497 
Q 3513 744 3044 326 
Q 2575 -91 1722 -91 
Q 1428 -91 1123 -41 
Q 819 9 494 109 
L 494 744 
Q 775 591 1075 516 
Q 1375 441 1709 441 
Q 2250 441 2565 725 
Q 2881 1009 2881 1497 
Q 2881 1984 2565 2268 
Q 2250 2553 1709 2553 
Q 1456 2553 1204 2497 
Q 953 2441 691 2322 
L 691 4666 
z
" transform="scale(0.015625)"/>
       </defs>
       <use xlink:href="#DejaVuSans-35"/>
       <use xlink:href="#DejaVuSans-30" transform="translate(63.623047 0)"/>
       <use xlink:href="#DejaVuSans-30" transform="translate(127.246094 0)"/>
      </g>
     </g>
    </g>
    <g id="ytick_3">
     <g id="line2d_17">
      <path d="M 58.96375 214.476617 
L 367.27375 214.476617 
" clip-path="url(#pa9397a0d91)" style="fill: none; stroke-dasharray: 1,1.65; stroke-dashoffset: 0; stroke: #b0b0b0; stroke-opacity: 0.6"/>
     </g>
     <g id="text_11">
      <!-- 1000 -->
      <g style="fill: #262626" transform="translate(30.01375 218.275836) scale(0.1 -0.1)">
       <use xlink:href="#DejaVuSans-31"/>
       <use xlink:href="#DejaVuSans-30" transform="translate(63.623047 0)"/>
       <use xlink:href="#DejaVuSans-30" transform="translate(127.246094 0)"/>
       <use xlink:href="#DejaVuSans-30" transform="translate(190.869141 0)"/>
      </g>
     </g>
    </g>
    <g id="ytick_4">
     <g id="line2d_18">
      <path d="M 58.96375 188.124926 
L 367.27375 188.124926 
" clip-path="url(#pa9397a0d91)" style="fill: none; stroke-dasharray: 1,1.65; stroke-dashoffset: 0; stroke: #b0b0b0; stroke-opacity: 0.6"/>
     </g>
     <g id="text_12">
      <!-- 1500 -->
      <g style="fill: #262626" transform="translate(30.01375 191.924145) scale(0.1 -0.1)">
       <use xlink:href="#DejaVuSans-31"/>
       <use xlink:href="#DejaVuSans-35" transform="translate(63.623047 0)"/>
       <use xlink:href="#DejaVuSans-30" transform="translate(127.246094 0)"/>
       <use xlink:href="#DejaVuSans-30" transform="translate(190.869141 0)"/>
      </g>
     </g>
    </g>
    <g id="ytick_5">
     <g id="line2d_19">
      <path d="M 58.96375 161.773235 
L 367.27375 161.773235 
" clip-path="url(#pa9397a0d91)" style="fill: none; stroke-dasharray: 1,1.65; stroke-dashoffset: 0; stroke: #b0b0b0; stroke-opacity: 0.6"/>
     </g>
     <g id="text_13">
      <!-- 2000 -->
      <g style="fill: #262626" transform="translate(30.01375 165.572453) scale(0.1 -0.1)">
       <use xlink:href="#DejaVuSans-32"/>
       <use xlink:href="#DejaVuSans-30" transform="translate(63.623047 0)"/>
       <use xlink:href="#DejaVuSans-30" transform="translate(127.246094 0)"/>
       <use xlink:href="#DejaVuSans-30" transform="translate(190.869141 0)"/>
      </g>
     </g>
    </g>
    <g id="ytick_6">
     <g id="line2d_20">
      <path d="M 58.96375 135.421543 
L 367.27375 135.421543 
" clip-path="url(#pa9397a0d91)" style="fill: none; stroke-dasharray: 1,1.65; stroke-dashoffset: 0; stroke: #b0b0b0; stroke-opacity: 0.6"/>
     </g>
     <g id="text_14">
      <!-- 2500 -->
      <g style="fill: #262626" transform="translate(30.01375 139.220762) scale(0.1 -0.1)">
       <use xlink:href="#DejaVuSans-32"/>
       <use xlink:href="#DejaVuSans-35" transform="translate(63.623047 0)"/>
       <use xlink:href="#DejaVuSans-30" transform="translate(127.246094 0)"/>
       <use xlink:href="#DejaVuSans-30" transform="translate(190.869141 0)"/>
      </g>
     </g>
    </g>
    <g id="ytick_7">
     <g id="line2d_21">
      <path d="M 58.96375 109.069852 
L 367.27375 109.069852 
" clip-path="url(#pa9397a0d91)" style="fill: none; stroke-dasharray: 1,1.65; stroke-dashoffset: 0; stroke: #b0b0b0; stroke-opacity: 0.6"/>
     </g>
     <g id="text_15">
      <!-- 3000 -->
      <g style="fill: #262626" transform="translate(30.01375 112.869071) scale(0.1 -0.1)">
       <use xlink:href="#DejaVuSans-33"/>
       <use xlink:href="#DejaVuSans-30" transform="translate(63.623047 0)"/>
       <use xlink:href="#DejaVuSans-30" transform="translate(127.246094 0)"/>
       <use xlink:href="#DejaVuSans-30" transform="translate(190.869141 0)"/>
      </g>
     </g>
    </g>
    <g id="text_16">
     <!-- Count -->
     <g style="fill: #262626" transform="translate(23.518125 200.164125) rotate(-90) scale(0.12 -0.12)">
      <defs>
       <path id="DejaVuSans-43" d="M 4122 4306 
L 4122 3641 
Q 3803 3938 3442 4084 
Q 3081 4231 2675 4231 
Q 1875 4231 1450 3742 
Q 1025 3253 1025 2328 
Q 1025 1406 1450 917 
Q 1875 428 2675 428 
Q 3081 428 3442 575 
Q 3803 722 4122 1019 
L 4122 359 
Q 3791 134 3420 21 
Q 3050 -91 2638 -91 
Q 1578 -91 968 557 
Q 359 1206 359 2328 
Q 359 3453 968 4101 
Q 1578 4750 2638 4750 
Q 3056 4750 3426 4639 
Q 3797 4528 4122 4306 
z
" transform="scale(0.015625)"/>
       <path id="DejaVuSans-75" d="M 544 1381 
L 544 3500 
L 1119 3500 
L 1119 1403 
Q 1119 906 1312 657 
Q 1506 409 1894 409 
Q 2359 409 2629 706 
Q 2900 1003 2900 1516 
L 2900 3500 
L 3475 3500 
L 3475 0 
L 2900 0 
L 2900 538 
Q 2691 219 2414 64 
Q 2138 -91 1772 -91 
Q 1169 -91 856 284 
Q 544 659 544 1381 
z
M 1991 3584 
L 1991 3584 
z
" transform="scale(0.015625)"/>
      </defs>
      <use xlink:href="#DejaVuSans-43"/>
      <use xlink:href="#DejaVuSans-6f" transform="translate(69.824219 0)"/>
      <use xlink:href="#DejaVuSans-75" transform="translate(131.005859 0)"/>
      <use xlink:href="#DejaVuSans-6e" transform="translate(194.384766 0)"/>
      <use xlink:href="#DejaVuSans-74" transform="translate(257.763672 0)"/>
     </g>
    </g>
   </g>
   <g id="patch_3">
    <path d="M 58.96375 267.18 
L 69.24075 267.18 
L 69.24075 267.18 
L 58.96375 267.18 
z
" clip-path="url(#pa9397a0d91)" style="fill: #94a3b8; opacity: 0.9; stroke: #ffffff; stroke-width: 0.5; stroke-linejoin: miter"/>
   </g>
   <g id="patch_4">
    <path d="M 69.24075 267.18 
L 79.51775 267.18 
L 79.51775 267.18 
L 69.24075 267.18 
z
" clip-path="url(#pa9397a0d91)" style="fill: #94a3b8; opacity: 0.9; stroke: #ffffff; stroke-width: 0.5; stroke-linejoin: miter"/>
   </g>
   <g id="patch_5">
    <path d="M 79.51775 267.18 
L 89.79475 267.18 
L 89.79475 267.074593 
L 79.51775 267.074593 
z
" clip-path="url(#pa9397a0d91)" style="fill: #94a3b8; opacity: 0.9; stroke: #ffffff; stroke-width: 0.5; stroke-linejoin: miter"/>
   </g>
   <g id="patch_6">
    <path d="M 89.79475 267.18 
L 100.07175 267.18 
L 100.07175 267.18 
L 89.79475 267.18 
z
" clip-path="url(#pa9397a0d91)" style="fill: #94a3b8; opacity: 0.9; stroke: #ffffff; stroke-width: 0.5; stroke-linejoin: miter"/>
   </g>
   <g id="patch_7">
    <path d="M 100.07175 267.18 
L 110.34875 267.18 
L 110.34875 266.284042 
L 100.07175 266.284042 
z
" clip-path="url(#pa9397a0d91)" style="fill: #94a3b8; opacity: 0.9; stroke: #ffffff; stroke-width: 0.5; stroke-linejoin: miter"/>
   </g>
   <g id="patch_8">
    <path d="M 110.34875 267.18 
L 120.62575 267.18 
L 120.62575 266.811076 
L 110.34875 266.811076 
z
" clip-path="url(#pa9397a0d91)" style="fill: #94a3b8; opacity: 0.9; stroke: #ffffff; stroke-width: 0.5; stroke-linejoin: miter"/>
   </g>
   <g id="patch_9">
    <path d="M 120.62575 267.18 
L 130.90275 267.18 
L 130.90275 267.18 
L 120.62575 267.18 
z
" clip-path="url(#pa9397a0d91)" style="fill: #94a3b8; opacity: 0.9; stroke: #ffffff; stroke-width: 0.5; stroke-linejoin: miter"/>
   </g>
   <g id="patch_10">
    <path d="M 130.90275 267.18 
L 141.17975 267.18 
L 141.17975 265.757009 
L 130.90275 265.757009 
z
" clip-path="url(#pa9397a0d91)" style="fill: #94a3b8; opacity: 0.9; stroke: #ffffff; stroke-width: 0.5; stroke-linejoin: miter"/>
   </g>
   <g id="patch_11">
    <path d="M 141.17975 267.18 
L 151.45675 267.18 
L 151.45675 267.18 
L 141.17975 267.18 
z
" clip-path="url(#pa9397a0d91)" style="fill: #94a3b8; opacity: 0.9; stroke: #ffffff; stroke-width: 0.5; stroke-linejoin: miter"/>
   </g>
   <g id="patch_12">
    <path d="M 151.45675 267.18 
L 161.73375 267.18 
L 161.73375 263.227246 
L 151.45675 263.227246 
z
" clip-path="url(#pa9397a0d91)" style="fill: #94a3b8; opacity: 0.9; stroke: #ffffff; stroke-width: 0.5; stroke-linejoin: miter"/>
   </g>
   <g id="patch_13">
    <path d="M 161.73375 267.18 
L 172.01075 267.18 
L 172.01075 262.700212 
L 161.73375 262.700212 
z
" clip-path="url(#pa9397a0d91)" style="fill: #94a3b8; opacity: 0.9; stroke: #ffffff; stroke-width: 0.5; stroke-linejoin: miter"/>
   </g>
   <g id="patch_14">
    <path d="M 172.01075 267.18 
L 182.28775 267.18 
L 182.28775 267.127297 
L 172.01075 267.127297 
z
" clip-path="url(#pa9397a0d91)" style="fill: #94a3b8; opacity: 0.9; stroke: #ffffff; stroke-width: 0.5; stroke-linejoin: miter"/>
   </g>
   <g id="patch_15">
    <path d="M 182.28775 267.18 
L 192.56475 267.18 
L 192.56475 256.692027 
L 182.28775 256.692027 
z
" clip-path="url(#pa9397a0d91)" style="fill: #94a3b8; opacity: 0.9; stroke: #ffffff; stroke-width: 0.5; stroke-linejoin: miter"/>
   </g>
   <g id="patch_16">
    <path d="M 192.56475 267.18 
L 202.84175 267.18 
L 202.84175 266.231339 
L 192.56475 266.231339 
z
" clip-path="url(#pa9397a0d91)" style="fill: #94a3b8; opacity: 0.9; stroke: #ffffff; stroke-width: 0.5; stroke-linejoin: miter"/>
   </g>
   <g id="patch_17">
    <path d="M 202.84175 267.18 
L 213.11875 267.18 
L 213.11875 266.969186 
L 202.84175 266.969186 
z
" clip-path="url(#pa9397a0d91)" style="fill: #94a3b8; opacity: 0.9; stroke: #ffffff; stroke-width: 0.5; stroke-linejoin: miter"/>
   </g>
   <g id="patch_18">
    <path d="M 213.11875 267.18 
L 223.39575 267.18 
L 223.39575 108.384708 
L 213.11875 108.384708 
z
" clip-path="url(#pa9397a0d91)" style="fill: #94a3b8; opacity: 0.9; stroke: #ffffff; stroke-width: 0.5; stroke-linejoin: miter"/>
   </g>
   <g id="patch_19">
    <path d="M 223.39575 267.18 
L 233.67275 267.18 
L 233.67275 265.915119 
L 223.39575 265.915119 
z
" clip-path="url(#pa9397a0d91)" style="fill: #94a3b8; opacity: 0.9; stroke: #ffffff; stroke-width: 0.5; stroke-linejoin: miter"/>
   </g>
   <g id="patch_20">
    <path d="M 233.67275 267.18 
L 243.94975 267.18 
L 243.94975 257.798798 
L 233.67275 257.798798 
z
" clip-path="url(#pa9397a0d91)" style="fill: #94a3b8; opacity: 0.9; stroke: #ffffff; stroke-width: 0.5; stroke-linejoin: miter"/>
   </g>
   <g id="patch_21">
    <path d="M 243.94975 267.18 
L 254.22675 267.18 
L 254.22675 266.231339 
L 243.94975 266.231339 
z
" clip-path="url(#pa9397a0d91)" style="fill: #94a3b8; opacity: 0.9; stroke: #ffffff; stroke-width: 0.5; stroke-linejoin: miter"/>
   </g>
   <g id="patch_22">
    <path d="M 254.22675 267.18 
L 264.50375 267.18 
L 264.50375 264.650238 
L 254.22675 264.650238 
z
" clip-path="url(#pa9397a0d91)" style="fill: #94a3b8; opacity: 0.9; stroke: #ffffff; stroke-width: 0.5; stroke-linejoin: miter"/>
   </g>
   <g id="patch_23">
    <path d="M 264.50375 267.18 
L 274.78075 267.18 
L 274.78075 266.86378 
L 264.50375 266.86378 
z
" clip-path="url(#pa9397a0d91)" style="fill: #94a3b8; opacity: 0.9; stroke: #ffffff; stroke-width: 0.5; stroke-linejoin: miter"/>
   </g>
   <g id="patch_24">
    <path d="M 274.78075 267.18 
L 285.05775 267.18 
L 285.05775 267.18 
L 274.78075 267.18 
z
" clip-path="url(#pa9397a0d91)" style="fill: #94a3b8; opacity: 0.9; stroke: #ffffff; stroke-width: 0.5; stroke-linejoin: miter"/>
   </g>
   <g id="patch_25">
    <path d="M 285.05775 267.18 
L 295.33475 267.18 
L 295.33475 266.70567 
L 285.05775 266.70567 
z
" clip-path="url(#pa9397a0d91)" style="fill: #94a3b8; opacity: 0.9; stroke: #ffffff; stroke-width: 0.5; stroke-linejoin: miter"/>
   </g>
   <g id="patch_26">
    <path d="M 295.33475 267.18 
L 305.61175 267.18 
L 305.61175 267.074593 
L 295.33475 267.074593 
z
" clip-path="url(#pa9397a0d91)" style="fill: #94a3b8; opacity: 0.9; stroke: #ffffff; stroke-width: 0.5; stroke-linejoin: miter"/>
   </g>
   <g id="patch_27">
    <path d="M 305.61175 267.18 
L 315.88875 267.18 
L 315.88875 267.127297 
L 305.61175 267.127297 
z
" clip-path="url(#pa9397a0d91)" style="fill: #94a3b8; opacity: 0.9; stroke: #ffffff; stroke-width: 0.5; stroke-linejoin: miter"/>
   </g>
   <g id="patch_28">
    <path d="M 315.88875 267.18 
L 326.16575 267.18 
L 326.16575 267.18 
L 315.88875 267.18 
z
" clip-path="url(#pa9397a0d91)" style="fill: #94a3b8; opacity: 0.9; stroke: #ffffff; stroke-width: 0.5; stroke-linejoin: miter"/>
   </g>
   <g id="patch_29">
    <path d="M 326.16575 267.18 
L 336.44275 267.18 
L 336.44275 267.18 
L 326.16575 267.18 
z
" clip-path="url(#pa9397a0d91)" style="fill: #94a3b8; opacity: 0.9; stroke: #ffffff; stroke-width: 0.5; stroke-linejoin: miter"/>
   </g>
   <g id="patch_30">
    <path d="M 336.44275 267.18 
L 346.71975 267.18 
L 346.71975 267.074593 
L 336.44275 267.074593 
z
" clip-path="url(#pa9397a0d91)" style="fill: #94a3b8; opacity: 0.9; stroke: #ffffff; stroke-width: 0.5; stroke-linejoin: miter"/>
   </g>
   <g id="patch_31">
    <path d="M 346.71975 267.18 
L 356.99675 267.18 
L 356.99675 267.18 
L 346.71975 267.18 
z
" clip-path="url(#pa9397a0d91)" style="fill: #94a3b8; opacity: 0.9; stroke: #ffffff; stroke-width: 0.5; stroke-linejoin: miter"/>
   </g>
   <g id="patch_32">
    <path d="M 356.99675 267.18 
L 367.27375 267.18 
L 367.27375 267.127297 
L 356.99675 267.127297 
z
" clip-path="url(#pa9397a0d91)" style="fill: #94a3b8; opacity: 0.9; stroke: #ffffff; stroke-width: 0.5; stroke-linejoin: miter"/>
   </g>
   <g id="patch_33">
    <path d="M 213.11875 267.18 
L 367.27375 267.18 
L 367.27375 97.512 
L 213.11875 97.512 
z
" clip-path="url(#pa9397a0d91)" style="fill: #ef4444; opacity: 0.1; stroke: #ef4444; stroke-linejoin: miter"/>
   </g>
   <g id="line2d_22">
    <path d="M 213.11875 267.18 
L 213.11875 97.512 
" clip-path="url(#pa9397a0d91)" style="fill: none; stroke-dasharray: 7.4,3.2; stroke-dashoffset: 0; stroke: #ef4444; stroke-width: 2"/>
   </g>
   <g id="patch_34">
    <path d="M 58.96375 267.18 
L 367.27375 267.18 
" style="fill: none; stroke: #cccccc; stroke-width: 1.2; stroke-linejoin: miter; stroke-linecap: square"/>
   </g>
   <g id="text_17">
    <!-- Violations -->
    <g style="fill: #ef4444; opacity: 0.7" transform="translate(265.804844 125.455202) scale(0.1 -0.1)">
     <defs>
      <path id="DejaVuSans-56" d="M 1831 0 
L 50 4666 
L 709 4666 
L 2188 738 
L 3669 4666 
L 4325 4666 
L 2547 0 
L 1831 0 
z
" transform="scale(0.015625)"/>
     </defs>
     <use xlink:href="#DejaVuSans-56"/>
     <use xlink:href="#DejaVuSans-69" transform="translate(66.158203 0)"/>
     <use xlink:href="#DejaVuSans-6f" transform="translate(93.941406 0)"/>
     <use xlink:href="#DejaVuSans-6c" transform="translate(155.123047 0)"/>
     <use xlink:href="#DejaVuSans-61" transform="translate(182.90625 0)"/>
     <use xlink:href="#DejaVuSans-74" transform="translate(244.185547 0)"/>
     <use xlink:href="#DejaVuSans-69" transform="translate(283.394531 0)"/>
     <use xlink:href="#DejaVuSans-6f" transform="translate(311.177734 0)"/>
     <use xlink:href="#DejaVuSans-6e" transform="translate(372.359375 0)"/>
     <use xlink:href="#DejaVuSans-73" transform="translate(435.738281 0)"/>
    </g>
   </g>
   <g id="text_18">
    <!-- Baseline (Binary Reward) -->
    <g style="fill: #262626" transform="translate(58.96375 66.725688) scale(0.14 -0.14)">
     <defs>
      <path id="DejaVuSans-Bold-42" d="M 2456 2859 
Q 2741 2859 2887 2984 
Q 3034 3109 3034 3353 
Q 3034 3594 2887 3720 
Q 2741 3847 2456 3847 
L 1791 3847 
L 1791 2859 
L 2456 2859 
z
M 2497 819 
Q 2859 819 3042 972 
Q 3225 1125 3225 1434 
Q 3225 1738 3044 1889 
Q 2863 2041 2497 2041 
L 1791 2041 
L 1791 819 
L 2497 819 
z
M 3616 2497 
Q 4003 2384 4215 2081 
Q 4428 1778 4428 1338 
Q 4428 663 3972 331 
Q 3516 0 2584 0 
L 588 0 
L 588 4666 
L 2394 4666 
Q 3366 4666 3802 4372 
Q 4238 4078 4238 3431 
Q 4238 3091 4078 2852 
Q 3919 2613 3616 2497 
z
" transform="scale(0.015625)"/>
      <path id="DejaVuSans-Bold-61" d="M 2106 1575 
Q 1756 1575 1579 1456 
Q 1403 1338 1403 1106 
Q 1403 894 1545 773 
Q 1688 653 1941 653 
Q 2256 653 2472 879 
Q 2688 1106 2688 1447 
L 2688 1575 
L 2106 1575 
z
M 3816 1997 
L 3816 0 
L 2688 0 
L 2688 519 
Q 2463 200 2181 54 
Q 1900 -91 1497 -91 
Q 953 -91 614 226 
Q 275 544 275 1050 
Q 275 1666 698 1953 
Q 1122 2241 2028 2241 
L 2688 2241 
L 2688 2328 
Q 2688 2594 2478 2717 
Q 2269 2841 1825 2841 
Q 1466 2841 1156 2769 
Q 847 2697 581 2553 
L 581 3406 
Q 941 3494 1303 3539 
Q 1666 3584 2028 3584 
Q 2975 3584 3395 3211 
Q 3816 2838 3816 1997 
z
" transform="scale(0.015625)"/>
      <path id="DejaVuSans-Bold-73" d="M 3272 3391 
L 3272 2541 
Q 2913 2691 2578 2766 
Q 2244 2841 1947 2841 
Q 1628 2841 1473 2761 
Q 1319 2681 1319 2516 
Q 1319 2381 1436 2309 
Q 1553 2238 1856 2203 
L 2053 2175 
Q 2913 2066 3209 1816 
Q 3506 1566 3506 1031 
Q 3506 472 3093 190 
Q 2681 -91 1863 -91 
Q 1516 -91 1145 -36 
Q 775 19 384 128 
L 384 978 
Q 719 816 1070 734 
Q 1422 653 1784 653 
Q 2113 653 2278 743 
Q 2444 834 2444 1013 
Q 2444 1163 2330 1236 
Q 2216 1309 1875 1350 
L 1678 1375 
Q 931 1469 631 1722 
Q 331 1975 331 2491 
Q 331 3047 712 3315 
Q 1094 3584 1881 3584 
Q 2191 3584 2531 3537 
Q 2872 3491 3272 3391 
z
" transform="scale(0.015625)"/>
      <path id="DejaVuSans-Bold-65" d="M 4031 1759 
L 4031 1441 
L 1416 1441 
Q 1456 1047 1700 850 
Q 1944 653 2381 653 
Q 2734 653 3104 758 
Q 3475 863 3866 1075 
L 3866 213 
Q 3469 63 3072 -14 
Q 2675 -91 2278 -91 
Q 1328 -91 801 392 
Q 275 875 275 1747 
Q 275 2603 792 3093 
Q 1309 3584 2216 3584 
Q 3041 3584 3536 3087 
Q 4031 2591 4031 1759 
z
M 2881 2131 
Q 2881 2450 2695 2645 
Q 2509 2841 2209 2841 
Q 1884 2841 1681 2658 
Q 1478 2475 1428 2131 
L 2881 2131 
z
" transform="scale(0.015625)"/>
      <path id="DejaVuSans-Bold-6c" d="M 538 4863 
L 1656 4863 
L 1656 0 
L 538 0 
L 538 4863 
z
" transform="scale(0.015625)"/>
      <path id="DejaVuSans-Bold-69" d="M 538 3500 
L 1656 3500 
L 1656 0 
L 538 0 
L 538 3500 
z
M 538 4863 
L 1656 4863 
L 1656 3950 
L 538 3950 
L 538 4863 
z
" transform="scale(0.015625)"/>
      <path id="DejaVuSans-Bold-6e" d="M 4056 2131 
L 4056 0 
L 2931 0 
L 2931 347 
L 2931 1631 
Q 2931 2084 2911 2256 
Q 2891 2428 2841 2509 
Q 2775 2619 2662 2680 
Q 2550 2741 2406 2741 
Q 2056 2741 1856 2470 
Q 1656 2200 1656 1722 
L 1656 0 
L 538 0 
L 538 3500 
L 1656 3500 
L 1656 2988 
Q 1909 3294 2193 3439 
Q 2478 3584 2822 3584 
Q 3428 3584 3742 3212 
Q 4056 2841 4056 2131 
z
" transform="scale(0.015625)"/>
      <path id="DejaVuSans-Bold-20" transform="scale(0.015625)"/>
      <path id="DejaVuSans-Bold-28" d="M 2413 -844 
L 1484 -844 
Q 1006 -72 778 623 
Q 550 1319 550 2003 
Q 550 2688 779 3389 
Q 1009 4091 1484 4856 
L 2413 4856 
Q 2013 4116 1813 3408 
Q 1613 2700 1613 2009 
Q 1613 1319 1811 609 
Q 2009 -100 2413 -844 
z
" transform="scale(0.015625)"/>
      <path id="DejaVuSans-Bold-72" d="M 3138 2547 
Q 2991 2616 2845 2648 
Q 2700 2681 2553 2681 
Q 2122 2681 1889 2404 
Q 1656 2128 1656 1613 
L 1656 0 
L 538 0 
L 538 3500 
L 1656 3500 
L 1656 2925 
Q 1872 3269 2151 3426 
Q 2431 3584 2822 3584 
Q 2878 3584 2943 3579 
Q 3009 3575 3134 3559 
L 3138 2547 
z
" transform="scale(0.015625)"/>
      <path id="DejaVuSans-Bold-79" d="M 78 3500 
L 1197 3500 
L 2138 1125 
L 2938 3500 
L 4056 3500 
L 2584 -331 
Q 2363 -916 2067 -1148 
Q 1772 -1381 1288 -1381 
L 641 -1381 
L 641 -647 
L 991 -647 
Q 1275 -647 1404 -556 
Q 1534 -466 1606 -231 
L 1638 -134 
L 78 3500 
z
" transform="scale(0.015625)"/>
      <path id="DejaVuSans-Bold-52" d="M 2297 2597 
Q 2675 2597 2839 2737 
Q 3003 2878 3003 3200 
Q 3003 3519 2839 3656 
Q 2675 3794 2297 3794 
L 1791 3794 
L 1791 2597 
L 2297 2597 
z
M 1791 1766 
L 1791 0 
L 588 0 
L 588 4666 
L 2425 4666 
Q 3347 4666 3776 4356 
Q 4206 4047 4206 3378 
Q 4206 2916 3982 2619 
Q 3759 2322 3309 2181 
Q 3556 2125 3751 1926 
Q 3947 1728 4147 1325 
L 4800 0 
L 3519 0 
L 2950 1159 
Q 2778 1509 2601 1637 
Q 2425 1766 2131 1766 
L 1791 1766 
z
" transform="scale(0.015625)"/>
      <path id="DejaVuSans-Bold-77" d="M 225 3500 
L 1313 3500 
L 1900 1088 
L 2491 3500 
L 3425 3500 
L 4013 1113 
L 4603 3500 
L 5691 3500 
L 4769 0 
L 3547 0 
L 2956 2406 
L 2369 0 
L 1147 0 
L 225 3500 
z
" transform="scale(0.015625)"/>
      <path id="DejaVuSans-Bold-64" d="M 2919 2988 
L 2919 4863 
L 4044 4863 
L 4044 0 
L 2919 0 
L 2919 506 
Q 2688 197 2409 53 
Q 2131 -91 1766 -91 
Q 1119 -91 703 423 
Q 288 938 288 1747 
Q 288 2556 703 3070 
Q 1119 3584 1766 3584 
Q 2128 3584 2408 3439 
Q 2688 3294 2919 2988 
z
M 2181 722 
Q 2541 722 2730 984 
Q 2919 1247 2919 1747 
Q 2919 2247 2730 2509 
Q 2541 2772 2181 2772 
Q 1825 2772 1636 2509 
Q 1447 2247 1447 1747 
Q 1447 1247 1636 984 
Q 1825 722 2181 722 
z
" transform="scale(0.015625)"/>
      <path id="DejaVuSans-Bold-29" d="M 513 -844 
Q 913 -100 1113 609 
Q 1313 1319 1313 2009 
Q 1313 2700 1113 3408 
Q 913 4116 513 4856 
L 1441 4856 
Q 1916 4091 2145 3389 
Q 2375 2688 2375 2003 
Q 2375 1319 2147 623 
Q 1919 -72 1441 -844 
L 513 -844 
z
" transform="scale(0.015625)"/>
     </defs>
     <use xlink:href="#DejaVuSans-Bold-42"/>
     <use xlink:href="#DejaVuSans-Bold-61" transform="translate(76.220703 0)"/>
     <use xlink:href="#DejaVuSans-Bold-73" transform="translate(143.701172 0)"/>
     <use xlink:href="#DejaVuSans-Bold-65" transform="translate(203.222656 0)"/>
     <use xlink:href="#DejaVuSans-Bold-6c" transform="translate(271.044922 0)"/>
     <use xlink:href="#DejaVuSans-Bold-69" transform="translate(305.322266 0)"/>
     <use xlink:href="#DejaVuSans-Bold-6e" transform="translate(339.599609 0)"/>
     <use xlink:href="#DejaVuSans-Bold-65" transform="translate(410.791016 0)"/>
     <use xlink:href="#DejaVuSans-Bold-20" transform="translate(478.613281 0)"/>
     <use xlink:href="#DejaVuSans-Bold-28" transform="translate(513.427734 0)"/>
     <use xlink:href="#DejaVuSans-Bold-42" transform="translate(559.130859 0)"/>
     <use xlink:href="#DejaVuSans-Bold-69" transform="translate(635.351562 0)"/>
     <use xlink:href="#DejaVuSans-Bold-6e" transform="translate(669.628906 0)"/>
     <use xlink:href="#DejaVuSans-Bold-61" transform="translate(740.820312 0)"/>
     <use xlink:href="#DejaVuSans-Bold-72" transform="translate(808.300781 0)"/>
     <use xlink:href="#DejaVuSans-Bold-79" transform="translate(857.617188 0)"/>
     <use xlink:href="#DejaVuSans-Bold-20" transform="translate(922.802734 0)"/>
     <use xlink:href="#DejaVuSans-Bold-52" transform="translate(957.617188 0)"/>
     <use xlink:href="#DejaVuSans-Bold-65" transform="translate(1034.619141 0)"/>
     <use xlink:href="#DejaVuSans-Bold-77" transform="translate(1102.441406 0)"/>
     <use xlink:href="#DejaVuSans-Bold-61" transform="translate(1194.824219 0)"/>
     <use xlink:href="#DejaVuSans-Bold-72" transform="translate(1262.304688 0)"/>
     <use xlink:href="#DejaVuSans-Bold-64" transform="translate(1311.621094 0)"/>
     <use xlink:href="#DejaVuSans-Bold-29" transform="translate(1383.203125 0)"/>
    </g>
    <!-- 92% compliant -->
    <g style="fill: #262626" transform="translate(58.96375 82.512) scale(0.14 -0.14)">
     <defs>
      <path id="DejaVuSans-Bold-39" d="M 641 103 
L 641 966 
Q 928 831 1190 764 
Q 1453 697 1709 697 
Q 2247 697 2547 995 
Q 2847 1294 2900 1881 
Q 2688 1725 2447 1647 
Q 2206 1569 1925 1569 
Q 1209 1569 770 1986 
Q 331 2403 331 3084 
Q 331 3838 820 4291 
Q 1309 4744 2131 4744 
Q 3044 4744 3544 4128 
Q 4044 3513 4044 2388 
Q 4044 1231 3459 570 
Q 2875 -91 1856 -91 
Q 1528 -91 1228 -42 
Q 928 6 641 103 
z
M 2125 2350 
Q 2441 2350 2600 2554 
Q 2759 2759 2759 3169 
Q 2759 3575 2600 3781 
Q 2441 3988 2125 3988 
Q 1809 3988 1650 3781 
Q 1491 3575 1491 3169 
Q 1491 2759 1650 2554 
Q 1809 2350 2125 2350 
z
" transform="scale(0.015625)"/>
      <path id="DejaVuSans-Bold-32" d="M 1844 884 
L 3897 884 
L 3897 0 
L 506 0 
L 506 884 
L 2209 2388 
Q 2438 2594 2547 2791 
Q 2656 2988 2656 3200 
Q 2656 3528 2436 3728 
Q 2216 3928 1850 3928 
Q 1569 3928 1234 3808 
Q 900 3688 519 3450 
L 519 4475 
Q 925 4609 1322 4679 
Q 1719 4750 2100 4750 
Q 2938 4750 3402 4381 
Q 3866 4013 3866 3353 
Q 3866 2972 3669 2642 
Q 3472 2313 2841 1759 
L 1844 884 
z
" transform="scale(0.015625)"/>
      <path id="DejaVuSans-Bold-25" d="M 4959 1925 
Q 4738 1925 4616 1733 
Q 4494 1541 4494 1184 
Q 4494 825 4614 633 
Q 4734 441 4959 441 
Q 5184 441 5303 633 
Q 5422 825 5422 1184 
Q 5422 1541 5301 1733 
Q 5181 1925 4959 1925 
z
M 4959 2450 
Q 5541 2450 5875 2112 
Q 6209 1775 6209 1184 
Q 6209 594 5875 251 
Q 5541 -91 4959 -91 
Q 4378 -91 4042 251 
Q 3706 594 3706 1184 
Q 3706 1772 4042 2111 
Q 4378 2450 4959 2450 
z
M 2094 -91 
L 1403 -91 
L 4319 4750 
L 5013 4750 
L 2094 -91 
z
M 1453 4750 
Q 2034 4750 2367 4411 
Q 2700 4072 2700 3481 
Q 2700 2891 2367 2550 
Q 2034 2209 1453 2209 
Q 872 2209 539 2550 
Q 206 2891 206 3481 
Q 206 4072 539 4411 
Q 872 4750 1453 4750 
z
M 1453 4225 
Q 1228 4225 1106 4031 
Q 984 3838 984 3481 
Q 984 3122 1106 2926 
Q 1228 2731 1453 2731 
Q 1678 2731 1798 2926 
Q 1919 3122 1919 3481 
Q 1919 3838 1797 4031 
Q 1675 4225 1453 4225 
z
" transform="scale(0.015625)"/>
      <path id="DejaVuSans-Bold-63" d="M 3366 3391 
L 3366 2478 
Q 3138 2634 2908 2709 
Q 2678 2784 2431 2784 
Q 1963 2784 1702 2511 
Q 1441 2238 1441 1747 
Q 1441 1256 1702 982 
Q 1963 709 2431 709 
Q 2694 709 2930 787 
Q 3166 866 3366 1019 
L 3366 103 
Q 3103 6 2833 -42 
Q 2563 -91 2291 -91 
Q 1344 -91 809 395 
Q 275 881 275 1747 
Q 275 2613 809 3098 
Q 1344 3584 2291 3584 
Q 2566 3584 2833 3536 
Q 3100 3488 3366 3391 
z
" transform="scale(0.015625)"/>
      <path id="DejaVuSans-Bold-6f" d="M 2203 2784 
Q 1831 2784 1636 2517 
Q 1441 2250 1441 1747 
Q 1441 1244 1636 976 
Q 1831 709 2203 709 
Q 2569 709 2762 976 
Q 2956 1244 2956 1747 
Q 2956 2250 2762 2517 
Q 2569 2784 2203 2784 
z
M 2203 3584 
Q 3106 3584 3614 3096 
Q 4122 2609 4122 1747 
Q 4122 884 3614 396 
Q 3106 -91 2203 -91 
Q 1297 -91 786 396 
Q 275 884 275 1747 
Q 275 2609 786 3096 
Q 1297 3584 2203 3584 
z
" transform="scale(0.015625)"/>
      <path id="DejaVuSans-Bold-6d" d="M 3781 2919 
Q 3994 3244 4286 3414 
Q 4578 3584 4928 3584 
Q 5531 3584 5847 3212 
Q 6163 2841 6163 2131 
L 6163 0 
L 5038 0 
L 5038 1825 
Q 5041 1866 5042 1909 
Q 5044 1953 5044 2034 
Q 5044 2406 4934 2573 
Q 4825 2741 4581 2741 
Q 4263 2741 4089 2478 
Q 3916 2216 3909 1719 
L 3909 0 
L 2784 0 
L 2784 1825 
Q 2784 2406 2684 2573 
Q 2584 2741 2328 2741 
Q 2006 2741 1831 2477 
Q 1656 2213 1656 1722 
L 1656 0 
L 531 0 
L 531 3500 
L 1656 3500 
L 1656 2988 
Q 1863 3284 2130 3434 
Q 2397 3584 2719 3584 
Q 3081 3584 3359 3409 
Q 3638 3234 3781 2919 
z
" transform="scale(0.015625)"/>
      <path id="DejaVuSans-Bold-70" d="M 1656 506 
L 1656 -1331 
L 538 -1331 
L 538 3500 
L 1656 3500 
L 1656 2988 
Q 1888 3294 2169 3439 
Q 2450 3584 2816 3584 
Q 3463 3584 3878 3070 
Q 4294 2556 4294 1747 
Q 4294 938 3878 423 
Q 3463 -91 2816 -91 
Q 2450 -91 2169 54 
Q 1888 200 1656 506 
z
M 2400 2772 
Q 2041 2772 1848 2508 
Q 1656 2244 1656 1747 
Q 1656 1250 1848 986 
Q 2041 722 2400 722 
Q 2759 722 2948 984 
Q 3138 1247 3138 1747 
Q 3138 2247 2948 2509 
Q 2759 2772 2400 2772 
z
" transform="scale(0.015625)"/>
      <path id="DejaVuSans-Bold-74" d="M 1759 4494 
L 1759 3500 
L 2913 3500 
L 2913 2700 
L 1759 2700 
L 1759 1216 
Q 1759 972 1856 886 
Q 1953 800 2241 800 
L 2816 800 
L 2816 0 
L 1856 0 
Q 1194 0 917 276 
Q 641 553 641 1216 
L 641 2700 
L 84 2700 
L 84 3500 
L 641 3500 
L 641 4494 
L 1759 4494 
z
" transform="scale(0.015625)"/>
     </defs>
     <use xlink:href="#DejaVuSans-Bold-39"/>
     <use xlink:href="#DejaVuSans-Bold-32" transform="translate(69.580078 0)"/>
     <use xlink:href="#DejaVuSans-Bold-25" transform="translate(139.160156 0)"/>
     <use xlink:href="#DejaVuSans-Bold-20" transform="translate(239.355469 0)"/>
     <use xlink:href="#DejaVuSans-Bold-63" transform="translate(274.169922 0)"/>
     <use xlink:href="#DejaVuSans-Bold-6f" transform="translate(333.447266 0)"/>
     <use xlink:href="#DejaVuSans-Bold-6d" transform="translate(402.148438 0)"/>
     <use xlink:href="#DejaVuSans-Bold-70" transform="translate(506.347656 0)"/>
     <use xlink:href="#DejaVuSans-Bold-6c" transform="translate(577.929688 0)"/>
     <use xlink:href="#DejaVuSans-Bold-69" transform="translate(612.207031 0)"/>
     <use xlink:href="#DejaVuSans-Bold-61" transform="translate(646.484375 0)"/>
     <use xlink:href="#DejaVuSans-Bold-6e" transform="translate(713.964844 0)"/>
     <use xlink:href="#DejaVuSans-Bold-74" transform="translate(785.15625 0)"/>
    </g>
   </g>
  </g>
  <g id="axes_2">
   <g id="patch_35">
    <path d="M 396.07375 267.18 
L 704.38375 267.18 
L 704.38375 97.512 
L 396.07375 97.512 
z
" style="fill: #ffffff"/>
   </g>
   <g id="matplotlib.axis_3">
    <g id="xtick_8">
     <g id="line2d_23">
      <path d="M 396.07375 267.18 
L 396.07375 97.512 
" clip-path="url(#p58ab9f2162)" style="fill: none; stroke-dasharray: 1,1.65; stroke-dashoffset: 0; stroke: #b0b0b0; stroke-opacity: 0.6"/>
     </g>
     <g id="line2d_24"/>
     <g id="text_19">
      <!-- −30 -->
      <g style="fill: #262626" transform="translate(385.521406 278.278438) scale(0.1 -0.1)">
       <use xlink:href="#DejaVuSans-2212"/>
       <use xlink:href="#DejaVuSans-33" transform="translate(83.789062 0)"/>
       <use xlink:href="#DejaVuSans-30" transform="translate(147.412109 0)"/>
      </g>
     </g>
    </g>
    <g id="xtick_9">
     <g id="line2d_25">
      <path d="M 447.45875 267.18 
L 447.45875 97.512 
" clip-path="url(#p58ab9f2162)" style="fill: none; stroke-dasharray: 1,1.65; stroke-dashoffset: 0; stroke: #b0b0b0; stroke-opacity: 0.6"/>
     </g>
     <g id="line2d_26"/>
     <g id="text_20">
      <!-- −20 -->
      <g style="fill: #262626" transform="translate(436.906406 278.278438) scale(0.1 -0.1)">
       <use xlink:href="#DejaVuSans-2212"/>
       <use xlink:href="#DejaVuSans-32" transform="translate(83.789062 0)"/>
       <use xlink:href="#DejaVuSans-30" transform="translate(147.412109 0)"/>
      </g>
     </g>
    </g>
    <g id="xtick_10">
     <g id="line2d_27">
      <path d="M 498.84375 267.18 
L 498.84375 97.512 
" clip-path="url(#p58ab9f2162)" style="fill: none; stroke-dasharray: 1,1.65; stroke-dashoffset: 0; stroke: #b0b0b0; stroke-opacity: 0.6"/>
     </g>
     <g id="line2d_28"/>
     <g id="text_21">
      <!-- −10 -->
      <g style="fill: #262626" transform="translate(488.291406 278.278438) scale(0.1 -0.1)">
       <use xlink:href="#DejaVuSans-2212"/>
       <use xlink:href="#DejaVuSans-31" transform="translate(83.789062 0)"/>
       <use xlink:href="#DejaVuSans-30" transform="translate(147.412109 0)"/>
      </g>
     </g>
    </g>
    <g id="xtick_11">
     <g id="line2d_29">
      <path d="M 550.22875 267.18 
L 550.22875 97.512 
" clip-path="url(#p58ab9f2162)" style="fill: none; stroke-dasharray: 1,1.65; stroke-dashoffset: 0; stroke: #b0b0b0; stroke-opacity: 0.6"/>
     </g>
     <g id="line2d_30"/>
     <g id="text_22">
      <!-- 0 -->
      <g style="fill: #262626" transform="translate(547.0475 278.278438) scale(0.1 -0.1)">
       <use xlink:href="#DejaVuSans-30"/>
      </g>
     </g>
    </g>
    <g id="xtick_12">
     <g id="line2d_31">
      <path d="M 601.61375 267.18 
L 601.61375 97.512 
" clip-path="url(#p58ab9f2162)" style="fill: none; stroke-dasharray: 1,1.65; stroke-dashoffset: 0; stroke: #b0b0b0; stroke-opacity: 0.6"/>
     </g>
     <g id="line2d_32"/>
     <g id="text_23">
      <!-- 10 -->
      <g style="fill: #262626" transform="translate(595.25125 278.278438) scale(0.1 -0.1)">
       <use xlink:href="#DejaVuSans-31"/>
       <use xlink:href="#DejaVuSans-30" transform="translate(63.623047 0)"/>
      </g>
     </g>
    </g>
    <g id="xtick_13">
     <g id="line2d_33">
      <path d="M 652.99875 267.18 
L 652.99875 97.512 
" clip-path="url(#p58ab9f2162)" style="fill: none; stroke-dasharray: 1,1.65; stroke-dashoffset: 0; stroke: #b0b0b0; stroke-opacity: 0.6"/>
     </g>
     <g id="line2d_34"/>
     <g id="text_24">
      <!-- 20 -->
      <g style="fill: #262626" transform="translate(646.63625 278.278438) scale(0.1 -0.1)">
       <use xlink:href="#DejaVuSans-32"/>
       <use xlink:href="#DejaVuSans-30" transform="translate(63.623047 0)"/>
      </g>
     </g>
    </g>
    <g id="xtick_14">
     <g id="line2d_35">
      <path d="M 704.38375 267.18 
L 704.38375 97.512 
" clip-path="url(#p58ab9f2162)" style="fill: none; stroke-dasharray: 1,1.65; stroke-dashoffset: 0; stroke: #b0b0b0; stroke-opacity: 0.6"/>
     </g>
     <g id="line2d_36"/>
     <g id="text_25">
      <!-- 30 -->
      <g style="fill: #262626" transform="translate(698.02125 278.278438) scale(0.1 -0.1)">
       <use xlink:href="#DejaVuSans-33"/>
       <use xlink:href="#DejaVuSans-30" transform="translate(63.623047 0)"/>
      </g>
     </g>
    </g>
    <g id="text_26">
     <!-- final_conf − min_step_conf (%) -->
     <g style="fill: #262626" transform="translate(457.109688 293.47625) scale(0.12 -0.12)">
      <use xlink:href="#DejaVuSans-66"/>
      <use xlink:href="#DejaVuSans-69" transform="translate(35.205078 0)"/>
      <use xlink:href="#DejaVuSans-6e" transform="translate(62.988281 0)"/>
      <use xlink:href="#DejaVuSans-61" transform="translate(126.367188 0)"/>
      <use xlink:href="#DejaVuSans-6c" transform="translate(187.646484 0)"/>
      <use xlink:href="#DejaVuSans-5f" transform="translate(215.429688 0)"/>
      <use xlink:href="#DejaVuSans-63" transform="translate(265.429688 0)"/>
      <use xlink:href="#DejaVuSans-6f" transform="translate(320.410156 0)"/>
      <use xlink:href="#DejaVuSans-6e" transform="translate(381.591797 0)"/>
      <use xlink:href="#DejaVuSans-66" transform="translate(444.970703 0)"/>
      <use xlink:href="#DejaVuSans-20" transform="translate(480.175781 0)"/>
      <use xlink:href="#DejaVuSans-2212" transform="translate(511.962891 0)"/>
      <use xlink:href="#DejaVuSans-20" transform="translate(595.751953 0)"/>
      <use xlink:href="#DejaVuSans-6d" transform="translate(627.539062 0)"/>
      <use xlink:href="#DejaVuSans-69" transform="translate(724.951172 0)"/>
      <use xlink:href="#DejaVuSans-6e" transform="translate(752.734375 0)"/>
      <use xlink:href="#DejaVuSans-5f" transform="translate(816.113281 0)"/>
      <use xlink:href="#DejaVuSans-73" transform="translate(866.113281 0)"/>
      <use xlink:href="#DejaVuSans-74" transform="translate(918.212891 0)"/>
      <use xlink:href="#DejaVuSans-65" transform="translate(957.421875 0)"/>
      <use xlink:href="#DejaVuSans-70" transform="translate(1018.945312 0)"/>
      <use xlink:href="#DejaVuSans-5f" transform="translate(1082.421875 0)"/>
      <use xlink:href="#DejaVuSans-63" transform="translate(1132.421875 0)"/>
      <use xlink:href="#DejaVuSans-6f" transform="translate(1187.402344 0)"/>
      <use xlink:href="#DejaVuSans-6e" transform="translate(1248.583984 0)"/>
      <use xlink:href="#DejaVuSans-66" transform="translate(1311.962891 0)"/>
      <use xlink:href="#DejaVuSans-20" transform="translate(1347.167969 0)"/>
      <use xlink:href="#DejaVuSans-28" transform="translate(1378.955078 0)"/>
      <use xlink:href="#DejaVuSans-25" transform="translate(1417.96875 0)"/>
      <use xlink:href="#DejaVuSans-29" transform="translate(1512.988281 0)"/>
     </g>
    </g>
   </g>
   <g id="matplotlib.axis_4">
    <g id="ytick_8">
     <g id="line2d_37">
      <path d="M 396.07375 267.18 
L 704.38375 267.18 
" clip-path="url(#p58ab9f2162)" style="fill: none; stroke-dasharray: 1,1.65; stroke-dashoffset: 0; stroke: #b0b0b0; stroke-opacity: 0.6"/>
     </g>
    </g>
    <g id="ytick_9">
     <g id="line2d_38">
      <path d="M 396.07375 240.828309 
L 704.38375 240.828309 
" clip-path="url(#p58ab9f2162)" style="fill: none; stroke-dasharray: 1,1.65; stroke-dashoffset: 0; stroke: #b0b0b0; stroke-opacity: 0.6"/>
     </g>
    </g>
    <g id="ytick_10">
     <g id="line2d_39">
      <path d="M 396.07375 214.476617 
L 704.38375 214.476617 
" clip-path="url(#p58ab9f2162)" style="fill: none; stroke-dasharray: 1,1.65; stroke-dashoffset: 0; stroke: #b0b0b0; stroke-opacity: 0.6"/>
     </g>
    </g>
    <g id="ytick_11">
     <g id="line2d_40">
      <path d="M 396.07375 188.124926 
L 704.38375 188.124926 
" clip-path="url(#p58ab9f2162)" style="fill: none; stroke-dasharray: 1,1.65; stroke-dashoffset: 0; stroke: #b0b0b0; stroke-opacity: 0.6"/>
     </g>
    </g>
    <g id="ytick_12">
     <g id="line2d_41">
      <path d="M 396.07375 161.773235 
L 704.38375 161.773235 
" clip-path="url(#p58ab9f2162)" style="fill: none; stroke-dasharray: 1,1.65; stroke-dashoffset: 0; stroke: #b0b0b0; stroke-opacity: 0.6"/>
     </g>
    </g>
    <g id="ytick_13">
     <g id="line2d_42">
      <path d="M 396.07375 135.421543 
L 704.38375 135.421543 
" clip-path="url(#p58ab9f2162)" style="fill: none; stroke-dasharray: 1,1.65; stroke-dashoffset: 0; stroke: #b0b0b0; stroke-opacity: 0.6"/>
     </g>
    </g>
    <g id="ytick_14">
     <g id="line2d_43">
      <path d="M 396.07375 109.069852 
L 704.38375 109.069852 
" clip-path="url(#p58ab9f2162)" style="fill: none; stroke-dasharray: 1,1.65; stroke-dashoffset: 0; stroke: #b0b0b0; stroke-opacity: 0.6"/>
     </g>
    </g>
   </g>
   <g id="patch_36">
    <path d="M 396.07375 267.18 
L 406.35075 267.18 
L 406.35075 267.18 
L 396.07375 267.18 
z
" clip-path="url(#p58ab9f2162)" style="fill: #3b82f6; opacity: 0.9; stroke: #ffffff; stroke-width: 0.5; stroke-linejoin: miter"/>
   </g>
   <g id="patch_37">
    <path d="M 406.35075 267.18 
L 416.62775 267.18 
L 416.62775 267.18 
L 406.35075 267.18 
z
" clip-path="url(#p58ab9f2162)" style="fill: #3b82f6; opacity: 0.9; stroke: #ffffff; stroke-width: 0.5; stroke-linejoin: miter"/>
   </g>
   <g id="patch_38">
    <path d="M 416.62775 267.18 
L 426.90475 267.18 
L 426.90475 267.127297 
L 416.62775 267.127297 
z
" clip-path="url(#p58ab9f2162)" style="fill: #3b82f6; opacity: 0.9; stroke: #ffffff; stroke-width: 0.5; stroke-linejoin: miter"/>
   </g>
   <g id="patch_39">
    <path d="M 426.90475 267.18 
L 437.18175 267.18 
L 437.18175 267.18 
L 426.90475 267.18 
z
" clip-path="url(#p58ab9f2162)" style="fill: #3b82f6; opacity: 0.9; stroke: #ffffff; stroke-width: 0.5; stroke-linejoin: miter"/>
   </g>
   <g id="patch_40">
    <path d="M 437.18175 267.18 
L 447.45875 267.18 
L 447.45875 267.18 
L 437.18175 267.18 
z
" clip-path="url(#p58ab9f2162)" style="fill: #3b82f6; opacity: 0.9; stroke: #ffffff; stroke-width: 0.5; stroke-linejoin: miter"/>
   </g>
   <g id="patch_41">
    <path d="M 447.45875 267.18 
L 457.73575 267.18 
L 457.73575 267.18 
L 447.45875 267.18 
z
" clip-path="url(#p58ab9f2162)" style="fill: #3b82f6; opacity: 0.9; stroke: #ffffff; stroke-width: 0.5; stroke-linejoin: miter"/>
   </g>
   <g id="patch_42">
    <path d="M 457.73575 267.18 
L 468.01275 267.18 
L 468.01275 267.18 
L 457.73575 267.18 
z
" clip-path="url(#p58ab9f2162)" style="fill: #3b82f6; opacity: 0.9; stroke: #ffffff; stroke-width: 0.5; stroke-linejoin: miter"/>
   </g>
   <g id="patch_43">
    <path d="M 468.01275 267.18 
L 478.28975 267.18 
L 478.28975 267.074593 
L 468.01275 267.074593 
z
" clip-path="url(#p58ab9f2162)" style="fill: #3b82f6; opacity: 0.9; stroke: #ffffff; stroke-width: 0.5; stroke-linejoin: miter"/>
   </g>
   <g id="patch_44">
    <path d="M 478.28975 267.18 
L 488.56675 267.18 
L 488.56675 267.127297 
L 478.28975 267.127297 
z
" clip-path="url(#p58ab9f2162)" style="fill: #3b82f6; opacity: 0.9; stroke: #ffffff; stroke-width: 0.5; stroke-linejoin: miter"/>
   </g>
   <g id="patch_45">
    <path d="M 488.56675 267.18 
L 498.84375 267.18 
L 498.84375 267.074593 
L 488.56675 267.074593 
z
" clip-path="url(#p58ab9f2162)" style="fill: #3b82f6; opacity: 0.9; stroke: #ffffff; stroke-width: 0.5; stroke-linejoin: miter"/>
   </g>
   <g id="patch_46">
    <path d="M 498.84375 267.18 
L 509.12075 267.18 
L 509.12075 265.967822 
L 498.84375 265.967822 
z
" clip-path="url(#p58ab9f2162)" style="fill: #3b82f6; opacity: 0.9; stroke: #ffffff; stroke-width: 0.5; stroke-linejoin: miter"/>
   </g>
   <g id="patch_47">
    <path d="M 509.12075 267.18 
L 519.39775 267.18 
L 519.39775 267.18 
L 509.12075 267.18 
z
" clip-path="url(#p58ab9f2162)" style="fill: #3b82f6; opacity: 0.9; stroke: #ffffff; stroke-width: 0.5; stroke-linejoin: miter"/>
   </g>
   <g id="patch_48">
    <path d="M 519.39775 267.18 
L 529.67475 267.18 
L 529.67475 261.698848 
L 519.39775 261.698848 
z
" clip-path="url(#p58ab9f2162)" style="fill: #3b82f6; opacity: 0.9; stroke: #ffffff; stroke-width: 0.5; stroke-linejoin: miter"/>
   </g>
   <g id="patch_49">
    <path d="M 529.67475 267.18 
L 539.95175 267.18 
L 539.95175 266.758373 
L 529.67475 266.758373 
z
" clip-path="url(#p58ab9f2162)" style="fill: #3b82f6; opacity: 0.9; stroke: #ffffff; stroke-width: 0.5; stroke-linejoin: miter"/>
   </g>
   <g id="patch_50">
    <path d="M 539.95175 267.18 
L 550.22875 267.18 
L 550.22875 266.969186 
L 539.95175 266.969186 
z
" clip-path="url(#p58ab9f2162)" style="fill: #3b82f6; opacity: 0.9; stroke: #ffffff; stroke-width: 0.5; stroke-linejoin: miter"/>
   </g>
   <g id="patch_51">
    <path d="M 550.22875 267.18 
L 560.50575 267.18 
L 560.50575 105.591429 
L 550.22875 105.591429 
z
" clip-path="url(#p58ab9f2162)" style="fill: #3b82f6; opacity: 0.9; stroke: #ffffff; stroke-width: 0.5; stroke-linejoin: miter"/>
   </g>
   <g id="patch_52">
    <path d="M 560.50575 267.18 
L 570.78275 267.18 
L 570.78275 266.442153 
L 560.50575 266.442153 
z
" clip-path="url(#p58ab9f2162)" style="fill: #3b82f6; opacity: 0.9; stroke: #ffffff; stroke-width: 0.5; stroke-linejoin: miter"/>
   </g>
   <g id="patch_53">
    <path d="M 570.78275 267.18 
L 581.05975 267.18 
L 581.05975 259.432603 
L 570.78275 259.432603 
z
" clip-path="url(#p58ab9f2162)" style="fill: #3b82f6; opacity: 0.9; stroke: #ffffff; stroke-width: 0.5; stroke-linejoin: miter"/>
   </g>
   <g id="patch_54">
    <path d="M 581.05975 267.18 
L 591.33675 267.18 
L 591.33675 266.916483 
L 581.05975 266.916483 
z
" clip-path="url(#p58ab9f2162)" style="fill: #3b82f6; opacity: 0.9; stroke: #ffffff; stroke-width: 0.5; stroke-linejoin: miter"/>
   </g>
   <g id="patch_55">
    <path d="M 591.33675 267.18 
L 601.61375 267.18 
L 601.61375 264.492127 
L 591.33675 264.492127 
z
" clip-path="url(#p58ab9f2162)" style="fill: #3b82f6; opacity: 0.9; stroke: #ffffff; stroke-width: 0.5; stroke-linejoin: miter"/>
   </g>
   <g id="patch_56">
    <path d="M 601.61375 267.18 
L 611.89075 267.18 
L 611.89075 266.916483 
L 601.61375 266.916483 
z
" clip-path="url(#p58ab9f2162)" style="fill: #3b82f6; opacity: 0.9; stroke: #ffffff; stroke-width: 0.5; stroke-linejoin: miter"/>
   </g>
   <g id="patch_57">
    <path d="M 611.89075 267.18 
L 622.16775 267.18 
L 622.16775 267.127297 
L 611.89075 267.127297 
z
" clip-path="url(#p58ab9f2162)" style="fill: #3b82f6; opacity: 0.9; stroke: #ffffff; stroke-width: 0.5; stroke-linejoin: miter"/>
   </g>
   <g id="patch_58">
    <path d="M 622.16775 267.18 
L 632.44475 267.18 
L 632.44475 266.70567 
L 622.16775 266.70567 
z
" clip-path="url(#p58ab9f2162)" style="fill: #3b82f6; opacity: 0.9; stroke: #ffffff; stroke-width: 0.5; stroke-linejoin: miter"/>
   </g>
   <g id="patch_59">
    <path d="M 632.44475 267.18 
L 642.72175 267.18 
L 642.72175 267.18 
L 632.44475 267.18 
z
" clip-path="url(#p58ab9f2162)" style="fill: #3b82f6; opacity: 0.9; stroke: #ffffff; stroke-width: 0.5; stroke-linejoin: miter"/>
   </g>
   <g id="patch_60">
    <path d="M 642.72175 267.18 
L 652.99875 267.18 
L 652.99875 267.18 
L 642.72175 267.18 
z
" clip-path="url(#p58ab9f2162)" style="fill: #3b82f6; opacity: 0.9; stroke: #ffffff; stroke-width: 0.5; stroke-linejoin: miter"/>
   </g>
   <g id="patch_61">
    <path d="M 652.99875 267.18 
L 663.27575 267.18 
L 663.27575 267.074593 
L 652.99875 267.074593 
z
" clip-path="url(#p58ab9f2162)" style="fill: #3b82f6; opacity: 0.9; stroke: #ffffff; stroke-width: 0.5; stroke-linejoin: miter"/>
   </g>
   <g id="patch_62">
    <path d="M 663.27575 267.18 
L 673.55275 267.18 
L 673.55275 267.18 
L 663.27575 267.18 
z
" clip-path="url(#p58ab9f2162)" style="fill: #3b82f6; opacity: 0.9; stroke: #ffffff; stroke-width: 0.5; stroke-linejoin: miter"/>
   </g>
   <g id="patch_63">
    <path d="M 673.55275 267.18 
L 683.82975 267.18 
L 683.82975 266.916483 
L 673.55275 266.916483 
z
" clip-path="url(#p58ab9f2162)" style="fill: #3b82f6; opacity: 0.9; stroke: #ffffff; stroke-width: 0.5; stroke-linejoin: miter"/>
   </g>
   <g id="patch_64">
    <path d="M 683.82975 267.18 
L 694.10675 267.18 
L 694.10675 267.18 
L 683.82975 267.18 
z
" clip-path="url(#p58ab9f2162)" style="fill: #3b82f6; opacity: 0.9; stroke: #ffffff; stroke-width: 0.5; stroke-linejoin: miter"/>
   </g>
   <g id="patch_65">
    <path d="M 694.10675 267.18 
L 704.38375 267.18 
L 704.38375 267.127297 
L 694.10675 267.127297 
z
" clip-path="url(#p58ab9f2162)" style="fill: #3b82f6; opacity: 0.9; stroke: #ffffff; stroke-width: 0.5; stroke-linejoin: miter"/>
   </g>
   <g id="patch_66">
    <path d="M 550.22875 267.18 
L 704.38375 267.18 
L 704.38375 97.512 
L 550.22875 97.512 
z
" clip-path="url(#p58ab9f2162)" style="fill: #ef4444; opacity: 0.1; stroke: #ef4444; stroke-linejoin: miter"/>
   </g>
   <g id="line2d_44">
    <path d="M 550.22875 267.18 
L 550.22875 97.512 
" clip-path="url(#p58ab9f2162)" style="fill: none; stroke-dasharray: 7.4,3.2; stroke-dashoffset: 0; stroke: #ef4444; stroke-width: 2"/>
   </g>
   <g id="patch_67">
    <path d="M 396.07375 267.18 
L 704.38375 267.18 
" style="fill: none; stroke: #cccccc; stroke-width: 1.2; stroke-linejoin: miter; stroke-linecap: square"/>
   </g>
   <g id="text_27">
    <!-- Calibrated (Brier + Consistency) -->
    <g style="fill: #262626" transform="translate(396.07375 66.725688) scale(0.14 -0.14)">
     <defs>
      <path id="DejaVuSans-Bold-43" d="M 4288 256 
Q 3956 84 3597 -3 
Q 3238 -91 2847 -91 
Q 1681 -91 1000 561 
Q 319 1213 319 2328 
Q 319 3447 1000 4098 
Q 1681 4750 2847 4750 
Q 3238 4750 3597 4662 
Q 3956 4575 4288 4403 
L 4288 3438 
Q 3953 3666 3628 3772 
Q 3303 3878 2944 3878 
Q 2300 3878 1931 3465 
Q 1563 3053 1563 2328 
Q 1563 1606 1931 1193 
Q 2300 781 2944 781 
Q 3303 781 3628 887 
Q 3953 994 4288 1222 
L 4288 256 
z
" transform="scale(0.015625)"/>
      <path id="DejaVuSans-Bold-62" d="M 2400 722 
Q 2759 722 2948 984 
Q 3138 1247 3138 1747 
Q 3138 2247 2948 2509 
Q 2759 2772 2400 2772 
Q 2041 2772 1848 2508 
Q 1656 2244 1656 1747 
Q 1656 1250 1848 986 
Q 2041 722 2400 722 
z
M 1656 2988 
Q 1888 3294 2169 3439 
Q 2450 3584 2816 3584 
Q 3463 3584 3878 3070 
Q 4294 2556 4294 1747 
Q 4294 938 3878 423 
Q 3463 -91 2816 -91 
Q 2450 -91 2169 54 
Q 1888 200 1656 506 
L 1656 0 
L 538 0 
L 538 4863 
L 1656 4863 
L 1656 2988 
z
" transform="scale(0.015625)"/>
      <path id="DejaVuSans-Bold-2b" d="M 3053 4013 
L 3053 2375 
L 4684 2375 
L 4684 1638 
L 3053 1638 
L 3053 0 
L 2309 0 
L 2309 1638 
L 678 1638 
L 678 2375 
L 2309 2375 
L 2309 4013 
L 3053 4013 
z
" transform="scale(0.015625)"/>
     </defs>
     <use xlink:href="#DejaVuSans-Bold-43"/>
     <use xlink:href="#DejaVuSans-Bold-61" transform="translate(73.388672 0)"/>
     <use xlink:href="#DejaVuSans-Bold-6c" transform="translate(140.869141 0)"/>
     <use xlink:href="#DejaVuSans-Bold-69" transform="translate(175.146484 0)"/>
     <use xlink:href="#DejaVuSans-Bold-62" transform="translate(209.423828 0)"/>
     <use xlink:href="#DejaVuSans-Bold-72" transform="translate(281.005859 0)"/>
     <use xlink:href="#DejaVuSans-Bold-61" transform="translate(330.322266 0)"/>
     <use xlink:href="#DejaVuSans-Bold-74" transform="translate(397.802734 0)"/>
     <use xlink:href="#DejaVuSans-Bold-65" transform="translate(445.605469 0)"/>
     <use xlink:href="#DejaVuSans-Bold-64" transform="translate(513.427734 0)"/>
     <use xlink:href="#DejaVuSans-Bold-20" transform="translate(585.009766 0)"/>
     <use xlink:href="#DejaVuSans-Bold-28" transform="translate(619.824219 0)"/>
     <use xlink:href="#DejaVuSans-Bold-42" transform="translate(665.527344 0)"/>
     <use xlink:href="#DejaVuSans-Bold-72" transform="translate(741.748047 0)"/>
     <use xlink:href="#DejaVuSans-Bold-69" transform="translate(791.064453 0)"/>
     <use xlink:href="#DejaVuSans-Bold-65" transform="translate(825.341797 0)"/>
     <use xlink:href="#DejaVuSans-Bold-72" transform="translate(893.164062 0)"/>
     <use xlink:href="#DejaVuSans-Bold-20" transform="translate(942.480469 0)"/>
     <use xlink:href="#DejaVuSans-Bold-2b" transform="translate(977.294922 0)"/>
     <use xlink:href="#DejaVuSans-Bold-20" transform="translate(1061.083984 0)"/>
     <use xlink:href="#DejaVuSans-Bold-43" transform="translate(1095.898438 0)"/>
     <use xlink:href="#DejaVuSans-Bold-6f" transform="translate(1169.287109 0)"/>
     <use xlink:href="#DejaVuSans-Bold-6e" transform="translate(1237.988281 0)"/>
     <use xlink:href="#DejaVuSans-Bold-73" transform="translate(1309.179688 0)"/>
     <use xlink:href="#DejaVuSans-Bold-69" transform="translate(1368.701172 0)"/>
     <use xlink:href="#DejaVuSans-Bold-73" transform="translate(1402.978516 0)"/>
     <use xlink:href="#DejaVuSans-Bold-74" transform="translate(1462.5 0)"/>
     <use xlink:href="#DejaVuSans-Bold-65" transform="translate(1510.302734 0)"/>
     <use xlink:href="#DejaVuSans-Bold-6e" transform="translate(1578.125 0)"/>
     <use xlink:href="#DejaVuSans-Bold-63" transform="translate(1649.316406 0)"/>
     <use xlink:href="#DejaVuSans-Bold-79" transform="translate(1708.59375 0)"/>
     <use xlink:href="#DejaVuSans-Bold-29" transform="translate(1773.779297 0)"/>
    </g>
    <!-- 93% compliant -->
    <g style="fill: #262626" transform="translate(396.07375 82.512) scale(0.14 -0.14)">
     <defs>
      <path id="DejaVuSans-Bold-33" d="M 2981 2516 
Q 3453 2394 3698 2092 
Q 3944 1791 3944 1325 
Q 3944 631 3412 270 
Q 2881 -91 1863 -91 
Q 1503 -91 1142 -33 
Q 781 25 428 141 
L 428 1069 
Q 766 900 1098 814 
Q 1431 728 1753 728 
Q 2231 728 2486 893 
Q 2741 1059 2741 1369 
Q 2741 1688 2480 1852 
Q 2219 2016 1709 2016 
L 1228 2016 
L 1228 2791 
L 1734 2791 
Q 2188 2791 2409 2933 
Q 2631 3075 2631 3366 
Q 2631 3634 2415 3781 
Q 2200 3928 1806 3928 
Q 1516 3928 1219 3862 
Q 922 3797 628 3669 
L 628 4550 
Q 984 4650 1334 4700 
Q 1684 4750 2022 4750 
Q 2931 4750 3382 4451 
Q 3834 4153 3834 3553 
Q 3834 3144 3618 2883 
Q 3403 2622 2981 2516 
z
" transform="scale(0.015625)"/>
     </defs>
     <use xlink:href="#DejaVuSans-Bold-39"/>
     <use xlink:href="#DejaVuSans-Bold-33" transform="translate(69.580078 0)"/>
     <use xlink:href="#DejaVuSans-Bold-25" transform="translate(139.160156 0)"/>
     <use xlink:href="#DejaVuSans-Bold-20" transform="translate(239.355469 0)"/>
     <use xlink:href="#DejaVuSans-Bold-63" transform="translate(274.169922 0)"/>
     <use xlink:href="#DejaVuSans-Bold-6f" transform="translate(333.447266 0)"/>
     <use xlink:href="#DejaVuSans-Bold-6d" transform="translate(402.148438 0)"/>
     <use xlink:href="#DejaVuSans-Bold-70" transform="translate(506.347656 0)"/>
     <use xlink:href="#DejaVuSans-Bold-6c" transform="translate(577.929688 0)"/>
     <use xlink:href="#DejaVuSans-Bold-69" transform="translate(612.207031 0)"/>
     <use xlink:href="#DejaVuSans-Bold-61" transform="translate(646.484375 0)"/>
     <use xlink:href="#DejaVuSans-Bold-6e" transform="translate(713.964844 0)"/>
     <use xlink:href="#DejaVuSans-Bold-74" transform="translate(785.15625 0)"/>
    </g>
   </g>
  </g>
  <g id="text_28">
   <!-- Weakest-Link Compliance: Does Final Confidence Respect Min Step Confidence? -->
   <g style="fill: #262626" transform="translate(69.208672 24.277969) scale(0.13 -0.13)">
    <defs>
     <path id="DejaVuSans-Bold-57" d="M 191 4666 
L 1344 4666 
L 2150 1275 
L 2950 4666 
L 4109 4666 
L 4909 1275 
L 5716 4666 
L 6859 4666 
L 5759 0 
L 4372 0 
L 3525 3547 
L 2688 0 
L 1300 0 
L 191 4666 
z
" transform="scale(0.015625)"/>
     <path id="DejaVuSans-Bold-6b" d="M 538 4863 
L 1656 4863 
L 1656 2216 
L 2944 3500 
L 4244 3500 
L 2534 1894 
L 4378 0 
L 3022 0 
L 1656 1459 
L 1656 0 
L 538 0 
L 538 4863 
z
" transform="scale(0.015625)"/>
     <path id="DejaVuSans-Bold-2d" d="M 347 2297 
L 2309 2297 
L 2309 1388 
L 347 1388 
L 347 2297 
z
" transform="scale(0.015625)"/>
     <path id="DejaVuSans-Bold-4c" d="M 588 4666 
L 1791 4666 
L 1791 909 
L 3903 909 
L 3903 0 
L 588 0 
L 588 4666 
z
" transform="scale(0.015625)"/>
     <path id="DejaVuSans-Bold-3a" d="M 716 3500 
L 1844 3500 
L 1844 2291 
L 716 2291 
L 716 3500 
z
M 716 1209 
L 1844 1209 
L 1844 0 
L 716 0 
L 716 1209 
z
" transform="scale(0.015625)"/>
     <path id="DejaVuSans-Bold-44" d="M 1791 3756 
L 1791 909 
L 2222 909 
Q 2959 909 3348 1275 
Q 3738 1641 3738 2338 
Q 3738 3031 3350 3393 
Q 2963 3756 2222 3756 
L 1791 3756 
z
M 588 4666 
L 1856 4666 
Q 2919 4666 3439 4514 
Q 3959 4363 4331 4000 
Q 4659 3684 4818 3271 
Q 4978 2859 4978 2338 
Q 4978 1809 4818 1395 
Q 4659 981 4331 666 
Q 3956 303 3431 151 
Q 2906 0 1856 0 
L 588 0 
L 588 4666 
z
" transform="scale(0.015625)"/>
     <path id="DejaVuSans-Bold-46" d="M 588 4666 
L 3834 4666 
L 3834 3756 
L 1791 3756 
L 1791 2888 
L 3713 2888 
L 3713 1978 
L 1791 1978 
L 1791 0 
L 588 0 
L 588 4666 
z
" transform="scale(0.015625)"/>
     <path id="DejaVuSans-Bold-66" d="M 2841 4863 
L 2841 4128 
L 2222 4128 
Q 1984 4128 1890 4042 
Q 1797 3956 1797 3744 
L 1797 3500 
L 2753 3500 
L 2753 2700 
L 1797 2700 
L 1797 0 
L 678 0 
L 678 2700 
L 122 2700 
L 122 3500 
L 678 3500 
L 678 3744 
Q 678 4316 997 4589 
Q 1316 4863 1984 4863 
L 2841 4863 
z
" transform="scale(0.015625)"/>
     <path id="DejaVuSans-Bold-4d" d="M 588 4666 
L 2119 4666 
L 3181 2169 
L 4250 4666 
L 5778 4666 
L 5778 0 
L 4641 0 
L 4641 3413 
L 3566 897 
L 2803 897 
L 1728 3413 
L 1728 0 
L 588 0 
L 588 4666 
z
" transform="scale(0.015625)"/>
     <path id="DejaVuSans-Bold-53" d="M 3834 4519 
L 3834 3531 
Q 3450 3703 3084 3790 
Q 2719 3878 2394 3878 
Q 1963 3878 1756 3759 
Q 1550 3641 1550 3391 
Q 1550 3203 1689 3098 
Q 1828 2994 2194 2919 
L 2706 2816 
Q 3484 2659 3812 2340 
Q 4141 2022 4141 1434 
Q 4141 663 3683 286 
Q 3225 -91 2284 -91 
Q 1841 -91 1394 -6 
Q 947 78 500 244 
L 500 1259 
Q 947 1022 1364 901 
Q 1781 781 2169 781 
Q 2563 781 2772 912 
Q 2981 1044 2981 1288 
Q 2981 1506 2839 1625 
Q 2697 1744 2272 1838 
L 1806 1941 
Q 1106 2091 782 2419 
Q 459 2747 459 3303 
Q 459 4000 909 4375 
Q 1359 4750 2203 4750 
Q 2588 4750 2994 4692 
Q 3400 4634 3834 4519 
z
" transform="scale(0.015625)"/>
     <path id="DejaVuSans-Bold-3f" d="M 2216 1575 
L 1088 1575 
L 1088 1728 
Q 1088 1984 1191 2182 
Q 1294 2381 1625 2688 
L 1825 2869 
Q 2003 3031 2086 3175 
Q 2169 3319 2169 3463 
Q 2169 3681 2019 3804 
Q 1869 3928 1600 3928 
Q 1347 3928 1053 3823 
Q 759 3719 441 3513 
L 441 4494 
Q 819 4625 1131 4687 
Q 1444 4750 1734 4750 
Q 2497 4750 2897 4439 
Q 3297 4128 3297 3531 
Q 3297 3225 3175 2983 
Q 3053 2741 2759 2463 
L 2559 2284 
Q 2347 2091 2281 1973 
Q 2216 1856 2216 1716 
L 2216 1575 
z
M 1088 1113 
L 2216 1113 
L 2216 0 
L 1088 0 
L 1088 1113 
z
" transform="scale(0.015625)"/>
    </defs>
    <use xlink:href="#DejaVuSans-Bold-57"/>
    <use xlink:href="#DejaVuSans-Bold-65" transform="translate(106.677734 0)"/>
    <use xlink:href="#DejaVuSans-Bold-61" transform="translate(174.5 0)"/>
    <use xlink:href="#DejaVuSans-Bold-6b" transform="translate(241.980469 0)"/>
    <use xlink:href="#DejaVuSans-Bold-65" transform="translate(305.859375 0)"/>
    <use xlink:href="#DejaVuSans-Bold-73" transform="translate(373.681641 0)"/>
    <use xlink:href="#DejaVuSans-Bold-74" transform="translate(433.203125 0)"/>
    <use xlink:href="#DejaVuSans-Bold-2d" transform="translate(481.005859 0)"/>
    <use xlink:href="#DejaVuSans-Bold-4c" transform="translate(522.509766 0)"/>
    <use xlink:href="#DejaVuSans-Bold-69" transform="translate(586.230469 0)"/>
    <use xlink:href="#DejaVuSans-Bold-6e" transform="translate(620.507812 0)"/>
    <use xlink:href="#DejaVuSans-Bold-6b" transform="translate(691.699219 0)"/>
    <use xlink:href="#DejaVuSans-Bold-20" transform="translate(758.203125 0)"/>
    <use xlink:href="#DejaVuSans-Bold-43" transform="translate(793.017578 0)"/>
    <use xlink:href="#DejaVuSans-Bold-6f" transform="translate(866.40625 0)"/>
    <use xlink:href="#DejaVuSans-Bold-6d" transform="translate(935.107422 0)"/>
    <use xlink:href="#DejaVuSans-Bold-70" transform="translate(1039.306641 0)"/>
    <use xlink:href="#DejaVuSans-Bold-6c" transform="translate(1110.888672 0)"/>
    <use xlink:href="#DejaVuSans-Bold-69" transform="translate(1145.166016 0)"/>
    <use xlink:href="#DejaVuSans-Bold-61" transform="translate(1179.443359 0)"/>
    <use xlink:href="#DejaVuSans-Bold-6e" transform="translate(1246.923828 0)"/>
    <use xlink:href="#DejaVuSans-Bold-63" transform="translate(1318.115234 0)"/>
    <use xlink:href="#DejaVuSans-Bold-65" transform="translate(1377.392578 0)"/>
    <use xlink:href="#DejaVuSans-Bold-3a" transform="translate(1445.214844 0)"/>
    <use xlink:href="#DejaVuSans-Bold-20" transform="translate(1485.205078 0)"/>
    <use xlink:href="#DejaVuSans-Bold-44" transform="translate(1520.019531 0)"/>
    <use xlink:href="#DejaVuSans-Bold-6f" transform="translate(1603.027344 0)"/>
    <use xlink:href="#DejaVuSans-Bold-65" transform="translate(1671.728516 0)"/>
    <use xlink:href="#DejaVuSans-Bold-73" transform="translate(1739.550781 0)"/>
    <use xlink:href="#DejaVuSans-Bold-20" transform="translate(1799.072266 0)"/>
    <use xlink:href="#DejaVuSans-Bold-46" transform="translate(1833.886719 0)"/>
    <use xlink:href="#DejaVuSans-Bold-69" transform="translate(1902.197266 0)"/>
    <use xlink:href="#DejaVuSans-Bold-6e" transform="translate(1936.474609 0)"/>
    <use xlink:href="#DejaVuSans-Bold-61" transform="translate(2007.666016 0)"/>
    <use xlink:href="#DejaVuSans-Bold-6c" transform="translate(2075.146484 0)"/>
    <use xlink:href="#DejaVuSans-Bold-20" transform="translate(2109.423828 0)"/>
    <use xlink:href="#DejaVuSans-Bold-43" transform="translate(2144.238281 0)"/>
    <use xlink:href="#DejaVuSans-Bold-6f" transform="translate(2217.626953 0)"/>
    <use xlink:href="#DejaVuSans-Bold-6e" transform="translate(2286.328125 0)"/>
    <use xlink:href="#DejaVuSans-Bold-66" transform="translate(2357.519531 0)"/>
    <use xlink:href="#DejaVuSans-Bold-69" transform="translate(2401.025391 0)"/>
    <use xlink:href="#DejaVuSans-Bold-64" transform="translate(2435.302734 0)"/>
    <use xlink:href="#DejaVuSans-Bold-65" transform="translate(2506.884766 0)"/>
    <use xlink:href="#DejaVuSans-Bold-6e" transform="translate(2574.707031 0)"/>
    <use xlink:href="#DejaVuSans-Bold-63" transform="translate(2645.898438 0)"/>
    <use xlink:href="#DejaVuSans-Bold-65" transform="translate(2705.175781 0)"/>
    <use xlink:href="#DejaVuSans-Bold-20" transform="translate(2772.998047 0)"/>
    <use xlink:href="#DejaVuSans-Bold-52" transform="translate(2807.8125 0)"/>
    <use xlink:href="#DejaVuSans-Bold-65" transform="translate(2884.814453 0)"/>
    <use xlink:href="#DejaVuSans-Bold-73" transform="translate(2952.636719 0)"/>
    <use xlink:href="#DejaVuSans-Bold-70" transform="translate(3012.158203 0)"/>
    <use xlink:href="#DejaVuSans-Bold-65" transform="translate(3083.740234 0)"/>
    <use xlink:href="#DejaVuSans-Bold-63" transform="translate(3151.5625 0)"/>
    <use xlink:href="#DejaVuSans-Bold-74" transform="translate(3210.839844 0)"/>
    <use xlink:href="#DejaVuSans-Bold-20" transform="translate(3258.642578 0)"/>
    <use xlink:href="#DejaVuSans-Bold-4d" transform="translate(3293.457031 0)"/>
    <use xlink:href="#DejaVuSans-Bold-69" transform="translate(3392.96875 0)"/>
    <use xlink:href="#DejaVuSans-Bold-6e" transform="translate(3427.246094 0)"/>
    <use xlink:href="#DejaVuSans-Bold-20" transform="translate(3498.4375 0)"/>
    <use xlink:href="#DejaVuSans-Bold-53" transform="translate(3533.251953 0)"/>
    <use xlink:href="#DejaVuSans-Bold-74" transform="translate(3605.273438 0)"/>
    <use xlink:href="#DejaVuSans-Bold-65" transform="translate(3653.076172 0)"/>
    <use xlink:href="#DejaVuSans-Bold-70" transform="translate(3720.898438 0)"/>
    <use xlink:href="#DejaVuSans-Bold-20" transform="translate(3792.480469 0)"/>
    <use xlink:href="#DejaVuSans-Bold-43" transform="translate(3827.294922 0)"/>
    <use xlink:href="#DejaVuSans-Bold-6f" transform="translate(3900.683594 0)"/>
    <use xlink:href="#DejaVuSans-Bold-6e" transform="translate(3969.384766 0)"/>
    <use xlink:href="#DejaVuSans-Bold-66" transform="translate(4040.576172 0)"/>
    <use xlink:href="#DejaVuSans-Bold-69" transform="translate(4084.082031 0)"/>
    <use xlink:href="#DejaVuSans-Bold-64" transform="translate(4118.359375 0)"/>
    <use xlink:href="#DejaVuSans-Bold-65" transform="translate(4189.941406 0)"/>
    <use xlink:href="#DejaVuSans-Bold-6e" transform="translate(4257.763672 0)"/>
    <use xlink:href="#DejaVuSans-Bold-63" transform="translate(4328.955078 0)"/>
    <use xlink:href="#DejaVuSans-Bold-65" transform="translate(4388.232422 0)"/>
    <use xlink:href="#DejaVuSans-Bold-3f" transform="translate(4456.054688 0)"/>
   </g>
  </g>
 </g>
 <defs>
  <clipPath id="pa9397a0d91">
   <rect x="58.96375" y="97.512" width="308.31" height="169.668"/>
  </clipPath>
  <clipPath id="p58ab9f2162">
   <rect x="396.07375" y="97.512" width="308.31" height="169.668"/>
  </clipPath>
 </defs>
</svg>
